<?xml version="1.0" encoding="UTF-8"?> <!-- Generator: Adobe Illustrator 26.0.1, SVG Export Plug-In . SVG Version: 6.00 Build 0) --> <svg xmlns="http://www.w3.org/2000/svg" xmlns:xlink="http://www.w3.org/1999/xlink" version="1.1" id="Ebene_1" x="0px" y="0px" viewBox="0 0 447 108" style="enable-background:new 0 0 447 108;" xml:space="preserve"> <style type="text/css"> .st0{fill:#FFFFFF;} .st1{fill:#B5DDF7;} .st2{fill-rule:evenodd;clip-rule:evenodd;fill:#B5DDF7;} .st3{fill-rule:evenodd;clip-rule:evenodd;} </style> <g id="Kreise"> </g> <g id="Schriftzug"> </g> <g> <path class="st0" d="M54,105.71c28.558,0,51.71-23.152,51.71-51.71S82.558,2.291,54,2.291C25.442,2.29,2.291,25.442,2.291,54 S25.442,105.71,54,105.71L54,105.71z"></path> <path class="st1" d="M54,107.673C24.405,107.673,0.328,83.595,0.328,54S24.405,0.327,54,0.327S107.673,24.405,107.673,54 C107.672,83.595,83.595,107.673,54,107.673z M54,4.167C26.522,4.167,4.168,26.522,4.168,54S26.522,103.833,54,103.833 S103.832,81.478,103.832,54S81.477,4.167,54,4.167z"></path> <path d="M54,108C24.224,108,0,83.776,0,54S24.225,0,54,0c29.776,0,54,24.224,54,54S83.776,108,54,108z M54,0.64 C24.577,0.64,0.64,24.577,0.64,54s23.938,53.36,53.361,53.36s53.36-23.937,53.36-53.36S83.423,0.64,54,0.64z"></path> <polygon class="st2" points="82.323,46.277 62.708,46.277 62.708,26.661 43.606,26.661 43.606,46.277 23.99,46.277 23.99,65.379 43.606,65.379 43.606,84.994 62.708,84.994 62.708,65.379 82.323,65.379 "></polygon> <path class="st3" d="M63.086,45.898v-2.693c0,0,4.706-3.479,4.706-9.369s-5.263-9.285-11.605-9.314 c-5.499-0.025-8.922-4.137-6.986-7.136c1.174-1.819,4.584,0.797,7.103-6.514c0,0-3.194-0.709-6.321,0.638 c-3.726,1.605-2.692,2.852-3.947,5.128c-1.25,2.267-2.769,6.756,0.876,9.665h-3.688v10.892c0,0-5.226,1.904-5.412,8.704H23.631 v19.86h19.595v5.303c0,0-4.899,1.344-4.899,7.326c0,5.656,6.491,8.043,11.059,12.462c4.569,4.418,4.782,4.46,5.685,5.817 s1.61,2.23,1.229,0.076c-0.381-2.153-0.286-5.332-3.705-8.856c-0.894-0.922-1.768-1.756-2.603-2.529h13.079V75.263 c0,0,5.102-1.834,5.257-9.505h14.355v-19.86C82.683,45.898,63.086,45.898,63.086,45.898z M62.378,84.665h-13.14 c-2.447-2.225-4.444-3.897-5.319-5.507V65.066H24.324V46.59H37.81c0.297,6.86,9.3,10.331,11.7,11.376 c2.441,1.062,9.664,3.717,12.868,9.059C62.378,67.025,62.378,84.665,62.378,84.665z M81.99,65.066H68.324 c-0.382-6.631-11.276-11.076-17.269-13.899c-6.096-2.872-7.138-6.164-7.138-6.164V26.994h4.021c0.833,0.48,1.848,0.898,3.092,1.226 c8.599,2.272,9.061,2.558,11.364,5.957V46.59H81.99V65.066z"></path> </g> <g> <path d="M127.483,53.821l-4.95,10.879h-5.813l20.721-45.242L158.162,64.7h-5.813l-4.95-10.879H127.483z M137.441,31.315 l-7.713,17.556h15.426L137.441,31.315z"></path> <path d="M165.3,19.228l32.579,34.133V21.3h5.41v45.184L170.71,32.351V64.7h-5.41V19.228z"></path> <path d="M221.191,53.821l-4.95,10.879h-5.813l20.721-45.242L251.87,64.7h-5.814l-4.95-10.879H221.191z M231.149,31.315 l-7.713,17.556h15.426L231.149,31.315z"></path> <path d="M264.936,59.75h13.181v4.95h-18.592V21.3h5.411V59.75z"></path> <path d="M278.924,21.3h6.216l10.648,18.534L306.437,21.3h6.217l-14.159,24.52V64.7h-5.411V45.82L278.924,21.3z"></path> <path d="M332.111,64.7H326.7V26.25h-10.304V21.3h26.017v4.95h-10.302L332.111,64.7L332.111,64.7z"></path> <path d="M355.94,64.7h-5.41V21.3h5.41V64.7z"></path> <path d="M399.686,29.588c-3.108-2.763-7.368-4.259-11.454-4.259c-9.728,0-17.153,8.116-17.153,17.728 c0,9.498,7.368,17.613,17.038,17.613c4.259,0,8.346-1.612,11.569-4.49v6.389c-3.338,1.957-7.597,3.05-11.397,3.05 c-12.375,0-22.621-9.843-22.621-22.39c0-12.836,10.304-22.851,23.082-22.851c3.798,0,7.655,0.921,10.936,2.936L399.686,29.588 L399.686,29.588z"></path> <path d="M416.321,53.821l-4.95,10.879h-5.813l20.721-45.242L447,64.7h-5.813l-4.95-10.879H416.321z M426.279,31.315l-7.712,17.556 h15.425L426.279,31.315z"></path> <path d="M119.602,74.803l5.162,11.925l5.181-11.925l2.882,15.014h-1.62l-1.827-9.607h-0.038l-4.578,10.192l-4.559-10.192h-0.037 l-1.828,9.607h-1.62L119.602,74.803z"></path> <path d="M134.898,75.613h7.366v1.47h-5.783v4.22h5.614v1.469h-5.614v5.576h5.783v1.469h-7.366V75.613z"></path> <path d="M145.221,75.613h2.675c2.129,0,3.862,0.283,5.539,1.714c1.62,1.394,2.355,3.297,2.355,5.406c0,2.072-0.753,3.9-2.317,5.294 c-1.695,1.507-3.391,1.79-5.614,1.79h-2.637V75.613H145.221z M147.953,88.348c1.733,0,3.184-0.245,4.483-1.47 c1.168-1.093,1.771-2.581,1.771-4.163c0-1.62-0.622-3.184-1.846-4.257c-1.3-1.149-2.732-1.375-4.408-1.375h-1.149v11.265 C146.804,88.348,147.953,88.348,147.953,88.348z"></path> <path d="M159.877,89.817h-1.583V75.613h1.583V89.817z"></path> <path d="M172.028,88.348v1.469h-10.173l7.743-12.735h-6.763v-1.47h9.4l-7.761,12.735L172.028,88.348L172.028,88.348z"></path> <path d="M175.946,89.817h-1.583V75.613h1.583V89.817z"></path> <path d="M179.186,75.01l11.077,11.605V75.613h1.582v14.845l-11.077-11.586v10.945h-1.583L179.186,75.01L179.186,75.01z"></path> <path d="M196.687,89.817h-1.583V75.613h1.583V89.817z"></path> <path d="M206.275,78.382c-0.565-0.98-1.243-1.545-2.449-1.545c-1.262,0-2.355,0.904-2.355,2.204c0,1.225,1.262,1.79,2.223,2.223 l0.942,0.415c1.846,0.81,3.41,1.733,3.41,3.994c0,2.487-1.997,4.389-4.465,4.389c-2.28,0-3.975-1.469-4.427-3.674l1.545-0.433 c0.207,1.45,1.319,2.637,2.845,2.637s2.92-1.168,2.92-2.769c0-1.658-1.3-2.223-2.619-2.826l-0.866-0.377 c-1.658-0.754-3.089-1.601-3.089-3.636c0-2.204,1.865-3.617,3.975-3.617c1.582,0,2.92,0.81,3.674,2.204L206.275,78.382z"></path> <path d="M221.458,78.721c-1.13-1.168-2.694-1.884-4.333-1.884c-3.165,0-5.727,2.75-5.727,5.877s2.581,5.878,5.764,5.878 c1.601,0,3.165-0.754,4.295-1.884v1.959c-1.224,0.886-2.731,1.394-4.238,1.394c-4.012,0-7.404-3.259-7.404-7.29 c0-4.069,3.335-7.404,7.404-7.404c1.582,0,2.977,0.452,4.238,1.394v1.96H221.458z"></path> <path d="M233.327,81.378v-5.765h1.582v14.204h-1.582v-6.97h-7.272v6.97h-1.582V75.613h1.582v5.765H233.327z"></path> <path d="M238.111,75.613h7.366v1.47h-5.783v4.22h5.614v1.469h-5.614v5.576h5.783v1.469h-7.366V75.613z"></path> <path d="M256.082,88.348H260v1.469h-5.5V75.613h1.582V88.348z"></path> <path d="M263.956,85.786l-1.714,4.031h-1.733l6.555-14.882l6.386,14.882h-1.752l-1.677-4.031H263.956z M267.027,78.627l-2.43,5.689 h4.804L267.027,78.627z"></path> <path d="M275.26,75.613h2.335c2.581,0,4.748,0.942,4.748,3.843c0,1.149-0.434,2.129-1.394,2.769 c1.695,0.414,2.694,1.94,2.694,3.636c0,2.826-2.279,3.956-5.086,3.956h-3.296L275.26,75.613L275.26,75.613z M276.841,81.867h0.603 c1.789,0,3.315-0.207,3.315-2.411c0-2.148-1.356-2.374-3.296-2.374h-0.622V81.867z M276.841,88.348h1.583 c1.77,0,3.636-0.434,3.636-2.6c0-2.204-2.11-2.524-3.843-2.524h-1.376V88.348z"></path> <path d="M300.313,82.734c0,4.088-3.353,7.328-7.404,7.328c-4.049,0-7.403-3.24-7.403-7.328c0-4.069,3.353-7.366,7.403-7.366 C296.96,75.368,300.313,78.665,300.313,82.734z M287.089,82.715c0,3.203,2.6,5.878,5.821,5.878c3.222,0,5.822-2.675,5.822-5.878 c0-3.221-2.562-5.877-5.822-5.877C289.651,76.838,287.089,79.494,287.089,82.715z"></path> <path d="M304.307,89.817h-1.582V75.613h2.053c2.694,0,5.2,0.716,5.2,3.918c0,2.185-1.376,3.73-3.561,3.918l4.522,6.367h-1.94 l-4.295-6.235h-0.396v6.236H304.307z M304.307,82.187h0.49c1.79,0,3.598-0.339,3.598-2.543c0-2.336-1.714-2.562-3.617-2.562h-0.471 L304.307,82.187L304.307,82.187z"></path> <path d="M315.327,85.786l-1.715,4.031h-1.733l6.555-14.882l6.387,14.882h-1.752l-1.677-4.031H315.327z M318.397,78.627l-2.43,5.689 h4.804L318.397,78.627z"></path> <path d="M328.891,89.817h-1.583V77.082h-3.428v-1.47h8.477v1.47h-3.466L328.891,89.817L328.891,89.817z"></path> <path d="M348.332,82.734c0,4.088-3.353,7.328-7.404,7.328s-7.404-3.24-7.404-7.328c0-4.069,3.353-7.366,7.404-7.366 S348.332,78.665,348.332,82.734z M335.108,82.715c0,3.203,2.6,5.878,5.821,5.878s5.821-2.675,5.821-5.878 c0-3.221-2.562-5.877-5.821-5.877C337.669,76.838,335.108,79.494,335.108,82.715z"></path> <path d="M352.325,89.817h-1.583V75.613h2.054c2.694,0,5.199,0.716,5.199,3.918c0,2.185-1.374,3.73-3.561,3.918l4.521,6.367h-1.94 l-4.295-6.235h-0.395L352.325,89.817L352.325,89.817z M352.325,82.187h0.49c1.789,0,3.598-0.339,3.598-2.543 c0-2.336-1.714-2.562-3.617-2.562h-0.471L352.325,82.187L352.325,82.187z"></path> <path d="M362.836,89.817h-1.583V75.613h1.583V89.817z"></path> <path d="M365.982,75.613h7.365v1.47h-5.783v4.22h5.615v1.469h-5.615v5.576h5.783v1.469h-7.365V75.613z"></path> <path d="M376.4,75.01l11.077,11.605V75.613h1.582v14.845l-11.077-11.586v10.945H376.4V75.01z"></path> <path d="M400.475,85.786l-1.715,4.031h-1.733l6.555-14.882l6.387,14.882h-1.752l-1.677-4.031H400.475z M403.545,78.627l-2.43,5.689 h4.804L403.545,78.627z"></path> <path d="M424.983,82.677c0.037,1.921-0.17,3.504-1.469,5.011c-1.301,1.507-3.278,2.374-5.256,2.374 c-3.994,0-7.309-3.316-7.309-7.309c0-4.069,3.315-7.385,7.403-7.385c2.488,0,4.503,1.112,6.01,3.071l-1.148,1.074 c-1.187-1.677-2.789-2.675-4.88-2.675c-3.24,0-5.802,2.732-5.802,5.934c0,1.507,0.603,2.939,1.658,4.013 c1.036,1.036,2.544,1.808,4.032,1.808c2.467,0,5.067-1.808,5.067-4.446h-4.22v-1.469L424.983,82.677L424.983,82.677z"></path> </g> </svg> 