<?xml version="1.0" encoding="utf-8"?>
<svg version="1.1" id="Layer_1" xmlns="http://www.w3.org/2000/svg" xmlns:xlink="http://www.w3.org/1999/xlink"
	 viewBox="0 0 836.077 201.429" xml:space="preserve">
<path id="XMLID_7_" fill="#0B88EE" d="M127.421,48.767c-3.122,0-5.977-1.503-7.738-4.047H93.448L75.162,33.963h44.521
	c1.761-2.544,4.616-4.047,7.738-4.047c5.197,0,9.425,4.228,9.425,9.426C136.847,44.538,132.618,48.767,127.421,48.767z"/>
<path id="XMLID_5_" fill="#0B88EE" d="M71.682,201.429c-3.27,0-6.203-1.618-7.937-4.354c-17.245-1.793-33.206-9.827-44.991-22.653
	C6.66,161.26,0,144.162,0,126.274c0-17.892,6.667-34.998,18.772-48.166l1.179-1.283l8.423,6.8l-1.361,1.46
	c-10.483,11.236-16.256,25.864-16.256,41.19c0,30.789,22.933,56.495,53.437,60.014c1.781-2.333,4.539-3.711,7.488-3.711
	c5.198,0,9.426,4.228,9.426,9.425C81.108,197.201,76.88,201.429,71.682,201.429z"/>
<path id="XMLID_3_" fill="#0B88EE" d="M71.312,167.904c-23.279,0-42.217-18.938-42.217-42.216c0-8.627,2.584-16.905,7.477-23.973
	c-0.291-0.916-0.438-1.865-0.438-2.829c0-5.198,4.228-9.426,9.426-9.426c5.198,0,9.426,4.228,9.426,9.426
	c0,5.197-4.228,9.425-9.426,9.425c-0.145,0-0.291-0.004-0.437-0.011c-3.451,5.169-5.272,11.169-5.272,17.387
	c0,17.347,14.113,31.461,31.461,31.461c17.347,0,31.46-14.113,31.46-31.461c0-10.913-5.553-20.895-14.853-26.702l-3.197-1.997
	l0.114-0.042L21.943,55.409c-1.03,0.376-2.106,0.567-3.21,0.567c-5.198,0-9.426-4.228-9.426-9.425c0-5.198,4.228-9.426,9.426-9.426
	c5.197,0,9.425,4.228,9.425,9.426c0,0.034,0,0.068,0,0.101c6.158,4.068,64.217,42.419,65.555,43.258
	c12.407,7.782,19.815,21.157,19.815,35.777C113.528,148.966,94.59,167.904,71.312,167.904z"/>
<g id="XMLID_6_">
	<polygon id="XMLID_52_" fill="#0B88EE" points="546.328,150.859 603.551,150.859 603.551,138.625 558.757,138.625 558.757,103.987
		603.551,103.987 603.551,91.754 546.328,91.754 	"/>
	<rect id="XMLID_53_" x="546.328" y="52.477" fill="#0B88EE" width="57.612" height="12.237"/>
	<polygon id="XMLID_54_" fill="#0B88EE" points="770.875,62.328 762.325,52.477 758.146,52.477 758.146,150.859 770.901,150.859
		770.901,97.405 770.875,95.962 	"/>
	<polygon id="XMLID_83_" fill="#0B88EE" points="823.78,52.477 823.78,123.258 777.339,69.771 777.339,88.344 831.834,150.859
		836.077,150.859 836.077,52.477 	"/>
	<path id="XMLID_84_" fill="#0B88EE" d="M255.523,56.002c-6.579-2.338-17.204-3.525-31.579-3.525h-21.242v12.236h27.362v0.186
		l1.373,0.068c7.75,0.377,13.715,1.187,17.729,2.407c7.603,2.314,13.612,6.642,17.859,12.862c4.271,6.255,6.436,13.923,6.436,22.795
		c0,8.442-1.992,15.666-5.921,21.471c-3.908,5.777-9.357,9.832-16.188,12.051c-4.948,1.591-14.039,2.397-27.019,2.397h-9.592V71.178
		h-12.039v79.681h31.824c12.084,0,21.647-1.804,28.422-5.36c6.817-3.575,12.429-9.182,16.683-16.663
		c4.239-7.457,6.388-16.195,6.388-25.967c0-11.311-2.71-21.207-8.056-29.416C272.594,65.212,265.043,59.34,255.523,56.002z"/>
	<polygon id="XMLID_85_" fill="#0B88EE" points="659.32,150.859 673.158,150.859 693.799,107.26 714.337,150.859 727.826,150.859
		693.797,77.886 	"/>
	<polygon id="XMLID_86_" fill="#0B88EE" points="686.71,62.684 679.903,48.166 631.293,150.859 645.134,150.859 681.133,74.814 	"/>
	<path id="XMLID_87_" fill="#0B88EE" d="M362.985,50.078c-9.136,0-17.75,2.304-25.601,6.849c-3.188,1.842-6.193,4.06-8.936,6.59
		l-1.354,1.25l10.841,7.16l0.822-0.674c1.695-1.387,3.474-2.626,5.284-3.68c6.08-3.535,12.596-5.328,19.367-5.328
		c6.902,0,13.529,1.794,19.698,5.332c6.163,3.539,11.004,8.312,14.39,14.183c3.389,5.88,5.108,12.557,5.108,19.845
		c0,7.333-1.721,14.088-5.113,20.079c-3.386,5.977-8.17,10.756-14.219,14.203c-6.059,3.453-12.742,5.204-19.863,5.204
		c-10.652,0-19.881-3.804-27.431-11.306c-7.547-7.502-11.374-16.83-11.374-27.726c0-7.377,1.73-14.153,5.143-20.142
		c0.533-0.936,1.151-1.903,1.945-3.04l0.847-1.215l-10.516-6.944l-0.803,1.164c-1.009,1.463-1.811,2.728-2.523,3.984
		c-4.541,8.018-6.845,16.84-6.845,26.223c0,14.096,5.06,26.279,15.04,36.207c9.977,9.93,22.384,14.964,36.877,14.964
		c14.318,0,26.628-5.057,36.585-15.031c9.957-9.974,15.007-22.286,15.007-36.595c0-14.443-5.062-26.779-15.046-36.666
		C390.334,55.088,377.776,50.078,362.985,50.078z"/>
	<g id="XMLID_4_">
		<path id="XMLID_37_" fill="#0B88EE" d="M490.832,103.309c4.789-2.123,8.532-5.317,11.125-9.496
			c2.577-4.158,3.885-9.028,3.885-14.475c0-6.556-1.904-12.171-5.656-16.685c-3.737-4.497-8.655-7.471-14.614-8.836
			c-3.921-0.901-11.077-1.339-21.877-1.339h-20.463v12.236h27.828c6.328,0,10.872,0.534,13.508,1.586
			c2.561,1.022,4.576,2.682,6.16,5.072c1.566,2.366,2.36,5.036,2.36,7.933c0,2.993-0.787,5.735-2.338,8.146
			c-1.56,2.425-3.677,4.144-6.472,5.251c-2.869,1.139-7.447,1.715-13.598,1.715l-15.019-0.118v-23.12h-12.429v79.681h12.429v-44.339
			h2.268v-0.305l20.228-0.006C483.251,105.755,487.515,104.779,490.832,103.309z"/>
		<polygon id="XMLID_38_" fill="#0B88EE" points="478.397,111.727 462.938,111.727 493.248,150.859 508.705,150.859 		"/>
	</g>
</g>
<path id="XMLID_8_" fill="#0B88EE" d="M110.993,67.239c-1.125-0.76-63.497-42.309-78.698-52.435h65.109
	c1.761,2.544,4.617,4.047,7.738,4.047c5.197,0,9.425-4.228,9.425-9.425c0-5.198-4.228-9.426-9.425-9.426
	c-3.122,0-5.976,1.504-7.738,4.048h-82.27v12.237l0.828,0.552c5.248,3.5,87.51,58.356,88.371,58.922
	c17.094,11.252,27.299,30.136,27.299,50.515c0,27.705-19.165,52.02-45.875,58.654c0.974,2.064,1.535,4.361,1.535,6.794
	c0,1.39-0.196,2.732-0.53,4.017c32.339-7.213,55.627-36.124,55.627-69.465C142.388,102.586,130.652,80.516,110.993,67.239z"/>
</svg>
