<?xml version="1.0" encoding="utf-8"?>
<!-- Generator: Adobe Illustrator 16.0.0, SVG Export Plug-In . SVG Version: 6.00 Build 0)  -->
<!DOCTYPE svg PUBLIC "-//W3C//DTD SVG 1.1//EN" "http://www.w3.org/Graphics/SVG/1.1/DTD/svg11.dtd">
<svg version="1.1" id="Ebene_1" xmlns="http://www.w3.org/2000/svg" xmlns:xlink="http://www.w3.org/1999/xlink" x="0px" y="0px"
	 width="286.061px" height="81.014px" viewBox="0 0 286.061 81.014" enable-background="new 0 0 286.061 81.014"
	 xml:space="preserve">
<g id="Ebene_1_1_">
	<path fill="#C5DC1E" d="M38.431,77.472c20.484,0,37.09-16.605,37.09-37.089c0-20.484-16.606-37.09-37.09-37.09
		c-20.482,0-37.087,16.605-37.087,37.09C1.344,60.866,17.949,77.472,38.431,77.472"/>
	<path fill="#FFFFFF" d="M37.583,49.724H31.57v-5.265h6.013V38.4h0.864c-1.238-4.54-5.215-6.737-9.501-6.737
		c-4.67,0-7.118,1.625-9.01,3.866h-0.111V21.47H8.812v39.994h11.013V46.116c0-4.648,2.503-5.602,4.394-5.602
		c3.229,0,3.616,2.354,3.616,5.712v15.237h11.012v-5.684h-1.262L37.583,49.724L37.583,49.724z"/>
	<path fill="#FFFFFF" d="M59.98,31.663c-3.282,0-6.23,1.456-7.899,3.922h-0.111V21.47H40.959V38.4h1.853v6.06h6.016v5.265h-6.016
		v6.059h-1.853v5.682h10.623v-3.191h0.109c1.393,1.848,3.061,3.922,8.455,3.922c8.176,0,12.125-8.119,12.125-15.403
		C72.272,39.954,69.658,31.663,59.98,31.663 M56.421,54.129c-3.949,0-4.839-3.755-4.839-7.229c0-3.417,0.89-7.171,4.839-7.171
		c3.948,0,4.839,3.754,4.839,7.171C61.26,50.374,60.369,54.129,56.421,54.129"/>
</g>
<g id="Layer_6">
	<g>
		<path fill="#818283" d="M91.587,47.013l3.061-9.783h2.655l3.062,9.783h-2.342l-0.601-2.324h-2.985l-0.6,2.324H91.587z
			 M95.129,42.063l-0.24,0.899h2.085l-0.225-0.899c-0.141-0.49-0.276-1.011-0.405-1.562c-0.131-0.549-0.26-1.081-0.39-1.59h-0.062
			c-0.12,0.521-0.243,1.053-0.367,1.598C95.401,41.054,95.268,41.573,95.129,42.063z"/>
		<path fill="#818283" d="M101.25,47.013v-7.442h1.801l0.15,1.307h0.061c0.271-0.51,0.594-0.885,0.975-1.125
			c0.38-0.24,0.761-0.36,1.141-0.36c0.21,0,0.383,0.014,0.518,0.038c0.135,0.025,0.257,0.062,0.368,0.112l-0.361,1.906
			c-0.139-0.041-0.271-0.07-0.39-0.092c-0.12-0.021-0.259-0.028-0.419-0.028c-0.281,0-0.573,0.1-0.878,0.3
			c-0.306,0.2-0.558,0.556-0.757,1.064v4.32H101.25L101.25,47.013z"/>
		<path fill="#818283" d="M111.122,47.194c-0.33,0-0.663-0.083-0.998-0.246c-0.335-0.166-0.647-0.408-0.938-0.729h-0.06
			l-0.182,0.796h-1.725V36.496h2.206v2.581l-0.061,1.14c0.289-0.26,0.603-0.462,0.938-0.608c0.335-0.144,0.677-0.217,1.027-0.217
			c0.451,0,0.854,0.09,1.215,0.271c0.361,0.18,0.669,0.433,0.923,0.757c0.255,0.325,0.451,0.721,0.585,1.186
			c0.136,0.465,0.203,0.982,0.203,1.554c0,0.641-0.087,1.21-0.262,1.71c-0.177,0.501-0.411,0.923-0.706,1.269
			c-0.294,0.346-0.63,0.607-1.004,0.787C111.91,47.105,111.522,47.194,111.122,47.194z M110.612,45.394
			c0.381,0,0.705-0.174,0.976-0.518c0.27-0.346,0.405-0.903,0.405-1.674c0-1.341-0.43-2.012-1.29-2.012
			c-0.44,0-0.866,0.226-1.275,0.677v3.045c0.2,0.181,0.399,0.306,0.6,0.376C110.226,45.359,110.421,45.394,110.612,45.394z"/>
		<path fill="#818283" d="M119.148,47.194c-0.528,0-1.024-0.088-1.484-0.263c-0.46-0.174-0.86-0.429-1.2-0.764
			c-0.341-0.334-0.606-0.743-0.796-1.225c-0.19-0.48-0.285-1.03-0.285-1.649c0-0.602,0.1-1.145,0.3-1.628
			c0.2-0.485,0.462-0.896,0.788-1.231c0.325-0.334,0.698-0.592,1.117-0.771c0.42-0.181,0.854-0.271,1.306-0.271
			c0.529,0,0.993,0.09,1.387,0.271c0.396,0.18,0.727,0.43,0.991,0.75c0.266,0.32,0.462,0.697,0.592,1.133
			c0.131,0.435,0.195,0.909,0.195,1.419c0,0.199-0.01,0.39-0.03,0.569c-0.02,0.179-0.041,0.314-0.06,0.404h-4.456
			c0.099,0.539,0.322,0.938,0.667,1.192c0.344,0.255,0.767,0.382,1.268,0.382c0.53,0,1.065-0.164,1.605-0.494l0.735,1.335
			c-0.381,0.262-0.804,0.466-1.268,0.615C120.056,47.118,119.598,47.194,119.148,47.194z M117.498,42.482h2.686
			c0-0.419-0.095-0.761-0.285-1.02c-0.189-0.26-0.51-0.392-0.96-0.392c-0.351,0-0.658,0.115-0.923,0.346
			C117.751,41.646,117.578,42.002,117.498,42.482z"/>
		<path fill="#818283" d="M124.684,38.476c-0.37,0-0.675-0.106-0.915-0.322c-0.24-0.215-0.36-0.492-0.36-0.833
			s0.12-0.614,0.36-0.824s0.545-0.316,0.915-0.316c0.38,0,0.688,0.105,0.923,0.316c0.234,0.21,0.354,0.483,0.354,0.824
			s-0.117,0.617-0.354,0.833C125.373,38.368,125.065,38.476,124.684,38.476z M123.589,47.013v-7.442h2.206v7.442H123.589z"/>
		<path fill="#818283" d="M130.596,47.194c-0.459,0-0.853-0.068-1.178-0.211c-0.325-0.14-0.59-0.334-0.795-0.584
			s-0.355-0.554-0.45-0.908s-0.142-0.746-0.142-1.178v-3.017h-1.021v-1.635l1.14-0.091l0.254-1.979h1.831v1.979h1.786v1.726h-1.786
			v2.986c0,0.42,0.088,0.723,0.264,0.907c0.175,0.187,0.407,0.277,0.697,0.277c0.12,0,0.243-0.016,0.367-0.045
			s0.237-0.064,0.338-0.105l0.346,1.605c-0.2,0.06-0.436,0.121-0.705,0.181C131.271,47.163,130.956,47.194,130.596,47.194z"/>
		<path fill="#818283" d="M135.517,47.194c-0.489,0-0.992-0.095-1.506-0.284c-0.516-0.19-0.963-0.44-1.344-0.751l0.991-1.381
			c0.339,0.26,0.665,0.454,0.976,0.585c0.311,0.132,0.625,0.194,0.945,0.194c0.33,0,0.568-0.055,0.72-0.165
			c0.151-0.108,0.226-0.266,0.226-0.465c0-0.12-0.043-0.227-0.127-0.322c-0.085-0.096-0.201-0.184-0.345-0.263
			c-0.146-0.079-0.308-0.153-0.488-0.218c-0.179-0.064-0.364-0.138-0.556-0.217c-0.23-0.091-0.459-0.195-0.688-0.314
			c-0.23-0.12-0.44-0.268-0.63-0.443s-0.345-0.38-0.465-0.614s-0.181-0.509-0.181-0.816c0-0.342,0.067-0.656,0.203-0.946
			c0.135-0.29,0.328-0.536,0.578-0.734c0.25-0.199,0.549-0.357,0.899-0.473s0.74-0.172,1.17-0.172c0.57,0,1.071,0.098,1.5,0.292
			c0.431,0.195,0.806,0.413,1.125,0.653l-0.988,1.32c-0.271-0.199-0.536-0.354-0.798-0.466c-0.259-0.108-0.52-0.163-0.778-0.163
			c-0.561,0-0.84,0.193-0.84,0.584c0,0.12,0.038,0.223,0.119,0.307c0.08,0.086,0.188,0.164,0.322,0.232
			c0.137,0.069,0.292,0.139,0.465,0.203c0.176,0.065,0.358,0.134,0.548,0.202c0.24,0.091,0.479,0.193,0.713,0.309
			c0.235,0.115,0.449,0.257,0.645,0.428s0.354,0.376,0.473,0.622c0.12,0.246,0.181,0.537,0.181,0.878s-0.066,0.655-0.195,0.946
			c-0.131,0.291-0.326,0.542-0.585,0.758c-0.26,0.215-0.58,0.385-0.96,0.51C136.457,47.131,136.017,47.194,135.517,47.194z"/>
		<path fill="#818283" d="M141.217,47.013l-1.859-7.442h2.191l0.72,3.452c0.061,0.369,0.114,0.734,0.165,1.096
			c0.051,0.359,0.105,0.729,0.166,1.109h0.061c0.068-0.379,0.137-0.755,0.201-1.125c0.066-0.369,0.144-0.729,0.233-1.08l0.826-3.45
			h1.904l0.842,3.45c0.09,0.371,0.17,0.734,0.24,1.097c0.069,0.358,0.145,0.729,0.225,1.11h0.06c0.069-0.381,0.127-0.752,0.174-1.11
			c0.045-0.361,0.102-0.726,0.173-1.097l0.705-3.45h2.04l-1.784,7.441h-2.581l-0.676-2.971c-0.08-0.351-0.15-0.7-0.209-1.05
			c-0.062-0.351-0.126-0.726-0.195-1.125h-0.062c-0.067,0.399-0.133,0.774-0.188,1.125c-0.055,0.35-0.117,0.699-0.188,1.05
			l-0.657,2.971L141.217,47.013L141.217,47.013z"/>
		<path fill="#818283" d="M154.825,47.194c-0.531,0-1.026-0.088-1.486-0.263c-0.459-0.176-0.859-0.429-1.199-0.764
			c-0.341-0.334-0.605-0.743-0.797-1.225c-0.188-0.48-0.285-1.03-0.285-1.649c0-0.602,0.102-1.145,0.301-1.628
			c0.199-0.485,0.463-0.896,0.787-1.231c0.326-0.334,0.698-0.592,1.119-0.771c0.418-0.181,0.854-0.271,1.305-0.271
			c0.529,0,0.992,0.09,1.388,0.271c0.396,0.18,0.725,0.43,0.99,0.75c0.266,0.319,0.463,0.697,0.594,1.133
			c0.13,0.435,0.194,0.909,0.194,1.419c0,0.199-0.011,0.39-0.03,0.569c-0.02,0.179-0.04,0.314-0.06,0.404h-4.455
			c0.1,0.539,0.322,0.938,0.667,1.192c0.346,0.254,0.768,0.382,1.269,0.382c0.529,0,1.064-0.164,1.604-0.494l0.736,1.335
			c-0.381,0.262-0.803,0.466-1.269,0.615C155.733,47.117,155.275,47.194,154.825,47.194z M153.175,42.482h2.686
			c0-0.419-0.096-0.761-0.284-1.02c-0.19-0.26-0.511-0.392-0.961-0.392c-0.351,0-0.656,0.115-0.923,0.346
			C153.427,41.647,153.255,42.002,153.175,42.482z"/>
		<path fill="#818283" d="M161.292,47.194c-0.381,0-0.701-0.06-0.961-0.18c-0.261-0.12-0.467-0.288-0.622-0.503
			s-0.268-0.475-0.338-0.779c-0.069-0.306-0.104-0.647-0.104-1.027v-8.208h2.206v8.296c0,0.229,0.042,0.391,0.128,0.479
			c0.084,0.093,0.172,0.138,0.262,0.138c0.052,0,0.095,0,0.129,0c0.035,0,0.083-0.013,0.143-0.031l0.27,1.636
			c-0.119,0.05-0.271,0.093-0.456,0.128C161.759,47.176,161.54,47.194,161.292,47.194z"/>
		<path fill="#818283" d="M166.423,47.194c-0.461,0-0.854-0.068-1.18-0.211c-0.324-0.14-0.591-0.334-0.795-0.584
			c-0.205-0.25-0.354-0.554-0.449-0.908c-0.097-0.354-0.143-0.746-0.143-1.178v-3.017h-1.021v-1.635l1.141-0.091l0.254-1.979h1.83
			v1.979h1.785v1.726h-1.785v2.986c0,0.42,0.088,0.723,0.264,0.907c0.175,0.186,0.406,0.277,0.697,0.277
			c0.119,0,0.242-0.016,0.367-0.045s0.238-0.064,0.338-0.105l0.346,1.605c-0.201,0.06-0.437,0.121-0.705,0.181
			C167.097,47.163,166.782,47.194,166.423,47.194z"/>
		<path fill="#818283" d="M172.365,47.194c-0.529,0-1.026-0.088-1.486-0.263c-0.459-0.176-0.86-0.429-1.199-0.764
			c-0.34-0.334-0.605-0.743-0.796-1.225c-0.19-0.48-0.284-1.03-0.284-1.649c0-0.602,0.101-1.145,0.299-1.628
			c0.201-0.485,0.463-0.896,0.787-1.231c0.326-0.334,0.698-0.592,1.117-0.771c0.421-0.181,0.855-0.271,1.307-0.271
			c0.529,0,0.992,0.09,1.388,0.271c0.396,0.18,0.726,0.43,0.99,0.75c0.267,0.319,0.463,0.697,0.594,1.133
			c0.13,0.435,0.194,0.909,0.194,1.419c0,0.199-0.011,0.39-0.028,0.569c-0.021,0.179-0.041,0.314-0.062,0.404h-4.455
			c0.1,0.539,0.322,0.938,0.667,1.192c0.346,0.254,0.768,0.382,1.27,0.382c0.528,0,1.063-0.164,1.604-0.494l0.734,1.335
			c-0.381,0.262-0.802,0.466-1.269,0.615C173.271,47.118,172.814,47.194,172.365,47.194z M170.714,42.482h2.685
			c0-0.419-0.095-0.761-0.283-1.02c-0.19-0.26-0.512-0.392-0.962-0.392c-0.35,0-0.657,0.115-0.922,0.346
			C170.966,41.647,170.793,42.002,170.714,42.482z"/>
		<path fill="#818283" d="M176.804,47.013v-7.442h1.801l0.15,0.945h0.061c0.318-0.299,0.669-0.562,1.05-0.788
			c0.38-0.224,0.825-0.337,1.336-0.337c0.809,0,1.396,0.266,1.764,0.795c0.363,0.53,0.547,1.265,0.547,2.206v4.621h-2.207v-4.336
			c0-0.54-0.072-0.911-0.216-1.111c-0.146-0.198-0.378-0.299-0.698-0.299c-0.279,0-0.52,0.062-0.721,0.188
			c-0.2,0.125-0.419,0.301-0.659,0.531v5.025L176.804,47.013L176.804,47.013z"/>
		<path fill="#818283" d="M185.551,49.924l-0.449-1.171c0.561-0.199,0.985-0.459,1.275-0.779s0.43-0.67,0.419-1.051h-0.119
			c-0.35,0-0.66-0.105-0.931-0.322c-0.27-0.215-0.405-0.522-0.405-0.922c0-0.381,0.137-0.686,0.405-0.916
			c0.271-0.229,0.595-0.346,0.976-0.346c0.5,0,0.879,0.184,1.141,0.549c0.261,0.365,0.392,0.877,0.392,1.538
			c0,0.831-0.231,1.543-0.691,2.138S186.433,49.664,185.551,49.924z"/>
		<path fill="#818283" d="M195.544,47.194c-0.461,0-0.879-0.09-1.254-0.271c-0.375-0.18-0.695-0.438-0.96-0.771
			c-0.266-0.336-0.471-0.741-0.615-1.224c-0.145-0.479-0.216-1.026-0.216-1.635c0-0.61,0.086-1.155,0.261-1.636
			c0.175-0.481,0.406-0.889,0.69-1.224c0.284-0.334,0.614-0.592,0.989-0.771c0.375-0.181,0.76-0.271,1.148-0.271
			c0.421,0,0.764,0.07,1.035,0.21c0.271,0.141,0.535,0.331,0.797,0.57l-0.092-1.141v-2.536h2.207v10.517h-1.802l-0.149-0.735h-0.062
			c-0.258,0.262-0.563,0.479-0.914,0.653C196.258,47.106,195.904,47.194,195.544,47.194z M196.114,45.394
			c0.239,0,0.458-0.051,0.653-0.149c0.194-0.101,0.383-0.275,0.562-0.525v-3.045c-0.2-0.182-0.405-0.307-0.613-0.376
			c-0.212-0.069-0.416-0.104-0.616-0.104c-0.35,0-0.66,0.168-0.93,0.504c-0.271,0.334-0.404,0.857-0.404,1.566
			c0,0.741,0.117,1.281,0.353,1.621C195.351,45.223,195.684,45.394,196.114,45.394z"/>
		<path fill="#818283" d="M202.58,38.476c-0.371,0-0.677-0.106-0.917-0.322c-0.24-0.215-0.359-0.492-0.359-0.833
			s0.119-0.614,0.359-0.824c0.239-0.21,0.546-0.316,0.917-0.316c0.38,0,0.687,0.105,0.921,0.316c0.234,0.21,0.353,0.483,0.353,0.824
			s-0.117,0.617-0.353,0.833C203.268,38.368,202.96,38.476,202.58,38.476z M201.486,47.013v-7.442h2.205v7.442H201.486z"/>
		<path fill="#818283" d="M208.955,47.194c-0.53,0-1.024-0.088-1.485-0.263c-0.459-0.176-0.859-0.429-1.199-0.764
			c-0.34-0.334-0.604-0.743-0.796-1.225c-0.188-0.48-0.284-1.03-0.284-1.649c0-0.602,0.099-1.145,0.3-1.628
			c0.198-0.485,0.463-0.896,0.786-1.231c0.326-0.334,0.698-0.592,1.119-0.771c0.419-0.181,0.854-0.271,1.306-0.271
			c0.528,0,0.992,0.09,1.387,0.271c0.396,0.18,0.725,0.43,0.991,0.75c0.265,0.319,0.462,0.697,0.593,1.133
			c0.131,0.435,0.194,0.909,0.194,1.419c0,0.199-0.011,0.39-0.029,0.569c-0.021,0.179-0.04,0.314-0.061,0.404h-4.455
			c0.101,0.539,0.322,0.938,0.667,1.192c0.346,0.254,0.769,0.382,1.27,0.382c0.529,0,1.063-0.164,1.604-0.494l0.734,1.335
			c-0.379,0.262-0.803,0.466-1.268,0.615C209.864,47.117,209.406,47.194,208.955,47.194z M207.306,42.482h2.686
			c0-0.419-0.096-0.761-0.285-1.02c-0.19-0.26-0.511-0.392-0.96-0.392c-0.351,0-0.657,0.115-0.924,0.346
			C207.558,41.647,207.386,42.002,207.306,42.482z"/>
		<path fill="#818283" d="M220.298,47.194c-0.329,0-0.662-0.083-0.996-0.246c-0.336-0.166-0.648-0.408-0.938-0.729h-0.061
			l-0.18,0.796h-1.727V36.496h2.207v2.581l-0.061,1.14c0.291-0.26,0.604-0.462,0.938-0.608c0.335-0.144,0.68-0.217,1.028-0.217
			c0.449,0,0.854,0.09,1.217,0.271c0.359,0.18,0.667,0.433,0.92,0.757c0.256,0.325,0.451,0.721,0.586,1.186
			c0.138,0.465,0.203,0.982,0.203,1.554c0,0.641-0.088,1.21-0.262,1.71c-0.177,0.501-0.411,0.923-0.705,1.269
			c-0.296,0.346-0.631,0.607-1.006,0.787C221.086,47.104,220.698,47.194,220.298,47.194z M219.788,45.394
			c0.381,0,0.705-0.174,0.976-0.518c0.271-0.346,0.405-0.903,0.405-1.674c0-1.341-0.431-2.012-1.29-2.012
			c-0.44,0-0.866,0.226-1.274,0.677v3.045c0.199,0.181,0.398,0.306,0.601,0.376C219.404,45.359,219.598,45.394,219.788,45.394z"/>
		<path fill="#818283" d="M228.325,47.194c-0.531,0-1.025-0.088-1.486-0.263c-0.459-0.176-0.859-0.429-1.199-0.764
			c-0.34-0.334-0.604-0.743-0.795-1.225c-0.188-0.48-0.286-1.03-0.286-1.649c0-0.602,0.101-1.145,0.3-1.628
			c0.2-0.485,0.463-0.896,0.788-1.231c0.325-0.334,0.698-0.592,1.118-0.771c0.419-0.181,0.854-0.271,1.305-0.271
			c0.53,0,0.994,0.09,1.388,0.271c0.396,0.18,0.725,0.43,0.99,0.75c0.266,0.319,0.463,0.697,0.594,1.133
			c0.131,0.435,0.194,0.909,0.194,1.419c0,0.199-0.01,0.39-0.03,0.569c-0.02,0.179-0.039,0.314-0.06,0.404h-4.455
			c0.1,0.539,0.322,0.938,0.668,1.192c0.346,0.255,0.768,0.382,1.268,0.382c0.529,0,1.064-0.164,1.605-0.494l0.734,1.335
			c-0.379,0.262-0.803,0.466-1.269,0.615C229.233,47.117,228.776,47.194,228.325,47.194z M226.676,42.482h2.685
			c0-0.419-0.096-0.761-0.284-1.02c-0.189-0.26-0.511-0.392-0.96-0.392c-0.352,0-0.657,0.115-0.924,0.346
			C226.927,41.647,226.755,42.002,226.676,42.482z"/>
		<path fill="#818283" d="M235.272,50.179c-0.44,0-0.849-0.037-1.224-0.113c-0.375-0.073-0.705-0.187-0.99-0.336
			s-0.508-0.346-0.668-0.586c-0.159-0.24-0.24-0.524-0.24-0.854c0-0.601,0.355-1.102,1.066-1.5v-0.062
			c-0.201-0.129-0.365-0.293-0.496-0.494c-0.129-0.198-0.194-0.455-0.194-0.765c0-0.271,0.079-0.526,0.239-0.771
			c0.16-0.246,0.361-0.451,0.603-0.622v-0.062c-0.261-0.179-0.493-0.437-0.697-0.771c-0.205-0.334-0.309-0.723-0.309-1.162
			c0-0.449,0.085-0.842,0.256-1.179c0.17-0.334,0.396-0.614,0.683-0.84c0.285-0.225,0.612-0.392,0.983-0.503
			c0.369-0.109,0.755-0.165,1.153-0.165c0.44,0,0.826,0.061,1.154,0.18h2.717v1.604h-1.187c0.068,0.109,0.128,0.251,0.175,0.42
			c0.045,0.171,0.065,0.355,0.065,0.555c0,0.433-0.074,0.804-0.225,1.117c-0.15,0.316-0.357,0.576-0.623,0.781
			s-0.576,0.357-0.93,0.457c-0.355,0.1-0.738,0.15-1.148,0.15c-0.291,0-0.59-0.052-0.899-0.15c-0.101,0.081-0.17,0.16-0.211,0.24
			c-0.04,0.08-0.06,0.186-0.06,0.313c0,0.191,0.083,0.331,0.248,0.421c0.164,0.09,0.457,0.137,0.878,0.137h1.199
			c0.921,0,1.623,0.146,2.108,0.441c0.485,0.296,0.729,0.777,0.729,1.448c0,0.39-0.099,0.748-0.294,1.072
			c-0.194,0.325-0.472,0.604-0.832,0.84s-0.796,0.42-1.306,0.557C236.488,50.113,235.911,50.179,235.272,50.179z M235.616,48.798
			c0.5,0,0.911-0.088,1.23-0.262c0.32-0.177,0.48-0.394,0.48-0.651c0-0.231-0.098-0.386-0.292-0.466
			c-0.195-0.08-0.479-0.119-0.849-0.119h-0.766c-0.258,0-0.471-0.009-0.629-0.022c-0.16-0.016-0.3-0.037-0.42-0.066
			c-0.271,0.24-0.406,0.483-0.406,0.733c0,0.281,0.15,0.492,0.45,0.64C234.717,48.726,235.116,48.798,235.616,48.798z
			 M235.437,43.323c0.29,0,0.531-0.103,0.728-0.309c0.194-0.205,0.293-0.518,0.293-0.938c0-0.392-0.099-0.688-0.293-0.894
			c-0.195-0.206-0.438-0.307-0.728-0.307c-0.291,0-0.532,0.1-0.727,0.299c-0.195,0.199-0.293,0.5-0.293,0.9
			c0,0.42,0.098,0.731,0.293,0.938C234.905,43.221,235.146,43.323,235.437,43.323z"/>
		<path fill="#818283" d="M243.689,47.194c-0.53,0-1.024-0.088-1.485-0.263c-0.459-0.176-0.859-0.429-1.199-0.764
			c-0.34-0.334-0.605-0.743-0.795-1.225c-0.19-0.48-0.285-1.03-0.285-1.649c0-0.602,0.099-1.145,0.299-1.628
			c0.199-0.485,0.463-0.896,0.787-1.231c0.326-0.334,0.699-0.592,1.119-0.771c0.419-0.181,0.854-0.271,1.305-0.271
			c0.53,0,0.994,0.09,1.387,0.271c0.396,0.18,0.726,0.43,0.991,0.75c0.266,0.319,0.462,0.697,0.593,1.133
			c0.132,0.435,0.195,0.909,0.195,1.419c0,0.199-0.01,0.39-0.029,0.569c-0.021,0.179-0.041,0.314-0.061,0.404h-4.455
			c0.1,0.539,0.322,0.938,0.668,1.192c0.345,0.255,0.767,0.382,1.269,0.382c0.528,0,1.063-0.164,1.604-0.494l0.735,1.335
			c-0.38,0.262-0.805,0.466-1.27,0.615S244.139,47.194,243.689,47.194z M242.038,42.482h2.685c0-0.419-0.095-0.761-0.284-1.02
			c-0.19-0.26-0.511-0.392-0.96-0.392c-0.351,0-0.657,0.115-0.923,0.346S242.118,42.002,242.038,42.482z"/>
		<path fill="#818283" d="M249.225,38.476c-0.371,0-0.676-0.106-0.916-0.322c-0.239-0.215-0.359-0.492-0.359-0.833
			s0.12-0.614,0.359-0.824c0.24-0.21,0.545-0.316,0.916-0.316c0.379,0,0.688,0.105,0.922,0.316c0.234,0.21,0.354,0.483,0.354,0.824
			s-0.118,0.617-0.354,0.833C249.912,38.368,249.605,38.476,249.225,38.476z M248.13,47.013v-7.442h2.205v7.442H248.13z"/>
		<path fill="#818283" d="M254.46,47.194c-0.49,0-0.992-0.095-1.508-0.284c-0.517-0.19-0.962-0.44-1.343-0.751l0.99-1.381
			c0.339,0.26,0.664,0.454,0.976,0.585c0.311,0.132,0.625,0.194,0.944,0.194c0.331,0,0.57-0.055,0.722-0.165
			c0.151-0.108,0.225-0.266,0.225-0.465c0-0.12-0.043-0.227-0.128-0.322c-0.085-0.095-0.2-0.184-0.345-0.263
			c-0.146-0.079-0.308-0.153-0.488-0.218s-0.365-0.138-0.555-0.217c-0.23-0.091-0.46-0.195-0.689-0.314
			c-0.229-0.12-0.441-0.268-0.631-0.443c-0.19-0.176-0.346-0.38-0.465-0.614c-0.12-0.234-0.182-0.509-0.182-0.816
			c0-0.342,0.067-0.656,0.204-0.946c0.136-0.29,0.327-0.536,0.576-0.734c0.25-0.2,0.551-0.357,0.9-0.473
			c0.351-0.115,0.739-0.172,1.17-0.172c0.569,0,1.072,0.098,1.502,0.292c0.43,0.195,0.805,0.413,1.125,0.653l-0.991,1.32
			c-0.271-0.199-0.534-0.354-0.795-0.466c-0.26-0.108-0.521-0.163-0.78-0.163c-0.561,0-0.84,0.193-0.84,0.584
			c0,0.12,0.039,0.223,0.119,0.307c0.08,0.086,0.188,0.164,0.324,0.232c0.135,0.069,0.289,0.139,0.465,0.203
			c0.176,0.063,0.356,0.134,0.548,0.202c0.24,0.091,0.479,0.193,0.713,0.309s0.448,0.257,0.646,0.428
			c0.196,0.171,0.353,0.376,0.474,0.622s0.18,0.537,0.18,0.878s-0.064,0.655-0.194,0.946c-0.131,0.291-0.325,0.542-0.586,0.758
			c-0.261,0.215-0.579,0.385-0.958,0.51C255.401,47.131,254.96,47.194,254.46,47.194z"/>
		<path fill="#818283" d="M261.483,47.194c-0.46,0-0.853-0.068-1.179-0.211c-0.324-0.14-0.59-0.334-0.795-0.584
			s-0.355-0.554-0.449-0.908c-0.096-0.354-0.143-0.746-0.143-1.178v-3.017h-1.021v-1.635l1.142-0.091l0.253-1.979h1.831v1.979h1.785
			v1.726h-1.785v2.986c0,0.42,0.088,0.723,0.262,0.907c0.175,0.187,0.408,0.277,0.699,0.277c0.119,0,0.242-0.016,0.367-0.045
			s0.236-0.064,0.338-0.105l0.345,1.605c-0.202,0.06-0.438,0.121-0.705,0.181C262.157,47.163,261.843,47.194,261.483,47.194z"/>
		<path fill="#818283" d="M267.423,47.194c-0.529,0-1.025-0.088-1.485-0.263c-0.459-0.176-0.859-0.429-1.197-0.764
			c-0.343-0.334-0.606-0.743-0.798-1.225c-0.188-0.48-0.284-1.03-0.284-1.649c0-0.602,0.1-1.145,0.301-1.628
			c0.199-0.485,0.462-0.896,0.787-1.231c0.324-0.334,0.696-0.592,1.118-0.771c0.419-0.181,0.854-0.271,1.306-0.271
			c0.529,0,0.992,0.09,1.386,0.271c0.396,0.18,0.727,0.43,0.991,0.75c0.266,0.319,0.463,0.697,0.593,1.133
			c0.13,0.435,0.195,0.909,0.195,1.419c0,0.199-0.011,0.39-0.03,0.569c-0.02,0.179-0.04,0.314-0.059,0.404h-4.456
			c0.099,0.539,0.321,0.938,0.667,1.192c0.346,0.255,0.768,0.382,1.268,0.382c0.531,0,1.065-0.164,1.605-0.494l0.735,1.335
			c-0.381,0.262-0.803,0.466-1.268,0.615C268.331,47.118,267.874,47.194,267.423,47.194z M265.773,42.482h2.687
			c0-0.419-0.095-0.761-0.284-1.02c-0.19-0.26-0.511-0.392-0.96-0.392c-0.351,0-0.658,0.115-0.924,0.346
			S265.854,42.002,265.773,42.482z"/>
		<path fill="#818283" d="M271.865,47.013v-7.442h1.801l0.148,1.307h0.062c0.27-0.51,0.595-0.885,0.976-1.125
			c0.379-0.24,0.76-0.36,1.141-0.36c0.21,0,0.383,0.014,0.518,0.038c0.136,0.025,0.257,0.062,0.367,0.112l-0.36,1.906
			c-0.139-0.041-0.27-0.07-0.39-0.092c-0.12-0.021-0.259-0.028-0.419-0.028c-0.281,0-0.572,0.1-0.879,0.3
			c-0.306,0.2-0.559,0.556-0.757,1.064v4.32H271.865L271.865,47.013z"/>
		<path fill="#818283" d="M277.835,47.013v-7.442h1.801l0.15,0.945h0.06c0.32-0.299,0.671-0.562,1.052-0.788
			c0.379-0.224,0.824-0.337,1.334-0.337c0.81,0,1.396,0.266,1.765,0.795c0.363,0.53,0.547,1.265,0.547,2.206v4.621h-2.207v-4.336
			c0-0.54-0.07-0.911-0.215-1.111c-0.146-0.198-0.379-0.299-0.699-0.299c-0.279,0-0.521,0.062-0.719,0.188
			c-0.201,0.125-0.42,0.301-0.66,0.531v5.025L277.835,47.013L277.835,47.013z"/>
	</g>
</g>
</svg>
