<svg width="180" height="34" viewBox="0 0 180 34" fill="none" xmlns="http://www.w3.org/2000/svg">
<path d="M19.575 26.1429V19.2857H6.00714V32.7922H0V1H6.00714V13.7792H19.575V1H25.5821V25.4156C25.5821 26.8701 25.8929 27.7013 27.6536 27.7013C28.275 27.7013 29 27.5974 29 27.5974V32.6883C28.4821 32.8961 27.2393 33 25.9964 33C22.2679 33 19.575 31.2338 19.575 26.1429ZM48.1735 18.585C47.9726 15.1937 46.7671 12.83 43.2511 12.83C39.8356 12.83 37.9269 15.3992 37.9269 18.585H48.1735ZM54 20.6403C54 20.6403 54 21.9763 53.6986 22.9012H37.726C37.726 26.1897 39.7352 29.17 43.4521 29.17C46.0639 29.17 47.7717 28.0395 49.0776 26.498L53.2968 29.3755C50.8858 32.664 47.3699 34 43.4521 34C35.6164 34 32 28.1423 32 21.1542C32 14.2688 35.9178 8 43.2511 8C50.6849 8 54 13.7549 54 20.6403ZM60 26.2778V0H65.7V25.5648C65.7 26.9907 66 27.8056 67.7 27.8056C68.3 27.8056 69 27.7037 69 27.7037V32.6944C68.5 32.8981 67.3 33 66.1 33C62.6 33 60 31.2685 60 26.2778ZM92 25.8408C92 31.822 86.9239 34.1939 81.3401 33.9877C76.3655 33.9877 73.1168 31.9252 72 30.8939L75.0457 26.7689C76.1624 27.8001 78.9036 29.1408 81.9492 29.1408C84.2843 29.1408 86.4162 28.3158 86.4162 26.2533C86.4162 24.8095 85.401 24.0876 83.6751 23.7782L79.0051 22.747C77.2792 22.4376 76.3655 22.0251 75.4518 21.4063C73.7259 20.272 72.8122 18.2094 72.8122 16.0438C72.8122 10.6813 77.5838 8 82.6599 8C87.4315 8 90.4772 9.85626 91.3909 10.7844L88.2437 14.8063C86.7208 13.4657 84.1827 12.7438 82.3553 12.7438C80.3249 12.7438 78.4975 13.4657 78.4975 15.5282C78.4975 17.3844 79.5127 17.6938 81.1371 18.0032L85.2995 18.7251C86.7208 19.0345 88.2437 19.5501 89.3604 20.272C91.0863 21.4063 92 23.4689 92 25.8408ZM122 28.5534V33.1779C121.388 33.4862 120.369 33.7945 118.431 33.7945C115.78 33.7945 114.353 32.253 113.843 30.6087C112.722 32.3557 110.275 34 106.604 34C100.792 34 96 29.8893 96 21.3597C96 14.0632 100.588 8 108.541 8C114.965 8 118.737 11.6996 118.737 17.9684V27.2174C118.737 28.3478 119.349 28.7589 120.267 28.7589C121.286 28.7589 122 28.5534 122 28.5534ZM112.925 26.7036V18.2767C112.925 14.9881 111.396 13.0356 108.133 13.0356C104.259 13.0356 102.118 15.913 102.118 20.8458C102.118 26.2925 104.361 28.8617 108.031 28.8617C110.988 28.8617 112.925 26.7036 112.925 26.7036ZM132.776 10.9679C134.408 8.14859 137.673 7 140.531 7C145.735 7 149 10.8635 149 15.9799V32.7912H143.082V17.4418C143.082 14.5181 142.061 12.743 138.898 12.743C136.755 12.743 134.306 14.1004 133.388 15.8755V33H127.469V14.7269C127.469 12.9518 126.857 12.3253 125.02 12.3253C124.612 12.3253 124 12.3253 124 12.3253V7.62651C125.02 7.31325 126.143 7.20884 127.571 7.20884C130.837 7.20884 132.571 8.67068 132.776 10.9679ZM180 28.5534V33.1779C179.388 33.4862 178.369 33.7945 176.431 33.7945C173.78 33.7945 172.353 32.253 171.843 30.6087C170.722 32.3557 168.275 34 164.604 34C158.792 34 154 29.8893 154 21.3597C154 14.0632 158.588 8 166.541 8C172.965 8 176.737 11.6996 176.737 17.9684V27.2174C176.737 28.3478 177.349 28.7589 178.267 28.7589C179.286 28.7589 180 28.5534 180 28.5534ZM171.027 26.7036V18.2767C171.027 14.9881 169.498 13.0356 166.235 13.0356C162.361 13.0356 160.22 15.913 160.22 20.8458C160.22 26.2925 162.463 28.8617 166.133 28.8617C169.09 28.8617 171.027 26.7036 171.027 26.7036Z" fill="#9A0941"/>
</svg>

