<svg width="83" height="52" viewBox="0 0 83 52" fill="none" xmlns="http://www.w3.org/2000/svg">
<path d="M7.85479 48.7753C7.85479 49.8233 7.04497 50.6296 5.99255 50.6296H1.86279C0.810116 50.6296 0.000305176 49.8233 0.000305176 48.7753V13.6248C0.000305176 12.5768 0.810116 11.7705 1.86279 11.7705H5.99255C7.04523 11.7705 7.85479 12.5768 7.85479 13.6248V48.7753Z" fill="#002A6F"/>
<path d="M82.9191 21.1224C82.9191 15.7212 78.4652 10.3191 71.4203 10.3191C68.1813 10.3191 66.2379 11.3672 65.59 12.0125V1.85432C65.6712 0.806257 64.7802 0 63.8087 0H59.7599C58.7072 0 57.8974 0.806257 57.8974 1.85432V40.3101C57.8974 48.4526 65.6712 52 70.4486 52C74.9022 52 82.9998 48.6946 82.9998 40.3101L82.9191 21.1224ZM75.1453 40.0681C75.1453 42.6478 73.0399 44.8248 70.3679 44.8248C67.7768 44.8248 65.5902 42.7287 65.5902 40.0681V22.2513C65.5902 19.6713 67.6959 17.4946 70.3679 17.4946C72.959 17.4946 75.1453 19.5907 75.1453 22.2513V40.0681Z" fill="#002A6F"/>
<path d="M34.4956 11.7705C35.6292 11.7705 36.6009 12.4153 36.9248 13.8669L41.7024 37.7302H41.8643L46.8848 13.7858C47.2087 12.0126 48.4233 11.7705 48.8283 11.7705H53.12C54.2536 11.7705 55.1444 12.738 54.9822 14.0278L48.0994 46.4373C46.7229 51.4356 42.6739 51.1938 42.5932 51.1938C41.2167 51.1938 38.0586 50.549 37.1679 46.0341L32.8762 25.7983H32.7143L28.5845 46.0341C27.6938 50.5487 24.5357 51.1938 23.1592 51.1938C23.0783 51.1938 19.0295 51.4356 17.653 46.4371L10.7697 14.0278C10.6078 12.738 11.4985 11.7705 12.6322 11.7705H16.9241C17.3289 11.7705 18.5437 12.0126 18.8673 13.7858L23.8878 37.7302H24.0497L28.8274 13.8669C29.0703 12.4156 30.042 11.7705 31.2566 11.7705H34.4956Z" fill="#002A6F"/>
</svg>
