<svg xmlns="http://www.w3.org/2000/svg" fill-rule="evenodd" stroke-miterlimit="1.414" viewBox="0 0 211 48" width="211" height="48" clip-rule="evenodd" stroke-linejoin="round">
    <path fill="#ec008c" fill-rule="nonzero" d="M98.94 26.167c-.367-.17-.934.095-1.488.557-.555.462-.678.85-2.3 1.104-1.62.253-2.114.546-2.694 1.007-.58.46-.12.735.405.79.523.054.994-.265 1.29-.174.296.1 2.268.26 2.888.39.62.14 1.27.25 1.38.13.11-.11.24-.26.62-.21.33.02.89.24 1.55.58v-.07c0-.76-.08-1.53-.24-2.27l-.46-.21c-.2-.87-.56-1.44-.93-1.61m32.38 18.95c-.39-.19-1.63.11-2.3-.01-.67-.11-2.26-1.31-2.37-1.47-.11-.15-.2-.36-.6-.03-.57-.11-1.95-5.55-2.13-6.4-.17-.85-.59-3.49-.53-4.16.07-.66.04-1.53-.08-1.66-.11-.13-.56-.2-.84-1.06s-2.02-3.06-2.87-4.07-1.78-2.15-2.52-2.74c.5-.39.66-1.39.75-2.03.27-.33.25-.85.59-1.45.34-.6.87-2.27 1.16-3 .28.49.97 1.42 1.2 1.48.22.06 1.56-.01 2.6-.24 1.04-.23 2.53-.72 2.88-.75.35-.03 1.48.04 1.89-.06.41-.1.608-.43.61-.58.01-.14-.04-.52-.06-.67-.02-.15.03-.44.03-.44l-.256-.31s.03-.14-.13-.38c-.16-.23-.87-.15-1.18-.06-.304.08-.676.01-.88.12-.207.11-.205.926-.41.99-.2.06-1.245.27-2.066.15-.82-.12-.933-.35-1.605-.44.736-.97.41-3.162.41-3.162s.3-.38.55-1.627c.25-1.25-.58-2.04-1.173-2.196-.59-.16-1.22-.64-1.23-.817-.02-.175.04-.27.25-.43.27.113 1.41.36 1.77.224.28-.106.11-.71.15-.955.04-.242.3-.33.287-.48-.013-.15.057-.12.138-.21.08-.1-.06-.254-.09-.6.15.05.67-.07.65-.23-.03-.255-.77-.835-.57-1.33.186-.45.128-1.04-.11-1.416-.15-.24-.03-.466.006-.637.04-.17-.45-.27-.51-.57-.06-.3-1.13-.36-1.34-.55-.17-.15-.82-.17-1.14-.21-.323-.045-.82.3-1.353.415-.533.12-.613.63-.84.818-.23.186-.41.77-.506 1.16-.1.39-.14 1.054.09 1.487.22.44.1.78.153 1.17.05.397.005.62-.18.888 0 0-.18.3-.37.35-.67.17-1 .438-1.65.87-.97-.18-1.92.16-3.33 1.168-1.77.2-2.95 1.044-3.31 1.2-.36.15-.9.414-1.29.614s-.72.31-.84.67c-.12.367-.9 2.42-1.05 3.3-.15.88.023 4.23-.06 4.427-.09.19-.396 1.112-.446 1.53-.05.413.14.572.336.71.19.13.413.144.61.23.195.084.38-.03.602-.016.223.01.432-.126.54-.27.11-.146.19-.71.28-.88.083-.17.18-.53-.155-.822-.33-.29-.376-.446-.45-1.29-.077-.845.64-3.15.84-3.586.2-.44.7-1.62.873-2.47 1.55.11 3.4-.18 4.17-.41.03.92-.46 2.35-.67 2.98-.214.63-.28 2.978-.49 3.58-.21.61-1.375 2.05-1.375 2.05s.26.24.444.52c-1.83 2.468-.785 4.358-.465 4.89-.44.64-.99 3.53-1.12 4.41-.13.888-.78 1.24-.78 1.24s-.82-.66-1.49-1.12c-.46-.313-1.35-.48-2.01-.574 0 .138.01.27.01.4 0 .9-.09 1.76-.24 2.58 1.16.78 2.09 1.44 2.35 1.6.7.46 2.255 1.32 2.58 1.31.33 0 1.16-.87 1.3-1.11.14-.24.57-.83 1.665-1.9 1.09-1.074 2.045-2.75 2.28-3.354.18.31 1.835 1.64 2.84 1.995s2.34 1.17 2.6 1.43c.26.26-.223 1.67-.15 3.01.07 1.34.98 2.55 1.39 3.19.415.646 1.2 2.64 1.63 3.88.43 1.236.51 2.8.4 3.386-.11.58.056 1.16.473 1.33.415.17 1.4.054 1.91-.06.51-.12 1.25.12 2.25.13 1.003.01 2.722-1.06 3.15-1.45.423-.4.354-.92-.036-1.117"></path>
    <path fill="#0033D9" fill-rule="nonzero" d="M10.678 37.993c-4.253 0-5.83-3.72-5.83-7.412 0-3.6 1.697-7.29 5.83-7.29s5.83 3.69 5.83 7.3c0 3.69-1.578 7.42-5.83 7.42m0-17.93C4.076 20.06.508 24.31.508 30.58s3.508 10.636 10.17 10.636c6.572 0 10.17-4.453 10.17-10.635 0-6.18-3.658-10.51-10.17-10.51m20.92 9.08H30.23v-5.51h1.367c2.082 0 4.4.21 4.4 2.67 0 2.55-2.348 2.84-4.4 2.84m4.46 1.61v-.06c2.648-.35 4.283-2.34 4.283-4.74 0-5.68-5.323-5.53-9.784-5.53h-4.49v20.45h4.163v-8.5h1.33c1.75 0 2.29.59 2.88 2.11l2.5 6.39h4.64l-3.33-7.99c-.42-.91-1.07-2.03-2.2-2.11m7.59-7.13h5.95v17.23h4.16V23.64h5.95v-3.222H43.65v3.222zm36.49 17.22V20.41h-4.16v8.263h-8.33V20.41h-4.16v20.45h4.16V31.9h8.32v8.964h4.17zm47.8-17.22h5.94v17.22h4.16V23.64h5.94v-3.22h-16.05v3.22zm32.29 14h-8.15V31.9h7.4v-3.224h-7.41v-5.04h8.09v-3.222H147.9v20.45h12.31V37.64zm10.2-4.68l3.01-8.43h.06l3.01 8.44h-6.06zm.78-12.54l-8.09 20.45h4.32l1.81-4.68h8.41l1.78 4.69h4.61l-8.15-20.45h-4.7zm27.98 15.5h-.06l-4.94-15.5h-6.66v20.45h3.99V24.05l.06-.058 5.59 16.874h3.99l5.59-16.876h.06v16.875h3.98v-20.45h-6.66l-4.94 15.495zM94.75 37.67c-4.253 0-5.83-3.72-5.83-7.41 0-3.604 1.696-7.296 5.83-7.296 3.255 0 4.993 2.293 5.586 5.026.16.737.242 1.504.242 2.27 0 .024-.005.048-.005.073-.02 3.667-1.603 7.34-5.827 7.34m10.155-7.817c-.16-5.966-3.78-10.117-10.15-10.117-6.6 0-10.17 4.25-10.17 10.52s3.51 10.63 10.17 10.63c5.61 0 9.05-3.26 9.94-8.06.15-.82.24-1.68.24-2.58 0-.14-.01-.27-.01-.41"></path>
</svg>
