<svg xmlns="http://www.w3.org/2000/svg" width="160" height="64"><style>.st0{fill:#ab9d6b}</style><g id="Claim_Vektoren"><path class="st0" d="M16.6 14.7c3.2-.9 5.2-3.6 5.2-6.4 0-5.7-3.5-7.6-9.2-7.6H0v25.4h6.3V15.8h4l5 10.3h7.1l-5.8-11.4zm-4.4-3.8H6.3V5.4h5.8c2 0 3.4.5 3.4 2.8 0 2.4-1.3 2.7-3.3 2.7zm20.7-5.3h12.2V.7H26.5v25.4h18.6v-4.9H32.9v-5.3h11.5v-5H32.9zM66.5.7h5.8v15.2h-5.8zm-11.1 9h.1l4.2 6.2h6.8L56 .7h-6.4v15.2h5.8zm33.4 1.2h11v5h-11z"/><path class="st0" d="M82.2 13.8c0-5.6 2.6-8.4 6.5-8.4 2.7 0 4.7 1.1 6 3.3l5.3-2.3C97.5 2.2 93.3 0 88.3 0 80 0 75.9 6.2 75.9 13.9c0 .7 0 1.4.1 2h6.4c-.1-.7-.2-1.4-.2-2.1zm29.1 0c0-5.6 2.6-8.4 6.5-8.4 2.7 0 4.7 1.1 6 3.3l5.3-2.3c-2.5-4.1-6.7-6.3-11.7-6.3C109.1.1 105 6.3 105 14c0 .7 0 1.4.1 2h6.4c-.2-.8-.2-1.5-.2-2.2z"/><path class="st0" d="M117.8 11h11v4.9h-11zm22-10.3h-6.3v25.4h16.2v-5.4h-9.9zm13.9 0h6.3v25.4h-6.3z"/><path d="M50.8 56.6v7.2h-1.4v-3.3h-3.1v3.3H45v-7.2h1.3v2.7h3.1v-2.7h1.4zm5.4 7.4c-.9 0-1.7-.3-2.5-1.1-.7-.8-1-1.8-1-2.7 0-2.2 1.5-3.8 3.5-3.8 1.8 0 3.5 1.3 3.4 3.8 0 2.1-1.2 3.8-3.4 3.8zm0-6.3c-1.2 0-2.1 1-2.1 2.5 0 1.6.9 2.6 2.1 2.6.9 0 2.1-.7 2.1-2.4 0-1.4-.7-2.7-2.1-2.7zm6.7 4.9h2.9v1.2h-4.2v-7.2H63v6zm9.7 0v1.2H67v-1.1l3.9-4.9h-3.6v-1.2h5.3v1.2l-3.8 4.8h3.8zm1.9-6H77c1 0 1.2 0 1.6.1.7.2 1.3.9 1.3 1.6 0 .3-.1.7-.3 1-.2.3-.5.4-.9.5.8.1 1.5.8 1.5 1.9 0 .8-.4 1.6-1.3 1.9-.5.2-.8.2-1.6.2h-2.8v-7.2zm1.3 1.1v1.8h1.3c.3 0 .7 0 .9-.1.3-.1.5-.4.5-.7 0-.3-.1-.6-.4-.7-.3-.2-.4-.2-1.4-.2h-.9zm0 2.8v2.1h1.3c.8 0 1 0 1.4-.2.2-.1.3-.4.3-.8 0-.2 0-.4-.1-.5-.3-.6-1.1-.6-1.5-.6h-1.4zm10.1 1.9h-2.7l-.4 1.4h-1.4l2.4-7.2h1.5l2.5 7.2h-1.4l-.5-1.4zm-.4-1.2l-1-3.3-1 3.3h2zm9.6-4.6v4.5c0 .8 0 1.5-.8 2.1-.7.6-1.7.7-2.2.7-.4 0-.9-.1-1.3-.2-.9-.3-1.3-.9-1.5-1.5-.1-.3-.1-.5-.1-1.4v-4.3h1.3V61c0 .3 0 .6.1.9.3.7 1 .8 1.5.8.2 0 .8 0 1.2-.4.4-.4.4-.8.4-1.4v-4.4h1.4zm13.6 0l-1.6 7.2h-1.6l-1-5-1 5h-1.6l-1.5-7.2h1.4l1 5.5 1.1-5.5h1.3l1.1 5.5 1-5.5h1.4zm3 1.2v1.7h3.5v1.2h-3.5v1.9h4.1v1.2h-5.4v-7.2h5.1v1.2h-3.8zm7.1-1.2v7.2h-1.3v-7.2h1.3zm2.8 5.1c.2.3.7 1.1 2.2 1.1.3 0 .5 0 .8-.1.5-.2.6-.6.6-.8 0-.5-.3-.6-.5-.7-.2-.1-.2-.1-.8-.2l-.9-.2c-.5-.1-.7-.2-.9-.3-.3-.1-1.2-.6-1.2-1.8 0-1.4 1.2-2.2 2.8-2.2 1.6 0 2.4.8 2.9 1.5l-1.1.8c-.2-.4-.7-1.1-1.9-1.1-.7 0-1.4.3-1.4.9 0 .6.7.7 1.3.9l.7.2c1 .2 2.3.6 2.3 2.1 0 1.7-1.5 2.3-3.1 2.3-.4 0-.8 0-1.3-.2-.5-.1-1.3-.5-1.9-1.4l1.4-.8zm8.2-3.9v1.7h3.5v1.2h-3.5v1.9h4.1v1.2h-5.4v-7.2h5.1v1.2h-3.8z" fill="#198ed3"/></g></svg>