
<svg width="679px" height="182.729412px" viewBox="0 0 679 182.729412" version="1.1" xmlns="http://www.w3.org/2000/svg" xmlns:xlink="http://www.w3.org/1999/xlink">
    <g id="Page-1" stroke="none" stroke-width="1" fill="none" fill-rule="evenodd">
        <g id="riwax-logo" fill-rule="nonzero">
            <path d="M37.699793,34.2014388 L74.0434783,34.2014388 C83.2650104,34.2014388 88.1469979,39.0791367 88.1469979,46.3956835 C88.1469979,54.2541966 83.2650104,58.8609113 74.0434783,58.8609113 L37.699793,58.8609113 L37.699793,34.2014388 Z M0,122 L37.699793,122 L37.699793,84.3333333 L72.1449275,84.3333333 C81.6376812,84.3333333 87.6045549,87.5851319 87.6045549,105.199041 C87.6045549,110.347722 87.8757764,117.122302 89.7743271,122 L131,122 C126.118012,116.309353 125.575569,109.263789 123.94824,86.7721823 C122.863354,74.5779376 117.438923,68.8872902 110.387164,66.4484412 L110.387164,66.177458 C120.693582,63.7386091 128.559006,55.3381295 128.559006,40.4340528 C128.559006,21.736211 118.52381,9 90.5879917,9 L0,9 L0,122 Z" id="Shape" fill="#0071BB"></path>
            <polygon id="Path" fill="#0071BB" points="146 9 184 9 184 122 146 122"></polygon>
            <polygon id="Path" fill="#0071BB" points="196 9 232.308383 9 249.920659 85.4172662 250.191617 85.4172662 270.513473 9 302.486527 9 322.808383 85.4172662 323.079341 85.4172662 340.691617 9 377 9 343.13024 122 306.550898 122 287.041916 48.2925659 286.770958 48.2925659 267.261976 122 230.140719 122"></polygon>
            <path d="M455.418868,79.9976019 L423.850943,79.9976019 L439.5,37.4532374 L439.769811,37.4532374 L455.418868,79.9976019 Z M368,122 L408.201887,122 L414.94717,103.573141 L464.05283,103.573141 L470.798113,122 L511,122 L462.703774,9 L416.835849,9 L368,122 Z" id="Shape" fill="#0071BB"></path>
            <polygon id="Path" fill="#0071BB" points="551.890805 63.1966427 508.132184 9 552.701149 9 573.5 39.3501199 594.298851 9 638.867816 9 595.109195 63.1966427 644 122 597.54023 122 573.5 87.8561151 549.45977 122 503 122"></polygon>
            <path d="M652.685185,14.5 C652.685185,7.51851852 657.787037,2.14814815 664.5,2.14814815 C671.212963,2.14814815 676.314815,7.51851852 676.314815,14.5 C676.314815,21.4814815 671.212963,26.8518519 664.5,26.8518519 C657.787037,27.1203704 652.685185,21.75 652.685185,14.5 Z M650,14.5 C650,22.8240741 656.712963,29 664.5,29 C672.287037,29 679,22.8240741 679,14.5 C679,6.44444444 672.555556,-2.84217094e-14 664.5,-2.84217094e-14 C656.712963,0.268518519 650,6.44444444 650,14.5 Z M658.861111,23.0925926 L661.546296,23.0925926 L661.546296,15.8425926 L664.231481,15.8425926 L668.796296,23.0925926 L671.481481,23.0925926 L666.648148,15.5740741 C669.064815,15.3055556 671.212963,13.962963 671.212963,11.0092593 C671.212963,7.78703704 669.333333,6.17592593 665.305556,6.17592593 L658.861111,6.17592593 L658.861111,23.0925926 Z M661.546296,8.32407407 L665.037037,8.32407407 C666.916667,8.32407407 668.796296,8.59259259 668.796296,11.0092593 C668.796296,13.6944444 666.648148,13.6944444 664.231481,13.6944444 L661.546296,13.6944444 L661.546296,8.32407407 Z" id="Shape" fill="#0071BB"></path>
            <g id="Group" transform="translate(337.354331, 138.623529)" fill="#000000">
                <path d="M4.60472441,34.9058824 L-9.82547377e-15,34.9058824 C-9.82547377e-15,33.5529412 0.270866141,32.2 0.270866141,31.1176471 L0.270866141,0.811764708 L4.87559055,0.811764708 L4.87559055,14.3411765 L4.87559055,14.3411765 C6.22992126,11.6352941 9.20944882,10.282353 12.1889764,10.282353 C19.5023622,10.282353 22.7527559,16.5058824 22.7527559,22.7294118 C22.7527559,28.9529412 20.0440945,35.1764706 12.7307087,35.1764706 C9.20944882,35.1764706 6.22992126,34.0941177 4.60472441,30.5764706 L4.60472441,30.5764706 L4.60472441,30.8470588 L4.60472441,34.9058824 Z M11.376378,13.8 C6.22992126,13.8 4.60472441,18.9411765 4.60472441,23 C4.60472441,27.3294118 5.95905512,32.2 11.376378,32.2 C16.5228347,32.2 18.1480315,27.3294118 18.1480315,23 C18.1480315,18.6705882 16.7937008,13.8 11.376378,13.8 Z" id="Shape"></path>
                <path d="M33.3165354,23.8117647 C33.0456693,27.8705882 34.6708662,32.2 39.2755906,32.2 C42.7968504,32.2 44.4220473,30.8470588 44.9637795,27.3294118 L49.5685039,27.3294118 C48.7559055,32.7411765 44.6929134,35.4470588 39.0047244,35.4470588 C31.4204724,35.4470588 28.4409449,30.0352941 28.4409449,23 C28.4409449,15.9647059 31.9622047,10.282353 39.5464567,10.282353 C46.5889764,10.5529412 50.1102362,14.882353 50.1102362,21.3764706 L50.1102362,23.5411765 L33.3165354,23.5411765 L33.3165354,23.8117647 Z M45.2346457,20.8352941 C45.2346457,16.7764706 43.6094488,13.8 39.2755906,13.8 C35.4834646,13.8 33.3165354,17.0470588 33.3165354,20.8352941 L45.2346457,20.8352941 Z" id="Shape"></path>
                <path d="M71.5086614,20.2941177 C71.5086614,16.2352941 71.2377953,13.8 66.3622047,13.8 C64.1952756,13.8 62.0283465,15.1529412 62.0283465,17.5882353 L57.4236221,17.5882353 C57.6944882,12.4470588 61.7574803,10.5529412 66.3622047,10.5529412 C71.2377953,10.5529412 76.1133858,11.9058824 76.1133858,18.6705882 L76.1133858,30.0352941 C76.1133858,31.1176471 76.1133858,33.0117647 76.384252,35.1764706 L73.4047244,35.1764706 C72.8629921,35.1764706 72.0503937,35.4470588 72.0503937,34.9058824 C72.0503937,33.8235294 71.7795276,32.7411765 71.7795276,31.6588235 L71.7795276,31.6588235 C70.4251969,34.6352941 67.7165354,35.9882353 64.4661417,35.9882353 C60.4031496,35.9882353 56.0692913,33.8235294 56.0692913,29.2235294 C56.0692913,22.4588235 62.0283465,20.5647059 67.7165354,20.5647059 L71.5086614,20.5647059 L71.5086614,20.2941177 Z M66.903937,23.5411765 C64.1952756,23.8117647 60.4031496,24.6235294 60.4031496,28.1411765 C60.4031496,31.1176471 62.5700787,32.4705882 65.007874,32.4705882 C70.4251969,32.4705882 71.2377953,27.8705882 71.2377953,23.5411765 L66.903937,23.5411765 Z" id="Shape"></path>
                <path d="M100.762204,11.0941177 L105.366929,11.0941177 L105.366929,34.9058824 L101.033071,34.9058824 L101.033071,31.3882353 L101.033071,31.3882353 C99.1370079,34.3647059 96.1574803,35.7176471 92.9070866,35.7176471 C88.0314961,35.7176471 85.0519685,31.9294118 85.0519685,27.0588235 L85.0519685,11.0941177 L89.6566929,11.0941177 L89.6566929,25.1647059 C89.6566929,29.2235294 90.4692913,32.2 94.8031496,32.2 C96.6992126,32.2 99.1370079,31.3882353 100.220472,28.682353 C101.033071,26.5176471 101.033071,23.5411765 101.033071,23 L101.033071,11.0941177 L100.762204,11.0941177 Z" id="Path"></path>
                <path d="M114.847244,11.0941177 L114.847244,5.95294118 L119.451968,4.6 L119.451968,11.0941177 L124.869291,10.8235294 L124.869291,14.0705882 L119.451968,14.0705882 L119.451968,29.4941177 C119.451968,31.1176471 120.806299,31.9294118 122.431496,31.9294118 C123.244094,31.9294118 124.056693,31.9294118 124.869291,31.6588235 L124.869291,35.1764706 C123.785826,35.1764706 122.702362,35.4470588 121.889763,35.4470588 C120.806299,35.4470588 119.9937,35.4470588 118.910236,35.1764706 C118.097638,34.9058824 117.014173,34.6352941 116.201575,33.5529412 C115.388976,32.4705882 115.11811,32.2 115.11811,29.2235294 L115.11811,14.0705882 L111.055118,14.0705882 L111.055118,10.8235294 L114.847244,11.0941177 Z" id="Path"></path>
                <polygon id="Path" points="138.683464 44.1058824 134.07874 44.1058824 137.6 34.9058824 127.577952 11.3647059 132.724409 11.3647059 140.037795 30.0352941 147.622047 11.3647059 152.497638 11.3647059"></polygon>
                <path d="M173.896063,34.9058824 L173.896063,14.3411765 L169.291338,14.3411765 L169.291338,11.0941177 L173.896063,11.0941177 L173.896063,6.49411765 C174.166929,1.35294118 177.959055,1.11022302e-16 181.209449,1.11022302e-16 C182.292913,1.11022302e-16 183.376378,0.270588235 184.459842,0.541176468 L184.459842,4.32941177 C183.647244,4.32941177 182.834645,4.05882353 182.292913,4.05882353 C179.855118,4.05882353 178.229921,4.6 178.500787,7.30588235 L178.500787,11.0941177 L183.91811,11.0941177 L183.91811,14.3411765 L178.500787,14.3411765 L178.500787,34.9058824 L173.896063,34.9058824 L173.896063,34.9058824 Z" id="Path"></path>
                <path d="M211.546456,23 C211.546456,30.3058824 207.483464,35.4470588 199.628346,35.4470588 C191.773228,35.4470588 187.710236,30.3058824 187.710236,23 C187.710236,15.6941177 191.773228,10.5529412 199.628346,10.5529412 C207.483464,10.5529412 211.546456,15.6941177 211.546456,23 Z M199.628346,32.4705882 C205.045669,32.4705882 206.670866,28.1411765 206.670866,23.2705882 C206.670866,18.1294118 205.045669,14.0705882 199.628346,14.0705882 C194.211023,14.0705882 192.585826,18.4 192.585826,23.2705882 C192.585826,28.1411765 194.481889,32.4705882 199.628346,32.4705882 Z" id="Shape"></path>
                <path d="M224.006299,34.9058824 L219.401575,34.9058824 L219.401575,11.0941177 L224.006299,11.0941177 L224.006299,15.6941177 L224.006299,15.6941177 C224.548031,12.4470588 227.798425,10.8235294 231.048819,10.8235294 C231.590551,10.8235294 232.132283,10.8235294 232.674015,10.8235294 L232.674015,15.1529412 C232.132283,14.882353 231.319685,14.882353 230.777952,14.882353 C225.089763,15.1529412 224.006299,18.1294118 224.006299,23 L224.006299,34.9058824 L224.006299,34.9058824 Z" id="Path"></path>
                <path d="M265.990551,18.9411765 C265.719685,15.9647059 264.365354,13.8 261.11496,13.8 C256.781102,13.8 255.155905,17.5882353 255.155905,23 C255.155905,28.4117647 256.781102,32.2 261.11496,32.2 C264.094488,32.2 265.990551,30.3058824 266.261417,26.7882353 L270.866141,26.7882353 C270.595275,32.2 266.532283,35.4470588 261.385826,35.4470588 C253.801575,35.4470588 250.822047,30.0352941 250.822047,23 C250.822047,15.9647059 254.343307,10.282353 261.927559,10.282353 C267.074015,10.282353 270.866141,13.5294118 270.866141,18.6705882 L265.990551,18.6705882 L265.990551,18.9411765 Z" id="Path"></path>
                <path d="M291.451968,20.2941177 C291.451968,16.2352941 291.181102,13.8 286.305512,13.8 C284.138582,13.8 281.971653,15.1529412 281.971653,17.5882353 L277.366929,17.5882353 C277.637795,12.4470588 281.700787,10.5529412 286.305512,10.5529412 C291.181102,10.5529412 296.056693,11.9058824 296.056693,18.6705882 L296.056693,30.0352941 C296.056693,31.1176471 296.056693,33.0117647 296.327559,35.1764706 L293.348031,35.1764706 C292.806299,35.1764706 291.9937,35.4470588 291.9937,34.9058824 C291.9937,33.8235294 291.722834,32.7411765 291.722834,31.6588235 L291.722834,31.6588235 C290.368504,34.6352941 287.659842,35.9882353 284.409449,35.9882353 C280.346456,35.9882353 276.012598,33.8235294 276.012598,29.2235294 C276.012598,22.4588235 281.971653,20.5647059 287.659842,20.5647059 L291.451968,20.5647059 L291.451968,20.2941177 Z M286.847244,23.5411765 C284.138582,23.8117647 280.346456,24.6235294 280.346456,28.1411765 C280.346456,31.1176471 282.513386,32.4705882 284.951181,32.4705882 C290.368504,32.4705882 291.181102,27.8705882 291.181102,23.5411765 L286.847244,23.5411765 Z" id="Shape"></path>
                <path d="M309.329134,34.9058824 L304.724409,34.9058824 L304.724409,11.0941177 L309.329134,11.0941177 L309.329134,15.6941177 L309.329134,15.6941177 C309.870866,12.4470588 313.12126,10.8235294 316.371653,10.8235294 C316.913386,10.8235294 317.455118,10.8235294 317.99685,10.8235294 L317.99685,15.1529412 C317.455118,14.882353 316.642519,14.882353 316.100787,14.882353 C310.412598,15.1529412 309.329134,18.1294118 309.329134,23 L309.329134,34.9058824 L309.329134,34.9058824 Z" id="Path"></path>
                <path d="M331.540157,10.5529412 C336.144882,10.5529412 341.020472,12.4470588 340.749606,17.8588235 L336.144882,17.8588235 C336.415748,14.882353 333.977952,13.8 331.540157,13.8 C329.102362,13.8 327.206299,14.882353 327.206299,17.5882353 C327.206299,20.2941177 331.269291,20.2941177 332.894488,20.8352941 C336.95748,22.1882353 341.562204,22.7294118 341.562204,27.8705882 C341.562204,33.5529412 335.874015,35.4470588 330.998425,35.4470588 C326.122834,35.4470588 321.788976,33.282353 321.788976,27.6 L326.3937,27.6 C326.3937,30.5764706 328.56063,32.2 331.269291,32.2 C333.977952,32.2 336.686614,31.1176471 336.686614,28.1411765 C336.686614,22.7294118 322.330708,26.7882353 322.330708,17.5882353 C322.330708,12.7176471 327.477165,10.5529412 331.540157,10.5529412 Z" id="Path"></path>
            </g>
        </g>
    </g>
</svg>
