<?xml version="1.0" encoding="utf-8"?>
<!-- Generator: Adobe Illustrator 23.0.1, SVG Export Plug-In . SVG Version: 6.00 Build 0)  -->
<!DOCTYPE svg PUBLIC "-//W3C//DTD SVG 1.1//EN" "http://www.w3.org/Graphics/SVG/1.1/DTD/svg11.dtd" [
	<!ENTITY ns_extend "http://ns.adobe.com/Extensibility/1.0/">
	<!ENTITY ns_ai "http://ns.adobe.com/AdobeIllustrator/10.0/">
	<!ENTITY ns_graphs "http://ns.adobe.com/Graphs/1.0/">
	<!ENTITY ns_vars "http://ns.adobe.com/Variables/1.0/">
	<!ENTITY ns_imrep "http://ns.adobe.com/ImageReplacement/1.0/">
	<!ENTITY ns_sfw "http://ns.adobe.com/SaveForWeb/1.0/">
	<!ENTITY ns_custom "http://ns.adobe.com/GenericCustomNamespace/1.0/">
	<!ENTITY ns_adobe_xpath "http://ns.adobe.com/XPath/1.0/">
]>
<svg version="1.1"
	 id="svg4555" xmlns:x="&ns_extend;" xmlns:i="&ns_ai;" xmlns:graph="&ns_graphs;" xmlns:cc="http://creativecommons.org/ns#" xmlns:dc="http://purl.org/dc/elements/1.1/" xmlns:rdf="http://www.w3.org/1999/02/22-rdf-syntax-ns#" xmlns:svg="http://www.w3.org/2000/svg"
	 xmlns="http://www.w3.org/2000/svg" xmlns:xlink="http://www.w3.org/1999/xlink" x="0px" y="0px" viewBox="0 0 556.7 150"
	 style="enable-background:new 0 0 556.7 150;" xml:space="preserve">
<style type="text/css">
	.st0{fill:#AF001E;}
	.st1{fill:#FFFFFF;}
	.st2{fill:#333333;}
</style>
<metadata>
	<sfw  xmlns="&ns_sfw;">
		<slices></slices>
		<sliceSourceBounds  bottomLeftOrigin="true" height="150" width="556.7" x="1" y="1"></sliceSourceBounds>
	</sfw>
</metadata>
<g>
	<path id="path688" class="st0" d="M0,150h228.3V0H0C0,0,0,150,0,150z"/>
	<path id="path692" class="st1" d="M54,38.7c-18.2,0-27.1,7.9-27.1,20.5c0,11.4,6.2,18.1,16.9,20.9l8.2,2.1c6.7,1.8,9.6,3.7,9.6,7.9
		c0,6.2-4.2,7.3-14.4,7.3c-4.6,0-12.7-0.7-15.5-0.9c-2.9-0.2-3.7,0.1-4.1,2.6l-1.3,8.5c-0.2,1.7,0.6,2.3,2,2.5
		c3.2,0.4,11.3,1,19.1,1c17.6,0,30.4-5.7,30.4-22.1c0-9.6-4.2-16.8-18.8-20.6l-8.2-2.1c-5.5-1.4-8.1-3.2-8.1-7.3
		c0-5.8,5.3-6.8,10.4-6.8c6.9,0,13.8,0.6,16.6,0.8c2.9,0.2,3.7-0.1,4.1-2.6l1.3-8.3c0.2-1.7-0.6-2.3-2-2.5
		C70,39.2,62.9,38.7,54,38.7z M90.2,39.4c-2.2,0-2.9,0.8-2.9,3v65.1c0,2.2,0.7,3,2.9,3h10.2c2.2,0,2.9-0.8,2.9-3V52.6h10.5
		c6.6,0,9.8,2.4,9.8,8.6c0,5.6-2.5,7.4-5.1,8.5c-3.2,1.3-4.3-0.1-5.3,4.1l-1.1,4.7c-0.3,1.3-0.5,2-0.5,2.4c0,1.1,0.3,2,1.1,3.3
		l13.2,23.7c1.1,1.9,2,2.7,4.6,2.7h12.1c1.5,0,3.4-1,1.7-3.8L128,80c5.4-3.4,11.5-8.3,11.5-19c0-13.8-7.7-21.6-24.7-21.6H90.2z
		 M157.2,39.4c-2.2,0-2.9,0.8-2.9,3v65.1c0,2.2,0.7,3,2.9,3h10.2c2.2,0,2.8-0.8,2.8-3V81.9h26.3c2.2,0,2.9-0.8,2.9-3v-7.8
		c0-2.2-0.7-3-2.9-3h-26.3v-15h29c2.2,0,2.9-0.8,2.9-3v-7.7c0-2.2-0.7-3-2.9-3H157.2z"/>
	<path id="path704" class="st2" d="M298.2,39.5v31.9h3.9V53.8c0.1,0,0.3-0.1,0.6-0.3c0.3-0.2,0.7-0.3,1.2-0.5
		c0.5-0.2,1.1-0.4,1.8-0.5c0.7-0.1,1.5-0.2,2.3-0.2c1.6,0,2.6,0.4,3.2,1.2c0.5,0.8,0.8,1.8,0.8,3.2v14.8h3.9v-16
		c0-2.4-0.6-4.1-1.8-5.2c-1.2-1.1-3-1.6-5.2-1.6c-0.9,0-1.8,0.1-2.6,0.2c-0.8,0.2-1.5,0.3-2.1,0.5c-0.6,0.2-1.1,0.4-1.5,0.6
		c-0.4,0.2-0.6,0.3-0.7,0.4V39.5H298.2z M517.2,39.5v9.9c-0.1,0-0.2-0.1-0.5-0.2c-0.3-0.1-0.7-0.2-1.2-0.2c-0.5-0.1-1-0.2-1.5-0.2
		c-0.6-0.1-1.2-0.1-1.8-0.1c-3.4,0-5.8,1-7.5,2.8c-1.7,1.9-2.5,4.9-2.5,8.9c0,4,0.8,7,2.4,8.8c1.6,1.8,3.9,2.8,6.8,2.8
		c0.8,0,1.6-0.1,2.3-0.3c0.7-0.2,1.3-0.4,1.8-0.6c0.5-0.2,0.9-0.4,1.3-0.7c0.3-0.2,0.6-0.4,0.7-0.5l0.3,1.5h3.2V39.5H517.2z
		 M377.9,40.7v4.4h4.4v-4.4H377.9z M527.2,40.7v4.4h4.3v-4.4H527.2z M264.7,41.1c-3.5,0-6.1,0.7-7.7,2.2c-1.6,1.5-2.4,3.6-2.4,6.2
		c0,2.3,0.6,4.2,1.7,5.5c1.1,1.4,2.8,2.3,5,2.8l3.4,0.8c0.9,0.2,1.6,0.4,2.2,0.6c0.6,0.2,1.2,0.5,1.6,0.9c0.4,0.4,0.7,0.8,0.9,1.4
		c0.2,0.5,0.3,1.2,0.3,2c0,0.9-0.1,1.7-0.4,2.3c-0.2,0.6-0.6,1.2-1.2,1.5c-0.6,0.4-1.3,0.7-2.2,0.8c-0.9,0.2-2,0.2-3.3,0.2
		c-0.6,0-1.3,0-2.2-0.1c-0.8-0.1-1.7-0.2-2.4-0.3c-0.8-0.1-1.5-0.2-2.1-0.3c-0.6-0.1-1-0.2-1.2-0.3l-0.7,3.4c0.1,0,0.3,0.1,0.8,0.2
		c0.5,0.1,1.1,0.2,1.9,0.4c0.8,0.2,1.8,0.3,2.9,0.4c1.1,0.1,2.3,0.2,3.7,0.2c1.6,0,3-0.2,4.3-0.5c1.3-0.3,2.4-0.8,3.3-1.5
		c0.9-0.7,1.6-1.6,2.1-2.7c0.5-1.1,0.8-2.4,0.8-4c0-2.2-0.5-4-1.6-5.4c-1.1-1.4-2.9-2.4-5.5-3l-3.8-0.8c-1.4-0.3-2.6-0.8-3.3-1.5
		c-0.8-0.7-1.2-1.8-1.2-3.3c0-1,0.2-1.7,0.5-2.3c0.3-0.6,0.7-1.1,1.3-1.4c0.5-0.3,1.2-0.6,1.9-0.7c0.7-0.1,1.5-0.2,2.4-0.2
		c0.9,0,1.7,0,2.6,0.1c0.9,0.1,1.6,0.2,2.3,0.3c0.7,0.1,1.3,0.2,1.8,0.3c0.5,0.1,0.8,0.2,1,0.2l0.6-3.3c-0.2-0.1-0.5-0.1-1.1-0.3
		c-0.5-0.1-1.1-0.3-1.9-0.4c-0.7-0.1-1.5-0.2-2.4-0.3C266.6,41.2,265.7,41.1,264.7,41.1z M456.3,41.8v29.7h4.1V45.2h5.2
		c2.2,0,3.8,0.4,4.6,1.1c0.8,0.8,1.3,2,1.3,3.7c0,1.1-0.2,1.9-0.6,2.5c-0.4,0.6-0.9,1.1-1.6,1.5c-0.7,0.4-1.6,0.6-2.6,0.8
		c-1,0.1-2.1,0.2-3.4,0.3l-0.7,2.9l10,13.3h5.1l-10.4-13.6c1-0.1,2-0.4,3-0.7c1-0.3,1.9-0.7,2.7-1.3c0.8-0.6,1.4-1.3,1.9-2.3
		c0.5-0.9,0.7-2.1,0.7-3.6c0-2.6-0.7-4.5-2.1-6c-1.4-1.5-3.7-2.2-6.9-2.2H456.3z M363.6,48.6c-3.2,0-5.6,0.9-7.2,2.8
		c-1.6,1.9-2.4,4.8-2.4,8.8c0,2.1,0.2,4,0.6,5.4c0.4,1.5,1,2.7,1.9,3.6c0.8,0.9,1.9,1.6,3.2,2c1.3,0.4,2.8,0.6,4.5,0.6
		c1,0,1.9-0.1,2.7-0.2c0.8-0.1,1.6-0.2,2.2-0.3c0.7-0.1,1.2-0.2,1.6-0.3c0.4-0.1,0.7-0.2,0.8-0.2l0.3-3.4c-0.1,0-0.4,0.1-0.8,0.2
		c-0.5,0.1-1,0.2-1.7,0.3c-0.6,0.1-1.3,0.2-2,0.2c-0.7,0.1-1.5,0.1-2.2,0.1c-1.2,0-2.2-0.1-3-0.2c-0.9-0.2-1.7-0.5-2.2-1
		c-0.6-0.5-1.1-1.1-1.4-2c-0.3-0.8-0.5-2-0.6-3.4h15v-2.4c0-3.9-0.8-6.6-2.4-8.3C369.1,49.5,366.7,48.6,363.6,48.6z M417.3,48.6
		c-3.2,0-5.6,0.9-7.2,2.8c-1.6,1.9-2.4,4.8-2.4,8.8c0,2.1,0.2,4,0.7,5.4c0.4,1.5,1,2.7,1.9,3.6c0.8,0.9,1.9,1.6,3.2,2
		c1.3,0.4,2.8,0.6,4.5,0.6c1,0,1.8-0.1,2.7-0.2c0.8-0.1,1.6-0.2,2.2-0.3c0.7-0.1,1.2-0.2,1.6-0.3c0.4-0.1,0.7-0.2,0.8-0.2l0.3-3.4
		c-0.1,0-0.4,0.1-0.8,0.2c-0.5,0.1-1,0.2-1.6,0.3c-0.6,0.1-1.3,0.2-2,0.2c-0.7,0.1-1.5,0.1-2.2,0.1c-1.2,0-2.2-0.1-3.1-0.2
		c-0.9-0.2-1.6-0.5-2.2-1c-0.6-0.5-1.1-1.1-1.4-2c-0.3-0.8-0.5-2-0.6-3.4h15v-2.4c0-3.9-0.8-6.6-2.3-8.3
		C422.8,49.5,420.5,48.6,417.3,48.6z M489.3,48.6c-0.9,0-1.9,0.1-2.8,0.2c-0.9,0.1-1.7,0.2-2.4,0.4c-0.7,0.1-1.3,0.3-1.7,0.4
		c-0.5,0.1-0.8,0.2-0.8,0.2l-0.2,3.2c0.1,0,0.4-0.1,0.8-0.2c0.4-0.1,0.9-0.2,1.5-0.3c0.6-0.1,1.3-0.2,2-0.3c0.7-0.1,1.5-0.2,2.2-0.2
		c1.2,0,2.1,0.1,2.8,0.3c0.7,0.2,1.3,0.5,1.7,0.8c0.4,0.4,0.7,0.8,0.8,1.4c0.1,0.5,0.2,1.1,0.2,1.8v1.7c-0.1,0-0.2,0-0.6-0.1
		c-0.4-0.1-0.8-0.1-1.3-0.2c-0.5-0.1-1.1-0.1-1.8-0.2c-0.6-0.1-1.2-0.1-1.8-0.1c-2.7,0-4.8,0.6-6.2,1.7c-1.4,1.1-2,3-2,5.7
		c0,1.4,0.2,2.5,0.6,3.4c0.4,0.9,0.9,1.6,1.6,2.1c0.7,0.5,1.4,0.9,2.3,1.1c0.9,0.2,1.8,0.3,2.7,0.3c1,0,1.8-0.1,2.6-0.2
		c0.8-0.2,1.4-0.4,2-0.6c0.6-0.2,1-0.4,1.4-0.7c0.4-0.2,0.7-0.4,0.8-0.5l0.3,1.5h3.1V55.7c0-2.5-0.7-4.3-2.1-5.4
		C493.8,49.2,491.8,48.6,489.3,48.6z M546.7,48.6c-1.6,0-2.9,0.2-4.2,0.6c-1.3,0.4-2.3,1-3.2,1.9c-0.9,0.9-1.5,2.1-2,3.6
		c-0.5,1.5-0.7,3.4-0.7,5.6c0,2.2,0.2,4,0.7,5.5c0.4,1.5,1.1,2.7,2,3.6c0.9,0.9,1.9,1.6,3.2,2c1.2,0.4,2.6,0.6,4.2,0.6
		c1.6,0,3-0.2,4.2-0.6c1.2-0.4,2.3-1.1,3.2-2c0.9-0.9,1.5-2.1,2-3.6c0.5-1.5,0.7-3.3,0.7-5.5c0-2.2-0.2-4.1-0.7-5.6
		c-0.5-1.5-1.1-2.7-2-3.6c-0.9-0.9-1.9-1.5-3.2-1.9C549.6,48.8,548.2,48.6,546.7,48.6z M440.9,48.7c-0.6,0-1.3,0.1-1.9,0.2
		c-0.6,0.2-1.2,0.4-1.7,0.7c-0.5,0.3-0.9,0.5-1.3,0.8c-0.4,0.3-0.7,0.5-0.9,0.7l-0.2-2h-3.2v22.2h3.9V53.9c0.1-0.1,0.2-0.2,0.5-0.4
		c0.3-0.2,0.7-0.4,1.1-0.6c0.5-0.2,1-0.4,1.6-0.5c0.6-0.2,1.2-0.2,1.9-0.2c0.7,0,1.3,0,1.8,0.1c0.4,0.1,0.7,0.2,0.9,0.2l0.7-3.5
		c-0.1-0.1-0.5-0.2-1-0.3C442.5,48.8,441.8,48.7,440.9,48.7z M288.2,48.8c-1.8,0-3.3,0.2-4.6,0.6c-1.3,0.4-2.3,1.1-3.2,2
		c-0.8,0.9-1.5,2.1-1.9,3.6c-0.4,1.5-0.6,3.2-0.6,5.3c0,2.1,0.2,3.9,0.6,5.3c0.4,1.5,1,2.7,1.9,3.6c0.8,0.9,1.9,1.6,3.1,2
		c1.3,0.4,2.8,0.6,4.5,0.6c1.8,0,3.1-0.1,4-0.3c0.9-0.2,1.4-0.3,1.6-0.3l0.3-3.4c-0.1,0-0.3,0-0.6,0.1c-0.3,0.1-0.7,0.1-1.1,0.2
		c-0.4,0.1-0.9,0.1-1.5,0.2c-0.5,0.1-1,0.1-1.5,0.1c-1.2,0-2.3-0.1-3.2-0.3c-0.9-0.2-1.7-0.5-2.3-1.1c-0.6-0.6-1.1-1.4-1.4-2.4
		c-0.3-1.1-0.4-2.5-0.4-4.2c0-1.8,0.1-3.2,0.4-4.2c0.3-1.1,0.7-1.9,1.3-2.4c0.5-0.6,1.2-0.9,2-1.1c0.8-0.2,1.6-0.2,2.5-0.2
		c0.6,0,1.2,0,1.8,0.1c0.6,0.1,1.1,0.2,1.6,0.3c0.5,0.1,0.8,0.2,1.1,0.3c0.3,0.1,0.5,0.2,0.6,0.2l0.8-3.2c-0.1,0-0.3-0.1-0.6-0.2
		c-0.3-0.1-0.7-0.2-1.2-0.4c-0.5-0.1-1.1-0.2-1.8-0.3C289.9,48.9,289.1,48.8,288.2,48.8z M319.3,49.2l7,22.2h4.3l4.8-17l4.7,17h4.3
		l6.9-22.2h-4.1l-4.9,18.2l-5-18.2h-3.9l-5,17.8l-4.9-17.8H319.3z M378.1,49.2v22.2h3.9V49.2H378.1z M387.1,49.2v3.2h13.1
		l-13.5,16.1v3h18.2l0.5-3.2h-14.1l13.5-16.1l-0.3-3H387.1z M527.5,49.2v22.2h3.9V49.2H527.5z M363.6,51.8c1,0,1.8,0.1,2.5,0.3
		c0.7,0.2,1.2,0.6,1.7,1.1c0.4,0.5,0.8,1.2,1,2.1c0.2,0.9,0.3,2,0.3,3.2h-11c0-1.3,0.2-2.3,0.4-3.2c0.2-0.9,0.6-1.6,1-2.1
		c0.4-0.5,1-0.9,1.7-1.2C361.8,52,362.6,51.8,363.6,51.8z M417.3,51.8c1,0,1.8,0.1,2.5,0.3c0.7,0.2,1.2,0.6,1.7,1.1
		c0.4,0.5,0.8,1.2,1,2.1c0.2,0.9,0.3,2,0.3,3.2h-11c0-1.3,0.2-2.3,0.4-3.2c0.2-0.9,0.6-1.6,1-2.1c0.4-0.5,1-0.9,1.7-1.2
		C415.5,52,416.4,51.8,417.3,51.8z M546.7,52c1,0,1.9,0.1,2.7,0.4c0.8,0.3,1.4,0.7,1.9,1.3c0.5,0.6,0.9,1.5,1.1,2.6
		c0.2,1.1,0.3,2.4,0.3,4.1s-0.1,3-0.3,4c-0.2,1.1-0.6,1.9-1.1,2.5s-1.1,1.1-1.9,1.3c-0.8,0.3-1.7,0.4-2.7,0.4
		c-1.1,0-1.9-0.1-2.7-0.4c-0.7-0.3-1.4-0.7-1.8-1.3c-0.5-0.6-0.9-1.5-1.1-2.5c-0.2-1.1-0.3-2.4-0.3-4s0.1-3,0.3-4.1
		c0.2-1.1,0.6-1.9,1.1-2.6c0.5-0.6,1.1-1.1,1.8-1.3C544.7,52.1,545.6,52,546.7,52z M512.3,52.1c1.3,0,2.4,0.1,3.3,0.2
		c0.9,0.2,1.4,0.3,1.5,0.3v14.6c-0.1,0.1-0.2,0.1-0.5,0.3c-0.3,0.1-0.6,0.3-1.1,0.4c-0.4,0.1-1,0.3-1.5,0.4
		c-0.6,0.1-1.2,0.2-1.8,0.2c-1,0-1.9-0.1-2.6-0.4c-0.7-0.3-1.4-0.7-1.8-1.3c-0.5-0.6-0.8-1.4-1.1-2.5c-0.2-1-0.4-2.4-0.4-4
		c0-1.6,0.1-2.9,0.4-4c0.2-1.1,0.6-1.9,1.1-2.6c0.5-0.6,1.1-1.1,1.9-1.3C510.4,52.2,511.3,52.1,512.3,52.1z M488.4,60.7
		c0.6,0,1.2,0,1.8,0.1c0.6,0.1,1.1,0.1,1.5,0.1c0.5,0,0.8,0.1,1.2,0.1c0.3,0,0.5,0.1,0.5,0.1v6.4c-0.1,0.1-0.3,0.2-0.6,0.3
		c-0.3,0.1-0.7,0.3-1.2,0.4c-0.5,0.1-1,0.3-1.6,0.4c-0.6,0.1-1.2,0.1-1.8,0.1c-0.7,0-1.3,0-1.9-0.1c-0.6-0.1-1.1-0.3-1.5-0.5
		c-0.4-0.3-0.8-0.7-1-1.2c-0.2-0.5-0.3-1.1-0.3-1.9c0-1.7,0.4-2.9,1.2-3.4C485.4,60.9,486.7,60.7,488.4,60.7z M316.6,78.6v9.9
		c-0.1,0-0.2-0.1-0.6-0.2c-0.3-0.1-0.7-0.1-1.1-0.2c-0.4-0.1-1-0.2-1.5-0.2c-0.6-0.1-1.2-0.1-1.8-0.1c-3.3,0-5.9,0.9-7.5,2.8
		c-1.7,1.9-2.5,4.9-2.5,8.9c0,4,0.8,6.9,2.4,8.8c1.6,1.8,3.9,2.8,6.8,2.8c0.8,0,1.6-0.1,2.3-0.2c0.7-0.2,1.3-0.4,1.8-0.6
		c0.5-0.2,1-0.5,1.3-0.7c0.3-0.2,0.5-0.4,0.7-0.4l0.4,1.4h3.2V78.6H316.6z M462.5,78.6v31.9h3.9V92.9c0.1,0,0.3-0.1,0.6-0.3
		c0.3-0.2,0.7-0.4,1.2-0.6c0.5-0.2,1.1-0.4,1.8-0.5c0.7-0.1,1.5-0.2,2.3-0.2c1.6,0,2.6,0.4,3.2,1.2c0.5,0.8,0.8,1.9,0.8,3.2v14.8
		h3.9v-16c0-2.3-0.6-4-1.8-5.1c-1.2-1.1-3-1.6-5.2-1.6c-0.9,0-1.8,0.1-2.6,0.2c-0.8,0.1-1.5,0.3-2.1,0.5c-0.6,0.2-1.1,0.4-1.5,0.6
		c-0.4,0.2-0.6,0.3-0.7,0.3V78.6H462.5z M336,80.9v29.6h4.1V96.8h12v-3.6h-12v-8.8h13.2v-3.6H336z M289.6,87.8
		c-0.9,0-1.8,0.1-2.7,0.3c-0.8,0.2-1.6,0.4-2.2,0.6c-0.7,0.2-1.2,0.5-1.7,0.7c-0.4,0.2-0.7,0.4-0.9,0.5l-0.2-1.6h-3.2v22.2h3.9V92.9
		c0.1,0,0.3-0.1,0.6-0.3c0.3-0.2,0.7-0.4,1.2-0.6c0.5-0.2,1.1-0.4,1.8-0.5c0.7-0.1,1.5-0.2,2.3-0.2c1.6,0,2.6,0.4,3.2,1.2
		c0.5,0.8,0.8,1.9,0.8,3.2v14.8h3.9v-16c0-2.3-0.6-4-1.8-5.1C293.5,88.3,291.8,87.8,289.6,87.8z M365.6,87.8c-3.2,0-5.6,0.9-7.2,2.8
		c-1.6,1.9-2.4,4.8-2.4,8.9c0,2.1,0.2,3.9,0.7,5.4c0.4,1.5,1.1,2.7,1.9,3.6c0.9,0.9,1.9,1.6,3.2,2c1.3,0.4,2.8,0.6,4.5,0.6
		c1,0,1.8,0,2.7-0.1c0.8-0.1,1.6-0.2,2.2-0.3s1.2-0.2,1.6-0.3c0.4-0.1,0.7-0.2,0.8-0.2l0.3-3.4c-0.1,0-0.4,0.1-0.8,0.2
		c-0.5,0.1-1,0.2-1.6,0.3c-0.6,0.1-1.3,0.2-2,0.3c-0.7,0.1-1.4,0.1-2.2,0.1c-1.1,0-2.2-0.1-3.1-0.2c-0.9-0.2-1.6-0.5-2.2-1
		c-0.6-0.5-1-1.2-1.4-2c-0.3-0.9-0.5-2-0.6-3.3h15v-2.4c0-3.9-0.8-6.6-2.3-8.2C371.1,88.6,368.7,87.8,365.6,87.8z M406.7,87.8
		c-0.9,0-1.8,0.1-2.7,0.3c-0.8,0.2-1.6,0.4-2.2,0.6c-0.7,0.2-1.2,0.5-1.7,0.7c-0.4,0.2-0.7,0.4-0.9,0.5l-0.2-1.6h-3.2v22.2h3.9V92.9
		c0.1,0,0.3-0.1,0.6-0.3c0.3-0.2,0.7-0.4,1.2-0.6c0.5-0.2,1.1-0.4,1.8-0.5c0.7-0.1,1.5-0.2,2.3-0.2c1.6,0,2.6,0.4,3.2,1.2
		c0.5,0.8,0.8,1.9,0.8,3.2v14.8h3.9v-16c0-2.3-0.6-4-1.8-5.1C410.5,88.3,408.9,87.8,406.7,87.8z M426,87.8c-2.4,0.1-4.2,0.7-5.4,1.8
		c-1.3,1.2-2,2.8-2,4.7c0,1.8,0.5,3.3,1.5,4.3c1,1,2.3,1.7,3.9,2l2.6,0.5c1.6,0.3,2.7,0.7,3.4,1.2c0.6,0.5,1,1.3,1,2.4
		c0,1.3-0.4,2.1-1.3,2.5c-0.8,0.4-2.2,0.6-4.2,0.6c-0.7,0-1.4,0-2.1-0.1c-0.7-0.1-1.4-0.1-2.1-0.2c-0.6-0.1-1.2-0.1-1.7-0.2
		c-0.5-0.1-0.8-0.1-0.9-0.1l-0.5,3.1c0.1,0,0.4,0.1,0.8,0.2c0.4,0.1,1,0.2,1.7,0.3c0.7,0.1,1.4,0.2,2.3,0.3c0.9,0.1,1.8,0.1,2.8,0.1
		c2.8,0,5-0.5,6.6-1.6c1.6-1.1,2.4-2.8,2.4-5.2c0-1.7-0.4-3.2-1.3-4.2c-0.9-1.1-2.4-1.8-4.6-2.2l-2.8-0.6c-0.7-0.1-1.3-0.2-1.8-0.4
		c-0.5-0.2-0.9-0.4-1.1-0.6c-0.3-0.3-0.5-0.5-0.6-0.9c-0.1-0.4-0.2-0.8-0.2-1.3c0-0.6,0.1-1.1,0.3-1.5c0.2-0.4,0.6-0.7,1-0.9
		c0.4-0.2,0.9-0.4,1.5-0.4c0.6-0.1,1.2-0.1,1.8-0.1c0.6,0,1.2,0,1.9,0.1c0.7,0.1,1.3,0.1,1.9,0.2c0.6,0.1,1.1,0.1,1.5,0.2
		c0.4,0.1,0.7,0.2,0.8,0.2l0.6-3.1c-0.1,0-0.4-0.1-0.8-0.2c-0.4-0.1-0.9-0.2-1.5-0.3c-0.6-0.1-1.3-0.2-2-0.2
		c-0.7-0.1-1.5-0.1-2.3-0.1C426.8,87.8,426.4,87.7,426,87.8z M448.1,87.8c-3.2,0-5.6,0.9-7.2,2.8c-1.6,1.9-2.4,4.8-2.4,8.9
		c0,2.1,0.2,3.9,0.7,5.4c0.4,1.5,1.1,2.7,1.9,3.6c0.8,0.9,1.9,1.6,3.2,2c1.3,0.4,2.8,0.6,4.5,0.6c1,0,1.9,0,2.7-0.1
		c0.8-0.1,1.6-0.2,2.2-0.3s1.2-0.2,1.6-0.3c0.4-0.1,0.7-0.2,0.8-0.2l0.3-3.4c-0.1,0-0.3,0.1-0.8,0.2c-0.5,0.1-1,0.2-1.7,0.3
		c-0.6,0.1-1.3,0.2-2,0.3c-0.7,0.1-1.5,0.1-2.2,0.1c-1.2,0-2.2-0.1-3.1-0.2c-0.9-0.2-1.6-0.5-2.2-1c-0.6-0.5-1-1.2-1.4-2
		c-0.3-0.9-0.5-2-0.6-3.3h15v-2.4c0-3.9-0.8-6.6-2.3-8.2C453.6,88.6,451.2,87.8,448.1,87.8z M495.1,87.8c-3.2,0-5.6,0.9-7.2,2.8
		c-1.6,1.9-2.4,4.8-2.4,8.9c0,2.1,0.2,3.9,0.6,5.4c0.4,1.5,1.1,2.7,1.9,3.6c0.8,0.9,1.9,1.6,3.2,2c1.3,0.4,2.8,0.6,4.5,0.6
		c1,0,1.9,0,2.7-0.1c0.8-0.1,1.6-0.2,2.2-0.3c0.7-0.1,1.2-0.2,1.6-0.3c0.4-0.1,0.7-0.2,0.8-0.2l0.3-3.4c-0.1,0-0.4,0.1-0.8,0.2
		c-0.5,0.1-1,0.2-1.6,0.3c-0.6,0.1-1.3,0.2-2.1,0.3c-0.7,0.1-1.4,0.1-2.2,0.1c-1.1,0-2.2-0.1-3-0.2c-0.9-0.2-1.6-0.5-2.2-1
		c-0.6-0.5-1.1-1.2-1.4-2c-0.3-0.9-0.5-2-0.6-3.3h15v-2.4c0-3.9-0.8-6.6-2.3-8.2C500.5,88.6,498.2,87.8,495.1,87.8z M520.4,87.8
		c-0.9,0-1.8,0.1-2.7,0.3c-0.8,0.2-1.6,0.4-2.2,0.6c-0.7,0.2-1.2,0.5-1.7,0.7c-0.4,0.2-0.8,0.4-0.9,0.5l-0.2-1.6h-3.2v22.2h3.9V92.9
		c0.1,0,0.3-0.1,0.6-0.3c0.3-0.2,0.7-0.4,1.2-0.6c0.5-0.2,1.1-0.4,1.8-0.5c0.7-0.1,1.5-0.2,2.3-0.2c1.6,0,2.6,0.4,3.2,1.2
		c0.5,0.8,0.8,1.9,0.8,3.2v14.8h3.9v-16c0-2.3-0.6-4-1.8-5.1C524.3,88.3,522.6,87.8,520.4,87.8z M389.2,87.8c-0.7,0-1.3,0.1-1.9,0.3
		c-0.6,0.2-1.1,0.4-1.7,0.6c-0.5,0.2-1,0.5-1.3,0.8c-0.4,0.3-0.7,0.5-0.9,0.7l-0.2-2H380v22.2h3.9V93.1c0.1-0.1,0.2-0.2,0.5-0.4
		c0.3-0.2,0.7-0.4,1.1-0.6c0.5-0.2,1-0.4,1.6-0.5c0.6-0.2,1.2-0.2,1.9-0.2c0.7,0,1.3,0.1,1.7,0.2c0.4,0.1,0.7,0.2,0.8,0.2l0.7-3.5
		c-0.1-0.1-0.5-0.2-1-0.3C390.8,87.9,390.1,87.8,389.2,87.8z M254.6,88.3v15.8c0,2.4,0.6,4.2,1.8,5.3c1.2,1.1,2.9,1.6,5.1,1.6
		c1,0,1.9-0.1,2.7-0.3c0.8-0.2,1.6-0.4,2.2-0.7c0.7-0.2,1.2-0.5,1.6-0.7c0.4-0.2,0.7-0.4,0.8-0.5l0.3,1.6h3.2V88.3h-3.9v17.6
		c-0.1,0.1-0.3,0.2-0.6,0.3c-0.3,0.2-0.7,0.3-1.2,0.5c-0.5,0.2-1.1,0.4-1.8,0.5c-0.7,0.1-1.5,0.2-2.3,0.2c-1.6,0-2.7-0.4-3.2-1.1
		c-0.5-0.8-0.8-1.8-0.8-3.2V88.3H254.6z M365.6,91c1,0,1.8,0.1,2.5,0.3c0.7,0.2,1.3,0.6,1.7,1.1c0.4,0.5,0.8,1.2,1,2.1
		c0.2,0.9,0.3,2,0.3,3.2h-11c0-1.3,0.2-2.3,0.4-3.2c0.2-0.9,0.6-1.6,1-2.1c0.4-0.5,1-0.9,1.7-1.2C363.8,91.1,364.7,91,365.6,91z
		 M448.1,91c1,0,1.8,0.1,2.5,0.3c0.7,0.2,1.3,0.6,1.7,1.1c0.4,0.5,0.8,1.2,1,2.1c0.2,0.9,0.3,2,0.3,3.2h-11c0-1.3,0.2-2.3,0.4-3.2
		c0.2-0.9,0.6-1.6,1-2.1c0.4-0.5,1-0.9,1.7-1.2C446.3,91.1,447.2,91,448.1,91z M495.1,91c1,0,1.8,0.1,2.5,0.3
		c0.7,0.2,1.2,0.6,1.7,1.1c0.4,0.5,0.8,1.2,1,2.1c0.2,0.9,0.3,2,0.3,3.2h-11c0-1.3,0.1-2.3,0.4-3.2c0.2-0.9,0.6-1.6,1-2.1
		c0.4-0.5,1-0.9,1.7-1.2C493.3,91.1,494.1,91,495.1,91z M311,91.2c0.2,0,0.5,0,0.8,0c1.3,0,2.4,0.1,3.3,0.2c1,0.2,1.4,0.2,1.5,0.3
		v14.6c-0.1,0.1-0.3,0.2-0.6,0.3c-0.3,0.1-0.6,0.3-1.1,0.4c-0.4,0.1-1,0.3-1.5,0.4c-0.6,0.1-1.2,0.2-1.8,0.2c-1,0-1.9-0.1-2.7-0.4
		c-0.7-0.3-1.3-0.7-1.8-1.3c-0.5-0.6-0.9-1.5-1.1-2.5c-0.2-1-0.3-2.4-0.3-3.9c0-1.6,0.1-2.9,0.3-4c0.2-1.1,0.6-1.9,1.1-2.6
		c0.5-0.6,1.1-1.1,1.9-1.4C309.6,91.4,310.3,91.2,311,91.2z"/>
</g>
</svg>
