<?xml version="1.0" encoding="utf-8"?>
<!-- Generator: Adobe Illustrator 26.2.1, SVG Export Plug-In . SVG Version: 6.00 Build 0)  -->
<svg version="1.1" id="Ebene_1" xmlns="http://www.w3.org/2000/svg" xmlns:xlink="http://www.w3.org/1999/xlink" x="0px" y="0px"
	 viewBox="0 0 283.46 283.46" style="enable-background:new 0 0 283.46 283.46;" xml:space="preserve">
<style type="text/css">
	.st0{fill:#C7CD00;}
</style>
<rect x="0" class="st0" width="283.47" height="283.46"/>
<g>
	<path d="M41.59,132.68c0.06-1.46-0.59-2.34-1.47-2.86c-0.94-0.53-2.12-0.76-3.48-0.76c-3.06,0-4.59,0.87-4.83,2.39
		c-1.12,6.3,24,2.39,21.23,17.68c-1.71,9.74-10.73,14.47-22.41,14.47c-11.21,0-17.4-6.47-16.34-14.06h13.33
		c0.06,1.52,0.65,2.63,1.71,3.33c1.01,0.7,2.42,1.05,3.77,1.05c3.48,0,5.96-1.11,6.32-3.09c1.12-6.36-24.06-1.98-21.17-18.03
		c1.59-8.93,10.14-13.42,20.76-13.42c11.79,0,16.1,5.95,15.8,13.3H41.59z"/>
	<path d="M64.23,120.48h13.92l-4.48,25.14c-0.76,4.15-0.53,7.7,5.19,7.7c5.01,0,7.01-3.15,7.84-7.7l4.48-25.14h13.92l-4.25,23.75
		c-2.41,13.48-9.73,19.36-23.82,19.36c-13.15,0-19.58-4.96-17.04-19.43L64.23,120.48z"/>
	<polygon points="109.87,120.48 107.93,131.51 120.43,131.51 114.89,162.48 128.8,162.48 134.34,131.51 157.1,131.51 151.57,162.48 
		165.48,162.48 171.02,131.51 183.52,131.51 185.47,120.48 	"/>
	<path d="M183.1,162.48l7.49-42h34.61l-1.76,9.8h-20.7l-1.06,6.01h17.51l-1.71,9.79h-17.51l-1.18,6.6h21.53l-1.77,9.8H183.1z"/>
	<path d="M241.31,147.84l-2.59,14.64H224.8l7.48-42h20.05c14.15,0,18.1,3.8,16.68,11.96c-0.88,4.85-3.77,8.93-8.96,10.27
		c4.19,1.64,6.72,2.69,5.19,11.14c-0.95,5.49-1.48,7.35,0.18,7.35l-0.24,1.28h-14.09c-0.17-0.93-0.05-3.62,0.59-7.34
		c1.01-5.49,0.36-7.3-6.13-7.3H241.31z M242.96,138.63h5.49c4.3,0,6.78-1.06,7.31-3.97c0.53-2.98-1.59-4.37-4.83-4.37h-6.49
		L242.96,138.63z"/>
</g>
</svg>
