<?xml version="1.0" encoding="UTF-8"?>
<!-- Generator: Adobe Illustrator 26.0.2, SVG Export Plug-In . SVG Version: 6.00 Build 0)  -->
<svg version="1.1" id="Layer_1" xmlns="http://www.w3.org/2000/svg" xmlns:xlink="http://www.w3.org/1999/xlink" x="0px" y="0px" viewBox="0 0 486 76" style="" xml:space="preserve">
<style type="text/css">
	.st0{fill:#fff;}
	.st1{fill:#009FC7;}
	.st2{fill:#7F414C;}
	.st3{fill:#D4CAC7;}
	.st4{fill:#0086A0;}
	.st5{fill:#BB3F41;}
	.st6{fill:#4A3843;}
	.st7{fill:#D84A4C;}
</style>
<g>
	<path class="st0" d="M153.7,51.9l-0.3,0.3v7l0.3,0.3h0.1l0.3-0.3v-7L153.7,51.9L153.7,51.9z M153.7,48.9l-0.3,0.3v1l0.3,0.3h0.1   l0.3-0.3v-1L153.7,48.9L153.7,48.9z M137.3,57c0-1.2,0.7-1.6,2.8-1.6h1.1v2.8c-0.7,0.4-1.5,0.7-2.4,0.7c-0.8,0-1.5-0.4-1.5-1.7V57z    M136.6,57v0.2c0,1.8,1.1,2.3,2.1,2.3c0.8,0,1.7-0.3,2.4-0.7v0.4l0.3,0.3h0.1l0.3-0.3v-4.7c0-1.5-0.5-2.6-2.4-2.6   c-0.7,0-1.3,0-2,0.1c-0.2,0-0.3,0.1-0.3,0.2v0.1l0.3,0.2h0.1c0.7-0.1,1.3-0.1,2-0.1c1.4,0,1.8,0.6,1.8,2v0.5h-1.1   C137.6,54.9,136.6,55.6,136.6,57 M48.3,51.9l-0.3,0.3v7l0.3,0.3h0.1l0.3-0.3v-7L48.3,51.9L48.3,51.9z M48.3,48.9l-0.3,0.3v1   l0.3,0.3h0.1l0.3-0.3v-1L48.3,48.9L48.3,48.9z M4.3,48.9c-1.6,0-3.3,0.4-3.3,2.3c0,1.2,0.9,1.9,2.2,2.7l0.9,0.5   c1.6,1,2.2,1.3,2.2,2.4c0,1.1-0.5,2.1-2.6,2.1c-0.8,0-1.4-0.1-2.1-0.2h0l-0.3,0.2v0.2l0.2,0.2c0.7,0.1,1.5,0.1,2.2,0.1   c2.7,0,3.2-1.4,3.2-2.7s-0.9-2-2.5-2.9l-0.9-0.5c-1.2-0.8-1.9-1.3-1.9-2.1c0-1.2,0.8-1.7,2.6-1.7c0.7,0,1.8,0.1,2.1,0.1l0.3-0.2   v-0.2l-0.2-0.2C5.8,49,5,48.9,4.3,48.9 M7,39.1c0,2-1.6,2.4-3.3,2.4c-0.7,0-1.1,0-1.8-0.1v-4.6h2.5c2,0,2.5,1,2.5,2.1V39.1z    M4.5,36.1H2V32C2.4,32,3.1,32,3.7,32c1.6,0,3.2,0.3,3.2,2v0.1C6.9,35.1,6.5,36.1,4.5,36.1 M7.6,39v-0.2c0.1-1.1-0.7-2.1-1.7-2.4   c1-0.3,1.7-1.3,1.7-2.3v-0.2c0-2.1-1.9-2.5-3.9-2.5c-0.7,0-1.5,0-2.1,0.1l-0.3,0.3v9.8c0,0.2,0.1,0.3,0.3,0.3C2.3,41.9,3,42,3.7,42   C5.5,42,7.6,41.5,7.6,39 M10.4,52.1l-0.2-0.3H10l-0.3,0.3v4.6c0,1.9,1.1,2.7,2.5,2.7c0.8,0,1.6-0.2,2.3-0.6v0.2l0.2,0.3h0.1   l0.2-0.3v-7l-0.3-0.3h-0.1l-0.3,0.3v6.2c-0.7,0.3-1.4,0.5-2.2,0.6h0c-1,0-1.9-0.5-1.9-2.1L10.4,52.1z M15.2,37.7h-4.4v-0.1   c0-1.7,0.7-2.8,2.2-2.8S15.3,35.8,15.2,37.7L15.2,37.7z M15.6,38.3l0.3-0.3v-0.4c0-2-0.8-3.3-2.8-3.3c-1.9,0-2.8,1.4-2.8,3.3v0.9   c0,2.6,1.4,3.4,3.2,3.4c0.7,0,1.4-0.1,2.1-0.2c0.2,0,0.3-0.1,0.3-0.3v-0.1l-0.2-0.2h-0.1c-0.7,0.1-1.4,0.2-2.1,0.2   c-1.4,0-2.5-0.5-2.5-2.9v-0.3L15.6,38.3z M21.7,34.6v-0.1c0-0.2-0.2-0.2-0.4-0.2c-0.7,0-1.4,0.2-1.9,0.6v-0.3l-0.2-0.3H19l-0.3,0.3   v7l0.3,0.3h0.1l0.3-0.3v-6.1c0.6-0.4,1.2-0.6,1.9-0.6C21.5,34.8,21.7,34.8,21.7,34.6 M22.9,56.1c0,1.9-0.6,2.8-2.1,2.8   c-0.7,0-1.3-0.1-2-0.2v-6.2c0.6-0.1,1.3-0.2,2-0.2c1.6,0,2.1,1.1,2.1,2.9V56.1z M23.5,56.1v-0.9c0-2-0.8-3.4-2.7-3.4   c-0.8,0-1.6,0.1-2.4,0.3c-0.2,0-0.2,0.1-0.2,0.3v9.5l0.2,0.3h0.1l0.2-0.3v-2.6c0.6,0.1,1.3,0.2,2,0.2   C22.6,59.5,23.5,58.4,23.5,56.1 M29.3,41.9l0.3-0.3v-7l-0.3-0.3h-0.1l-0.3,0.3v6.2c-0.7,0.3-1.4,0.5-2.2,0.6h0   c-1,0-1.9-0.5-1.9-2.1v-4.6l-0.3-0.3h-0.1l-0.3,0.3v4.6c0,1.9,1.1,2.7,2.5,2.7c0.8,0,1.6-0.2,2.3-0.6v0.2l0.2,0.3L29.3,41.9z    M31.2,55.2h-4.4v-0.1c0-1.7,0.7-2.8,2.2-2.8S31.2,53.4,31.2,55.2L31.2,55.2z M31.5,55.8l0.3-0.3v-0.4c0-2-0.8-3.3-2.8-3.3   c-1.9,0-2.8,1.4-2.8,3.3v0.9c0,2.6,1.4,3.4,3.2,3.4c0.7,0,1.4-0.1,2.1-0.2c0.2,0,0.3-0.1,0.3-0.3v-0.1l-0.2-0.2h-0.1   c-0.7,0.1-1.4,0.2-2.1,0.2c-1.4,0-2.5-0.5-2.5-2.9v-0.3L31.5,55.8z M36.4,31.8L36.4,31.8c0-0.2-0.1-0.3-0.3-0.3   c-0.2,0-0.5-0.1-0.7,0c-1,0-1.6,0.4-1.6,1.7v1.3h-1.4l-0.3,0.2v0.1l0.3,0.2h1.4v6.7l0.3,0.3h0.1l0.3-0.3v-6.7h1.7l0.3-0.2v-0.1   l-0.3-0.2h-1.7v-1.3c0-0.8,0.3-1.1,1-1.1h0.7C36.3,31.9,36.4,31.9,36.4,31.8 M37.6,52.1V52c0-0.2-0.2-0.2-0.4-0.2   c-0.7,0-1.4,0.2-1.9,0.6v-0.3L35,51.9h-0.1l-0.3,0.3v7l0.3,0.3H35l0.3-0.3V53c0.6-0.4,1.2-0.6,1.9-0.6   C37.4,52.4,37.6,52.3,37.6,52.1 M39.1,36c0-1,0.7-1.2,1.6-1.2c0.7,0,1.3,0.1,2,0.2h0c0.1,0,0.2-0.1,0.2-0.2v-0.1   c0-0.1-0.1-0.2-0.3-0.2c-0.7-0.1-1.3-0.1-2-0.1c-1.1,0-2.1,0.4-2.1,1.7c0,1,0.6,1.4,1.7,2l0.9,0.5c1.2,0.6,1.5,1,1.5,1.5   c0,1.1-0.8,1.4-1.8,1.4c-0.7,0-1.4-0.1-2.1-0.2h-0.1l-0.2,0.2v0.1c0,0.1,0.1,0.2,0.3,0.2c0.7,0.1,1.4,0.2,2,0.2   c1.3,0,2.4-0.4,2.4-1.9c0-0.9-0.6-1.4-1.8-2l-0.9-0.5C39.6,37,39.1,36.6,39.1,36 M45.2,52.2v-0.1L45,51.9h-0.2   c-0.1,0-0.2,0.1-0.2,0.2l-1.8,6.3c-0.1,0.4-0.2,0.5-0.4,0.5c-0.2,0-0.3-0.1-0.4-0.5l-1.8-6.3c-0.1-0.2-0.2-0.2-0.3-0.2h-0.1   l-0.2,0.2v0.1l1.8,6.4c0.2,0.7,0.6,0.9,1,0.9c0.4,0,0.7-0.1,1-0.9L45.2,52.2z M50.9,34.7v-0.1l-0.2-0.2h-0.2   c-0.1,0-0.2,0.1-0.3,0.2l-1.8,6.3c-0.1,0.4-0.2,0.5-0.4,0.5c-0.2,0-0.3-0.1-0.4-0.5l-1.8-6.3c-0.1-0.2-0.2-0.2-0.3-0.2h-0.1   l-0.2,0.2v0.1l1.9,6.4c0.2,0.7,0.6,0.9,1,0.9s0.7-0.1,1-0.9L50.9,34.7z M53.8,51.8c-1.1,0-2.1,0.4-2.1,1.7c0,1,0.6,1.4,1.7,2   l0.9,0.5c1.2,0.6,1.5,1,1.5,1.5c0,1.1-0.8,1.4-1.8,1.4c-0.7,0-1.4-0.1-2.1-0.2h-0.1l-0.2,0.2v0.2c0,0.1,0.1,0.2,0.3,0.2   c0.7,0.1,1.4,0.2,2,0.2c1.3,0,2.4-0.4,2.4-1.9c0-0.9-0.6-1.4-1.8-2L53.7,55c-0.9-0.5-1.4-0.8-1.4-1.5c0-1,0.7-1.2,1.6-1.2   c0.7,0,1.3,0.1,1.9,0.2h0c0.1,0,0.2-0.1,0.2-0.2v-0.1c0-0.1-0.1-0.2-0.3-0.2C55.2,51.8,54.5,51.8,53.8,51.8 M58.1,37.7h-4.4v-0.1   c0-1.7,0.7-2.8,2.2-2.8S58.1,35.9,58.1,37.7L58.1,37.7z M58.4,38.3l0.3-0.3v-0.4c0-2-0.8-3.3-2.8-3.3c-1.9,0-2.8,1.4-2.8,3.3v0.9   c0,2.6,1.4,3.4,3.2,3.4c0.7,0,1.4-0.1,2.1-0.2c0.2,0,0.3-0.1,0.3-0.3v-0.1l-0.2-0.2h-0.1c-0.7,0.1-1.4,0.2-2.1,0.2   c-1.4,0-2.5-0.5-2.5-2.9v-0.3L58.4,38.3z M59.7,50.5l0.3-0.3v-1l-0.3-0.3h-0.1l-0.3,0.3v1L59.7,50.5L59.7,50.5z M59.7,59.4l0.3-0.3   v-7l-0.3-0.3h-0.1l-0.3,0.3v7L59.7,59.4L59.7,59.4z M64.5,34.6v-0.1c0-0.2-0.2-0.2-0.4-0.2c-0.7,0-1.4,0.2-1.9,0.6v-0.3l-0.2-0.3   h-0.1l-0.2,0.3v7l0.3,0.3h0.1l0.3-0.3v-6.1c0.6-0.4,1.2-0.6,1.9-0.6C64.3,34.8,64.5,34.8,64.5,34.6 M68.1,55.2v1   c0,1.7-0.6,2.8-2.3,2.8s-2.3-1.1-2.3-2.8v-1c0-1.7,0.6-2.8,2.3-2.8S68.1,53.4,68.1,55.2 M65.8,51.8c-1.9,0-2.9,1.2-2.9,3.3v1   c0,2.1,1,3.3,2.9,3.3s2.9-1.2,2.9-3.3v-1C68.7,53,67.8,51.8,65.8,51.8 M71.7,38.6c0,1.8-0.6,2.9-2.1,2.9c-0.7,0-1.3-0.1-1.9-0.2V35   c0.6-0.1,1.3-0.2,1.9-0.2c1.5,0,2.1,1,2.1,2.8V38.6z M72.3,38.6v-0.9c0-2.2-0.9-3.3-2.7-3.3c-0.7,0-1.3,0.1-1.9,0.2v-2.8l-0.2-0.3   h-0.1L67,31.7v9.7c0,0.2,0,0.2,0.2,0.3c0.8,0.2,1.6,0.2,2.4,0.3C71.5,42,72.3,40.6,72.3,38.6 M74.5,51.8c-0.8,0-1.6,0.2-2.3,0.6   v-0.2L72,51.9h-0.1l-0.3,0.3v7l0.3,0.3H72l0.3-0.3v-6.2c0.7-0.3,1.4-0.5,2.2-0.6c1.1,0,1.9,0.5,1.9,2.1v4.6l0.2,0.3h0.1l0.3-0.3   v-4.6C77,52.5,75.8,51.8,74.5,51.8 M79.5,40.7c-0.7,0.4-1.6,0.7-2.4,0.7c-0.8,0-1.5-0.4-1.5-1.7v-0.2c0-1.2,0.7-1.6,2.8-1.6h1.1   V40.7z M79.8,41.9l0.3-0.3v-4.7c0-1.5-0.5-2.6-2.4-2.6c-0.7,0-1.3,0-2,0.1c-0.2,0-0.3,0.1-0.3,0.2v0.1l0.3,0.2h0.1   c0.7-0.1,1.3-0.1,2-0.1c1.4,0,1.8,0.6,1.8,2v0.5h-1.1c-2.6,0-3.5,0.7-3.5,2.2v0.2c0,1.8,1.1,2.3,2.1,2.3c0.8,0,1.7-0.3,2.4-0.7v0.4   L79.8,41.9L79.8,41.9z M88.3,41.9l0.3-0.3V37c0-1.9-1.1-2.7-2.5-2.7c-0.8,0-1.6,0.2-2.3,0.6v-0.2l-0.3-0.3h-0.1l-0.3,0.3v7l0.3,0.3   h0.1l0.3-0.3v-6.2c0.7-0.3,1.4-0.5,2.2-0.6c1.1,0,1.9,0.5,1.9,2.1v4.6l0.3,0.3H88.3z M89.3,59.4l0.3-0.3v-7l-0.3-0.3h-0.1l-0.3,0.3   v6.2c-0.7,0.3-1.4,0.5-2.2,0.6h0c-1,0-1.9-0.5-1.9-2.1v-4.6l-0.3-0.3h-0.1l-0.3,0.3v4.6c0,1.9,1.1,2.7,2.5,2.7   c0.8,0,1.6-0.2,2.3-0.6v0.2l0.3,0.3H89.3z M96.1,41.2c-0.6,0.1-1.3,0.2-2,0.2c-1.6,0-2.1-1.1-2.1-2.9v-0.9c0-1.8,0.6-2.8,2.1-2.8   c0.7,0,1.3,0.1,2,0.2V41.2z M96.7,41.4v-9.7l-0.2-0.3h-0.1l-0.2,0.3v2.8c-0.6-0.1-1.3-0.2-2-0.2c-1.8,0-2.7,1.1-2.7,3.3v0.9   c0,2,0.8,3.4,2.7,3.4c0.8,0,1.6-0.1,2.4-0.3C96.6,41.7,96.7,41.6,96.7,41.4 M97.6,59.4l0.3-0.3v-4.6c0-1.9-1.1-2.7-2.5-2.7   c-0.8,0-1.6,0.2-2.3,0.6v-0.2l-0.2-0.3h-0.1l-0.2,0.3v7l0.3,0.3h0.1l0.3-0.3v-6.2c0.7-0.3,1.4-0.5,2.2-0.6c1.1,0,1.9,0.5,1.9,2.1   v4.6l0.2,0.3L97.6,59.4z M103.5,52.3c0.7,0,1.3,0.1,1.9,0.2v6.2c-0.6,0.1-1.3,0.2-1.9,0.2c-1.6,0-2.1-1.1-2.1-2.9v-0.9   C101.4,53.3,102,52.3,103.5,52.3 M103.5,51.8c-1.8,0-2.7,1.1-2.7,3.3v0.9c0,2,0.8,3.4,2.7,3.4c0.8,0,1.6-0.1,2.4-0.3   c0.2,0,0.2-0.1,0.2-0.3v-9.7l-0.2-0.3h-0.1l-0.2,0.3V52C104.8,51.9,104.2,51.8,103.5,51.8 M107.7,31.8L107.7,31.8   c0-0.2-0.1-0.3-0.3-0.3c-0.2,0-0.5-0.1-0.7,0c-1,0-1.6,0.4-1.6,1.7v1.3h-1.4l-0.3,0.2v0.1l0.3,0.2h1.4v6.7l0.3,0.3h0.1l0.2-0.3   v-6.7h1.7l0.3-0.2v-0.1l-0.3-0.2h-1.7v-1.3c0-0.8,0.3-1.1,1-1.1h0.7C107.6,31.9,107.7,31.9,107.7,31.8 M112,32.9l0.3-0.3v-1   l-0.3-0.3h-0.1l-0.3,0.3v1L112,32.9L112,32.9z M114.1,32.9l0.3-0.3v-1l-0.3-0.3h0l-0.3,0.3v1L114.1,32.9L114.1,32.9z M115.4,41.9   l0.3-0.3v-7l-0.3-0.3h-0.1l-0.3,0.3v6.2c-0.7,0.3-1.4,0.5-2.2,0.6h0c-1,0-1.9-0.5-1.9-2.1v-4.6l-0.2-0.3h-0.1l-0.3,0.3v4.6   c0,1.9,1.1,2.7,2.5,2.7c0.8,0,1.6-0.2,2.3-0.6v0.2l0.2,0.3L115.4,41.9z M119.7,53.3v1.8c0,2.9-1.3,3.8-3,3.8s-3-1-3-3.8v-1.8   c0-2.9,1.3-3.8,3-3.8S119.7,50.5,119.7,53.3 M116.7,48.9c-2.1,0-3.6,1.3-3.6,4.4v1.8c0,3.1,1.5,4.4,3.6,4.4s3.6-1.3,3.6-4.4v-1.8   C120.3,50.2,118.8,48.9,116.7,48.9 M121.6,34.6v-0.1c0-0.2-0.2-0.2-0.4-0.2c-0.7,0-1.4,0.2-1.9,0.6v-0.3l-0.2-0.3H119l-0.2,0.3v7   l0.3,0.3h0.1l0.3-0.3v-6.1c0.6-0.4,1.2-0.6,1.9-0.6C121.5,34.8,121.6,34.8,121.6,34.6 M126.2,52.1V52c0-0.2-0.2-0.2-0.4-0.2   c-0.7,0-1.4,0.2-1.9,0.6v-0.3l-0.3-0.3h-0.1l-0.3,0.3v7l0.3,0.3h0.1l0.3-0.3V53c0.6-0.4,1.2-0.6,1.9-0.6   C126.1,52.4,126.2,52.3,126.2,52.1 M128.7,59.9c0-0.8,0.4-1.5,1-1.9l1.9,0.5c1.5,0.4,1.8,0.6,1.8,1.4V60c0,1-0.5,1.7-2.4,1.7   c-1.8,0-2.4-0.6-2.4-1.7L128.7,59.9z M128.8,54.3L128.8,54.3c0-1,0.3-1.9,2.3-1.9c1.8,0,2.3,0.8,2.3,1.8v0.1c0,1-0.4,1.8-2.3,1.8   C129.1,56.1,128.8,55,128.8,54.3 M128.1,59.9V60c0,1.3,0.8,2.2,3,2.2c2.2,0,3-0.9,3-2.2v-0.1c0-1.1-0.7-1.5-2.2-1.9l-2.5-0.7   c-0.3-0.1-0.4-0.3-0.4-0.4c0-0.3,0.2-0.5,0.5-0.6c0.5,0.2,1.1,0.3,1.7,0.3c2.2,0,2.9-1,2.9-2.3v-0.1c0-0.7-0.2-1.3-0.8-1.8h0.7   l0.3-0.2v-0.2l-0.3-0.2h-2.8c-2.4,0-2.9,1.3-2.9,2.3v0.1c0,0.6,0.2,1.2,0.7,1.7c-0.4,0.2-0.6,0.5-0.6,0.9c0,0.4,0.3,0.8,0.7,0.9   l0.1,0C128.5,58.3,128.1,59.1,128.1,59.9 M134,41.8l0.3-0.2v-0.2l-0.2-0.2H134c-0.5,0.1-1.6,0.1-2.4,0.1c-1.6,0-2.8-1-2.8-3.8v-1.8   c0-2.8,1.2-3.8,2.8-3.8c0.9,0,1.9,0.1,2.4,0.1h0.1l0.2-0.2v-0.2l-0.3-0.2c-0.8-0.1-1.6-0.1-2.4-0.1c-1.8,0-3.4,1-3.4,4.4v1.8   c0,3.3,1.7,4.4,3.4,4.4C132.4,42,133.2,41.9,134,41.8 M141.6,38.6c0,1.7-0.6,2.8-2.3,2.8s-2.3-1.1-2.3-2.8v-1   c0-1.7,0.6-2.8,2.3-2.8s2.3,1.1,2.3,2.8V38.6z M142.2,38.6v-1c0-2.1-1-3.3-2.9-3.3s-2.9,1.2-2.9,3.3v1c0,2.1,1,3.3,2.9,3.3   S142.2,40.7,142.2,38.6 M149.3,40.7c-0.7,0.4-1.5,0.7-2.4,0.7c-0.8,0-1.5-0.4-1.5-1.7v-0.2c0-1.2,0.7-1.6,2.8-1.6h1.1V40.7z    M149.7,41.9l0.3-0.3v-4.7c0-1.5-0.5-2.6-2.4-2.6c-0.7,0-1.3,0-2,0.1c-0.2,0-0.3,0.1-0.3,0.2v0.1l0.3,0.2h0.1   c0.7-0.1,1.3-0.1,2-0.1c1.4,0,1.8,0.6,1.8,2v0.5h-1.1c-2.6,0-3.5,0.7-3.5,2.2v0.2c0,1.8,1.1,2.3,2.1,2.3c0.8,0,1.7-0.3,2.4-0.7v0.4   L149.7,41.9L149.7,41.9z M149.9,59.4l0.3-0.3v-4.6c0-1.9-1.1-2.7-2.5-2.7c-0.8,0-1.6,0.2-2.3,0.6v-0.2l-0.2-0.3h-0.1l-0.3,0.3v7   l0.3,0.3h0.1l0.3-0.3v-6.2c0.7-0.3,1.4-0.5,2.2-0.6c1.1,0,1.9,0.5,1.9,2.1v4.6L149.9,59.4L149.9,59.4z M157.6,41.6v-0.1l-0.2-0.2   h-0.1c-0.6,0.1-1.1,0.1-1.7,0.1c-1.6,0-2.2-1.1-2.2-2.8v-0.9c0-1.7,0.6-2.8,2.2-2.8c0.6,0,1.1,0.1,1.7,0.1h0.1l0.2-0.2v-0.1   c0-0.1-0.1-0.2-0.3-0.2c-0.6-0.1-1.1-0.1-1.7-0.1c-2,0-2.8,1.5-2.8,3.3v0.9c0,1.8,0.8,3.4,2.8,3.4c0.6,0,1.1-0.1,1.7-0.1   C157.5,41.8,157.6,41.7,157.6,41.6 M161.2,51.9c-0.7-0.1-1.3-0.1-2-0.1c-1.1,0-2.1,0.4-2.1,1.7c0,1,0.6,1.4,1.7,2l0.9,0.5   c1.2,0.6,1.5,1,1.5,1.5c0,1.1-0.8,1.4-1.8,1.4c-0.7,0-1.4-0.1-2.1-0.2h-0.1l-0.2,0.2v0.2c0,0.1,0.1,0.2,0.3,0.2   c0.7,0.1,1.4,0.2,2,0.2c1.3,0,2.4-0.4,2.4-1.9c0-0.9-0.6-1.4-1.8-2L159,55c-0.9-0.5-1.4-0.8-1.4-1.5c0-1,0.7-1.2,1.6-1.2   c0.7,0,1.3,0.1,1.9,0.2h0c0.1,0,0.2-0.1,0.2-0.2v-0.1C161.5,52,161.4,52,161.2,51.9 M165.2,41.9l0.2-0.3V37c0-1.6-0.7-2.7-2.7-2.7   c-0.6,0-1.3,0.1-1.9,0.3v-2.8l-0.2-0.3h-0.1l-0.2,0.3v9.9l0.2,0.3h0.1l0.2-0.3v-6.5c0.6-0.2,1.3-0.2,1.9-0.3c1.5,0,2.1,0.8,2.1,2.1   v4.6l0.2,0.3L165.2,41.9z M169,32.9l0.3-0.3v-1l-0.3-0.3h-0.1l-0.3,0.3v1L169,32.9L169,32.9z M169,41.9l0.3-0.3v-7l-0.3-0.3h-0.1   l-0.3,0.3v7L169,41.9L169,41.9z M168.8,58.2c-0.7,0.4-1.5,0.7-2.4,0.7c-0.8,0-1.5-0.4-1.5-1.7V57c0-1.2,0.7-1.6,2.8-1.6h1.1V58.2z    M169.1,59.4l0.3-0.3v-4.7c0-1.5-0.5-2.6-2.4-2.6c-0.7,0-1.3,0-2,0.1c-0.2,0-0.3,0.1-0.3,0.2v0.1l0.3,0.2h0.1   c0.7-0.1,1.3-0.1,2-0.1c1.4,0,1.8,0.6,1.8,2v0.5h-1.1c-2.5,0-3.5,0.7-3.5,2.2v0.2c0,1.8,1.1,2.3,2.1,2.3c0.8,0,1.7-0.3,2.4-0.7v0.4   L169.1,59.4L169.1,59.4z M173.4,51.8h-1.4l-0.3,0.2v0.1l0.3,0.2h1.4v5.5c0,1.2,0.6,1.5,1.6,1.5c0.2,0,0.5,0,0.7,0   c0.2,0,0.2-0.1,0.2-0.2v-0.1c0-0.1-0.1-0.2-0.3-0.2H175c-0.6,0-1-0.1-1-1v-5.5h1.7l0.3-0.2v-0.1l-0.3-0.2h-1.7v-1.4l-0.2-0.3h-0.2   l-0.2,0.3L173.4,51.8z M177.5,41.9l0.3-0.3V37c0-1.9-1.1-2.7-2.5-2.7c-0.8,0-1.6,0.2-2.3,0.6v-0.2l-0.2-0.3h-0.1l-0.3,0.3v7   l0.3,0.3h0.1l0.3-0.3v-6.2c0.7-0.3,1.4-0.5,2.2-0.6c1.1,0,1.9,0.5,1.9,2.1v4.6L177.5,41.9L177.5,41.9z M179.1,50.5l0.3-0.3v-1   l-0.3-0.3h-0.1l-0.3,0.3v1L179.1,50.5L179.1,50.5z M179.1,59.4l0.3-0.3v-7l-0.3-0.3h-0.1l-0.3,0.3v7L179.1,59.4L179.1,59.4z    M185.9,36.7v0.1c0,1-0.4,1.8-2.3,1.8c-1.9,0-2.3-1.1-2.3-1.8v-0.1c0-0.9,0.3-1.8,2.3-1.8C185.5,34.9,185.9,35.7,185.9,36.7    M182.3,40.5l1.9,0.5c1.5,0.4,1.8,0.6,1.8,1.4v0.1c0,1-0.5,1.7-2.4,1.7c-1.8,0-2.4-0.6-2.4-1.7v-0.1   C181.2,41.6,181.6,40.9,182.3,40.5 M186.5,35l0.3-0.2v-0.2l-0.3-0.2h-2.9c-2.4,0-2.9,1.3-2.9,2.3v0.1c0,0.6,0.2,1.3,0.7,1.7   c-0.4,0.2-0.6,0.5-0.6,0.9c0,0.4,0.3,0.8,0.7,0.9l0.1,0c-0.7,0.5-1.1,1.2-1.1,2v0.1c0,1.3,0.8,2.2,3,2.2c2.2,0,3-0.9,3-2.2v-0.1   c0-1.1-0.7-1.5-2.2-1.9l-2.5-0.7c-0.3-0.1-0.4-0.3-0.4-0.4c0-0.3,0.2-0.5,0.5-0.6c0.5,0.2,1.1,0.3,1.7,0.3c2.2,0,2.9-1,2.9-2.3   v-0.1c0-0.7-0.2-1.3-0.8-1.8H186.5z M187.6,56.1c0,1.7-0.6,2.8-2.3,2.8c-1.6,0-2.3-1.1-2.3-2.8v-1c0-1.7,0.6-2.8,2.3-2.8   s2.3,1.1,2.3,2.8V56.1z M188.2,56.1v-1c0-2.1-1-3.3-2.9-3.3s-2.9,1.2-2.9,3.3v1c0,2.1,1,3.3,2.9,3.3S188.2,58.3,188.2,56.1    M190.3,40.7l0-0.1l-0.2-0.2h-0.3c-0.1,0-0.2,0.1-0.3,0.3l-0.7,2.4l0,0.1l0.1,0.1h0.2c0.1,0,0.2-0.1,0.3-0.3L190.3,40.7z    M196.2,59.4l0.3-0.3v-4.6c0-1.9-1.1-2.7-2.5-2.7c-0.8,0-1.6,0.2-2.3,0.6v-0.2l-0.2-0.3h-0.1l-0.3,0.3v7l0.3,0.3h0.1l0.3-0.3v-6.2   c0.7-0.3,1.4-0.5,2.2-0.6c1.1,0,1.9,0.5,1.9,2.1v4.6L196.2,59.4L196.2,59.4z M199.9,53.5c0-1,0.7-1.2,1.6-1.2   c0.7,0,1.3,0.1,1.9,0.2h0c0.1,0,0.2-0.1,0.2-0.2v-0.1c0-0.1-0.1-0.2-0.3-0.2c-0.7-0.1-1.3-0.1-2-0.1c-1.1,0-2.1,0.4-2.1,1.7   c0,1,0.6,1.4,1.7,2l0.9,0.5c1.2,0.6,1.5,1,1.5,1.5c0,1.1-0.8,1.4-1.8,1.4c-0.7,0-1.4-0.1-2.1-0.2h-0.1l-0.2,0.2v0.1   c0,0.1,0.1,0.2,0.3,0.2c0.7,0.1,1.3,0.2,2,0.2c1.3,0,2.4-0.4,2.4-1.9c0-0.9-0.6-1.4-1.8-2l-0.9-0.5   C200.4,54.5,199.9,54.2,199.9,53.5 M211.5,56.1c0,1.8-0.6,2.9-2.1,2.9c-0.7,0-1.3-0.1-2-0.2v-6.2c0.6-0.1,1.3-0.2,2-0.2   c1.5,0,2.1,1,2.1,2.8V56.1z M212.1,56.1v-0.9c0-2.2-0.9-3.3-2.7-3.3c-0.7,0-1.3,0.1-2,0.2v-2.8l-0.2-0.3H207l-0.2,0.3V59   c0,0.2,0,0.2,0.2,0.3c0.8,0.2,1.6,0.2,2.4,0.3C211.3,59.5,212.1,58.1,212.1,56.1 M219.8,55.2h-4.4v-0.1c0-1.7,0.7-2.8,2.2-2.8   C219.2,52.4,219.8,53.4,219.8,55.2L219.8,55.2z M220.1,55.8l0.3-0.3v-0.4c0-2-0.8-3.3-2.8-3.3c-1.9,0-2.8,1.4-2.8,3.3v0.9   c0,2.6,1.4,3.4,3.2,3.4c0.7,0,1.4-0.1,2.1-0.2c0.2,0,0.3-0.1,0.3-0.3v-0.1l-0.2-0.2H220c-0.7,0.1-1.4,0.2-2.1,0.2   c-1.4,0-2.5-0.5-2.5-2.9v-0.3L220.1,55.8z M226.2,52.1V52c0-0.2-0.2-0.2-0.4-0.2c-0.7,0-1.4,0.2-1.9,0.6v-0.3l-0.2-0.3h-0.1   l-0.3,0.3v7l0.3,0.3h0.1l0.3-0.3V53c0.6-0.4,1.2-0.6,1.9-0.6C226,52.4,226.2,52.3,226.2,52.1 M232.6,58.2c-0.7,0.4-1.6,0.7-2.4,0.7   c-0.8,0-1.5-0.4-1.5-1.7v-0.2c0-1.2,0.7-1.6,2.8-1.6h1.1V58.2z M232.9,59.4l0.3-0.3v-4.8c0-1.5-0.5-2.6-2.4-2.6c-0.7,0-1.3,0-2,0.1   c-0.2,0-0.3,0.1-0.3,0.2v0.1l0.3,0.2h0.1c0.7-0.1,1.3-0.1,2-0.1c1.4,0,1.8,0.6,1.8,2v0.5h-1.1c-2.6,0-3.5,0.7-3.5,2.2v0.2   c0,1.8,1.1,2.3,2.1,2.3c0.8,0,1.7-0.3,2.4-0.7v0.4L232.9,59.4L232.9,59.4z M239.7,59.2L239.7,59.2c0-0.2-0.1-0.3-0.3-0.3h-0.7   c-0.6,0-1-0.1-1-1v-5.5h1.7l0.3-0.2v-0.1l-0.3-0.2h-1.7v-1.4l-0.2-0.3h-0.2l-0.2,0.3v1.4h-1.4l-0.3,0.2v0.1l0.3,0.2h1.4V58   c0,1.2,0.6,1.5,1.6,1.5c0.2,0,0.5,0,0.7,0C239.7,59.4,239.8,59.4,239.7,59.2 M247.5,59.4l0.2-0.3v-7l-0.3-0.3h-0.1l-0.3,0.3v6.2   c-0.7,0.3-1.5,0.5-2.2,0.6l0,0c-1,0-1.9-0.5-1.9-2.1v-4.6l-0.2-0.3h-0.1l-0.3,0.3v4.6c0,1.9,1.1,2.7,2.5,2.7c0.8,0,1.6-0.2,2.3-0.6   v0.2L247.5,59.4L247.5,59.4z M255.9,59.4l0.3-0.3v-4.7c0-1.9-1.1-2.7-2.5-2.7c-0.8,0-1.6,0.2-2.3,0.6v-0.2l-0.3-0.3h-0.1l-0.3,0.3   v7l0.3,0.3h0.1l0.3-0.3v-6.2c0.7-0.3,1.4-0.5,2.2-0.6c1.1,0,1.9,0.5,1.9,2.1v4.6l0.2,0.3L255.9,59.4z M264.3,54.2v0.1   c0,1-0.4,1.8-2.3,1.8s-2.3-1.1-2.3-1.8v-0.1c0-0.9,0.3-1.8,2.3-1.8C263.8,52.4,264.3,53.2,264.3,54.2 M260.7,58l1.9,0.5   c1.5,0.4,1.8,0.6,1.8,1.4V60c0,1-0.5,1.7-2.4,1.7c-1.8,0-2.4-0.6-2.4-1.7v-0.1C259.6,59.1,260,58.4,260.7,58 M264.9,52.5l0.3-0.2   v-0.2l-0.3-0.2H262c-2.4,0-2.9,1.3-2.9,2.3v0.1c0,0.6,0.2,1.3,0.7,1.7c-0.4,0.2-0.6,0.5-0.6,0.9c0,0.5,0.3,0.8,0.7,0.9l0.1,0   c-0.7,0.5-1.1,1.2-1.1,2V60c0,1.3,0.8,2.2,3,2.2c2.2,0,3-0.9,3-2.2v-0.1c0-1.1-0.7-1.5-2.2-1.9l-2.5-0.7c-0.3-0.1-0.4-0.3-0.4-0.4   c0-0.3,0.2-0.5,0.5-0.6c0.5,0.2,1.1,0.3,1.7,0.3c2.2,0,2.9-1,2.9-2.3v-0.1c0-0.7-0.2-1.3-0.8-1.8H264.9z M405.3,48   c0,4.3-1.1,7.5-5.6,7.5c-1.7,0-3.4-0.1-5-0.4V36.8c1.7-0.2,3.3-0.3,5-0.4c4.5,0,5.6,3.2,5.6,7.5V48z M412.2,48v-4   c0-8.2-4.1-13.2-12.5-13.2c-1.7,0-3.4,0.1-5,0.4v-9.3c0-0.6-0.5-1-1-1.1h-4.8c-0.6,0-1,0.5-1,1.1v36.6c0,0.8,0.2,1.1,1.4,1.4   c3.4,0.9,7,1.3,10.5,1.4C408.1,61.1,412.2,56.2,412.2,48 M430.1,38.6c0-1.6,1.1-2.2,3.6-2.2c2.9,0,5.8,0.3,8.6,0.6h0.2   c0.5,0,0.8-0.4,0.8-1V33c0-0.6-0.4-1.1-0.9-1.2c-3-0.7-6.2-1.1-9.3-1.1c-6.6,0-9.9,2.6-9.9,7.9c0,3.1,1.8,5.7,4.4,7.2l7.2,4.4   c1.7,1,2.3,1.7,2.3,2.7c0,1.4-0.5,2.5-3.7,2.5c-1.6,0-6.3-0.3-8.8-0.6h-0.2c-0.5,0-0.9,0.4-0.9,0.8v3.2c0,0.6,0.4,1.1,1,1.2   c2.9,0.8,7.3,1.1,9.4,1.1c6.9,0,10.2-3.6,10.2-8.2c0-2.7-0.6-5.3-5-8l-6.8-4.2C430.9,40,430.1,39.4,430.1,38.6 M473.3,48.1   c0,4.3-1.9,7.1-5.6,7.1s-5.6-2.8-5.6-7.1v-4.3c0-4.3,1.9-7.1,5.6-7.1s5.6,2.8,5.6,7.1V48.1z M480.2,48.1v-4.3   c0-7.5-4.3-13.1-12.5-13.1c-8.2,0-12.5,5.6-12.5,13.1v4.3c0,7.5,4.3,13.1,12.5,13.1S480.2,55.6,480.2,48.1"/>
	<path class="st1" d="M303.7,21.9l-7,2.1c-2.8,0.8-1.8,5.7-1.8,5.7l4.1,18.9c1.1,4.9,4.4,6.3,4.4,6.3l19.4,8.3l-3.6-19.8   c0,0-0.9-4.8,1.6-6.4l0.7-0.5l-18.1-9c0,0-3.4-1.7-1.2-3.9L303.7,21.9z"/>
	<path class="st2" d="M319.3,43.3l3.6,19.8l5.5,2.3c3.3,1.4,3.3-3.1,3.3-3.1v-21l-10.1-5l-0.7,0.5C318.4,38.4,319.3,43.3,319.3,43.3   "/>
	<path class="st3" d="M347.2,19.9c-0.2-0.2-0.4-0.4-0.4-0.4l-18-17.7c-3.2-3.2-5.3-0.9-5.3-0.9l-19.8,21.1l25.2-7.4   c0,0,2.8-0.8,2.8,3.7v11.7L347.2,19.9z"/>
	<path class="st4" d="M331.7,29.9V18.1c0-4.5-2.8-3.7-2.8-3.7l-25.2,7.4l-1.4,1.5c-2.1,2.3,1.2,3.9,1.2,3.9l18.1,9L331.7,29.9z"/>
	<path class="st5" d="M347.2,19.8l-15.5,10v11.5l0.8,0.4c3.4,1.7,5.2-1,5.2-1l10.5-15.4C349.7,23.2,348,20.8,347.2,19.8"/>
	<polygon class="st6" points="321.6,36.3 331.7,41.4 331.7,29.9  "/>
	<path class="st7" d="M354.7,15l-7.5,4.8c0.8,0.9,2.5,3.3,1,5.5l-10.5,15.4c0,0-1.8,2.7-5.2,1l-0.8-0.4v21c0,0,0,4.5-3.3,3.1   l-5.5-2.3l1.8,9.7c0.9,4.8,3.1,2.7,3.1,2.7l23.6-22.8c2.2-2.1,2.6-6.4,2.6-6.4l2.8-28.7C357.1,13.4,354.6,15,354.7,15"/>
</g>
</svg>
