<svg width="865px" height="659px" viewBox="0 0 865 659" version="1.1" xmlns="http://www.w3.org/2000/svg" xmlns:xlink="http://www.w3.org/1999/xlink">
    <defs>
        <linearGradient x1="50.0151651%" y1="100.001368%" x2="50.0151651%" y2="0.00455607853%" id="linearGradient-c587gh6pd3-1">
            <stop stop-color="#808080" stop-opacity="0.25" offset="0%"></stop>
            <stop stop-color="#808080" stop-opacity="0.12" offset="54%"></stop>
            <stop stop-color="#808080" stop-opacity="0.1" offset="100%"></stop>
        </linearGradient>
        <linearGradient x1="49.9972643%" y1="100%" x2="49.9972643%" y2="0%" id="linearGradient-c587gh6pd3-2">
            <stop stop-color="#808080" stop-opacity="0.25" offset="0%"></stop>
            <stop stop-color="#808080" stop-opacity="0.12" offset="54%"></stop>
            <stop stop-color="#808080" stop-opacity="0.1" offset="100%"></stop>
        </linearGradient>
    </defs>
    <g id="Page-1" stroke="none" stroke-width="1" fill="none" fill-rule="evenodd">
        <g id="Group" fill-rule="nonzero">
            <g opacity="0.7" transform="translate(156.412752, 0.000000)" fill="url(#linearGradient-c587gh6pd3-1)" id="Path">
                <path d="M182.387248,353.19 L181.797248,353.05 L181.797248,330.45 C228.436515,318.931893 263.742379,280.755633 271.587248,233.36 L271.877248,233.36 C277.647248,233.36 282.317248,224.59 282.317248,213.78 C282.317248,207.07 280.517248,201.16 277.777248,197.63 C278.190581,193.496667 278.400581,189.306667 278.407248,185.06 C278.444939,150.885591 264.48911,118.185877 239.787248,94.57 C238.109009,86.2140082 235.115095,78.1773559 230.917248,70.76 C222.017248,55.08 207.207248,38.76 213.247248,21.76 L174.147248,25.76 L173.787248,-1.42108547e-14 C161.587248,2.19 156.477248,16.33 149.237248,26.4 C131.827248,50.62 96.8872479,53.99 73.7772479,72.85 C65.9272479,79.26 48.2672479,98.75 51.5872479,111.53 C36.0559895,132.897748 27.7084674,158.644112 27.7472479,185.06 C27.7472479,189.3 27.9572479,193.49 28.3772479,197.63 C25.6372479,201.16 23.8372479,207.07 23.8372479,213.78 C23.8372479,224.6 28.5172479,233.36 34.2772479,233.36 L34.5672479,233.36 C42.4121167,280.755633 77.7179808,318.931893 124.357248,330.45 L124.357248,353.05 L123.767248,353.19 C110.307248,351.62 -25.5327521,341.25 4.25724793,564.65 L22.5272479,632.01 L26.5972479,631.85 C27.6975618,645.803637 38.6965819,656.931881 52.6364158,658.195093 C66.5762496,659.458306 79.3965292,650.488541 82.9872479,636.96 C108.857248,636.87 138.077248,636.79 152.987248,636.79 C167.897248,636.79 197.167248,636.88 222.987248,636.96 C226.520333,650.562412 239.378034,659.610087 253.374549,658.342862 C267.371064,657.075637 278.394676,645.86578 279.427248,631.85 L283.497248,632.01 L301.767248,564.65 C331.697248,341.25 195.847248,351.62 182.387248,353.19 Z"></path>
            </g>
            <rect id="Rectangle" fill="#E0E0E0" x="45.42" y="294.03" width="176" height="156" rx="21.34"></rect>
            <rect id="Rectangle" fill="#E0E0E0" x="0" y="625.19" width="645.61" height="21.88"></rect>
            <rect id="Rectangle" fill="#E0E0E0" x="27.36" y="647.08" width="590.89" height="8.95"></rect>
            <rect id="Rectangle" fill="#000000" opacity="0.1" x="27.36" y="647.08" width="590.89" height="2.98"></rect>
            <path d="M193.4,626.86 C193.4,626.86 280.03,626.52 309.49,626.52 C338.95,626.52 425.58,626.86 425.58,626.86 L425.58,614.25 L193.4,614.25 L193.4,626.86 Z" id="Path" fill="#000000" opacity="0.1"></path>
            <path d="M425.59,624.33 C425.59,624.33 338.96,623.99 309.5,623.99 C280.04,623.99 193.41,624.33 193.41,624.33 L193.41,464.99 C193.41,400.879168 245.379169,348.905523 309.49,348.9 L309.49,348.9 C340.280715,348.9 369.81123,361.127052 391.584491,382.898438 C413.357752,404.669824 425.59,434.199285 425.59,464.99 L425.59,624.33 Z" id="Path" fill="#009639"></path>
            <path d="M298.5,290.86 L320.5,290.86 C329.756292,290.86 337.26,298.363708 337.26,307.62 L337.26,353.95 C337.26,369.281425 324.831425,381.71 309.5,381.71 L309.5,381.71 C294.168575,381.71 281.74,369.281425 281.74,353.95 L281.74,307.62 C281.74,298.363708 289.243708,290.86 298.5,290.86 Z" id="Path" fill="#FDB797"></path>
            <path d="M281.73,332.92 C299.964652,337.407357 319.015348,337.407357 337.25,332.92 L337.25,293.38 L281.73,293.38 L281.73,332.92 Z" id="Path" fill="#000000" opacity="0.1"></path>
            <circle id="Oval" fill="#333333" cx="309.5" cy="189.91" r="121.14"></circle>
            <circle id="Oval" fill="#FDB797" cx="309.5" cy="217.67" r="116.09"></circle>
            <path d="M232.84,81.44 C255.17,63.21 288.95,59.96 305.78,36.54 C312.78,26.81 317.71,13.14 329.51,11.02 L329.86,35.92 L367.65,32.04 C361.82,48.46 376.13,64.27 384.73,79.42 C391.071812,90.6253974 394.538432,103.22754 394.82,116.1 C381.7,123.98 365.43,115.38 350.82,110.79 C336.62,106.33 321.53,105.87 306.65,105.45 C299.02,105.23 291.3,105.03 283.85,106.7 C277.32,108.17 271.21,111.04 265.03,113.63 C254.98,117.84 223.24,133.72 213.9,123.48 C203.32,111.87 224.22,88.48 232.84,81.44 Z" id="Path" fill="#333333"></path>
            <path d="M239.15,159.45 C245.31,163.18 252.55,164.65 259.68,165.63 C289.416488,169.691774 319.696357,166.289541 347.79,155.73 C352.39,167.39 363.62,175.4 375.56,179.21 C387.5,183.02 400.25,183.21 412.78,183.36 C415.54,183.36 418.5,183.36 420.78,181.83 C426.36,178.06 423.66,169.43 420.41,163.53 L404.24,134.25 C399.46,125.59 394.54,116.75 387.14,110.19 C377.86,101.98 365.54,98.13 353.39,95.7 C324.672145,89.9864331 295.023275,90.9754131 266.75,98.59 C236.53,106.72 197.71,134.37 239.15,159.45 Z" id="Path" fill="#000000" opacity="0.1"></path>
            <path d="M239.15,156.93 C245.31,160.66 252.55,162.13 259.68,163.11 C289.416488,167.171774 319.696357,163.769541 347.79,153.21 C352.39,164.87 363.62,172.88 375.56,176.69 C387.5,180.5 400.25,180.69 412.78,180.84 C415.54,180.84 418.5,180.84 420.78,179.31 C426.36,175.54 423.66,166.91 420.41,161.01 L404.24,131.69 C399.46,123.03 394.54,114.19 387.14,107.63 C377.86,99.42 365.54,95.57 353.39,93.14 C324.672145,87.4264331 295.023275,88.4154131 266.75,96.03 C236.53,104.19 197.71,131.84 239.15,156.93 Z" id="Path" fill="#333333"></path>
            <ellipse id="Oval" fill="#FDB797" cx="424.33" cy="217.67" rx="10.1" ry="18.93"></ellipse>
            <ellipse id="Oval" fill="#FDB797" cx="194.67" cy="217.67" rx="10.1" ry="18.93"></ellipse>
            <path d="M336.79,352.52 C336.79,352.52 483.63,329.65 453.35,556.79 L435.69,621.9 L385.21,619.9 C385.21,619.9 418.02,544.19 397.83,493.71 C377.64,443.23 336.79,352.52 336.79,352.52 Z" id="Path" fill="#009639"></path>
            <path d="M282.2,352.52 C282.2,352.52 135.4,329.65 165.64,556.79 L183.3,621.9 L233.78,619.9 C233.78,619.9 200.97,544.19 221.16,493.71 C241.35,443.23 282.2,352.52 282.2,352.52 Z" id="Path" fill="#009639"></path>
            <path d="M218.64,452.61 C218.64,452.61 208.54,530.61 226.21,553.32" id="Path" fill="#000000" opacity="0.1"></path>
            <path d="M400.35,454.61 C400.35,454.61 410.45,530.61 392.78,553.32" id="Path" fill="#000000" opacity="0.1"></path>
            <circle id="Oval" fill="#FDB797" cx="404.08" cy="619.71" r="27.76"></circle>
            <circle id="Oval" fill="#FDB797" cx="214.91" cy="619.71" r="27.76"></circle>
            <g opacity="0.7" transform="translate(218.040000, 461.030000)" fill="url(#linearGradient-c587gh6pd3-2)" id="Rectangle">
                <rect x="-5.68434189e-14" y="0" width="182.77" height="162" rx="21.34"></rect>
            </g>
            <rect id="Rectangle" fill="#E0E0E0" x="221.42" y="464.03" width="176" height="156" rx="21.34"></rect>
            <g opacity="0.7" transform="translate(682.040000, 387.030000)" fill="url(#linearGradient-c587gh6pd3-2)" id="Rectangle">
                <rect x="0" y="0" width="182.77" height="162" rx="21.34"></rect>
            </g>
            <rect id="Rectangle" fill="#E0E0E0" x="685.42" y="390.03" width="176" height="156" rx="21.34"></rect>
            <g transform="translate(711.000000, 425.000000)">
                <path d="M117.136287,32.024727 C118.099092,24.6002296 112.498743,18.7689213 109.02561,16 C105.023028,20.5907768 104.401256,32.6222507 110.68053,37.6878065 C107.175994,40.7757395 99.7919742,43.5745681 92.2308436,43.5745681 L0.192809725,43.5745681 C-0.542012341,51.4046837 0.843472682,58.6154681 4.00823199,64.7869725 L5.05519642,66.6873348 C5.71811441,67.8027461 6.44252167,68.881047 7.2251197,69.9173276 C11.0091393,70.1584555 14.497974,70.2413238 17.6897396,70.17154 L17.6909957,70.17154 C23.9633615,70.0344646 29.0813658,69.2992425 32.9602214,67.9658736 C33.5302765,67.7899599 34.1381782,68.0946079 34.3337185,68.6541973 C34.5292588,69.2137867 34.2418595,69.8263395 33.6843665,70.0382031 C33.1681069,70.216401 32.6304935,70.3821375 32.0752946,70.5397741 L32.0734105,70.5397741 C29.0191885,71.4052178 25.7438919,71.9871648 21.518351,72.2457386 C21.7695722,72.2501001 21.2570809,72.2831228 21.2558248,72.2831228 C21.1120006,72.2924689 20.9311214,72.3130302 20.7866692,72.320507 C19.1235847,72.4133444 17.3286091,72.4326595 15.4934381,72.4326595 C13.4861805,72.4326595 11.5096976,72.3952754 9.29957891,72.2831228 L9.24305414,72.320507 C16.9115818,80.8715141 28.9023706,86 43.9329362,86 C75.7425669,86 102.723726,72.0108414 114.671807,40.6050184 C123.148011,41.4679698 131.294487,39.3233642 135,32.1468486 C129.097557,28.7679422 121.506908,29.8452295 117.136287,32.024727" id="Path" fill="#22A0C8"></path>
                <path d="M117.424543,31.9736431 C118.386567,24.5728137 112.790764,18.7600945 109.320451,16 C105.321118,20.5761423 104.69985,32.5692621 110.974027,37.6186699 C107.472336,40.696759 100.094311,43.4866655 92.5393192,43.4866655 L6.02182729,43.4866655 C5.64655648,55.440036 10.1284697,64.5134429 18.058105,69.9988512 L18.0599876,69.9988512 C24.3272611,69.8622129 29.4411102,69.1293345 33.3168167,67.8002161 C33.886409,67.6248632 34.4938172,67.9285401 34.6891988,68.4863456 C34.8845803,69.0441511 34.5974143,69.6547512 34.040374,69.8659394 C33.5245335,70.0435692 32.9873566,70.2087774 32.4326084,70.3659115 L32.4307258,70.3659115 C29.3789834,71.2285963 25.8252066,71.8832182 21.6030962,72.1409678 C21.6018412,72.1409678 21.5008067,72.0446999 21.4995516,72.0446999 C32.3165129,77.536319 48.000699,77.5164443 65.982948,70.6801797 C86.1459095,63.0135266 104.908822,48.4081301 118,31.7028508 C117.802951,31.7910446 117.610923,31.8811017 117.424543,31.9736431" id="Path" fill="#37B1D9"></path>
                <path d="M1,53 C1.5702416,57.2057476 2.80472068,61.1434819 4.63450693,64.7301125 L5.67911435,66.6355685 C6.3404277,67.7540398 7.06320818,68.8352371 7.84415253,69.8742191 C11.6202799,70.1159933 15.1012602,70.1990837 18.2864669,70.1291129 C24.5447119,69.9916701 29.6511941,69.2544773 33.5213173,67.9175344 C34.0900891,67.7411492 34.6966223,68.0466138 34.8917223,68.6077031 C35.0868224,69.1687924 34.8000701,69.7829871 34.2438322,69.9954186 C33.7287349,70.1740941 33.1923318,70.3402749 32.6383828,70.498334 L32.6365029,70.498334 C29.5891568,71.3660975 26.0592986,71.9870887 21.8432706,72.2469804 C21.698517,72.2557268 21.4459814,72.257601 21.2999745,72.2657226 C19.6418873,72.3581841 17.8691253,72.4150354 16.0374591,72.4150354 C14.0353471,72.4150354 11.9874904,72.3769263 9.78360062,72.2650979 C17.4348643,80.8390254 29.4726019,86 44.4693295,86 C71.640402,86 95.2797363,75.7180342 109,53 L1,53" id="Path" fill="#1B81A5"></path>
                <path d="M7,53 C8.62889103,60.3215524 12.5433826,66.0691569 18.2262768,69.9832762 C24.502409,69.8470037 29.6234865,69.1160873 33.5046713,67.790527 C34.0750687,67.6156436 34.6833355,67.9185075 34.8789932,68.4748197 C35.074651,69.0311319 34.787079,69.6400974 34.2292513,69.8507202 C33.7126817,70.0278745 33.1747455,70.1926404 32.6192132,70.3493539 L32.6173279,70.3493539 C29.5612719,71.2097292 25.9465415,71.8254333 21.7178348,72.0831123 C32.5494575,77.5587912 48.210566,77.4801247 66.216976,70.6627807 C77.1101848,66.537439 87.5942855,60.3965024 97,53 L7,53" id="Path" fill="#1D91B4"></path>
                <path d="M13,28.9283104 L25.0714068,28.9283104 L25.0714068,41 L13,41 L13,28.9283104 Z M14.005646,29.9345891 L14.9582992,29.9345891 L14.9582992,39.9943304 L14.005646,39.9943304 L14.005646,29.9345891 Z M15.796439,29.9345891 L16.7874663,29.9345891 L16.7874663,39.9943304 L15.7970481,39.9943304 L15.7970481,29.9345891 L15.796439,29.9345891 Z M17.6249971,29.9345891 L18.6160244,29.9345891 L18.6160244,39.9943304 L17.6249971,39.9943304 L17.6249971,29.9345891 Z M19.4547733,29.9345891 L20.4451915,29.9345891 L20.4451915,39.9943304 L19.4547733,39.9943304 L19.4547733,29.9345891 Z M21.2839405,29.9345891 L22.2743587,29.9345891 L22.2743587,39.9943304 L21.2839405,39.9943304 L21.2839405,29.9345891 Z M23.1124985,29.9345891 L24.0657608,29.9345891 L24.0657608,39.9943304 L23.1124985,39.9943304 L23.1124985,29.9345891 Z M26.9279841,15 L39,15 L39,27.0710805 L26.927375,27.0710805 L26.927375,15 L26.9279841,15 Z M27.9342392,16.0062787 L28.8862832,16.0062787 L28.8862832,26.0654109 L27.9342392,26.0654109 L27.9342392,16.0062787 Z M29.7250322,16.0062787 L30.7154504,16.0062787 L30.7154504,26.0654109 L29.7256413,26.0654109 L29.7256413,16.0062787 L29.7250322,16.0062787 Z M31.5535903,16.0062787 L32.5440084,16.0062787 L32.5440084,26.0654109 L31.5535903,26.0654109 L31.5535903,16.0062787 Z M33.3827574,16.0062787 L34.3731756,16.0062787 L34.3731756,26.0654109 L33.3827574,26.0654109 L33.3827574,16.0062787 Z M35.2119246,16.0062787 L36.2029519,16.0062787 L36.2029519,26.0654109 L35.2119246,26.0654109 L35.2119246,16.0062787 Z M37.0404826,16.0062787 L37.994354,16.0062787 L37.994354,26.0654109 L37.0404826,26.0654109 L37.0404826,16.0062787 Z" id="Shape" fill="#23A3C2"></path>
                <path d="M27.0006054,29 L39,29 L39,41 L27,41 L27,29 L27.0006054,29 Z M28.0008073,30.0003028 L28.9471241,30.0003028 L28.9471241,40.0003028 L28.0008073,40.0003028 L28.0008073,30.0003028 Z M29.7808274,30.0003028 L30.7652876,30.0003028 L30.7652876,40.0003028 L29.7814329,40.0003028 L29.7814329,30.0003028 L29.7808274,30.0003028 Z M31.5983855,30.0003028 L32.5828456,30.0003028 L32.5828456,40.0003028 L31.5983855,40.0003028 L31.5983855,30.0003028 Z M33.4165489,30.0003028 L34.4010091,30.0003028 L34.4010091,40.0003028 L33.4165489,40.0003028 L33.4165489,30.0003028 Z M35.2347124,30.0003028 L36.219778,30.0003028 L36.219778,40.0003028 L35.2347124,40.0003028 L35.2347124,30.0003028 Z M37.0522704,30.0003028 L38.0004036,30.0003028 L38.0004036,40.0003028 L37.0522704,40.0003028 L37.0522704,30.0003028 Z" id="Shape" fill="#34BBDE"></path>
                <path d="M42,29 L54,29 L54,41 L42,41 L42,29 Z M42.9996972,30.0003028 L43.9461096,30.0003028 L43.9461096,40.0003028 L42.9996972,40.0003028 L42.9996972,30.0003028 Z M44.7798971,30.0003028 L45.7644566,30.0003028 L45.7644566,40.0003028 L44.7798971,40.0003028 L44.7798971,30.0003028 Z M46.598244,30.0003028 L47.5828035,30.0003028 L47.5828035,40.0003028 L46.598244,40.0003028 L46.598244,30.0003028 Z M48.416591,30.0003028 L49.4011505,30.0003028 L49.4011505,40.0003028 L48.416591,40.0003028 L48.416591,30.0003028 Z M50.2343324,30.0003028 L51.2201029,30.0003028 L51.2201029,40.0003028 L50.2343324,40.0003028 L50.2343324,30.0003028 Z M52.0526794,30.0003028 L52.9996972,30.0003028 L52.9996972,40.0003028 L52.0526794,40.0003028 L52.0526794,30.0003028 L52.0526794,30.0003028 Z" id="Shape" fill="#23A3C2"></path>
                <path d="M42,15 L54.0716896,15 L54.0716896,27.0710805 L42,27.0710805 L42,15 Z M43.0056696,16.0062787 L43.9577359,16.0062787 L43.9577359,26.0654109 L43.0056696,26.0654109 L43.0056696,16.0062787 Z M44.7965045,16.0062787 L45.7869459,16.0062787 L45.7869459,26.0654109 L44.7965045,26.0654109 L44.7965045,16.0062787 Z M46.6257146,16.0062787 L47.6161559,16.0062787 L47.6161559,26.0654109 L46.6257146,26.0654109 L46.6257146,16.0062787 Z M48.4549246,16.0062787 L49.4453659,16.0062787 L49.4453659,26.0654109 L48.4549246,26.0654109 L48.4549246,16.0062787 Z M50.2835254,16.0062787 L51.2751851,16.0062787 L51.2751851,26.0654109 L50.2835254,26.0654109 L50.2835254,16.0062787 Z M52.1127355,16.0062787 L53.0654109,16.0062787 L53.0654109,26.0654109 L52.1127355,26.0654109 L52.1127355,16.0062787 L52.1127355,16.0062787 Z M55.9283104,28.9283104 L68,28.9283104 L68,41 L55.9283104,41 L55.9283104,28.9283104 Z M56.9345891,29.9345891 L57.8866554,29.9345891 L57.8866554,39.9943304 L56.9345891,39.9943304 L56.9345891,29.9345891 Z M58.725424,29.9345891 L59.7158654,29.9345891 L59.7158654,39.9943304 L58.725424,39.9943304 L58.725424,29.9345891 Z M60.5540249,29.9345891 L61.5444663,29.9345891 L61.5444663,39.9943304 L60.5540249,39.9943304 L60.5540249,29.9345891 Z M62.3832349,29.9345891 L63.3742854,29.9345891 L63.3742854,39.9943304 L62.3832349,39.9943304 L62.3832349,29.9345891 Z M64.2124449,29.9345891 L65.2034955,29.9345891 L65.2034955,39.9943304 L64.2124449,39.9943304 L64.2124449,29.9345891 Z M66.041655,29.9345891 L66.9943304,29.9345891 L66.9943304,39.9943304 L66.041655,39.9943304 L66.041655,29.9345891 Z" id="Shape" fill="#34BBDE"></path>
                <path d="M56,14 L68,14 L68,26 L56,26 L56,14 Z M57.0003028,15.0003532 L57.9467151,15.0003532 L57.9467151,25.0002523 L57.0003028,25.0002523 L57.0003028,15.0003532 Z M58.7805026,15.0003532 L59.7650621,15.0003532 L59.7650621,25.0002523 L58.7805026,25.0002523 L58.7805026,15.0003532 Z M60.598244,15.0003532 L61.5828035,15.0003532 L61.5828035,25.0002523 L60.598244,25.0002523 L60.598244,15.0003532 Z M62.416591,15.0003532 L63.401756,15.0003532 L63.401756,25.0002523 L62.416591,25.0002523 L62.416591,15.0003532 Z M64.2349379,15.0003532 L65.2201029,15.0003532 L65.2201029,25.0002523 L64.2349379,25.0002523 L64.2349379,15.0003532 Z M66.0532849,15.0003532 L67.0003028,15.0003532 L67.0003028,25.0002523 L66.0532849,25.0002523 L66.0532849,15.0003532 Z" id="Shape" fill="#23A3C2"></path>
                <path d="M56,0 L68,0 L68,12 L56,12 L56,0 Z M57.0003028,0.999596367 L57.9467151,0.999596367 L57.9467151,10.9991927 L57.0003028,10.9991927 L57.0003028,0.998990918 L57.0003028,0.999596367 Z M58.7805026,0.999596367 L59.7650621,0.999596367 L59.7650621,10.9991927 L58.7805026,10.9991927 L58.7805026,0.998990918 L58.7805026,0.999596367 Z M60.598244,0.999596367 L61.5828035,0.999596367 L61.5828035,10.9991927 L60.598244,10.9991927 L60.598244,0.998990918 L60.598244,0.999596367 Z M62.416591,0.999596367 L63.401756,0.999596367 L63.401756,10.9991927 L62.416591,10.9991927 L62.416591,0.998990918 L62.416591,0.999596367 Z M64.2349379,0.999596367 L65.2201029,0.999596367 L65.2201029,10.9991927 L64.2349379,10.9991927 L64.2349379,0.998990918 L64.2349379,0.999596367 Z M66.0532849,0.999596367 L67.0003028,0.999596367 L67.0003028,10.9991927 L66.0532849,10.9991927 L66.0532849,0.998990918 L66.0532849,0.999596367 Z" id="Shape" fill="#34BBDE"></path>
                <path d="M70,29 L82,29 L82,41 L70,41 L70,29 Z M70.9990917,30.0003028 L71.9467151,30.0003028 L71.9467151,40.0003028 L70.9996972,40.0003028 L70.9996972,30.0003028 L70.9990917,30.0003028 Z M72.7792916,30.0003028 L73.7644566,30.0003028 L73.7644566,40.0003028 L72.7798971,40.0003028 L72.7798971,30.0003028 L72.7792916,30.0003028 Z M74.598244,30.0003028 L75.583409,30.0003028 L75.583409,40.0003028 L74.598244,40.0003028 L74.598244,30.0003028 Z M76.4159855,30.0003028 L77.4011505,30.0003028 L77.4011505,40.0003028 L76.4159855,40.0003028 L76.4159855,30.0003028 Z M78.2349379,30.0003028 L79.2194974,30.0003028 L79.2194974,40.0003028 L78.2349379,40.0003028 L78.2349379,30.0003028 Z M80.0526794,30.0003028 L80.9996972,30.0003028 L80.9996972,40.0003028 L80.0526794,40.0003028 L80.0526794,30.0003028 Z" id="Shape" fill="#23A3C2"></path>
                <path d="M38.4533136,61.0003127 C39.7149102,60.9834829 40.8879189,61.646976 41.5234927,62.7369091 C42.1590665,63.8268422 42.15882,65.1744962 41.5228475,66.2641967 C40.8868751,67.3538973 39.7136238,68.0169613 38.4520334,67.9996699 C36.5376735,67.9734316 34.9996499,66.4138987 35,64.4993598 C35.0003502,62.5848209 36.5389443,61.0258507 38.4533136,61.0003127" id="Path" fill="#D3ECEC"></path>
                <path d="M38.4992777,62 C38.818541,62 39.1231181,62.0600254 39.4040697,62.1692207 C39.0054987,62.4006157 38.8115013,62.8704749 38.9307135,63.3156827 C39.0499257,63.7608906 39.4527517,64.0709186 39.9136138,64.072155 C40.2999223,64.072155 40.6351487,63.8582345 40.8088279,63.5415045 C41.2310323,64.55864 40.9379619,65.7322717 40.0871649,66.4314809 C39.2363678,67.1306901 38.0282655,67.1907649 37.1123072,66.5794104 C36.1963488,65.9680559 35.7883059,64.8292882 36.1075332,63.7752838 C36.4267606,62.7212795 37.3980582,62.0003292 38.4992777,62" id="Path" fill="#364548"></path>
                <path d="M48,85.9239078 C39.5101529,81.7807512 34.8507693,76.1479929 32.2580427,70 C29.1041335,70.9253587 25.3137993,71.5173303 20.9089857,71.7714009 C19.2498915,71.8668386 17.5042686,71.9158472 15.673371,71.9158472 C13.5615685,71.9158472 11.3362755,71.8513622 9,71.7243269 C16.785704,79.7269063 26.3634303,85.8877962 44.0980562,86 C45.4072734,86 46.7064583,85.974206 48,85.9239078" id="Path" fill="#BDD9D7"></path>
                <path d="M34.9993947,75 C33.8657155,73.5551136 32.7659317,71.7392045 31.9572849,70 C28.912754,70.8164773 25.2526589,71.3380682 21,71.5625 C23.9210549,73.0505682 28.0980545,74.4295455 35,75" id="Path" fill="#D3ECEC"></path>
            </g>
            <g opacity="0.7" transform="translate(573.040000, 115.030000)" fill="url(#linearGradient-c587gh6pd3-2)" id="Rectangle">
                <rect x="0" y="0" width="182.77" height="162" rx="21.34"></rect>
            </g>
            <rect id="Rectangle" fill="#E0E0E0" x="576.42" y="118.03" width="176" height="156" rx="21.34"></rect>
            <polyline id="Path" fill="#CAC9C2" points="639.93 236.66 616.27 195.66 639.93 154.66 687.24 154.66 710.9 195.66 687.24 236.66 639.93 236.66"></polyline>
            <path d="M664.4,214.39 C654.215869,214.39 645.96,206.134131 645.96,195.95 C645.96,185.765869 654.215869,177.51 664.4,177.51 C674.584131,177.51 682.84,185.765869 682.84,195.95 C682.828977,206.129561 674.579561,214.378977 664.4,214.39" id="Path" fill="#FFFFFF"></path>
            <path d="M701.48,140.97 C699.718857,138.276775 696.782866,136.580506 693.57,136.4 L635.27,136.4 C632.057134,136.580506 629.121143,138.276775 627.36,140.97 L610.36,170.47 C610.193822,172.318039 610.56173,174.174935 611.42,175.82 L622.95,195.53 L643.53,159.97 L708.59,159.97 C710.281994,160.036845 711.925371,160.554716 713.35,161.47 L701.51,140.96" id="Path" fill="#5072AA"></path>
            <path d="M611.07,169.19 L610.32,170.48 C610.154388,172.328009 610.522265,174.184747 611.38,175.83 L622.91,195.54 L629.04,184.94 L611.04,169.18" id="Path" fill="#4D6796"></path>
            <path d="M636.77,151.57 C634.803866,151.57 633.21,149.976134 633.21,148.01 C633.21,146.043866 634.803866,144.45 636.77,144.45 C638.736134,144.45 640.33,146.043866 640.33,148.01 C640.33,149.976134 638.736134,151.57 636.77,151.57 M695.07,148.01 C695.084291,149.18719 694.469472,150.282583 693.457141,150.883554 C692.44481,151.484525 691.188763,151.499773 690.162141,150.923554 C689.135519,150.347335 688.494291,149.26719 688.48,148.09 C688.48,148.09 688.48,148.03 688.48,148.01 C688.48,146.190222 689.955222,144.715 691.775,144.715 C693.594778,144.715 695.07,146.190222 695.07,148.01 L695.07,148.01 Z" id="Shape" fill="#FFFFFF"></path>
            <path d="M730.62,191.46 L713.31,161.46 C711.885371,160.544716 710.241994,160.026845 708.55,159.96 L685.1,159.96 L705.4,195.74 L673.28,252.49 C672.460546,253.801895 671.326165,254.888151 669.98,255.65 L693.58,255.65 C696.792866,255.469494 699.728857,253.773225 701.49,251.08 L730.64,200.59 C732.090803,197.719572 732.090803,194.330428 730.64,191.46" id="Path" fill="#CC4232"></path>
            <path d="M714.1,162.83 L713.32,161.48 C711.895579,160.564272 710.252078,160.046362 708.56,159.98 L685.1,159.98 L691.21,170.74 L714.1,162.82" id="Path" fill="#B23F33"></path>
            <path d="M691.77,246.93 C690.330114,246.93 689.032009,246.062634 688.480989,244.732353 C687.929969,243.402072 688.234547,241.870853 689.2527,240.8527 C690.270853,239.834547 691.802072,239.529969 693.132353,240.080989 C694.462634,240.632009 695.33,241.930114 695.33,243.37 C695.33,245.336134 693.736134,246.93 691.77,246.93 M719.46,199.51 C717.493866,199.51 715.9,197.916134 715.9,195.95 C715.9,193.983866 717.493866,192.39 719.46,192.39 C721.426134,192.39 723.02,193.983866 723.02,195.95 C723.02,197.916134 721.426134,199.51 719.46,199.51" id="Shape" fill="#FFFFFF"></path>
            <path d="M643.95,231.51 L611.4,175.83 C610.542265,174.184747 610.174388,172.328009 610.34,170.48 L598.23,191.48 C596.780801,194.350811 596.780801,197.739189 598.23,200.61 L627.4,251.08 C629.163359,253.769417 632.098983,255.461762 635.31,255.64 L670,255.64 C671.346165,254.878151 672.480546,253.791895 673.3,252.48 L685.18,231.48 L643.95,231.48" id="Path" fill="#ECB02A"></path>
            <path d="M667.99,255.65 L669.99,255.65 C671.33642,254.888493 672.470877,253.802165 673.29,252.49 L685.17,231.49 L672.54,231.49 L667.99,255.63" id="Path" fill="#C79732"></path>
            <path d="M636.77,246.93 C634.803866,246.93 633.21,245.336134 633.21,243.37 C633.21,241.403866 634.803866,239.81 636.77,239.81 C638.736134,239.81 640.33,241.403866 640.33,243.37 C640.33,245.336134 638.736134,246.93 636.77,246.93 M609.03,199.51 C607.063866,199.51 605.47,197.916134 605.47,195.95 C605.47,193.983866 607.063866,192.39 609.03,192.39 C610.996134,192.39 612.59,193.983866 612.59,195.95 C612.59,197.916134 610.996134,199.51 609.03,199.51" id="Shape" fill="#FFFFFF"></path>
        </g>
        <g id="Group" transform="translate(254.000000, 487.000000)" fill-rule="nonzero">
            <path d="M34.119549,105 C31.5797077,105 29.1809687,103.882192 27.5582923,101.856164 L2.86539061,71.4657532 C1.24271422,69.439726 0.607753889,66.8547944 1.24271422,64.3397261 L10.0616077,26.4041095 C10.6260168,23.8890411 12.3192444,21.8630137 14.6474323,20.7452054 L50.3463129,3.83835616 C51.4751315,3.27945205 52.745052,3 54.0149726,3 C55.2848931,3 56.5548141,3.27945205 57.6836322,3.83835616 L93.382513,20.6753424 C95.710701,21.7931507 97.4039286,23.819178 97.9683376,26.3342465 L106.787231,64.2698628 C107.35164,66.7849315 106.787231,69.3698627 105.164555,71.3958903 L80.471653,101.786301 C78.8489765,103.742465 76.4502374,104.930137 73.9103963,104.930137 L34.119549,105 L34.119549,105 Z" id="Path" fill="#326DE6"></path>
            <path d="M54.1047484,3.30810093 C55.0823996,3.30810093 56.0600509,3.5192563 56.96787,3.94156706 L92.302981,20.9043824 C94.1186189,21.8193891 95.5152637,23.5086321 95.9342572,25.4794156 L104.663286,63.698539 C105.152112,65.7397075 104.663286,67.8512614 103.336474,69.4701195 L78.8951918,100.087649 C77.6382116,101.706507 75.6829091,102.621514 73.657774,102.621514 L34.4818903,102.621514 C32.4567555,102.621514 30.5014529,101.706507 29.2444726,100.087649 L4.80319039,69.4701195 C3.54621016,67.8512614 3.05738451,65.7397075 3.47637792,63.698539 L12.2054073,25.4794156 C12.6942329,23.438247 14.0210454,21.7490039 15.8366835,20.9043824 L51.1717946,3.87118193 C52.0796133,3.5192563 53.1270971,3.30810093 54.1047484,3.30810093 L54.1047484,3.30810093 Z M54.1047484,0 L54.1047484,0 C52.6382715,0 51.1717946,0.35192563 49.7751498,0.985391762 L14.4400388,18.0185923 C11.6467494,19.3559096 9.69144683,21.8193891 8.99312448,24.8459495 L0.264095109,63.0650727 C-0.43422724,66.0916334 0.264095109,69.188579 2.21939769,71.6520584 L26.66068,102.269588 C28.5461503,104.662682 31.4092719,106 34.412058,106 L73.5879419,106 C76.5907278,106 79.4538495,104.662682 81.3393199,102.269588 L105.780602,71.6520584 C107.735905,69.258964 108.434227,66.0916334 107.735905,63.0650727 L99.0068756,24.8459495 C98.3085532,21.8193891 96.3532507,19.3559096 93.5599611,18.0185923 L58.3645148,0.985391762 C57.0377022,0.35192563 55.5712253,0 54.1047484,0 L54.1047484,0 L54.1047484,0 Z" id="Shape" fill="#FFFFFF"></path>
            <path d="M88.958688,61.4623554 L88.958688,61.4623554 L88.958688,61.4623554 C88.888298,61.4623554 88.888298,61.4623554 88.958688,61.4623554 L88.888298,61.4623554 C88.8179077,61.4623554 88.7475177,61.4623554 88.7475177,61.3918918 C88.6067378,61.3918918 88.4659575,61.3214286 88.3251771,61.3214286 C87.8324466,61.2509654 87.4101065,61.1805018 86.9877659,61.1805018 C86.7765957,61.1805018 86.5654254,61.1805018 86.2838651,61.1100386 L86.2134752,61.1100386 C84.7352836,60.9691122 83.5386523,60.8281854 82.412411,60.4758685 C81.9196805,60.264479 81.7789001,59.9826253 81.6381202,59.7007721 C81.6381202,59.6303089 81.5677303,59.6303089 81.5677303,59.5598457 L81.5677303,59.5598457 L80.6526592,59.2779925 C81.0749998,56.0366795 80.9342194,52.6544401 80.1599287,49.3426643 C79.3856379,46.0308881 78.0482263,42.9305019 76.2180846,40.1119691 L76.9219849,39.4777992 L76.9219849,39.3368726 C76.9219849,38.984556 76.9923753,38.6322394 77.2739355,38.2799228 C78.1186162,37.5048262 79.1744677,36.8706564 80.4414889,36.0955598 L80.4414889,36.0955598 C80.6526592,35.9546332 80.8638295,35.8841699 81.0749998,35.7432433 C81.4973399,35.5318533 81.8492905,35.3204633 82.2716306,35.03861 C82.342021,34.9681467 82.4828009,34.8976834 82.6235813,34.7567567 C82.6939712,34.6862934 82.7643616,34.6862934 82.7643616,34.6158301 L82.7643616,34.6158301 C83.7498226,33.7702703 83.9609925,32.3610038 83.2570921,31.4449807 C82.9051415,30.9517374 82.2716306,30.6698842 81.6381202,30.6698842 C81.0749998,30.6698842 80.5822692,30.8812741 80.0895383,31.2335907 L80.0895383,31.2335907 L80.0895383,31.2335907 C80.0191484,31.3040541 80.0191484,31.3040541 79.9487584,31.3745174 C79.8079781,31.4449807 79.7375881,31.5859074 79.5968078,31.6563706 C79.2448576,32.0086873 78.9632974,32.2905406 78.6817371,32.6428571 C78.5409568,32.7837838 78.4001769,32.9951738 78.1890066,33.1361004 L78.1890066,33.1361004 C77.2035456,34.1930502 76.2884745,35.03861 75.3734034,35.6727799 C75.1622332,35.8137066 74.9510629,35.8841699 74.7398926,35.8841699 C74.5991127,35.8841699 74.4583324,35.8841699 74.3175525,35.8137066 L74.1767721,35.8137066 L74.1767721,35.8137066 L73.3320914,36.3774131 C72.4170204,35.3909266 71.4315593,34.5453668 70.4460983,33.699807 C66.2226935,30.3880309 61.0842181,28.3445946 55.7345724,27.8513514 L55.6641824,26.9353282 C55.5937921,26.8648649 55.5937921,26.8648649 55.5234021,26.7944015 C55.3122318,26.5830116 55.0306716,26.3716216 54.9602816,25.8783784 C54.8898917,24.7509652 55.0306716,23.4826255 55.1714519,22.0733591 L55.1714519,22.0028958 C55.1714519,21.7915058 55.2418419,21.5096525 55.3122318,21.2982625 C55.3826222,20.8754826 55.4530122,20.4527027 55.5234021,19.9594594 L55.5234021,19.5366795 L55.5234021,19.3252895 L55.5234021,19.3252895 L55.5234021,19.3252895 C55.5234021,18.0569498 54.5379411,17 53.3413098,17 C52.7781893,17 52.2150688,17.2818533 51.7927283,17.7046332 C51.3703877,18.1274131 51.1592174,18.6911197 51.1592174,19.3252895 L51.1592174,19.3252895 L51.1592174,19.3252895 L51.1592174,19.4662162 L51.1592174,19.8889961 C51.1592174,20.3822394 51.2296074,20.8050193 51.3703877,21.2277992 C51.4407777,21.4391892 51.4407777,21.6505791 51.511168,21.9324324 L51.511168,22.0028958 C51.6519479,23.4121622 51.8631182,24.6805019 51.7223379,25.807915 C51.6519479,26.3011583 51.3703877,26.5125482 51.1592174,26.7239382 C51.0888275,26.7944015 51.0888275,26.7944015 51.0184375,26.8648649 L51.0184375,26.8648649 L50.9480472,27.780888 C49.6810259,27.9218147 48.4140046,28.0627413 47.1469834,28.3445946 C41.7269473,29.542471 36.9404223,32.2905406 33.2097482,36.2364865 L32.5058475,35.7432433 L32.3650673,35.7432433 C32.2242872,35.7432433 32.0835071,35.8137066 31.9427269,35.8137066 C31.7315567,35.8137066 31.5203865,35.7432433 31.3092162,35.6023166 C30.3941452,34.9681467 29.4790742,34.0521235 28.4936132,32.9951738 L28.4936132,32.9951738 C28.3528331,32.8542471 28.2120529,32.6428571 28.0008827,32.5019305 C27.7193224,32.1496139 27.4377621,31.8677606 27.0858117,31.515444 C27.0154216,31.4449807 26.8746415,31.3745174 26.7338613,31.2335907 C26.6634712,31.1631274 26.5930812,31.1631274 26.5930812,31.0926641 L26.5930812,31.0926641 C26.1707407,30.7403475 25.6076201,30.5289575 25.0444995,30.5289575 C24.4109888,30.5289575 23.7774781,30.8108108 23.4255278,31.3040541 C22.721627,32.2200772 22.9327972,33.6293436 23.9182583,34.4749035 L23.9182583,34.4749035 L23.9182583,34.4749035 C23.9886484,34.4749035 23.9886484,34.5453668 24.0590385,34.5453668 C24.1998186,34.6158301 24.2702087,34.7567567 24.4109888,34.8272201 C24.8333293,35.1090734 25.1852796,35.3204633 25.6076201,35.5318533 C25.8187903,35.6023166 26.0299606,35.7432433 26.2411308,35.8841699 L26.2411308,35.8841699 C27.5081521,36.6592664 28.5640033,37.2934363 29.4086842,38.0685328 C29.7606346,38.4208494 29.7606346,38.773166 29.7606346,39.1254826 L29.7606346,39.2664093 L29.7606346,39.2664093 L30.4645353,39.9005792 C30.3237552,40.1119691 30.182975,40.2528958 30.112585,40.4642857 C26.5930812,46.0308881 25.2556697,52.5839769 26.1707407,59.0666025 L25.2556697,59.3484557 C25.2556697,59.4189189 25.1852796,59.4189189 25.1852796,59.4893821 C25.0444995,59.7712357 24.8333293,60.0530889 24.4109888,60.264479 C23.3551377,60.6167954 22.0881164,60.7577222 20.6099248,60.8986486 L20.5395347,60.8986486 C20.3283645,60.8986486 20.0468041,60.8986486 19.8356339,60.9691122 C19.4132935,60.9691122 18.990953,61.0395754 18.4982225,61.1100386 C18.3574424,61.1100386 18.2166622,61.1805018 18.075882,61.1805018 C18.005492,61.1805018 17.9351019,61.1805018 17.8647118,61.2509654 L17.8647118,61.2509654 L17.8647118,61.2509654 C16.5976904,61.5328186 15.8233996,62.7306951 16.0345699,63.858108 C16.2457401,64.8445944 17.160811,65.4787645 18.2870523,65.4787645 C18.4982225,65.4787645 18.6390026,65.4787645 18.8501729,65.4083013 L18.8501729,65.4083013 L18.8501729,65.4083013 C18.9205629,65.4083013 18.990953,65.4083013 18.990953,65.3378381 C19.1317332,65.3378381 19.2725133,65.2673745 19.4132935,65.2673745 C19.906024,65.1264481 20.2579744,64.9855212 20.6803149,64.7741312 C20.891485,64.703668 21.1026553,64.5627412 21.3138255,64.492278 L21.3842156,64.492278 C22.721627,63.9990348 23.9182583,63.5762547 25.0444995,63.4353284 L25.1852796,63.4353284 C25.6076201,63.4353284 25.8891804,63.6467184 26.1003506,63.7876448 C26.1707407,63.7876448 26.1707407,63.858108 26.2411308,63.858108 L26.2411308,63.858108 L27.2265919,63.7171816 C28.9159536,68.9314671 32.1538971,73.5820462 36.4476917,76.9642856 C37.4331528,77.7393824 38.4186138,78.3735521 39.474465,79.0077221 L39.0521245,79.9237454 C39.0521245,79.9942086 39.1225146,79.9942086 39.1225146,80.0646718 C39.2632948,80.346525 39.4040749,80.6988418 39.2632948,81.1920851 C38.8409543,82.2490347 38.2074436,83.3059848 37.4331528,84.5038608 L37.4331528,84.5743245 C37.2923727,84.7857145 37.1515925,84.9266409 37.0108123,85.1380309 C36.729252,85.4903477 36.5180818,85.8426641 36.2365215,86.2654442 C36.1661314,86.3359074 36.0957413,86.4768342 36.0253513,86.6177606 C36.0253513,86.6882238 35.9549612,86.7586874 35.9549612,86.7586874 L35.9549612,86.7586874 L35.9549612,86.7586874 C35.3918406,87.9565639 35.8141811,89.2953668 36.8700322,89.78861 C37.1515925,89.9295368 37.4331528,90 37.7147131,90 C38.559394,90 39.4040749,89.4362936 39.8264153,88.6611971 L39.8264153,88.6611971 L39.8264153,88.6611971 C39.8264153,88.5907335 39.8968054,88.5202703 39.8968054,88.5202703 C39.9671955,88.3793435 40.0375856,88.2384171 40.1079757,88.1679539 C40.3191459,87.6747107 40.3895359,87.3223938 40.5303161,86.8996138 C40.6007062,86.6882238 40.6710963,86.4768342 40.7414863,86.2654442 L40.7414863,86.2654442 C41.2342168,84.8561777 41.5861674,83.7287644 42.2196778,82.7422779 C42.501238,82.3194979 42.8531886,82.2490347 43.1347489,82.1081083 C43.2051388,82.1081083 43.2051388,82.1081083 43.2755292,82.0376447 L43.2755292,82.0376447 L43.7682597,81.1216219 C46.8654227,82.3194979 50.2441464,82.953668 53.62287,82.953668 C55.6641824,82.953668 57.7758844,82.7422779 59.7468069,82.2490347 C61.0138281,81.9671815 62.2104595,81.6148651 63.4070908,81.1920851 L63.8294309,81.9671815 C63.8998213,81.9671815 63.8998213,81.9671815 63.9702112,82.0376447 C64.3221614,82.1081083 64.6037221,82.2490347 64.8852823,82.6718147 C65.4484028,83.6583012 65.8707433,84.8561777 66.3634739,86.1949806 L66.3634739,86.2654442 C66.4338638,86.4768342 66.5042538,86.6882238 66.5746441,86.8996138 C66.715424,87.3223938 66.7858144,87.7451739 66.9969843,88.1679539 C67.0673746,88.3088803 67.1377646,88.3793435 67.2081546,88.5202703 C67.2081546,88.5907335 67.2785449,88.6611971 67.2785449,88.6611971 L67.2785449,88.6611971 L67.2785449,88.6611971 C67.7008851,89.5067568 68.5455662,90 69.3902469,90 C69.6718076,90 69.9533678,89.9295368 70.234928,89.78861 C70.7276585,89.5067568 71.1499991,89.0839767 71.290779,88.5202703 C71.4315593,87.9565639 71.4315593,87.3223938 71.1499991,86.7586874 L71.1499991,86.7586874 L71.1499991,86.7586874 C71.1499991,86.6882238 71.0796087,86.6882238 71.0796087,86.6177606 C71.0092188,86.4768342 70.9388288,86.3359074 70.8684384,86.2654442 C70.6572686,85.8426641 70.3757079,85.4903477 70.0941477,85.1380309 C69.9533678,84.9266409 69.8125875,84.7857145 69.6718076,84.5743245 L69.6718076,84.5038608 C68.8975164,83.3059848 68.1936156,82.2490347 67.8416654,81.1920851 C67.7008851,80.6988418 67.8416654,80.4169886 67.9120553,80.0646718 C67.9120553,79.9942086 67.9824457,79.9942086 67.9824457,79.9237454 L67.9824457,79.9237454 L67.6304951,79.0781853 C71.3611689,76.8938224 74.5287227,73.7934362 76.9219849,69.9884172 C78.1890066,68.0154442 79.1744677,65.8310813 79.8783684,63.6467184 L80.7230491,63.7876448 C80.7934391,63.7876448 80.7934391,63.7171816 80.8638295,63.7171816 C81.1453897,63.5762547 81.35656,63.3648647 81.7789001,63.3648647 L81.9196805,63.3648647 C83.0459218,63.5057915 84.2425531,63.9285716 85.5799643,64.4218148 L85.6503543,64.4218148 C85.8615246,64.492278 86.0726949,64.6332048 86.2838651,64.703668 C86.7062057,64.915058 87.0581559,65.0559844 87.5508864,65.1969113 C87.6916667,65.1969113 87.8324466,65.2673745 87.973227,65.2673745 C88.0436169,65.2673745 88.1140073,65.2673745 88.1843972,65.3378381 L88.1843972,65.3378381 C88.3955675,65.4083013 88.5363474,65.4083013 88.7475177,65.4083013 C89.8033691,65.4083013 90.7184398,64.703668 91,63.7876448 C91,62.9420851 90.2257093,61.8146718 88.958688,61.4623554 L88.958688,61.4623554 Z M56.3680832,58.0096524 L53.2709198,59.4893821 L50.1737564,58.0096524 L49.3994657,54.6978766 L51.511168,52.0202704 L54.9602816,52.0202704 L57.071984,54.6978766 L56.3680832,58.0096524 L56.3680832,58.0096524 Z M74.7398926,50.6814671 C75.3030135,53.0772201 75.4437934,55.472973 75.2326231,57.7982624 L64.4629417,54.6978766 C63.4774807,54.4160234 62.9143603,53.4295365 63.1255305,52.44305 C63.1959205,52.1611968 63.3367004,51.8793436 63.5478707,51.6679536 L72.0650697,43.9874519 C73.2617011,45.9604249 74.1767721,48.215251 74.7398926,50.6814671 L74.7398926,50.6814671 Z M68.6863461,39.7596525 L59.4652462,46.3127413 C58.6909555,46.8059845 57.6351045,46.6650581 57.0015937,45.8899612 C56.7904234,45.6785716 56.7200334,45.396718 56.6496435,45.1148648 L56.0161326,33.6293436 C60.8730478,34.1930502 65.3076229,36.3774131 68.6863461,39.7596525 L68.6863461,39.7596525 Z M48.2732243,33.9816602 C49.047515,33.8407336 49.7514158,33.699807 50.525707,33.5588803 L49.8921962,44.8330116 C49.8218062,45.819498 49.047515,46.6650581 47.9916641,46.6650581 C47.7101038,46.6650581 47.3581532,46.5945945 47.1469834,46.4536681 L37.7851032,39.7596525 C40.6710963,36.8706564 44.2609902,34.8976834 48.2732243,33.9816602 L48.2732243,33.9816602 Z M34.4063796,43.9874519 L42.7827987,51.4565636 C43.5570894,52.0907336 43.6274794,53.2886101 42.9939685,54.0637066 C42.7827987,54.3455598 42.501238,54.5569498 42.1492878,54.627413 L31.2388261,57.7982624 C30.8164857,53.0067569 31.8723368,48.1447878 34.4063796,43.9874519 L34.4063796,43.9874519 Z M32.5058475,63.0830115 L43.6978693,61.1805018 C44.6129404,61.1100386 45.4576215,61.7442086 45.6687918,62.6602315 C45.7391818,63.0830115 45.7391818,63.4353284 45.5984014,63.7876448 L45.5984014,63.7876448 L41.3046071,74.145753 C37.3627627,71.6090732 34.1952093,67.7335906 32.5058475,63.0830115 L32.5058475,63.0830115 Z M58.198225,77.1052124 C56.5792535,77.4575288 54.9602816,77.6689188 53.2709198,77.6689188 C50.8072672,77.6689188 48.4140046,77.2461392 46.1615223,76.541506 L51.7223379,66.4652509 C52.2854588,65.8310813 53.2005299,65.5492277 53.9748206,65.9720077 C54.3267708,66.1833977 54.608331,66.4652509 54.8195013,66.7471041 L54.8195013,66.7471041 L60.2395374,76.541506 C59.6060266,76.752896 58.9021258,76.8938224 58.198225,77.1052124 L58.198225,77.1052124 Z M71.9242898,67.310811 C70.1645381,70.1293436 67.8416654,72.3841701 65.1668425,74.145753 L60.7322679,63.5057915 C60.5210976,62.6602315 60.8730478,61.7442086 61.7177289,61.3214286 C61.9992892,61.1805018 62.3512394,61.1100386 62.70319,61.1100386 L73.9656019,63.0125483 C73.5432613,64.5627412 72.8393609,65.9720077 71.9242898,67.310811 L71.9242898,67.310811 Z" id="Shape" fill="#FFFFFF"></path>
        </g>
        <g id="Group" transform="translate(80.000000, 347.000000) scale(-1, 1) translate(-80.000000, -347.000000) translate(66.000000, 316.000000)" fill-rule="nonzero">
            <path d="M14.0466675,0 L15.6818457,3.12738302 C16.0494736,3.70450607 16.4477371,4.21533795 16.9168456,4.69107452 C18.2921647,6.07407619 19.5741242,7.55014298 20.7539616,9.10918544 C23.5245739,12.8136915 25.393349,16.927643 26.7279148,21.3769497 C27.5282713,24.0948873 27.9629147,26.8830156 27.9954651,29.7023397 C28.1294961,38.1310659 25.2918683,45.3685009 19.5706594,51.3834489 C18.6400435,52.3372944 17.6346784,53.2123712 16.5645355,54 C15.9977759,54 15.7297139,53.557409 15.496117,53.1499133 C15.0707198,52.3942847 14.7875958,51.5644276 14.6612953,50.7029896 C14.4602488,49.6832756 14.3281326,48.6635615 14.3932333,47.6107019 L14.3932333,47.1349653 C14.3472799,47.0335789 13.8475357,0.239818024 14.0466675,0 Z" id="Path" fill="#599636"></path>
            <path d="M13.6269782,0.0661586819 C13.5596805,-0.0684547707 13.4923828,0.0334668434 13.425085,0.0988505204 C13.4577725,0.771917784 13.2231918,1.37190917 12.8559384,1.94497787 C12.452152,2.51420047 11.9176157,2.95073267 11.3811566,3.4199567 C8.40082812,6.00068889 6.05502122,9.11795185 4.17645291,12.6044403 C1.67682261,17.2966806 0.388551608,22.3254546 0.0232210249,27.6196094 C-0.144061926,29.5291974 0.626977882,36.2675622 1.22881195,38.2117651 C2.87087678,43.3732294 5.82044053,47.6981674 9.64102931,51.4519596 C10.5793521,52.3557928 11.5830498,53.1942423 12.6213577,54 C12.9232362,54 12.9559237,53.7307731 13.0251442,53.530776 C13.1574946,53.1028237 13.2583896,52.6657679 13.3270226,52.2231024 L14,47.1962515 L13.6269782,0.0661586819 Z" id="Path" fill="#6CAC48"></path>
            <path d="M15.2785438,56.0426469 C15.3364589,55.2878349 15.6541644,54.661341 16,54.0367342 C15.6525097,53.8725626 15.394374,53.5461064 15.1924986,53.1819097 C15.0184251,52.8370825 14.874331,52.4736732 14.7622725,52.0968675 C14.3585218,50.7155617 14.2724766,49.2663228 14.1566464,47.8548245 L14.1566464,47 C14.0126862,47.1320921 13.9829013,48.2492137 13.9829013,48.4152724 C13.8986989,49.907113 13.7251,51.3906369 13.4633205,52.8554535 C13.3772752,53.4479809 13.3193602,54.0386212 13,54.5651025 C13,54.6311486 13,54.6971946 13.0281302,54.7953202 C13.547711,56.5389357 13.6900165,58.3146308 13.7777165,60.1242924 L13.7777165,60.7847528 C13.7777165,61.5735313 13.7495863,61.4074726 14.3237728,61.6716568 C14.555433,61.7697824 14.8135687,61.8037489 15.0452289,62 C15.2189741,62 15.2471042,61.8358284 15.2471042,61.7037363 L15.161059,60.6186942 L15.161059,57.5918984 C15.1329288,57.06353 15.2189741,56.5389357 15.2768891,56.0445339 L15.2785438,56.0426469 Z" id="Path" fill="#C2BFBF"></path>
        </g>
        <g id="Group" transform="translate(108.000000, 316.000000)" fill-rule="nonzero">
            <path d="M12.1214184,5.58605782 C12.4772813,5.58605343 12.7662569,5.8792526 12.7680071,6.24209673 L12.7680071,13.1078087 C12.7680071,13.4693326 12.4812821,13.764388 12.1245983,13.764388 L0.643938757,13.764388 C0.288301202,13.764388 0,13.4704274 0,13.1078087 L0,0.656579303 C0,0.295595785 0.286724994,0.000540394488 0.644468747,0.000540394488 L2.03993438,0.000540394488 C2.3939682,0.000540394488 2.68334315,0.292353418 2.68334315,0.656579303 L2.68334315,4.96838692 C2.70288447,5.28540512 2.93951366,5.54410723 3.24831328,5.58605782 L4.29239505,5.58605782 C4.60879953,5.55633613 4.87220493,5.2937044 4.88969462,4.96838692 L4.88969462,0.656038908 C4.88969462,0.29505539 5.17588963,0 5.53310339,0 L6.92856902,0 C7.28260284,0 7.57250778,0.291813024 7.57250778,0.656038908 L7.57250778,4.92299379 C7.57250778,5.26019995 7.81524354,5.54660902 8.13429797,5.58551743 L12.1219483,5.58551743 L12.1214184,5.58605782 Z M10.2839404,10.294515 L10.2839404,8.9510943 C10.2839404,8.59011078 9.99774544,8.294515 9.64053167,8.294515 L8.24453605,8.294515 C7.89050223,8.294515 7.60059729,8.58686841 7.60059729,8.9510943 L7.60059729,10.2939746 C7.60059729,10.6549581 7.88732228,10.9500135 8.24453605,10.9500135 L9.64000168,10.9500135 C9.9940355,10.9500135 10.2834104,10.6582005 10.2834104,10.2939746 L10.2839404,10.294515 Z M22.0603348,13.7768171 L21.3930765,10.6014591 C21.3105536,10.1761539 21.2051021,9.75580998 21.077202,9.34233991 C20.963254,8.97541205 20.8016068,8.66792759 20.6002103,8.41772494 C20.3956339,8.1669819 20.1290485,7.97892461 19.7983343,7.84760875 C19.4681501,7.71953526 19.0351476,7.65360713 18.499857,7.65360713 L17.0980315,7.65360713 L17.0980315,13.7762767 L15.5711281,13.7762767 L15.5711281,0.024317752 L18.9121898,0.024317752 C19.4649701,0.024317752 20.0002608,0.0837611456 20.5212417,0.199945961 C21.0390427,0.31667117 21.4985446,0.510672791 21.8965677,0.779248852 C22.2968248,1.05161676 22.6260593,1.41921468 22.8558509,1.85031073 C23.0985867,2.29505539 23.2188946,2.84085382 23.2188946,3.49148879 C23.2188946,3.9897325 23.1605956,4.4312348 23.0461176,4.81005134 C22.9419364,5.16977414 22.7666188,5.50393601 22.5309666,5.79194812 C22.3030706,6.06646852 22.0163456,6.29883815 21.6771515,6.48689543 C21.3379574,6.67495272 20.9367544,6.82734396 20.4804324,6.94352878 L20.4804324,6.98243718 C20.9250946,7.09862199 21.2817784,7.24777087 21.5483638,7.42393948 C21.8144191,7.60281005 22.0280054,7.81464469 22.1891226,8.06268576 C22.3470598,8.31018644 22.4700177,8.59335315 22.5574661,8.91272629 C22.6454446,9.23209943 22.7270632,9.59902729 22.8092117,10.0081059 L23.5872382,13.7762767 L22.0603348,13.7762767 L22.0603348,13.7768171 Z M21.6888113,3.65522832 C21.6888113,3.08565253 21.589173,2.64090786 21.3930765,2.32747906 C21.2053755,2.02253017 20.9336384,1.78079758 20.6118701,1.63253175 C20.2869858,1.48338287 19.9186422,1.39367738 19.5057794,1.36395569 C19.0833208,1.33375647 18.6599471,1.31879621 18.2364516,1.31909832 L17.1006814,1.31909832 L17.1006814,6.36152391 L17.9401868,6.36152391 C18.3996887,6.36152391 18.8501809,6.32910024 19.300673,6.26047014 C19.7209552,6.20120595 20.1278928,6.06771286 20.503222,5.86598217 C20.8558613,5.67343097 21.1525384,5.38956844 21.363397,5.04296136 C21.5769833,4.68792218 21.6882813,4.2253445 21.6882813,3.65522832 L21.6888113,3.65522832 Z M30.6207454,13.7768171 L30.6207454,12.5203999 L30.583116,12.5203999 C30.4545683,12.7684678 30.2795473,12.9884174 30.067965,13.1677925 C29.8511988,13.3526074 29.6142929,13.508241 29.3567174,13.6303702 C29.0974184,13.7528798 28.8256561,13.8458495 28.5463616,13.9075925 C28.2783063,13.9679612 28.0046899,13.9989397 27.7301758,14 C27.3295028,14 26.9722891,13.9373142 26.6622445,13.8092407 C26.3652404,13.6944964 26.0979917,13.5118472 25.8810381,13.275331 C25.6639558,13.0336577 25.4995795,12.7478117 25.3987465,12.4366387 C25.2874485,12.1086193 25.2317994,11.7449338 25.2317994,11.3417995 C25.2317994,10.9775736 25.3017582,10.6554985 25.4422058,10.3690894 C25.5826533,10.0826804 25.7670901,9.83193731 26.001346,9.61415834 C26.2434061,9.38968083 26.5151029,9.20087101 26.8085219,9.05322886 C27.1159165,8.89489327 27.431791,8.76952175 27.7593253,8.67387193 C28.3813815,8.49065733 29.0251222,8.39520078 29.6725919,8.39016482 C29.8310591,8.39016482 29.9858164,8.38746285 30.1320939,8.38476088 C30.2783713,8.38151851 30.4304787,8.36368549 30.5915959,8.33072143 L30.5915959,8.12807349 C30.5915959,7.77897865 30.585766,7.42988382 30.5767561,7.08078898 C30.5728871,6.75958369 30.5146143,6.44147537 30.4045091,6.14050257 C30.3031611,5.86816774 30.1236297,5.6333216 29.8893581,5.46663064 C29.6524523,5.29640638 29.2984184,5.20994326 28.8362665,5.20994326 C28.5612013,5.20994326 28.3152856,5.23696298 28.0958694,5.28776006 C27.8922127,5.33127282 27.6993064,5.41638395 27.5287793,5.53796271 C27.3657059,5.66007849 27.2331577,5.81966672 27.1418861,6.00378276 C27.0427778,6.19778438 26.975469,6.43609835 26.9373097,6.71980546 L25.4570455,6.71980546 C25.4623454,6.23885436 25.5625137,5.8335585 25.7580803,5.4995947 C25.9465616,5.17192739 26.2057416,4.892321 26.515967,4.68197784 C26.8417344,4.46533018 27.2023146,4.30875525 27.5812484,4.21940016 C27.9796926,4.12135985 28.3882268,4.07237488 28.7981072,4.07347491 C29.8543787,4.07347491 30.638235,4.31775196 31.1502061,4.804107 C31.6627072,5.29046204 31.9197527,6.06322616 31.9197527,7.11969738 L31.9197527,13.7762767 L30.6212753,13.7762767 L30.6207454,13.7768171 Z M29.7992597,9.47365577 C29.5003449,9.47365577 29.1728106,9.50661983 28.8214268,9.57524993 C28.4779694,9.64010235 28.1450924,9.75360326 27.832464,9.91245609 C27.5250694,10.0707917 27.2706738,10.2734396 27.0634475,10.530127 C26.8556911,10.7868144 26.7528729,11.1029451 26.7528729,11.4790597 C26.7528729,11.8816536 26.8731808,12.2129154 27.1100866,12.4723048 C27.3501725,12.7316941 27.6660469,12.860308 28.06089,12.860308 C28.295146,12.860308 28.523042,12.824642 28.7392782,12.7468252 C28.9542921,12.6739072 29.1582069,12.5705851 29.3450576,12.4398811 C29.5353364,12.3075474 29.7075036,12.1499914 29.8570287,11.9713591 C30.009666,11.7892461 30.1352738,11.5920022 30.2290822,11.3769252 C30.3048709,11.2012969 30.3663498,11.0402594 30.4161689,10.8970549 C30.5111925,10.6090992 30.5644013,10.3085212 30.5741062,10.0048636 C30.5799361,9.84977033 30.583116,9.67089976 30.583116,9.4709538 L29.7987297,9.4709538 L29.7987297,9.47365577 L29.7992597,9.47365577 Z M41.9757971,9.13374764 C41.9757971,9.75736287 41.9143182,10.3604431 41.7887104,10.9446096 C41.6625726,11.5298568 41.4548162,12.0486355 41.1622613,12.5025669 C40.8710646,12.9551602 40.4763858,13.3288419 40.0121814,13.5914618 C39.5383696,13.8627398 38.94743,14 38.2420123,14 C37.5869437,14 37.0368133,13.8957039 36.5921511,13.6898136 C36.1474889,13.4812213 35.7876251,13.1948122 35.5183898,12.824642 C35.2496845,12.4544718 35.053588,12.0194542 34.93646,11.5147257 C34.8155439,10.9764916 34.7566697,10.4257039 34.7610331,9.87354769 L34.7610331,0.024317752 L36.0860099,0.024317752 L36.0860099,5.86328019 L36.1331791,5.86328019 C36.2101748,5.58965317 36.335937,5.33282504 36.5041726,5.10564712 C36.6680764,4.88830953 36.8648691,4.69896342 37.0871624,4.54471764 C37.3129792,4.39091844 37.5605134,4.2731956 37.8211996,4.1956228 C38.0909373,4.11399334 38.3708578,4.07267364 38.6522251,4.07295326 C39.0968874,4.07295326 39.4890805,4.14482572 39.8250946,4.29073223 C40.1616388,4.43717914 40.4541937,4.63658471 40.6969294,4.89057012 C40.9428451,5.14455553 41.1474216,5.43636855 41.3117187,5.77141313 C41.4795459,6.1108903 41.6110348,6.46780658 41.7039118,6.83599027 C41.8003702,7.21210484 41.867679,7.59686571 41.9084883,7.99081329 C41.9551275,8.38151851 41.9757971,8.76357741 41.9757971,9.13374764 L41.9757971,9.13374764 Z M40.4483638,9.0980816 C40.4468557,8.85008311 40.4362484,8.60222896 40.4165643,8.35503918 C40.3920039,8.07175083 40.3537985,7.78986502 40.3020863,7.51040259 C40.2490872,7.22129154 40.1732986,6.94028641 40.0768402,6.6663064 C39.9875413,6.40488736 39.8624638,6.15764487 39.7053167,5.93191029 C39.5581684,5.72191771 39.3699542,5.54528067 39.1525364,5.41313159 C38.9357702,5.27857336 38.6840246,5.21318563 38.3972996,5.21318563 C38.0930849,5.21318563 37.8211996,5.2845177 37.5869437,5.42772224 C37.3494783,5.57384397 37.1419741,5.76541979 36.9758644,5.99189408 C36.8030874,6.22426371 36.6594599,6.4901378 36.5455119,6.78843556 C36.431954,7.08526485 36.3410551,7.39059548 36.2736267,7.70170224 C36.2083499,8.00280728 36.1605675,8.30757978 36.1305291,8.61442853 C36.1028703,8.87903588 36.0880126,9.14487188 36.0860099,9.41097001 C36.0860099,9.77519589 36.1125095,10.1567144 36.1623286,10.5566063 C36.2121477,10.9597406 36.3144359,11.3326128 36.4633633,11.6757633 C36.6128207,12.0189138 36.826407,12.3026209 37.1046521,12.5263442 C37.3823673,12.7500675 37.7480609,12.860308 38.2070329,12.860308 C38.5117776,12.860308 38.7810129,12.8008646 39.0147388,12.6841394 C39.2427986,12.5697161 39.4457946,12.4094255 39.6115084,12.2129154 C39.7784555,12.0162118 39.9130731,11.7860038 40.0211912,11.5266144 C40.1293093,11.2672251 40.2146378,10.998649 40.2787667,10.7214266 C40.3428956,10.4436639 40.3868848,10.1631991 40.4133844,9.88543637 C40.436704,9.608214 40.4483638,9.34504188 40.4483638,9.0980816 L40.4483638,9.0980816 Z M51.376243,9.13374764 C51.376243,9.75736287 51.314764,10.3604431 51.1886262,10.9446096 C51.0630184,11.5298568 50.8552621,12.0486355 50.5632371,12.5025669 C50.2720405,12.9551602 49.8773616,13.3288419 49.4131572,13.5914618 C48.9388155,13.8627398 48.3478758,14 47.6429881,14 C46.9873896,14 46.4372592,13.8957039 45.992597,13.6898136 C45.5479347,13.4812213 45.188071,13.1948122 44.9188357,12.824642 C44.6496004,12.4544718 44.4540338,12.0194542 44.3369059,11.5147257 C44.2159898,10.9764916 44.1571156,10.4257039 44.1614789,9.87354769 L44.1614789,0.024317752 L45.4864558,0.024317752 L45.4864558,5.86328019 L45.533625,5.86328019 C45.6106207,5.58965317 45.7363829,5.33282504 45.9046185,5.10564712 C46.0685223,4.88830953 46.265315,4.69896342 46.4876083,4.54471764 C46.7133718,4.3908221 46.9609211,4.27309214 47.2216455,4.1956228 C47.4913831,4.11399334 47.7713036,4.07267364 48.052671,4.07295326 C48.4973332,4.07295326 48.8889964,4.14482572 49.2255405,4.29073223 C49.5620846,4.43717914 49.8546395,4.63658471 50.0973753,4.89057012 C50.343291,5.14455553 50.5478674,5.43636855 50.7121645,5.77141313 C50.8799917,6.1108903 51.0114807,6.46780658 51.1043577,6.83599027 C51.200816,7.21210484 51.2675949,7.59686571 51.3089341,7.99081329 C51.3555733,8.38151851 51.376243,8.76357741 51.376243,9.13374764 L51.376243,9.13374764 Z M49.8488096,9.0980816 C49.8473015,8.85008311 49.8366943,8.60222896 49.8170102,8.35503918 C49.7924498,8.07175083 49.7542443,7.78986502 49.7025322,7.51040259 C49.6495331,7.22129154 49.5737444,6.94028641 49.4772861,6.6663064 C49.3879872,6.40488736 49.2629097,6.15764487 49.1057626,5.93191029 C48.9586142,5.72191771 48.7704001,5.54528067 48.5529822,5.41313159 C48.336216,5.27857336 48.0844704,5.21318563 47.7977454,5.21318563 C47.4935307,5.21318563 47.2216455,5.2845177 46.9873896,5.42772224 C46.7497337,5.57378789 46.5420458,5.76536712 46.3757803,5.99189408 C46.2035333,6.22426371 46.0599058,6.4901378 45.9459578,6.78843556 C45.8323999,7.08526485 45.741501,7.39059548 45.6740725,7.70170224 C45.6087957,8.00280728 45.5610134,8.30757978 45.530975,8.61442853 C45.5033162,8.87903588 45.4884584,9.14487188 45.4864558,9.41097001 C45.4864558,9.77519589 45.5129553,10.1567144 45.5627745,10.5566063 C45.6125936,10.9597406 45.7148818,11.3326128 45.8638092,11.6757633 C46.0132666,12.0189138 46.2268529,12.3026209 46.505098,12.5263442 C46.7828132,12.7500675 47.1485068,12.860308 47.6074788,12.860308 C47.9122234,12.860308 48.1814587,12.8008646 48.4151847,12.6841394 C48.6432445,12.5697161 48.8462404,12.4094255 49.0119542,12.2129154 C49.1789013,12.0162118 49.313519,11.7860038 49.4216371,11.5266144 C49.5295621,11.2660863 49.6157265,10.9967342 49.6792126,10.7214266 C49.7433415,10.4436639 49.7873307,10.1631991 49.8138302,9.88543637 C49.8371498,9.608214 49.8488096,9.34504188 49.8488096,9.0980816 L49.8488096,9.0980816 Z M53.723042,1.81464469 L53.723042,0.0237773575 L55.4778413,0.0237773575 L55.4778413,1.8141043 L53.722512,1.8141043 L53.723042,1.81464469 Z M53.9334483,13.7762767 L53.9334483,4.28803026 L55.2584252,4.28803026 L55.2584252,13.7762767 L53.9334483,13.7762767 Z M60.4984437,5.42502026 L60.4984437,11.2639827 C60.4984437,11.7714131 60.6187516,12.1621183 60.8614873,12.4425831 C61.1042231,12.7235882 61.4905864,12.860308 62.0200471,12.860308 C62.1771894,12.8630911 62.3341479,12.8480477 62.4880289,12.8154553 C62.6381291,12.7781877 62.7857623,12.7312595 62.9300412,12.6749527 L62.9300412,13.8930019 C62.7339446,13.9254256 62.5378481,13.9524453 62.3417515,13.9702783 C62.1488349,13.9913537 61.9527383,14 61.7534618,14 C61.3146294,14 60.9346261,13.9583896 60.6129217,13.8746285 C60.2906873,13.7914077 60.021452,13.6541475 59.8052158,13.4601459 C59.5884496,13.2693867 59.4278624,13.0186436 59.3229242,12.7052148 C59.2169261,12.391786 59.164457,12.0070251 59.164457,11.5476898 L59.164457,5.42502026 L57.6460335,5.42502026 L57.6460335,4.2847879 L59.164457,4.2847879 L59.164457,2.07727641 L60.4894338,1.22129154 L60.4894338,4.28532829 L63,4.28532829 L63,5.42556066 L60.4984437,5.42556066 L60.4984437,5.42502026 Z" id="Shape" fill="#FF6600"></path>
            <path d="M76.6064362,13.9956685 L76.6064362,1.87283908 L76.5702896,1.87283908 L72.7015739,13.9924198 L71.2335068,13.9924198 L67.3735696,1.87283908 L67.3281282,1.87283908 L67.3281282,13.9924198 L66,13.9924198 L66,0.216575782 L68.2317925,0.216575782 L71.9600529,11.93874 L71.9972322,11.93874 L75.7347875,0.216575782 L77.938179,0.216575782 L77.938179,13.9956685 L76.6064362,13.9956685 Z M85.2640559,14 C84.6511133,14 84.1068493,13.9041652 83.6364275,13.7130371 C83.1813051,13.5317373 82.761901,13.2641385 82.3991821,12.9236184 C82.0432707,12.5849898 81.7419443,12.1882242 81.5068782,11.7486947 C81.262227,11.2935764 81.0663599,10.8114685 80.9228529,10.311173 C80.7723072,9.79154752 80.6645058,9.25935089 80.600632,8.72042387 C80.5359937,8.17891697 80.5035527,7.63371572 80.5035527,7.08798391 C80.5035527,6.51730673 80.5319536,5.9460881 80.5918536,5.37811811 C80.6485707,4.82257389 80.7476891,4.27269391 80.8882555,3.73376648 C81.0276779,3.20478014 81.2161565,2.71748463 81.4500764,2.25996829 C81.6798085,1.8141738 81.9817432,1.41367586 82.3423803,1.07638164 C82.7012641,0.741230615 83.1288264,0.478091039 83.619387,0.286962911 C84.1125294,0.0958347836 84.6882926,0 85.3440947,0 C85.9823398,0 86.5410625,0.0985419809 87.0228446,0.296167382 C87.4809955,0.480447823 87.9010473,0.755445167 88.2600901,1.10616081 C88.6050316,1.44726766 88.8900731,1.84793286 89.1152146,2.3108636 C89.3403561,2.77108713 89.5200562,3.26433848 89.6512166,3.78791043 C89.782377,4.31094094 89.8732598,4.85454616 89.9248978,5.41980895 C89.9765357,5.98507174 90.0049366,6.54113006 90.0049366,7.08798391 C90.0021891,7.74972407 89.9602818,8.41064784 89.8794564,9.06694512 C89.8322241,9.44381655 89.767427,9.81803801 89.6852976,10.1882662 C89.6026769,10.5651081 89.4942372,10.9208338 89.3630768,11.2527362 C89.2386863,11.5718786 89.081098,11.8756586 88.8931714,12.1585644 C88.7247822,12.4155453 88.5085591,12.6341582 88.2575082,12.801253 L88.2941711,12.8402367 L91,12.6637274 L91,14 L85.2640559,14 Z M88.3881522,7.06740921 C88.3881522,6.70843485 88.3767918,6.31697413 88.3571694,5.89248559 C88.3346574,5.46441171 88.2881025,5.03810112 88.2177469,4.61577136 C88.1467912,4.19492703 88.0428178,3.78094389 87.9068864,3.37804076 C87.7790217,2.99591673 87.5952298,2.6369805 87.362106,2.31411223 C87.1375156,2.00818738 86.8538638,1.75541954 86.5297022,1.57234018 C86.2018011,1.38716788 85.805738,1.29458174 85.347193,1.29458174 C84.8617962,1.29458174 84.4486925,1.38391925 84.103751,1.56367715 C83.7669737,1.73630594 83.4688582,1.98172241 83.229004,2.28379162 C82.9839853,2.59681233 82.7885392,2.9490891 82.6501425,3.32714545 C82.5034926,3.72740648 82.3909973,4.14051976 82.3139794,4.56162741 C82.2365225,4.99261322 82.1854009,5.42305759 82.1595819,5.85350195 C82.133763,6.28665352 82.122919,6.69056735 82.122919,7.06740921 C82.122919,7.42584213 82.1368612,7.81188846 82.1683604,8.22717253 C82.1993432,8.64299803 82.2540794,9.05828209 82.3367001,9.47681479 C82.4162226,9.89264029 82.5303425,10.2960127 82.6759615,10.6842248 C82.8122792,11.0574781 83.0026482,11.4064718 83.2403644,11.7189156 C83.471186,12.0177902 83.7505474,12.2571064 84.0784484,12.4363229 C84.4063494,12.6160808 84.796216,12.7054183 85.2413352,12.7054183 C85.7432561,12.7054183 86.1708184,12.6220366 86.5214401,12.4514832 C86.8563531,12.2928103 87.1547113,12.0603059 87.3961871,11.7698109 C87.6335188,11.4762264 87.8198354,11.1412213 87.9466477,10.7800596 C88.0809063,10.4064663 88.1800512,10.0090498 88.2461478,9.59051707 C88.3112116,9.17198438 88.3514892,8.74424721 88.3654315,8.31380284 C88.3798901,7.87740264 88.3881522,7.46211858 88.3881522,7.06740921 L88.3881522,7.06740921 Z" id="Shape" fill="#B8B8B8"></path>
        </g>
        <g id="Group" transform="translate(127.000000, 347.000000)">
            <path d="M13.5471698,22.7333333 C18.5400943,22.7333333 23.259434,24 27.3632075,26.1333333 L42,9 L13,9 L13,43 L13,22.7333333 L13.5471698,22.7333333 Z" id="Path" fill="#E9478B" fill-rule="nonzero"></path>
            <path d="M26.3971631,26 L12,43.2696246 L12,46 L41,46 C39.3546099,37.3993174 33.8699764,30.0955631 26.3971631,26 Z" id="Path" fill="#3EBEB0" fill-rule="nonzero"></path>
            <path d="M26.3010753,26 L12,43.2696246 L12,46 L17.1075269,46 L31,29.2081911 C31,29.2081911 30.046595,28.4573379 28.7526882,27.5017065 C27.7992832,26.8191126 26.3010753,26 26.3010753,26 L26.3010753,26 Z" id="Path" fill="#37A595" fill-rule="nonzero"></path>
            <path d="M13.5333333,22 L13,22 L13,43 L27,25.5230263 C23,23.3125 18.4,22 13.5333333,22 Z" id="Path" fill="#353535" fill-rule="nonzero"></path>
            <polygon id="Path" points="0 0 54 0 54 54 0 54"></polygon>
        </g>
        <g id="Group" transform="translate(107.000000, 407.000000) scale(-1, 1) translate(-107.000000, -407.000000) translate(87.000000, 387.000000)" fill-rule="nonzero">
            <path d="M40,20.950752 C40,17.57377 37.9101422,14.6557663 34.808095,13.508242 C34.9394779,12.7944784 35.0050261,12.0700697 35.0039069,11.3442181 C35.0039069,5.08187075 29.9428036,0 23.7060478,0 C20.0815752,0 16.6857321,1.73768408 14.563213,4.72127855 C13.5183622,3.90155111 12.244882,3.47536816 10.9060791,3.47536816 C7.60806376,3.47536816 4.89795281,6.16380426 4.89795281,9.50814785 C4.89795281,10.2294892 5.02859822,10.9508305 5.25707142,11.606581 C2.12251914,12.6885146 0,15.7049044 0,19.0490911 C0,22.42623 2.08985779,25.3770291 5.22441006,26.5245534 C5.09392093,27.2130993 5.02859822,27.9344406 5.02859822,28.6884204 C5.02859822,34.9179723 10.0897015,40 16.2937959,40 C19.9509298,40 23.3142679,38.2295205 25.4366307,35.2787215 C26.4814815,36.098292 27.7876231,36.5574272 29.126426,36.5574272 C32.4244413,36.5574272 35.1345523,33.8688342 35.1345523,30.5246475 C35.1345523,29.8033062 35.0039069,29.0819649 34.7754337,28.4262143 C37.8446632,27.3114854 40,24.2950956 40,20.950752 L40,20.950752 Z" id="Path" fill="#FFFFFF"></path>
            <path d="M15.7434003,16.9082293 L24.7237852,21 L33.8027224,13.0785487 C33.9350803,12.4211472 34.001162,11.7522402 34,11.0817759 C34,5.51725596 29.4605946,1 23.868458,1 C20.513113,1 17.3882482,2.63661429 15.5132349,5.38613256 L14,13.1767738 L15.7434003,16.9083859 L15.7434003,16.9082293 Z" id="Path" fill="#F4BD19"></path>
            <path d="M6.19661533,26.9153188 C6.06559075,27.5667963 6,28.2508555 6,28.9349146 C6,34.4722393 10.5573017,39 16.131103,39 C19.508242,39 22.623018,37.3388026 24.524522,34.602566 L26,26.8501555 L23.9999529,23.0716173 L15.0163741,19 L6.19661533,26.9153188 L6.19661533,26.9153188 Z" id="Path" fill="#3CBEB1"></path>
            <path d="M6.30260009,11.5513846 L12.5883489,13 L14,5.98759207 C13.1261437,5.32914484 12.0840154,5 10.9748034,5 C8.25204609,5 6,7.17276559 6,9.87241502 C6,10.4320715 6.1008667,11.0246583 6.30243922,11.5513846 L6.30260009,11.5513846 Z" id="Path" fill="#E9478C"></path>
            <path d="M5.66154237,12 C2.90405231,12.9023757 1,15.6093429 1,18.5501409 C1,21.4242443 2.73986923,23.9975025 5.36616995,25 L14,17.0462347 L12.4241567,13.6043479 L5.66154237,12.0001599 L5.66154237,12 Z" id="Path" fill="#2C458F"></path>
            <path d="M27,33.9793201 C27.7678514,34.6379249 28.6835622,35 29.6286753,35 C32.021143,35 34,32.8272344 34,30.127585 C34,29.5349982 33.9113691,28.9751841 33.7342488,28.4484579 L28.2110057,27 L27,33.9793201 L27,33.9793201 Z" id="Path" fill="#95C63D"></path>
            <path d="M27.7741939,26.3957923 L34.4193931,28 C37.1290066,27.0643455 39,24.3907726 39,21.4497785 C39,18.5756398 37.2903391,16.0359375 34.7096372,15 L26,22.8868479 L27.7741939,26.3959523 L27.7741939,26.3957923 Z" id="Path" fill="#176655"></path>
        </g>
    </g>
</svg>
