<?xml version="1.0" encoding="UTF-8" standalone="no"?>
<svg
   xmlns:dc="http://purl.org/dc/elements/1.1/"
   xmlns:cc="http://creativecommons.org/ns#"
   xmlns:rdf="http://www.w3.org/1999/02/22-rdf-syntax-ns#"
   xmlns:svg="http://www.w3.org/2000/svg"
   xmlns="http://www.w3.org/2000/svg"
   version="1.1"
   width="538.58264"
   height="610.86615"
   id="svg3515">
  <defs
     id="defs3517">
    <clipPath
       id="clipPath3458">
      <path
         d="m 272.835,762.66 50.116,0 0,56.552 -50.116,0 0,-56.552 z"
         id="path3460" />
    </clipPath>
  </defs>
  <metadata
     id="metadata3520">
    <rdf:RDF>
      <cc:Work
         rdf:about="">
        <dc:format>image/svg+xml</dc:format>
        <dc:type
           rdf:resource="http://purl.org/dc/dcmitype/StillImage" />
        <dc:title></dc:title>
      </cc:Work>
    </rdf:RDF>
  </metadata>
  <g
     transform="translate(-100.38517,-171.03885)"
     id="layer1">
    <g
       transform="matrix(10.700674,0,0,-10.700674,-2816.0554,8940.3284)"
       id="g3454">
      <g
         clip-path="url(#clipPath3458)"
         id="g3456">
        <g
           transform="translate(297.7469,762.7593)"
           id="g3462">
          <path
             d="m 0,0 c 13.594,3.11 22.164,14.882 22.164,14.882 l 2.637,-2.666 0,7.053 -6.854,0 2.261,-2.475 c 0,0 -5.575,-6.897 -9.77,-7.817 -7.644,-1.781 -8.046,4.081 -8.046,4.081 l 0,7.989 -2.414,0 -0.015,0 -2.414,0 0,-7.989 c 0,0 -0.403,-5.862 -8.046,-4.081 -4.196,0.92 -9.771,7.817 -9.771,7.817 l 2.262,2.475 -6.854,0 0,-7.053 2.636,2.666 c 0,0 8.571,-11.772 22.165,-14.882 L 0,0 z"
             id="path3464"
             style="fill:#dad9cf;fill-opacity:1;fill-rule:nonzero;stroke:none" />
        </g>
        <g
           transform="translate(299.6076,806.8753)"
           id="g3466">
          <path
             d="m 0,0 0,2.631 c 1.834,0.747 3.127,2.544 3.127,4.646 0,2.771 -2.246,5.018 -5.018,5.018 -2.77,0 -5.017,-2.247 -5.017,-5.018 0,-2.102 1.293,-3.899 3.126,-4.646 l 0,-2.631 -9.669,-1.206 0,-2.222 9.693,-1.206 0,-4.468 1.866,0 0.002,0 1.866,0 0,4.468 9.694,1.206 0,2.222 L 0,0 z m -1.891,9.483 c 1.218,0 2.206,-0.988 2.206,-2.206 0,-1.218 -0.988,-2.206 -2.206,-2.206 -1.218,0 -2.205,0.988 -2.205,2.206 0,1.218 0.987,2.206 2.205,2.206"
             id="path3468"
             style="fill:#dad9cf;fill-opacity:1;fill-rule:nonzero;stroke:none" />
        </g>
        <g
           transform="translate(272.8785,796.7674)"
           id="g3470">
          <path
             d="m 0,0 3.535,0 0,-3.216 0.032,0 3.149,3.216 4.355,0 -4.162,-4.409 4.837,-6.874 -4.403,0 -2.828,4.392 -0.98,-1.058 0,-3.334 -3.535,0 L 0,0 z"
             id="path3472"
             style="fill:#0066ab;fill-opacity:1;fill-rule:nonzero;stroke:none" />
        </g>
        <path
           d="m 285.172,796.767 3.657,0 0,-11.283 -3.657,0 0,11.283 z"
           id="path3474"
           style="fill:#0066ab;fill-opacity:1;fill-rule:nonzero;stroke:none" />
        <g
           transform="translate(291.2419,796.7674)"
           id="g3476">
          <path
             d="m 0,0 5.998,0 c 2.884,0 3.496,-1.675 3.496,-2.829 0,-1.138 -0.536,-1.754 -1.349,-2.212 0.982,-0.348 1.902,-1.154 1.902,-2.814 0,-2.259 -1.902,-3.428 -3.835,-3.428 L 0,-11.283 0,0 z m 3.375,-4.394 1.779,0 c 0.705,0 1.151,0.206 1.151,0.933 0,0.569 -0.461,0.774 -1.151,0.774 l -1.779,0 0,-1.707 z m 0,-4.203 1.978,0 c 0.706,0 1.319,0.205 1.319,1.075 0,0.664 -0.383,1.027 -1.181,1.027 l -2.116,0 0,-2.102 z"
             id="path3478"
             style="fill:#0066ab;fill-opacity:1;fill-rule:nonzero;stroke:none" />
        </g>
        <g
           transform="translate(305.0234,796.7674)"
           id="g3480">
          <path
             d="m 0,0 3.298,0 3.988,-11.283 -3.497,0 -0.461,1.612 -3.482,0 -0.49,-1.612 -3.391,0 L 0,0 z m 2.654,-7.253 -0.982,2.704 -0.031,0 -1.058,-2.704 2.071,0 z"
             id="path3482"
             style="fill:#0066ab;fill-opacity:1;fill-rule:nonzero;stroke:none" />
        </g>
        <g
           transform="translate(320.2912,786.6377)"
           id="g3484">
          <path
             d="m 0,0 c -0.751,-0.996 -1.917,-1.422 -3.114,-1.422 -3.236,0 -5.23,2.592 -5.23,5.799 0,4.299 2.929,6.021 5.399,6.021 2.792,0 4.556,-1.564 5.046,-4.219 l -3.236,0 c -0.123,0.822 -0.797,1.406 -1.595,1.406 -2.316,0 -2.239,-2.513 -2.239,-3.287 0,-1.059 0.413,-2.907 2.469,-2.907 0.782,0 1.58,0.41 1.749,1.248 l -1.488,0 0,2.418 4.479,0 0,-6.21 -2.132,0 L 0,0 z"
             id="path3486"
             style="fill:#0066ab;fill-opacity:1;fill-rule:nonzero;stroke:none" />
        </g>
      </g>
    </g>
  </g>
</svg>
