<svg xmlns="http://www.w3.org/2000/svg" viewBox="0 0 130.716 43.57"><defs><style>.cls-1{fill:#002d59;}.cls-2{fill:#0054a0;}</style></defs><title>Bechterew_Logo_d_rgb</title><g id="_2._Zeile" data-name="2. Zeile"><path class="cls-1" d="M2.593,33.183a4.21,4.21,0,0,1-2.219-.61l.38-.739a3.384,3.384,0,0,0,1.859.57c.9,0,1.489-.46,1.489-1.2,0-.56-.37-.949-1.14-1.169l-.719-.21c-1.04-.3-1.629-.8-1.629-1.779a2.042,2.042,0,0,1,2.278-2A3.652,3.652,0,0,1,5,26.7l-.429.68a2.891,2.891,0,0,0-1.64-.54c-.769,0-1.249.4-1.249,1.039,0,.49.28.769,1.019.99l.81.239a2.029,2.029,0,0,1,1.679,1.94A2.308,2.308,0,0,1,2.593,33.183Z" transform="translate(-0.374 -0.552)"/><path class="cls-1" d="M8.863,33.153A1.834,1.834,0,0,1,7.254,32.4a3.03,3.03,0,0,1-.48-1.81,2.746,2.746,0,0,1,.84-2.209,1.96,1.96,0,0,1,2.658.021l-.48.63a1.223,1.223,0,0,0-.88-.391.964.964,0,0,0-.879.54,3.556,3.556,0,0,0-.24,1.53,2.064,2.064,0,0,0,.4,1.439.975.975,0,0,0,.719.3,1.4,1.4,0,0,0,1.04-.521l.45.571A1.975,1.975,0,0,1,8.863,33.153Z" transform="translate(-0.374 -0.552)"/><path class="cls-1" d="M15.012,33.053V29.615a1.1,1.1,0,0,0-.17-.7.794.794,0,0,0-.55-.191,1.922,1.922,0,0,0-1.329.73v3.6h-.929V26.967a4.442,4.442,0,0,0-.11-1.05l.929-.19a5.107,5.107,0,0,1,.11,1.159v1.12c0,.18-.01.41-.03.67a3.475,3.475,0,0,1,.53-.411,1.939,1.939,0,0,1,1.089-.339,1.279,1.279,0,0,1,1.259.75,2.027,2.027,0,0,1,.1.809v3.568Z" transform="translate(-0.374 -0.552)"/><path class="cls-1" d="M22.581,33.093h-.889l-.73-2.728c-.09-.351-.31-1.18-.31-1.18h-.03s-.2.85-.27,1.119L19.6,33.093h-.88l-1.369-5.007.93-.15.639,2.809c.11.5.26,1.228.26,1.228h.03s.11-.709.23-1.138l.759-2.789h.95l.7,2.709c.141.539.28,1.218.28,1.218h.04s.16-.859.23-1.188l.62-2.739h.959Z" transform="translate(-0.374 -0.552)"/><path class="cls-1" d="M26.172,30.745v.119a1.884,1.884,0,0,0,.21,1,1.306,1.306,0,0,0,1.149.59,1.778,1.778,0,0,0,1.23-.481l.349.55a2.556,2.556,0,0,1-1.729.64c-1.389,0-2.239-1.009-2.239-2.649a2.735,2.735,0,0,1,.6-1.938,1.867,1.867,0,0,1,1.509-.69,1.808,1.808,0,0,1,1.36.54,2.806,2.806,0,0,1,.609,2.159v.16Zm1.779-1.81a.9.9,0,0,0-.72-.349c-.7,0-1.049.569-1.049,1.479h2.079A1.831,1.831,0,0,0,27.951,28.935Z" transform="translate(-0.374 -0.552)"/><path class="cls-1" d="M31.46,27.167a.649.649,0,0,1-.64-.66.655.655,0,1,1,1.31,0A.668.668,0,0,1,31.46,27.167Zm-.47,5.886V28.076l.95-.15v5.127Z" transform="translate(-0.374 -0.552)"/><path class="cls-1" d="M37.008,33.053H33.59v-.66l2.629-3.677H33.79v-.67h3.428v.689L34.71,32.393h2.618Z" transform="translate(-0.374 -0.552)"/><path class="cls-1" d="M39.638,30.745v.119a1.884,1.884,0,0,0,.21,1,1.305,1.305,0,0,0,1.149.59,1.774,1.774,0,0,0,1.229-.481l.35.55a2.556,2.556,0,0,1-1.729.64c-1.389,0-2.239-1.009-2.239-2.649a2.735,2.735,0,0,1,.6-1.938,1.867,1.867,0,0,1,1.509-.69,1.809,1.809,0,0,1,1.36.54,2.806,2.806,0,0,1,.609,2.159v.16Zm1.779-1.81a.9.9,0,0,0-.72-.349c-.7,0-1.049.569-1.049,1.479h2.078A1.831,1.831,0,0,0,41.417,28.935Z" transform="translate(-0.374 -0.552)"/><path class="cls-1" d="M46.684,28.855a.765.765,0,0,0-.259-.05,1.048,1.048,0,0,0-1.04,1.02v3.228h-.919V29.375a3.189,3.189,0,0,0-.19-1.249l.889-.23a2.072,2.072,0,0,1,.17.77v.09a1.648,1.648,0,0,1,1.36-.87.912.912,0,0,1,.309.05Z" transform="translate(-0.374 -0.552)"/><path class="cls-1" d="M48.925,27.167a.649.649,0,0,1-.64-.66.655.655,0,1,1,1.31,0A.668.668,0,0,1,48.925,27.167Zm-.47,5.886V28.076l.95-.15v5.127Z" transform="translate(-0.374 -0.552)"/><path class="cls-1" d="M52.976,33.193a3.814,3.814,0,0,1-1.869-.529l.33-.66a3.421,3.421,0,0,0,1.609.5.829.829,0,0,0,.929-.81c0-.43-.259-.68-.839-.79l-.61-.119a1.35,1.35,0,0,1-1.219-1.39,1.615,1.615,0,0,1,1.809-1.559,3.184,3.184,0,0,1,1.579.41l-.31.649a2.713,2.713,0,0,0-1.229-.359.767.767,0,0,0-.87.749c0,.36.18.56.71.68l.65.15c.919.21,1.3.739,1.3,1.4A1.75,1.75,0,0,1,52.976,33.193Z" transform="translate(-0.374 -0.552)"/><path class="cls-1" d="M58.548,33.153a1.834,1.834,0,0,1-1.609-.749,3.03,3.03,0,0,1-.48-1.81,2.749,2.749,0,0,1,.839-2.209,1.961,1.961,0,0,1,2.659.021l-.48.63a1.222,1.222,0,0,0-.879-.391.964.964,0,0,0-.88.54,3.556,3.556,0,0,0-.24,1.53,2.064,2.064,0,0,0,.4,1.439.976.976,0,0,0,.72.3,1.4,1.4,0,0,0,1.039-.521l.45.571A1.975,1.975,0,0,1,58.548,33.153Z" transform="translate(-0.374 -0.552)"/><path class="cls-1" d="M64.7,33.053V29.615a1.1,1.1,0,0,0-.17-.7.794.794,0,0,0-.55-.191,1.922,1.922,0,0,0-1.329.73v3.6h-.929V26.967a4.39,4.39,0,0,0-.11-1.05l.929-.19a5.107,5.107,0,0,1,.11,1.159v1.12c0,.18-.01.41-.03.67a3.475,3.475,0,0,1,.53-.411,1.941,1.941,0,0,1,1.089-.339,1.278,1.278,0,0,1,1.259.75,2,2,0,0,1,.1.809v3.568Z" transform="translate(-0.374 -0.552)"/><path class="cls-1" d="M68.468,30.745v.119a1.884,1.884,0,0,0,.21,1,1.308,1.308,0,0,0,1.15.59,1.776,1.776,0,0,0,1.229-.481l.35.55a2.556,2.556,0,0,1-1.729.64c-1.39,0-2.239-1.009-2.239-2.649a2.74,2.74,0,0,1,.6-1.938,1.868,1.868,0,0,1,1.51-.69,1.807,1.807,0,0,1,1.359.54,2.8,2.8,0,0,1,.609,2.159v.16Zm1.78-1.81a.9.9,0,0,0-.72-.349c-.7,0-1.05.569-1.05,1.479h2.079A1.838,1.838,0,0,0,70.248,28.935Z" transform="translate(-0.374 -0.552)"/><path class="cls-1" d="M78.888,33.073h-.94l-2.3-6.906h1.06l1.319,4.148c.08.239.191.61.26.909.05.22.09.38.11.52h.06c.03-.14.07-.27.14-.52.08-.28.16-.54.28-.92l1.349-4.137h1Z" transform="translate(-0.374 -0.552)"/><path class="cls-1" d="M82.639,30.745v.119a1.894,1.894,0,0,0,.209,1,1.308,1.308,0,0,0,1.15.59,1.776,1.776,0,0,0,1.229-.481l.35.55a2.554,2.554,0,0,1-1.729.64c-1.389,0-2.239-1.009-2.239-2.649a2.735,2.735,0,0,1,.6-1.938,1.866,1.866,0,0,1,1.51-.69,1.8,1.8,0,0,1,1.358.54,2.8,2.8,0,0,1,.61,2.159v.16Zm1.779-1.81a.9.9,0,0,0-.72-.349c-.7,0-1.05.569-1.05,1.479h2.079A1.831,1.831,0,0,0,84.418,28.935Z" transform="translate(-0.374 -0.552)"/><path class="cls-1" d="M89.685,28.855a.769.769,0,0,0-.259-.05,1.048,1.048,0,0,0-1.039,1.02v3.228h-.92V29.375a3.208,3.208,0,0,0-.19-1.249l.889-.23a2.052,2.052,0,0,1,.17.77v.09a1.648,1.648,0,0,1,1.359-.87.92.92,0,0,1,.311.05Z" transform="translate(-0.374 -0.552)"/><path class="cls-1" d="M92.026,30.745v.119a1.894,1.894,0,0,0,.21,1,1.308,1.308,0,0,0,1.15.59,1.778,1.778,0,0,0,1.229-.481l.35.55a2.556,2.556,0,0,1-1.729.64c-1.389,0-2.239-1.009-2.239-2.649a2.735,2.735,0,0,1,.6-1.938,1.864,1.864,0,0,1,1.509-.69,1.805,1.805,0,0,1,1.359.54,2.806,2.806,0,0,1,.61,2.159v.16Zm1.78-1.81a.9.9,0,0,0-.72-.349c-.7,0-1.05.569-1.05,1.479h2.079A1.831,1.831,0,0,0,93.806,28.935Z" transform="translate(-0.374 -0.552)"/><path class="cls-1" d="M97.314,27.167a.649.649,0,0,1-.639-.66.655.655,0,1,1,1.309,0A.668.668,0,0,1,97.314,27.167Zm-.469,5.886V28.076l.949-.15v5.127Z" transform="translate(-0.374 -0.552)"/><path class="cls-1" d="M102.719,33.053V29.676c0-.451-.04-.611-.161-.771a.616.616,0,0,0-.509-.2,2.021,2.021,0,0,0-1.24.639v3.708H99.9V29.325a2.754,2.754,0,0,0-.189-1.19l.869-.239a1.587,1.587,0,0,1,.17.77,4.571,4.571,0,0,1,.649-.49,1.856,1.856,0,0,1,.93-.25,1.256,1.256,0,0,1,1.18.709,1.576,1.576,0,0,1,.12.63v3.788Z" transform="translate(-0.374 -0.552)"/><path class="cls-1" d="M106.193,27.167a.649.649,0,0,1-.639-.66.655.655,0,1,1,1.309,0A.668.668,0,0,1,106.193,27.167Zm-.47,5.886V28.076l.95-.15v5.127Z" transform="translate(-0.374 -0.552)"/><path class="cls-1" d="M112.43,28.756a1.192,1.192,0,0,1-.43-.08,1.4,1.4,0,0,1,.36.919,1.58,1.58,0,0,1-1.8,1.549c-.31.1-.79.33-.79.55,0,.149.12.25.36.25h.769c1.28,0,1.81.6,1.81,1.379,0,1.079-.89,1.619-2.11,1.619-1.4,0-2.2-.489-2.2-1.319a1.5,1.5,0,0,1,.09-.51l.9-.05a.966.966,0,0,0-.089.38c0,.52.429.8,1.209.8.82,0,1.229-.33,1.229-.86,0-.48-.39-.759-1.379-.759-.349,0-.75-.031-.939-.051-.441-.05-.7-.3-.7-.669,0-.47.41-.67.979-.88a1.463,1.463,0,0,1-1.179-1.439,1.711,1.711,0,0,1,1.919-1.679,2.447,2.447,0,0,1,.78.11,2.833,2.833,0,0,0,.75.16,1.369,1.369,0,0,0,.819-.29l.47.57A1.237,1.237,0,0,1,112.43,28.756Zm-2.009-.13c-.59,0-.909.319-.909.959a.915.915,0,1,0,1.829-.02C111.341,28.926,111.051,28.626,110.421,28.626Z" transform="translate(-0.374 -0.552)"/><path class="cls-1" d="M118.112,33.223a1.181,1.181,0,0,1-.47-.719,1.838,1.838,0,0,1-1.509.719,1.408,1.408,0,0,1-1.349-.75,2.129,2.129,0,0,1-.12-.839V28.076l.909-.18v3.488c0,.51.05.709.231.879a.9.9,0,0,0,.579.22,1.377,1.377,0,0,0,1.139-.789V28.1l.909-.179v3.768a1.367,1.367,0,0,0,.311,1.039Z" transform="translate(-0.374 -0.552)"/><path class="cls-1" d="M123.386,33.053V29.676c0-.451-.04-.611-.161-.771a.616.616,0,0,0-.509-.2,2.021,2.021,0,0,0-1.24.639v3.708h-.909V29.325a2.754,2.754,0,0,0-.189-1.19l.869-.239a1.587,1.587,0,0,1,.17.77,4.571,4.571,0,0,1,.649-.49,1.856,1.856,0,0,1,.93-.25,1.256,1.256,0,0,1,1.18.709,1.576,1.576,0,0,1,.12.63v3.788Z" transform="translate(-0.374 -0.552)"/><path class="cls-1" d="M130.056,28.756a1.19,1.19,0,0,1-.429-.08,1.4,1.4,0,0,1,.36.919,1.58,1.58,0,0,1-1.8,1.549c-.31.1-.79.33-.79.55,0,.149.12.25.36.25h.769c1.279,0,1.81.6,1.81,1.379,0,1.079-.89,1.619-2.11,1.619-1.4,0-2.2-.489-2.2-1.319a1.5,1.5,0,0,1,.09-.51l.9-.05a.966.966,0,0,0-.089.38c0,.52.429.8,1.209.8.82,0,1.229-.33,1.229-.86,0-.48-.39-.759-1.379-.759-.349,0-.75-.031-.939-.051-.441-.05-.7-.3-.7-.669,0-.47.411-.67.98-.88a1.463,1.463,0,0,1-1.179-1.439,1.711,1.711,0,0,1,1.919-1.679,2.447,2.447,0,0,1,.78.11,2.833,2.833,0,0,0,.75.16,1.369,1.369,0,0,0,.819-.29l.47.57A1.237,1.237,0,0,1,130.056,28.756Zm-2.008-.13c-.59,0-.909.319-.909.959a.915.915,0,1,0,1.829-.02C128.968,28.926,128.678,28.626,128.048,28.626Z" transform="translate(-0.374 -0.552)"/><path class="cls-1" d="M6.3,43.953l-.36-4.688c-.031-.369-.04-.919-.05-1.119h-.02c-.04.2-.14.66-.25,1.03L4.252,43.953h-.83L2.163,39.4c-.15-.529-.27-1.079-.31-1.259h-.02c-.01.24-.04.9-.07,1.259l-.35,4.558H.473l.621-6.886H2.443L3.6,41.3a10.7,10.7,0,0,1,.25,1.129h.02c.03-.17.11-.62.24-1.08l1.2-4.277H6.67l.59,6.886Z" transform="translate(-0.374 -0.552)"/><path class="cls-1" d="M11.06,44.093c-1.339,0-2.169-1.019-2.169-2.649s.83-2.638,2.149-2.638c1.479,0,2.2,1.179,2.2,2.689C13.239,43.084,12.389,44.093,11.06,44.093Zm-.02-4.578c-.8,0-1.13.571-1.13,1.829,0,1.53.39,2.04,1.169,2.04.7,0,1.13-.541,1.13-1.849C12.209,39.985,11.759,39.515,11.04,39.515Z" transform="translate(-0.374 -0.552)"/><path class="cls-1" d="M17.263,39.756a.729.729,0,0,0-.26-.05,1.048,1.048,0,0,0-1.039,1.019v3.228h-.92V40.275a3.2,3.2,0,0,0-.19-1.249l.89-.23a2.067,2.067,0,0,1,.17.769v.09a1.647,1.647,0,0,1,1.359-.869.914.914,0,0,1,.31.05Z" transform="translate(-0.374 -0.552)"/><path class="cls-1" d="M22.292,43.674a1.644,1.644,0,0,1-1.08.379,1.606,1.606,0,0,1-1.289-.66,1.78,1.78,0,0,1-.15.56H18.9a3.254,3.254,0,0,0,.13-1.169V38a3.541,3.541,0,0,0-.16-1.2l.979-.2a5.15,5.15,0,0,1,.1,1.079v1.16a3,3,0,0,1-.03.519l.03.021a1.715,1.715,0,0,1,1.31-.56c1.189,0,1.928.97,1.928,2.549A2.86,2.86,0,0,1,22.292,43.674Zm-.35-3.539a.965.965,0,0,0-.889-.519,1.24,1.24,0,0,0-.79.269,1.133,1.133,0,0,0-.31.31v2.539a1.486,1.486,0,0,0,1.08.529.963.963,0,0,0,.839-.449,2.9,2.9,0,0,0,.28-1.47A2.153,2.153,0,0,0,21.942,40.135Z" transform="translate(-0.374 -0.552)"/><path class="cls-1" d="M28.458,44.123a1.18,1.18,0,0,1-.47-.72,1.837,1.837,0,0,1-1.509.72,1.411,1.411,0,0,1-1.35-.749,2.14,2.14,0,0,1-.119-.84V38.976l.909-.18v3.488c0,.51.05.71.23.88a.914.914,0,0,0,.579.22,1.377,1.377,0,0,0,1.14-.791V39l.91-.18v3.768a1.376,1.376,0,0,0,.309,1.04Z" transform="translate(-0.374 -0.552)"/><path class="cls-1" d="M32.484,44.093a3.813,3.813,0,0,1-1.869-.53l.33-.659a3.412,3.412,0,0,0,1.609.5.829.829,0,0,0,.93-.81c0-.429-.26-.679-.84-.789l-.609-.12a1.349,1.349,0,0,1-1.22-1.389,1.616,1.616,0,0,1,1.809-1.559,3.181,3.181,0,0,1,1.579.41l-.31.65a2.693,2.693,0,0,0-1.229-.361.767.767,0,0,0-.869.75c0,.36.179.56.709.68l.65.149c.92.21,1.3.741,1.3,1.4A1.749,1.749,0,0,1,32.484,44.093Z" transform="translate(-0.374 -0.552)"/><path class="cls-1" d="M42.324,43.843a4.685,4.685,0,0,1-1.09.11h-2.1V37.067H40.6a3.528,3.528,0,0,1,1.9.26,1.563,1.563,0,0,1,.93,1.439,1.536,1.536,0,0,1-1.249,1.519,1.734,1.734,0,0,1,1.539,1.779A1.759,1.759,0,0,1,42.324,43.843Zm-.61-5.9a2.332,2.332,0,0,0-.7-.069h-.939v2.1h1.089c.61,0,.82-.11,1.019-.38a1.2,1.2,0,0,0,.2-.669A.979.979,0,0,0,41.714,37.946Zm.2,2.889a3.182,3.182,0,0,0-.719-.06H40.085v2.4h1.359a1.146,1.146,0,0,0,1.209-1.22A1.087,1.087,0,0,0,41.913,40.835Z" transform="translate(-0.374 -0.552)"/><path class="cls-1" d="M46.144,41.644v.12a1.878,1.878,0,0,0,.21,1,1.3,1.3,0,0,0,1.15.59,1.785,1.785,0,0,0,1.229-.479l.35.55a2.559,2.559,0,0,1-1.729.639c-1.389,0-2.239-1.01-2.239-2.648a2.739,2.739,0,0,1,.6-1.94,1.868,1.868,0,0,1,1.509-.689,1.805,1.805,0,0,1,1.359.54,2.8,2.8,0,0,1,.61,2.158v.16Zm1.78-1.808a.9.9,0,0,0-.72-.351c-.7,0-1.049.57-1.049,1.48h2.078A1.835,1.835,0,0,0,47.924,39.836Z" transform="translate(-0.374 -0.552)"/><path class="cls-1" d="M52.815,44.053a1.834,1.834,0,0,1-1.609-.75,3.022,3.022,0,0,1-.48-1.808,2.743,2.743,0,0,1,.84-2.209,1.96,1.96,0,0,1,2.658.019l-.48.63a1.219,1.219,0,0,0-.879-.389.964.964,0,0,0-.88.54,3.549,3.549,0,0,0-.24,1.528,2.061,2.061,0,0,0,.4,1.439.968.968,0,0,0,.72.3,1.4,1.4,0,0,0,1.039-.519l.45.569A1.972,1.972,0,0,1,52.815,44.053Z" transform="translate(-0.374 -0.552)"/><path class="cls-1" d="M58.964,43.953V40.515a1.1,1.1,0,0,0-.17-.7.8.8,0,0,0-.55-.189,1.917,1.917,0,0,0-1.329.729v3.6h-.929V37.867a4.384,4.384,0,0,0-.11-1.05l.93-.19a5.171,5.171,0,0,1,.109,1.16v1.119c0,.18-.01.409-.03.67a3.463,3.463,0,0,1,.53-.41,1.935,1.935,0,0,1,1.089-.34,1.281,1.281,0,0,1,1.26.75,2.024,2.024,0,0,1,.1.809v3.568Z" transform="translate(-0.374 -0.552)"/><path class="cls-1" d="M63.919,39.6h-.99v3.019c0,.619.15.81.65.81a1.105,1.105,0,0,0,.47-.1l.11.561a2.008,2.008,0,0,1-.91.209,1.381,1.381,0,0,1-.849-.25c-.21-.19-.37-.29-.37-1.019V39.6h-.6v-.649h.6a10.849,10.849,0,0,1,.06-1.279l.949-.22c-.04.359-.09.989-.09,1.5h1.219Z" transform="translate(-0.374 -0.552)"/><path class="cls-1" d="M66.316,41.644v.12a1.878,1.878,0,0,0,.21,1,1.3,1.3,0,0,0,1.15.59,1.785,1.785,0,0,0,1.229-.479l.35.55a2.559,2.559,0,0,1-1.729.639c-1.389,0-2.239-1.01-2.239-2.648a2.739,2.739,0,0,1,.6-1.94,1.867,1.867,0,0,1,1.509-.689,1.807,1.807,0,0,1,1.359.54,2.8,2.8,0,0,1,.61,2.158v.16Zm1.78-1.808a.9.9,0,0,0-.72-.351c-.7,0-1.049.57-1.049,1.48h2.078A1.835,1.835,0,0,0,68.1,39.836Z" transform="translate(-0.374 -0.552)"/><path class="cls-1" d="M73.364,39.756a.729.729,0,0,0-.26-.05,1.048,1.048,0,0,0-1.04,1.019v3.228h-.92V40.275a3.2,3.2,0,0,0-.189-1.249l.89-.23a2.086,2.086,0,0,1,.169.769v.09a1.649,1.649,0,0,1,1.36-.869.908.908,0,0,1,.309.05Z" transform="translate(-0.374 -0.552)"/><path class="cls-1" d="M75.705,41.644v.12a1.878,1.878,0,0,0,.21,1,1.3,1.3,0,0,0,1.149.59,1.787,1.787,0,0,0,1.23-.479l.349.55a2.557,2.557,0,0,1-1.728.639c-1.39,0-2.239-1.01-2.239-2.648a2.743,2.743,0,0,1,.6-1.94,1.871,1.871,0,0,1,1.51-.689,1.8,1.8,0,0,1,1.358.54,2.8,2.8,0,0,1,.611,2.158v.16Zm1.779-1.808a.9.9,0,0,0-.72-.351c-.7,0-1.049.57-1.049,1.48h2.079A1.828,1.828,0,0,0,77.484,39.836Z" transform="translate(-0.374 -0.552)"/><path class="cls-1" d="M85.113,43.993h-.89l-.729-2.729c-.09-.349-.31-1.178-.31-1.178h-.03s-.2.848-.269,1.119l-.75,2.788h-.879l-1.369-5.007.928-.15.64,2.808c.11.5.261,1.23.261,1.23h.029s.11-.71.23-1.14l.759-2.788h.95l.7,2.708c.139.54.28,1.22.28,1.22h.04s.159-.86.229-1.19l.621-2.738h.959Z" transform="translate(-0.374 -0.552)"/><path class="cls-1" d="M88.7,44.093a.751.751,0,1,1,.71-.75A.721.721,0,0,1,88.7,44.093Z" transform="translate(-0.374 -0.552)"/></g><g id="bechterew.ch"><path class="cls-2" d="M8.149,16.487a3.687,3.687,0,0,1-2.43.854,3.616,3.616,0,0,1-2.9-1.485,4.035,4.035,0,0,1-.337,1.261H.519a7.27,7.27,0,0,0,.293-2.633V3.7A7.921,7.921,0,0,0,.452,1L2.658.552a11.629,11.629,0,0,1,.225,2.431v2.61a6.774,6.774,0,0,1-.068,1.17l.068.046A3.861,3.861,0,0,1,5.831,5.548c2.679,0,4.344,2.183,4.344,5.74A6.432,6.432,0,0,1,8.149,16.487ZM7.362,8.519a2.17,2.17,0,0,0-2-1.17,2.792,2.792,0,0,0-1.778.608,2.564,2.564,0,0,0-.7.7v5.717a3.334,3.334,0,0,0,2.43,1.193A2.165,2.165,0,0,0,7.2,14.551a6.523,6.523,0,0,0,.63-3.308A4.85,4.85,0,0,0,7.362,8.519Z" transform="translate(-0.374 -0.552)"/><path class="cls-2" d="M15.3,11.918v.27a4.234,4.234,0,0,0,.472,2.25,2.938,2.938,0,0,0,2.589,1.328,4.012,4.012,0,0,0,2.768-1.08l.787,1.238a5.754,5.754,0,0,1-3.893,1.441c-3.129,0-5.042-2.274-5.042-5.965a6.162,6.162,0,0,1,1.351-4.366,4.2,4.2,0,0,1,3.4-1.553A4.069,4.069,0,0,1,20.794,6.7c.991,1.013,1.35,2.273,1.373,4.861v.361Zm4.006-4.074a2.026,2.026,0,0,0-1.621-.788c-1.575,0-2.363,1.283-2.363,3.331h4.681A4.123,4.123,0,0,0,19.309,7.844Z" transform="translate(-0.374 -0.552)"/><path class="cls-2" d="M29.883,17.341a4.13,4.13,0,0,1-3.623-1.687,6.814,6.814,0,0,1-1.081-4.074A6.181,6.181,0,0,1,27.07,6.606a4.416,4.416,0,0,1,5.987.045l-1.08,1.418A2.753,2.753,0,0,0,30,7.191a2.17,2.17,0,0,0-1.981,1.216,8.01,8.01,0,0,0-.54,3.443,4.65,4.65,0,0,0,.9,3.241A2.186,2.186,0,0,0,30,15.766a3.155,3.155,0,0,0,2.34-1.17l1.013,1.283A4.438,4.438,0,0,1,29.883,17.341Z" transform="translate(-0.374 -0.552)"/><path class="cls-2" d="M43.226,17.117V9.375A2.485,2.485,0,0,0,42.844,7.8a1.8,1.8,0,0,0-1.238-.427,4.32,4.32,0,0,0-2.994,1.642v8.1H36.519V3.41a9.852,9.852,0,0,0-.248-2.363L38.365.62a11.535,11.535,0,0,1,.247,2.61V5.751c0,.4-.022.922-.067,1.507a7.809,7.809,0,0,1,1.193-.921,4.348,4.348,0,0,1,2.453-.766,2.884,2.884,0,0,1,2.836,1.687,4.585,4.585,0,0,1,.225,1.824v8.035Z" transform="translate(-0.374 -0.552)"/><path class="cls-2" d="M53.823,7.3H51.6v6.8c0,1.4.338,1.823,1.463,1.823a2.5,2.5,0,0,0,1.058-.225l.247,1.261a4.5,4.5,0,0,1-2.048.472,3.116,3.116,0,0,1-1.913-.563c-.473-.427-.833-.653-.833-2.295V7.3h-1.35V5.841h1.35a24.552,24.552,0,0,1,.135-2.88l2.138-.5c-.09.811-.2,2.229-.2,3.377h2.746Z" transform="translate(-0.374 -0.552)"/><path class="cls-2" d="M59.064,11.918v.27a4.233,4.233,0,0,0,.473,2.25,2.937,2.937,0,0,0,2.588,1.328,4.014,4.014,0,0,0,2.769-1.08l.787,1.238a5.755,5.755,0,0,1-3.893,1.441c-3.129,0-5.042-2.274-5.042-5.965A6.162,6.162,0,0,1,58.1,7.034a4.2,4.2,0,0,1,3.4-1.553A4.07,4.07,0,0,1,64.556,6.7c.99,1.013,1.35,2.273,1.373,4.861v.361Zm4.007-4.074a2.028,2.028,0,0,0-1.621-.788c-1.576,0-2.363,1.283-2.363,3.331h4.681A4.13,4.13,0,0,0,63.071,7.844Z" transform="translate(-0.374 -0.552)"/><path class="cls-2" d="M74.68,7.664a1.676,1.676,0,0,0-.584-.113,2.361,2.361,0,0,0-2.342,2.3v7.27h-2.07V8.835a7.2,7.2,0,0,0-.428-2.814l2-.517a4.665,4.665,0,0,1,.383,1.732v.2A3.706,3.706,0,0,1,74.7,5.481a2.062,2.062,0,0,1,.7.112Z" transform="translate(-0.374 -0.552)"/><path class="cls-2" d="M79.314,11.918v.27a4.233,4.233,0,0,0,.473,2.25,2.936,2.936,0,0,0,2.588,1.328,4.01,4.01,0,0,0,2.768-1.08l.788,1.238a5.758,5.758,0,0,1-3.894,1.441C78.908,17.365,77,15.091,77,11.4a6.166,6.166,0,0,1,1.35-4.366,4.2,4.2,0,0,1,3.4-1.553A4.071,4.071,0,0,1,84.806,6.7c.99,1.013,1.35,2.273,1.372,4.861v.361ZM83.32,7.844A2.026,2.026,0,0,0,81.7,7.056c-1.575,0-2.363,1.283-2.363,3.331h4.682A4.13,4.13,0,0,0,83.32,7.844Z" transform="translate(-0.374 -0.552)"/><path class="cls-2" d="M100.332,17.207h-2l-1.642-6.145c-.2-.787-.7-2.655-.7-2.655H95.92s-.449,1.913-.608,2.52l-1.687,6.28H91.644L88.561,5.931l2.093-.338,1.44,6.325c.248,1.126.586,2.768.586,2.768h.066s.248-1.6.518-2.565l1.711-6.28h2.138l1.575,6.1c.316,1.216.63,2.634.63,2.746h.09c0-.112.361-1.935.518-2.679l1.4-6.166h2.16Z" transform="translate(-0.374 -0.552)"/><path class="cls-1" d="M107.846,15.744a1.6,1.6,0,1,1-1.6-1.688A1.625,1.625,0,0,1,107.846,15.744Z" transform="translate(-0.374 -0.552)"/><path class="cls-2" d="M115.721,17.341a4.13,4.13,0,0,1-3.623-1.687,6.814,6.814,0,0,1-1.08-4.074,6.181,6.181,0,0,1,1.89-4.974,4.415,4.415,0,0,1,5.986.045l-1.08,1.418a2.75,2.75,0,0,0-1.98-.878,2.169,2.169,0,0,0-1.981,1.216,8.007,8.007,0,0,0-.541,3.443,4.65,4.65,0,0,0,.9,3.241,2.188,2.188,0,0,0,1.621.675,3.156,3.156,0,0,0,2.34-1.17l1.013,1.283A4.438,4.438,0,0,1,115.721,17.341Z" transform="translate(-0.374 -0.552)"/><path class="cls-2" d="M129.064,17.117V9.375a2.491,2.491,0,0,0-.382-1.576,1.8,1.8,0,0,0-1.239-.427,4.318,4.318,0,0,0-2.992,1.642v8.1h-2.094V3.41a9.8,9.8,0,0,0-.248-2.363L124.2.62a11.469,11.469,0,0,1,.248,2.61V5.751c0,.4-.023.922-.068,1.507a7.809,7.809,0,0,1,1.193-.921,4.351,4.351,0,0,1,2.453-.766,2.884,2.884,0,0,1,2.836,1.687,4.585,4.585,0,0,1,.225,1.824v8.035Z" transform="translate(-0.374 -0.552)"/></g></svg>