<svg width="135" height="135" viewBox="0 0 135 135" fill="none" xmlns="http://www.w3.org/2000/svg">
<path d="M134.572 67.2859C134.572 104.461 104.436 134.572 67.2859 134.572C30.1357 134.572 0 104.436 0 67.2859C0 30.1357 30.1112 0 67.2859 0C104.461 0 134.572 30.1357 134.572 67.2859Z" fill="#077BC0"/>
<path d="M64 31.875L66.625 34.5L71 28.375M78 31C78 36.799 73.299 41.5 67.5 41.5C61.701 41.5 57 36.799 57 31C57 25.201 61.701 20.5 67.5 20.5C73.299 20.5 78 25.201 78 31Z" stroke="white" stroke-width="1.5" stroke-linecap="round" stroke-linejoin="round"/>
<path d="M39.5 63.8125H40.8672C42.8203 63.8125 43.625 63.0078 43.625 61.8828C43.625 60.75 42.8906 60.0234 40.8672 60.0234H39.5V63.8125ZM39.5 58.8516H40.7969C42.5156 58.8516 43.2344 58.1172 43.2344 57.0938C43.2344 56.0781 42.5781 55.4219 40.8516 55.4219H39.5V58.8516ZM38.0469 64.2969V54.9375C38.0469 54.4922 38.2969 54.2344 38.75 54.2344H40.9453C43.6328 54.2344 44.7266 55.3281 44.7266 56.9219C44.7266 58.1094 44.0078 58.9609 42.9766 59.3125V59.3281C44.3281 59.5625 45.125 60.4375 45.125 61.7578C45.125 63.6016 43.7344 65 40.7578 65H38.75C38.2969 65 38.0469 64.7422 38.0469 64.2969ZM47.2578 61.9297V57.7188C47.2578 57.3125 47.4844 57.0781 47.9766 57.0781C48.4531 57.0781 48.6875 57.3125 48.6875 57.7188V61.7188C48.6875 63.2891 49.3594 63.9609 50.4688 63.9609C51.8281 63.9609 52.5078 62.6172 52.5078 62.6172V57.7188C52.5078 57.3125 52.7422 57.0781 53.2266 57.0781C53.7109 57.0781 53.9375 57.3125 53.9375 57.7188V64.4688C53.9375 64.8516 53.7266 65.0703 53.3438 65.0703C52.9531 65.0703 52.7656 64.8594 52.7031 64.4375L52.6328 63.8984H52.6094C52.6094 63.8984 51.8594 65.1406 50.1406 65.1406C48.375 65.1406 47.2578 64.0312 47.2578 61.9297ZM56.2109 59.2734C56.2109 58.0156 57.2422 56.9844 59.2031 56.9844C60.2812 56.9844 60.8828 57.2734 61.0938 57.4844C61.2422 57.6328 61.2891 57.7578 61.2891 57.9688C61.2891 58.25 61.0781 58.4609 60.7812 58.4609C60.4375 58.4609 60.0156 58.1094 59.0781 58.1094C58.0625 58.1094 57.6172 58.5469 57.6172 59.1094C57.6172 60.7812 61.6797 59.9922 61.6797 62.7109C61.6797 64.0547 60.5859 65.1406 58.5078 65.1406C57.2188 65.1406 56.5781 64.8203 56.3594 64.6016C56.2344 64.4766 56.1641 64.3359 56.1641 64.1172C56.1641 63.8047 56.375 63.5938 56.6719 63.5938C57.0156 63.5938 57.4219 64.0156 58.625 64.0156C59.7656 64.0156 60.2656 63.5234 60.2656 62.875C60.2656 61.1406 56.2109 61.9297 56.2109 59.2734ZM63.7891 64.4062V57.7188C63.7891 57.3125 64.0234 57.0781 64.5 57.0781C64.9766 57.0781 65.2188 57.3125 65.2188 57.7188V64.4062C65.2188 64.8125 64.9766 65.0469 64.5 65.0469C64.0234 65.0469 63.7891 64.8125 63.7891 64.4062ZM63.5312 54.7031C63.5312 54.1484 63.9375 53.7344 64.5156 53.7344C65.0625 53.7344 65.4688 54.1484 65.4688 54.6719C65.4688 55.2266 65.0625 55.6328 64.4844 55.6328C63.9375 55.6328 63.5312 55.2266 63.5312 54.7031ZM67.9297 64.4062V57.6562C67.9297 57.2812 68.1406 57.0625 68.5234 57.0625C68.9141 57.0625 69.1016 57.2656 69.1641 57.6875L69.2344 58.2266H69.2578C69.2578 58.2266 70.0078 56.9844 71.7266 56.9844C73.5469 56.9844 74.6641 58.1016 74.6641 60.2031V64.4062C74.6641 64.8125 74.4297 65.0469 73.9531 65.0469C73.4688 65.0469 73.2344 64.8125 73.2344 64.4062V60.4062C73.2344 58.8438 72.5547 58.1641 71.3984 58.1641C70.0391 58.1641 69.3594 59.5078 69.3594 59.5078V64.4062C69.3594 64.8125 69.1172 65.0469 68.6406 65.0469C68.1641 65.0469 67.9297 64.8125 67.9297 64.4062ZM82.6641 61.2188H78.1484V61.2734C78.1875 62.9688 79.2109 63.9688 80.7188 63.9688C81.9141 63.9688 82.3359 63.5703 82.6953 63.5703C82.9844 63.5703 83.1562 63.7812 83.1562 64.0312C83.1562 64.2109 83.0938 64.3438 82.9531 64.4844C82.6875 64.75 81.8125 65.1484 80.4844 65.1484C78.1953 65.1484 76.7109 63.6641 76.7109 61.3203C76.7109 58.5469 78.2812 56.9844 80.4062 56.9844C82.2188 56.9844 83.4844 58.2422 83.4844 60.3359C83.4844 60.9219 83.2031 61.2188 82.6641 61.2188ZM78.2109 60.1953H82.1406C81.9922 58.7656 81.3516 58.0859 80.2344 58.0859C79.2891 58.0859 78.4609 58.7578 78.2109 60.1953ZM85.2109 59.2734C85.2109 58.0156 86.2422 56.9844 88.2031 56.9844C89.2812 56.9844 89.8828 57.2734 90.0938 57.4844C90.2422 57.6328 90.2891 57.7578 90.2891 57.9688C90.2891 58.25 90.0781 58.4609 89.7812 58.4609C89.4375 58.4609 89.0156 58.1094 88.0781 58.1094C87.0625 58.1094 86.6172 58.5469 86.6172 59.1094C86.6172 60.7812 90.6797 59.9922 90.6797 62.7109C90.6797 64.0547 89.5859 65.1406 87.5078 65.1406C86.2188 65.1406 85.5781 64.8203 85.3594 64.6016C85.2344 64.4766 85.1641 64.3359 85.1641 64.1172C85.1641 63.8047 85.375 63.5938 85.6719 63.5938C86.0156 63.5938 86.4219 64.0156 87.625 64.0156C88.7656 64.0156 89.2656 63.5234 89.2656 62.875C89.2656 61.1406 85.2109 61.9297 85.2109 59.2734ZM92.2422 59.2734C92.2422 58.0156 93.2734 56.9844 95.2344 56.9844C96.3125 56.9844 96.9141 57.2734 97.125 57.4844C97.2734 57.6328 97.3203 57.7578 97.3203 57.9688C97.3203 58.25 97.1094 58.4609 96.8125 58.4609C96.4688 58.4609 96.0469 58.1094 95.1094 58.1094C94.0938 58.1094 93.6484 58.5469 93.6484 59.1094C93.6484 60.7812 97.7109 59.9922 97.7109 62.7109C97.7109 64.0547 96.6172 65.1406 94.5391 65.1406C93.25 65.1406 92.6094 64.8203 92.3906 64.6016C92.2656 64.4766 92.1953 64.3359 92.1953 64.1172C92.1953 63.8047 92.4062 63.5938 92.7031 63.5938C93.0469 63.5938 93.4531 64.0156 94.6562 64.0156C95.7969 64.0156 96.2969 63.5234 96.2969 62.875C96.2969 61.1406 92.2422 61.9297 92.2422 59.2734ZM27.9062 84.3984V74.8359C27.9062 74.4219 28.1484 74.1875 28.6406 74.1875C29.1328 74.1875 29.375 74.4219 29.375 74.8359V84.3984C29.375 84.8125 29.1328 85.0469 28.6406 85.0469C28.1484 85.0469 27.9062 84.8125 27.9062 84.3984ZM32.2422 84.4062V77.6562C32.2422 77.2812 32.4531 77.0625 32.8359 77.0625C33.2266 77.0625 33.4141 77.2656 33.4766 77.6875L33.5469 78.2266H33.5703C33.5703 78.2266 34.3203 76.9844 36.0391 76.9844C37.8594 76.9844 38.9766 78.1016 38.9766 80.2031V84.4062C38.9766 84.8125 38.7422 85.0469 38.2656 85.0469C37.7812 85.0469 37.5469 84.8125 37.5469 84.4062V80.4062C37.5469 78.8438 36.8672 78.1641 35.7109 78.1641C34.3516 78.1641 33.6719 79.5078 33.6719 79.5078V84.4062C33.6719 84.8125 33.4297 85.0469 32.9531 85.0469C32.4766 85.0469 32.2422 84.8125 32.2422 84.4062ZM41.8906 78.2578H41.0234C40.7188 78.2578 40.5078 78.0547 40.5078 77.6953C40.5078 77.3359 40.7188 77.125 41.0234 77.125H41.9062L42.1016 75.6484C42.1641 75.2031 42.3984 74.9844 42.7578 74.9844C43.1094 74.9844 43.3203 75.1953 43.3203 75.5703V77.125H44.9609C45.2656 77.125 45.4766 77.3359 45.4766 77.6953C45.4766 78.0547 45.2656 78.2578 44.9609 78.2578H43.3203V82.7578C43.3203 83.6016 43.6172 83.9141 44.2344 83.9141C44.7109 83.9141 44.8906 83.7734 45.1016 83.7734C45.3672 83.7734 45.5391 83.9609 45.5391 84.2266C45.5391 84.4297 45.4609 84.5547 45.3438 84.6719C45.1953 84.8203 44.7656 85.0781 43.9141 85.0781C42.5469 85.0781 41.8906 84.4219 41.8906 83.1172V78.2578ZM52.4141 81.2188H47.8984V81.2734C47.9375 82.9688 48.9609 83.9688 50.4688 83.9688C51.6641 83.9688 52.0859 83.5703 52.4453 83.5703C52.7344 83.5703 52.9062 83.7812 52.9062 84.0312C52.9062 84.2109 52.8438 84.3438 52.7031 84.4844C52.4375 84.75 51.5625 85.1484 50.2344 85.1484C47.9453 85.1484 46.4609 83.6641 46.4609 81.3203C46.4609 78.5469 48.0312 76.9844 50.1562 76.9844C51.9688 76.9844 53.2344 78.2422 53.2344 80.3359C53.2344 80.9219 52.9531 81.2188 52.4141 81.2188ZM47.9609 80.1953H51.8906C51.7422 78.7656 51.1016 78.0859 49.9844 78.0859C49.0391 78.0859 48.2109 78.7578 47.9609 80.1953ZM55.3828 83.1641V74.0547C55.3828 73.6562 55.6172 73.4141 56.0938 73.4141C56.5703 73.4141 56.8125 73.6562 56.8125 74.0547V82.7734C56.8125 83.6562 57.0625 83.9141 57.4688 83.9141C57.6562 83.9141 57.7812 83.8828 57.9141 83.8828C58.1562 83.8828 58.3281 84.0625 58.3281 84.3281C58.3281 84.5391 58.25 84.6719 58.1562 84.7656C58 84.9219 57.7109 85.0781 57.1328 85.0781C56.0078 85.0781 55.3828 84.4531 55.3828 83.1641ZM59.8359 83.1641V74.0547C59.8359 73.6562 60.0703 73.4141 60.5469 73.4141C61.0234 73.4141 61.2656 73.6562 61.2656 74.0547V82.7734C61.2656 83.6562 61.5156 83.9141 61.9219 83.9141C62.1094 83.9141 62.2344 83.8828 62.3672 83.8828C62.6094 83.8828 62.7812 84.0625 62.7812 84.3281C62.7812 84.5391 62.7031 84.6719 62.6094 84.7656C62.4531 84.9219 62.1641 85.0781 61.5859 85.0781C60.4609 85.0781 59.8359 84.4531 59.8359 83.1641ZM64.3203 84.4062V77.7188C64.3203 77.3125 64.5547 77.0781 65.0312 77.0781C65.5078 77.0781 65.75 77.3125 65.75 77.7188V84.4062C65.75 84.8125 65.5078 85.0469 65.0312 85.0469C64.5547 85.0469 64.3203 84.8125 64.3203 84.4062ZM64.0625 74.7031C64.0625 74.1484 64.4688 73.7344 65.0469 73.7344C65.5938 73.7344 66 74.1484 66 74.6719C66 75.2266 65.5938 75.6328 65.0156 75.6328C64.4688 75.6328 64.0625 75.2266 64.0625 74.7031ZM74.4453 77.0078L73.6328 77.7891C74.1484 78.2578 74.4375 78.8984 74.4375 79.6016C74.4375 81.25 73.2734 82.4141 71.1797 82.4141C70.7734 82.4141 70.3828 82.3516 70.0625 82.2344C70.0625 82.2344 69.6406 82.5859 69.6406 83.0312C69.6406 83.5234 69.9922 83.8672 71.2109 83.8672H72.125C74.1016 83.8672 75.0391 84.6641 75.0391 86C75.0391 87.5469 73.6719 88.8438 71.0391 88.8438C68.6719 88.8438 67.6172 87.7578 67.6172 86.4922C67.6172 85.0547 68.8516 84.3984 68.8516 84.3984C68.4844 84.0781 68.3281 83.6641 68.3281 83.2188C68.3281 82.3594 69.1094 81.7656 69.1094 81.7656C68.4766 81.2969 68.1172 80.5859 68.1172 79.8047C68.1172 78.1641 69.2891 76.9922 71.375 76.9922C71.8672 76.9922 72.3125 77.0859 72.7031 77.2344L73.6328 76.1484C73.8672 75.8672 74 75.7812 74.2188 75.7812C74.5234 75.7812 74.8438 76.0391 74.8438 76.3906C74.8438 76.6016 74.7188 76.75 74.4453 77.0078ZM71.8594 85.0078H70.9844C70.5312 85.0078 70.1719 84.9609 69.8203 84.8594C69.8203 84.8594 69.0469 85.3906 69.0469 86.3047C69.0469 87.1094 69.7031 87.7344 71.1719 87.7344C72.8047 87.7344 73.6172 87.0156 73.6172 86.1875C73.6172 85.4609 73.1641 85.0078 71.8594 85.0078ZM69.5312 79.6875C69.5312 80.6484 70.1875 81.3047 71.2891 81.3047C72.3984 81.3047 73.0312 80.6797 73.0312 79.7188C73.0312 78.7578 72.375 78.1016 71.2578 78.1016C70.1641 78.1016 69.5312 78.7266 69.5312 79.6875ZM82.0391 81.2188H77.5234V81.2734C77.5625 82.9688 78.5859 83.9688 80.0938 83.9688C81.2891 83.9688 81.7109 83.5703 82.0703 83.5703C82.3594 83.5703 82.5312 83.7812 82.5312 84.0312C82.5312 84.2109 82.4688 84.3438 82.3281 84.4844C82.0625 84.75 81.1875 85.1484 79.8594 85.1484C77.5703 85.1484 76.0859 83.6641 76.0859 81.3203C76.0859 78.5469 77.6562 76.9844 79.7812 76.9844C81.5938 76.9844 82.8594 78.2422 82.8594 80.3359C82.8594 80.9219 82.5781 81.2188 82.0391 81.2188ZM77.5859 80.1953H81.5156C81.3672 78.7656 80.7266 78.0859 79.6094 78.0859C78.6641 78.0859 77.8359 78.7578 77.5859 80.1953ZM85.0391 84.4062V77.6562C85.0391 77.2812 85.25 77.0625 85.6328 77.0625C86.0234 77.0625 86.2109 77.2656 86.2734 77.6875L86.3438 78.2266H86.3672C86.3672 78.2266 87.1172 76.9844 88.8359 76.9844C90.6562 76.9844 91.7734 78.1016 91.7734 80.2031V84.4062C91.7734 84.8125 91.5391 85.0469 91.0625 85.0469C90.5781 85.0469 90.3438 84.8125 90.3438 84.4062V80.4062C90.3438 78.8438 89.6641 78.1641 88.5078 78.1641C87.1484 78.1641 86.4688 79.5078 86.4688 79.5078V84.4062C86.4688 84.8125 86.2266 85.0469 85.75 85.0469C85.2734 85.0469 85.0391 84.8125 85.0391 84.4062ZM93.8203 81.3594C93.8203 78.6328 95.4688 76.9844 97.8125 76.9844C98.7578 76.9844 99.3203 77.2734 99.5156 77.4766C99.6562 77.6094 99.7109 77.75 99.7109 77.9609C99.7109 78.2422 99.5156 78.4766 99.2031 78.4766C98.8516 78.4766 98.5703 78.1484 97.6875 78.1484C96.3438 78.1484 95.2891 79.2031 95.2891 81.1719C95.2891 82.9375 96.3125 83.9688 97.7891 83.9688C98.6953 83.9688 98.9766 83.6641 99.2969 83.6641C99.5703 83.6641 99.75 83.8672 99.75 84.1328C99.75 84.3125 99.6797 84.4531 99.5391 84.5938C99.2656 84.875 98.5391 85.1484 97.5078 85.1484C95.3047 85.1484 93.8203 83.6641 93.8203 81.3594ZM106.961 81.2188H102.445V81.2734C102.484 82.9688 103.508 83.9688 105.016 83.9688C106.211 83.9688 106.633 83.5703 106.992 83.5703C107.281 83.5703 107.453 83.7812 107.453 84.0312C107.453 84.2109 107.391 84.3438 107.25 84.4844C106.984 84.75 106.109 85.1484 104.781 85.1484C102.492 85.1484 101.008 83.6641 101.008 81.3203C101.008 78.5469 102.578 76.9844 104.703 76.9844C106.516 76.9844 107.781 78.2422 107.781 80.3359C107.781 80.9219 107.5 81.2188 106.961 81.2188ZM102.508 80.1953H106.438C106.289 78.7656 105.648 78.0859 104.531 78.0859C103.586 78.0859 102.758 78.7578 102.508 80.1953Z" fill="white"/>
<line x1="14" y1="96.5" x2="121" y2="96.5" stroke="white"/>
</svg>
