<svg width="517" height="626" viewBox="0 0 517 626" fill="none" xmlns="http://www.w3.org/2000/svg">
<path d="M325.627 361.335C325.627 399.78 294.464 430.967 255.994 430.967C217.524 430.967 186.362 399.805 186.362 361.335C186.362 322.865 217.524 291.703 255.994 291.703C294.464 291.703 325.627 322.865 325.627 361.335Z" fill="#00973A"/>
<path d="M218.062 232.604C218.062 265.258 191.592 291.727 158.939 291.727C126.286 291.727 99.8167 265.258 99.8167 232.604C99.8167 199.951 126.286 173.482 158.939 173.482C191.592 173.482 218.062 199.951 218.062 232.604Z" fill="#00973A"/>
<path d="M451.717 149.163C451.717 186.338 421.582 216.449 384.432 216.449C347.281 216.449 317.146 186.313 317.146 149.163C317.146 112.013 347.257 81.8771 384.432 81.8771C421.606 81.8771 451.717 112.013 451.717 149.163Z" fill="#077BC0"/>
<path d="M167.152 352.658C167.152 380.325 144.739 402.738 117.072 402.738C89.4051 402.738 66.9928 380.325 66.9928 352.658C66.9928 324.991 89.4051 302.579 117.072 302.579C144.739 302.579 167.152 324.991 167.152 352.658Z" fill="#DD0B2F"/>
<path d="M300.135 83.0259C300.135 125.846 265.428 160.553 222.608 160.553C179.787 160.553 145.081 125.846 145.081 83.0259C145.081 40.2053 179.787 5.49921 222.608 5.49921C265.428 5.49921 300.135 40.2053 300.135 83.0259Z" fill="#00973A"/>
<path d="M472.639 311.133C472.639 348.821 442.088 379.397 404.375 379.397C366.663 379.397 336.136 348.846 336.136 311.133C336.136 273.421 366.687 242.87 404.375 242.87C442.063 242.87 472.639 273.421 472.639 311.133Z" fill="#00973A"/>
<path d="M324.576 228.352C324.576 253.379 304.29 273.665 279.262 273.665C254.235 273.665 233.949 253.379 233.949 228.352C233.949 203.324 254.235 183.038 279.262 183.038C304.29 183.038 324.576 203.324 324.576 228.352Z" fill="#00973A"/>
<path d="M516.364 218.16C516.364 236.271 501.699 250.935 483.588 250.935C465.478 250.935 450.813 236.271 450.813 218.16C450.813 200.049 465.478 185.385 483.588 185.385C501.699 185.385 516.364 200.049 516.364 218.16Z" fill="#00973A"/>
<path d="M374.924 32.7753C374.924 50.886 360.259 65.5506 342.149 65.5506C324.038 65.5506 309.373 50.886 309.373 32.7753C309.373 14.6646 324.038 0 342.149 0C360.259 0 374.924 14.6646 374.924 32.7753Z" fill="#00973A"/>
<path d="M132.103 136.429C132.103 156.96 115.459 173.58 94.9531 173.58C74.4471 173.58 57.8029 156.935 57.8029 136.429C57.8029 115.923 74.4471 99.2791 94.9531 99.2791C115.459 99.2791 132.103 115.923 132.103 136.429Z" fill="#00973A"/>
<path d="M84.5412 265.649C84.5412 288.99 65.6239 307.907 42.2828 307.907C18.9417 307.907 0 288.99 0 265.649C0 242.307 18.9173 223.39 42.2584 223.39C65.5995 223.39 84.5168 242.307 84.5168 265.649" fill="#00973A"/>
<path d="M258.17 470.61C254.015 470.61 250.617 474.008 250.617 478.162V618.087C250.617 622.242 254.015 625.639 258.17 625.639C262.325 625.639 265.722 622.242 265.722 618.087V478.162C265.722 474.008 262.325 470.61 258.17 470.61Z" fill="#00973A"/>
<path d="M224.612 462.056C223.39 460.443 221.606 459.416 219.626 459.147C217.622 458.879 215.642 459.392 214.029 460.614C210.705 463.131 210.07 467.897 212.587 471.197C216.718 476.598 218.795 483.759 218.795 492.436V554.394C218.795 587.291 188.146 588.489 184.676 588.538C180.521 588.538 177.123 591.935 177.123 596.09C177.123 600.245 180.521 603.642 184.676 603.642C185.164 603.642 233.924 603.08 233.924 554.418V492.46C233.924 480.387 230.796 470.17 224.637 462.056H224.612Z" fill="#DD0B2F"/>
<path d="M331.712 590.933C328.217 590.909 297.544 589.711 297.544 556.813V479.849C297.544 465.82 303.043 455.872 313.87 450.3C315.655 449.371 316.999 447.807 317.61 445.9C318.221 443.97 318.05 441.941 317.146 440.132C315.239 436.417 310.693 434.951 306.978 436.857C295.784 442.601 282.464 454.724 282.464 479.825V556.789C282.464 605.475 331.199 606.038 331.688 606.038C335.818 606.038 339.216 602.665 339.24 598.51C339.24 594.355 335.892 590.957 331.737 590.933H331.712Z" fill="#077BC0"/>
<path d="M400.5 273.875L403.125 276.5L407.5 270.375M414.5 273C414.5 278.799 409.799 283.5 404 283.5C398.201 283.5 393.5 278.799 393.5 273C393.5 267.201 398.201 262.5 404 262.5C409.799 262.5 414.5 267.201 414.5 273Z" stroke="white" stroke-width="1.5" stroke-linecap="round" stroke-linejoin="round"/>
<path d="M375.484 302.07V305.789H379.617C379.961 305.789 380.172 306 380.172 306.398C380.172 306.789 379.961 307 379.617 307H374.719C374.266 307 374.016 306.742 374.016 306.297V296.938C374.016 296.492 374.266 296.234 374.719 296.234H379.586C379.93 296.234 380.141 296.445 380.141 296.828C380.141 297.234 379.93 297.445 379.586 297.445H375.484V300.867H379.023C379.359 300.867 379.57 301.078 379.57 301.469C379.57 301.859 379.359 302.07 379.023 302.07H375.484ZM381.602 303.359C381.602 300.633 383.25 298.984 385.594 298.984C386.539 298.984 387.102 299.273 387.297 299.477C387.438 299.609 387.492 299.75 387.492 299.961C387.492 300.242 387.297 300.477 386.984 300.477C386.633 300.477 386.352 300.148 385.469 300.148C384.125 300.148 383.07 301.203 383.07 303.172C383.07 304.938 384.094 305.969 385.57 305.969C386.477 305.969 386.758 305.664 387.078 305.664C387.352 305.664 387.531 305.867 387.531 306.133C387.531 306.312 387.461 306.453 387.32 306.594C387.047 306.875 386.32 307.148 385.289 307.148C383.086 307.148 381.602 305.664 381.602 303.359ZM389.414 306.406V296.055C389.414 295.656 389.648 295.414 390.125 295.414C390.602 295.414 390.844 295.656 390.844 296.055V299.07C390.844 299.43 390.828 299.75 390.789 300.133H390.812C390.812 300.133 391.578 298.984 393.211 298.984C395.031 298.984 396.148 300.102 396.148 302.203V306.406C396.148 306.812 395.914 307.047 395.438 307.047C394.953 307.047 394.719 306.812 394.719 306.406V302.406C394.719 300.844 394.039 300.164 392.883 300.164C391.523 300.164 390.844 301.508 390.844 301.508V306.406C390.844 306.812 390.602 307.047 390.125 307.047C389.648 307.047 389.414 306.812 389.414 306.406ZM399.062 300.258H398.195C397.891 300.258 397.68 300.055 397.68 299.695C397.68 299.336 397.891 299.125 398.195 299.125H399.078L399.273 297.648C399.336 297.203 399.57 296.984 399.93 296.984C400.281 296.984 400.492 297.195 400.492 297.57V299.125H402.133C402.438 299.125 402.648 299.336 402.648 299.695C402.648 300.055 402.438 300.258 402.133 300.258H400.492V304.758C400.492 305.602 400.789 305.914 401.406 305.914C401.883 305.914 402.062 305.773 402.273 305.773C402.539 305.773 402.711 305.961 402.711 306.227C402.711 306.43 402.633 306.555 402.516 306.672C402.367 306.82 401.938 307.078 401.086 307.078C399.719 307.078 399.062 306.422 399.062 305.117V300.258ZM404.047 305.461L407.82 300.258H404.383C404.078 300.258 403.867 300.055 403.867 299.695C403.867 299.336 404.078 299.125 404.383 299.125H408.734C409.281 299.125 409.555 299.398 409.555 299.852C409.555 300.094 409.445 300.312 409.188 300.664L405.406 305.867H409.211C409.523 305.867 409.727 306.078 409.727 306.438C409.727 306.789 409.523 307 409.211 307H404.5C403.953 307 403.68 306.727 403.68 306.273C403.68 306.039 403.781 305.812 404.047 305.461ZM416.992 303.219H412.477V303.273C412.516 304.969 413.539 305.969 415.047 305.969C416.242 305.969 416.664 305.57 417.023 305.57C417.312 305.57 417.484 305.781 417.484 306.031C417.484 306.211 417.422 306.344 417.281 306.484C417.016 306.75 416.141 307.148 414.812 307.148C412.523 307.148 411.039 305.664 411.039 303.32C411.039 300.547 412.609 298.984 414.734 298.984C416.547 298.984 417.812 300.242 417.812 302.336C417.812 302.922 417.531 303.219 416.992 303.219ZM412.539 302.195H416.469C416.32 300.766 415.68 300.086 414.562 300.086C413.617 300.086 412.789 300.758 412.539 302.195ZM419.992 306.406V299.719C419.992 299.312 420.227 299.078 420.703 299.078C421.18 299.078 421.422 299.312 421.422 299.719V306.406C421.422 306.812 421.18 307.047 420.703 307.047C420.227 307.047 419.992 306.812 419.992 306.406ZM419.734 296.703C419.734 296.148 420.141 295.734 420.719 295.734C421.266 295.734 421.672 296.148 421.672 296.672C421.672 297.227 421.266 297.633 420.688 297.633C420.141 297.633 419.734 297.227 419.734 296.703ZM424.406 300.258H423.539C423.234 300.258 423.023 300.055 423.023 299.695C423.023 299.336 423.234 299.125 423.539 299.125H424.422L424.617 297.648C424.68 297.203 424.914 296.984 425.273 296.984C425.625 296.984 425.836 297.195 425.836 297.57V299.125H427.477C427.781 299.125 427.992 299.336 427.992 299.695C427.992 300.055 427.781 300.258 427.477 300.258H425.836V304.758C425.836 305.602 426.133 305.914 426.75 305.914C427.227 305.914 427.406 305.773 427.617 305.773C427.883 305.773 428.055 305.961 428.055 306.227C428.055 306.43 427.977 306.555 427.859 306.672C427.711 306.82 427.281 307.078 426.43 307.078C425.062 307.078 424.406 306.422 424.406 305.117V300.258ZM429.742 302.219H433.719C434.047 302.219 434.242 302.414 434.242 302.789C434.242 303.172 434.047 303.367 433.719 303.367H429.742C429.422 303.367 429.219 303.172 429.219 302.789C429.219 302.414 429.422 302.219 429.742 302.219ZM350.25 322.461L353.312 319.516C353.438 319.398 353.547 319.297 353.625 319.234C353.75 319.133 353.883 319.055 354.07 319.055C354.445 319.055 354.773 319.383 354.773 319.711C354.773 319.906 354.672 320.062 354.484 320.234L351.836 322.633L354.648 325.828C354.828 326.031 354.883 326.164 354.883 326.336C354.883 326.758 354.484 327.07 354.102 327.07C353.945 327.07 353.789 327.008 353.664 326.883C353.586 326.805 353.523 326.734 353.422 326.617L350.25 322.844V326.406C350.25 326.812 350.008 327.047 349.531 327.047C349.055 327.047 348.82 326.812 348.82 326.406V316.055C348.82 315.656 349.055 315.414 349.531 315.414C350.008 315.414 350.25 315.656 350.25 316.055V322.461ZM356.008 323.203C356.008 320.547 357.578 318.984 359.938 318.984C362.109 318.984 363.664 320.539 363.664 322.922C363.664 325.578 362.102 327.148 359.742 327.148C357.57 327.148 356.008 325.586 356.008 323.203ZM357.477 323.047C357.477 324.93 358.531 325.984 359.859 325.984C361.203 325.984 362.203 324.977 362.203 323.078C362.203 321.211 361.141 320.141 359.828 320.141C358.484 320.141 357.477 321.148 357.477 323.047ZM365.805 326.406V319.656C365.805 319.281 366.016 319.062 366.398 319.062C366.789 319.062 366.977 319.273 367.039 319.688L367.109 320.227H367.133C367.133 320.227 367.883 318.984 369.531 318.984C370.781 318.984 371.602 319.555 372.031 320.453C372.031 320.453 372.898 318.984 374.695 318.984C376.438 318.984 377.555 320.102 377.555 322.203V326.406C377.555 326.812 377.32 327.047 376.844 327.047C376.359 327.047 376.125 326.812 376.125 326.406V322.406C376.125 320.844 375.453 320.164 374.359 320.164C373.047 320.164 372.352 321.57 372.352 321.57C372.352 321.609 372.391 321.93 372.391 322.305V326.406C372.391 326.812 372.156 327.047 371.68 327.047C371.203 327.047 370.961 326.812 370.961 326.406V322.406C370.961 320.844 370.289 320.164 369.195 320.164C367.914 320.164 367.234 321.508 367.234 321.508V326.406C367.234 326.812 366.992 327.047 366.516 327.047C366.039 327.047 365.805 326.812 365.805 326.406ZM380.195 326.406V319.656C380.195 319.281 380.406 319.062 380.789 319.062C381.18 319.062 381.367 319.273 381.43 319.688L381.5 320.227H381.523C381.523 320.227 382.273 318.984 383.922 318.984C385.172 318.984 385.992 319.555 386.422 320.453C386.422 320.453 387.289 318.984 389.086 318.984C390.828 318.984 391.945 320.102 391.945 322.203V326.406C391.945 326.812 391.711 327.047 391.234 327.047C390.75 327.047 390.516 326.812 390.516 326.406V322.406C390.516 320.844 389.844 320.164 388.75 320.164C387.438 320.164 386.742 321.57 386.742 321.57C386.742 321.609 386.781 321.93 386.781 322.305V326.406C386.781 326.812 386.547 327.047 386.07 327.047C385.594 327.047 385.352 326.812 385.352 326.406V322.406C385.352 320.844 384.68 320.164 383.586 320.164C382.305 320.164 381.625 321.508 381.625 321.508V326.406C381.625 326.812 381.383 327.047 380.906 327.047C380.43 327.047 380.195 326.812 380.195 326.406ZM394.508 323.93V319.719C394.508 319.312 394.734 319.078 395.227 319.078C395.703 319.078 395.938 319.312 395.938 319.719V323.719C395.938 325.289 396.609 325.961 397.719 325.961C399.078 325.961 399.758 324.617 399.758 324.617V319.719C399.758 319.312 399.992 319.078 400.477 319.078C400.961 319.078 401.188 319.312 401.188 319.719V326.469C401.188 326.852 400.977 327.07 400.594 327.07C400.203 327.07 400.016 326.859 399.953 326.438L399.883 325.898H399.859C399.859 325.898 399.109 327.141 397.391 327.141C395.625 327.141 394.508 326.031 394.508 323.93ZM403.914 326.406V319.656C403.914 319.281 404.125 319.062 404.508 319.062C404.898 319.062 405.086 319.266 405.148 319.688L405.219 320.227H405.242C405.242 320.227 405.992 318.984 407.711 318.984C409.531 318.984 410.648 320.102 410.648 322.203V326.406C410.648 326.812 410.414 327.047 409.938 327.047C409.453 327.047 409.219 326.812 409.219 326.406V322.406C409.219 320.844 408.539 320.164 407.383 320.164C406.023 320.164 405.344 321.508 405.344 321.508V326.406C405.344 326.812 405.102 327.047 404.625 327.047C404.148 327.047 403.914 326.812 403.914 326.406ZM413.289 326.406V319.719C413.289 319.312 413.523 319.078 414 319.078C414.477 319.078 414.719 319.312 414.719 319.719V326.406C414.719 326.812 414.477 327.047 414 327.047C413.523 327.047 413.289 326.812 413.289 326.406ZM413.031 316.703C413.031 316.148 413.438 315.734 414.016 315.734C414.562 315.734 414.969 316.148 414.969 316.672C414.969 317.227 414.562 317.633 413.984 317.633C413.438 317.633 413.031 317.227 413.031 316.703ZM418.859 322.461L421.922 319.516C422.047 319.398 422.156 319.297 422.234 319.234C422.359 319.133 422.492 319.055 422.68 319.055C423.055 319.055 423.383 319.383 423.383 319.711C423.383 319.906 423.281 320.062 423.094 320.234L420.445 322.633L423.258 325.828C423.438 326.031 423.492 326.164 423.492 326.336C423.492 326.758 423.094 327.07 422.711 327.07C422.555 327.07 422.398 327.008 422.273 326.883C422.195 326.805 422.133 326.734 422.031 326.617L418.859 322.844V326.406C418.859 326.812 418.617 327.047 418.141 327.047C417.664 327.047 417.43 326.812 417.43 326.406V316.055C417.43 315.656 417.664 315.414 418.141 315.414C418.617 315.414 418.859 315.656 418.859 316.055V322.461ZM429.602 324.953V323.969C429.602 323.969 428.992 323.781 428.133 323.781C426.82 323.781 426.195 324.148 426.195 324.836C426.195 325.5 426.719 326.023 427.672 326.023C428.898 326.023 429.602 324.953 429.602 324.953ZM429.602 322.945V321.984C429.602 320.688 429.086 320.164 427.742 320.164C426.5 320.164 425.992 320.633 425.633 320.633C425.344 320.633 425.148 320.445 425.148 320.125C425.148 319.961 425.203 319.836 425.32 319.711C425.609 319.43 426.695 318.992 428.047 318.992C430.047 318.992 431.031 319.945 431.031 321.695V324.586C431.031 325.961 431.219 326.195 431.219 326.516C431.219 326.836 430.984 327.07 430.602 327.07C430.117 327.07 429.867 326.672 429.75 326.055H429.727C429.727 326.055 428.914 327.141 427.359 327.141C425.695 327.141 424.734 326.18 424.734 324.898C424.734 323.5 425.969 322.766 427.977 322.766C428.992 322.766 429.602 322.945 429.602 322.945ZM433.953 320.258H433.086C432.781 320.258 432.57 320.055 432.57 319.695C432.57 319.336 432.781 319.125 433.086 319.125H433.969L434.164 317.648C434.227 317.203 434.461 316.984 434.82 316.984C435.172 316.984 435.383 317.195 435.383 317.57V319.125H437.023C437.328 319.125 437.539 319.336 437.539 319.695C437.539 320.055 437.328 320.258 437.023 320.258H435.383V324.758C435.383 325.602 435.68 325.914 436.297 325.914C436.773 325.914 436.953 325.773 437.164 325.773C437.43 325.773 437.602 325.961 437.602 326.227C437.602 326.43 437.523 326.555 437.406 326.672C437.258 326.82 436.828 327.078 435.977 327.078C434.609 327.078 433.953 326.422 433.953 325.117V320.258ZM439.18 326.406V319.719C439.18 319.312 439.414 319.078 439.891 319.078C440.367 319.078 440.609 319.312 440.609 319.719V326.406C440.609 326.812 440.367 327.047 439.891 327.047C439.414 327.047 439.18 326.812 439.18 326.406ZM438.922 316.703C438.922 316.148 439.328 315.734 439.906 315.734C440.453 315.734 440.859 316.148 440.859 316.672C440.859 317.227 440.453 317.633 439.875 317.633C439.328 317.633 438.922 317.227 438.922 316.703ZM442.727 323.203C442.727 320.547 444.297 318.984 446.656 318.984C448.828 318.984 450.383 320.539 450.383 322.922C450.383 325.578 448.82 327.148 446.461 327.148C444.289 327.148 442.727 325.586 442.727 323.203ZM444.195 323.047C444.195 324.93 445.25 325.984 446.578 325.984C447.922 325.984 448.922 324.977 448.922 323.078C448.922 321.211 447.859 320.141 446.547 320.141C445.203 320.141 444.195 321.148 444.195 323.047ZM452.523 326.406V319.656C452.523 319.281 452.734 319.062 453.117 319.062C453.508 319.062 453.695 319.266 453.758 319.688L453.828 320.227H453.852C453.852 320.227 454.602 318.984 456.32 318.984C458.141 318.984 459.258 320.102 459.258 322.203V326.406C459.258 326.812 459.023 327.047 458.547 327.047C458.062 327.047 457.828 326.812 457.828 326.406V322.406C457.828 320.844 457.148 320.164 455.992 320.164C454.633 320.164 453.953 321.508 453.953 321.508V326.406C453.953 326.812 453.711 327.047 453.234 327.047C452.758 327.047 452.523 326.812 452.523 326.406Z" fill="white"/>
<path d="M156 203.875L158.625 206.5L163 200.375M170 203C170 208.799 165.299 213.5 159.5 213.5C153.701 213.5 149 208.799 149 203C149 197.201 153.701 192.5 159.5 192.5C165.299 192.5 170 197.201 170 203Z" stroke="white" stroke-width="1.5" stroke-linecap="round" stroke-linejoin="round"/>
<path d="M121.219 236.086L122.133 227.219C122.172 226.867 122.281 226.625 122.445 226.461C122.609 226.297 122.891 226.188 123.273 226.188C123.961 226.188 124.289 226.508 124.5 227.164L126.742 233.961C127.008 234.758 127.18 235.445 127.18 235.445H127.211C127.211 235.445 127.375 234.758 127.641 233.961L129.883 227.18C130.102 226.508 130.422 226.188 131.094 226.188C131.445 226.188 131.703 226.281 131.875 226.445C132.055 226.633 132.141 226.883 132.172 227.219L133.094 236.094C133.109 236.258 133.125 236.367 133.125 236.469C133.125 236.828 132.789 237.07 132.359 237.07C132.148 237.07 131.938 237.008 131.82 236.883C131.68 236.742 131.656 236.539 131.625 236.195L131.023 229.508C130.945 228.641 130.961 227.844 130.961 227.844H130.93L128.195 236.141C128.094 236.461 127.977 236.68 127.844 236.812C127.672 236.984 127.453 237.047 127.156 237.047C126.844 237.047 126.625 236.984 126.453 236.812C126.32 236.68 126.203 236.453 126.102 236.141L123.359 227.844H123.328C123.328 227.844 123.312 228.633 123.242 229.492L122.633 236.195C122.602 236.531 122.578 236.734 122.43 236.883C122.312 237.008 122.125 237.07 121.914 237.07C121.516 237.07 121.18 236.844 121.18 236.477C121.18 236.375 121.195 236.266 121.219 236.086ZM134.938 233.203C134.938 230.547 136.508 228.984 138.867 228.984C141.039 228.984 142.594 230.539 142.594 232.922C142.594 235.578 141.031 237.148 138.672 237.148C136.5 237.148 134.938 235.586 134.938 233.203ZM136.406 233.047C136.406 234.93 137.461 235.984 138.789 235.984C140.133 235.984 141.133 234.977 141.133 233.078C141.133 231.211 140.07 230.141 138.758 230.141C137.414 230.141 136.406 231.148 136.406 233.047ZM144.734 236.406V229.656C144.734 229.281 144.945 229.062 145.328 229.062C145.719 229.062 145.906 229.266 145.969 229.688L146.039 230.227H146.062C146.062 230.227 146.812 228.984 148.531 228.984C150.352 228.984 151.469 230.102 151.469 232.203V236.406C151.469 236.812 151.234 237.047 150.758 237.047C150.273 237.047 150.039 236.812 150.039 236.406V232.406C150.039 230.844 149.359 230.164 148.203 230.164C146.844 230.164 146.164 231.508 146.164 231.508V236.406C146.164 236.812 145.922 237.047 145.445 237.047C144.969 237.047 144.734 236.812 144.734 236.406ZM154.109 236.406V229.719C154.109 229.312 154.344 229.078 154.82 229.078C155.297 229.078 155.539 229.312 155.539 229.719V236.406C155.539 236.812 155.297 237.047 154.82 237.047C154.344 237.047 154.109 236.812 154.109 236.406ZM153.852 226.703C153.852 226.148 154.258 225.734 154.836 225.734C155.383 225.734 155.789 226.148 155.789 226.672C155.789 227.227 155.383 227.633 154.805 227.633C154.258 227.633 153.852 227.227 153.852 226.703ZM158.523 230.258H157.656C157.352 230.258 157.141 230.055 157.141 229.695C157.141 229.336 157.352 229.125 157.656 229.125H158.539L158.734 227.648C158.797 227.203 159.031 226.984 159.391 226.984C159.742 226.984 159.953 227.195 159.953 227.57V229.125H161.594C161.898 229.125 162.109 229.336 162.109 229.695C162.109 230.055 161.898 230.258 161.594 230.258H159.953V234.758C159.953 235.602 160.25 235.914 160.867 235.914C161.344 235.914 161.523 235.773 161.734 235.773C162 235.773 162.172 235.961 162.172 236.227C162.172 236.43 162.094 236.555 161.977 236.672C161.828 236.82 161.398 237.078 160.547 237.078C159.18 237.078 158.523 236.422 158.523 235.117V230.258ZM163.094 233.203C163.094 230.547 164.664 228.984 167.023 228.984C169.195 228.984 170.75 230.539 170.75 232.922C170.75 235.578 169.188 237.148 166.828 237.148C164.656 237.148 163.094 235.586 163.094 233.203ZM164.562 233.047C164.562 234.93 165.617 235.984 166.945 235.984C168.289 235.984 169.289 234.977 169.289 233.078C169.289 231.211 168.227 230.141 166.914 230.141C165.57 230.141 164.562 231.148 164.562 233.047ZM172.891 236.406V229.656C172.891 229.281 173.102 229.062 173.484 229.062C173.875 229.062 174.062 229.273 174.125 229.703L174.219 230.422H174.242C174.672 229.586 175.375 228.984 176.188 228.984C176.727 228.984 177.023 229.258 177.023 229.742C177.023 230.266 176.727 230.547 176.422 230.547C176.203 230.547 176.102 230.469 175.883 230.469C175.344 230.469 174.789 230.977 174.32 231.883V236.406C174.32 236.812 174.078 237.047 173.602 237.047C173.125 237.047 172.891 236.812 172.891 236.406ZM178.484 236.406V229.719C178.484 229.312 178.719 229.078 179.195 229.078C179.672 229.078 179.914 229.312 179.914 229.719V236.406C179.914 236.812 179.672 237.047 179.195 237.047C178.719 237.047 178.484 236.812 178.484 236.406ZM178.227 226.703C178.227 226.148 178.633 225.734 179.211 225.734C179.758 225.734 180.164 226.148 180.164 226.672C180.164 227.227 179.758 227.633 179.18 227.633C178.633 227.633 178.227 227.227 178.227 226.703ZM182.625 236.406V229.656C182.625 229.281 182.836 229.062 183.219 229.062C183.609 229.062 183.797 229.266 183.859 229.688L183.93 230.227H183.953C183.953 230.227 184.703 228.984 186.422 228.984C188.242 228.984 189.359 230.102 189.359 232.203V236.406C189.359 236.812 189.125 237.047 188.648 237.047C188.164 237.047 187.93 236.812 187.93 236.406V232.406C187.93 230.844 187.25 230.164 186.094 230.164C184.734 230.164 184.055 231.508 184.055 231.508V236.406C184.055 236.812 183.812 237.047 183.336 237.047C182.859 237.047 182.625 236.812 182.625 236.406ZM197.984 229.008L197.172 229.789C197.688 230.258 197.977 230.898 197.977 231.602C197.977 233.25 196.812 234.414 194.719 234.414C194.312 234.414 193.922 234.352 193.602 234.234C193.602 234.234 193.18 234.586 193.18 235.031C193.18 235.523 193.531 235.867 194.75 235.867H195.664C197.641 235.867 198.578 236.664 198.578 238C198.578 239.547 197.211 240.844 194.578 240.844C192.211 240.844 191.156 239.758 191.156 238.492C191.156 237.055 192.391 236.398 192.391 236.398C192.023 236.078 191.867 235.664 191.867 235.219C191.867 234.359 192.648 233.766 192.648 233.766C192.016 233.297 191.656 232.586 191.656 231.805C191.656 230.164 192.828 228.992 194.914 228.992C195.406 228.992 195.852 229.086 196.242 229.234L197.172 228.148C197.406 227.867 197.539 227.781 197.758 227.781C198.062 227.781 198.383 228.039 198.383 228.391C198.383 228.602 198.258 228.75 197.984 229.008ZM195.398 237.008H194.523C194.07 237.008 193.711 236.961 193.359 236.859C193.359 236.859 192.586 237.391 192.586 238.305C192.586 239.109 193.242 239.734 194.711 239.734C196.344 239.734 197.156 239.016 197.156 238.188C197.156 237.461 196.703 237.008 195.398 237.008ZM193.07 231.688C193.07 232.648 193.727 233.305 194.828 233.305C195.938 233.305 196.57 232.68 196.57 231.719C196.57 230.758 195.914 230.102 194.797 230.102C193.703 230.102 193.07 230.727 193.07 231.688Z" fill="white"/>
<path d="M253 322.875L255.625 325.5L260 319.375M267 322C267 327.799 262.299 332.5 256.5 332.5C250.701 332.5 246 327.799 246 322C246 316.201 250.701 311.5 256.5 311.5C262.299 311.5 267 316.201 267 322Z" stroke="white" stroke-width="1.5" stroke-linecap="round" stroke-linejoin="round"/>
<path d="M226.367 354.812H227.734C229.688 354.812 230.492 354.008 230.492 352.883C230.492 351.75 229.758 351.023 227.734 351.023H226.367V354.812ZM226.367 349.852H227.664C229.383 349.852 230.102 349.117 230.102 348.094C230.102 347.078 229.445 346.422 227.719 346.422H226.367V349.852ZM224.914 355.297V345.938C224.914 345.492 225.164 345.234 225.617 345.234H227.812C230.5 345.234 231.594 346.328 231.594 347.922C231.594 349.109 230.875 349.961 229.844 350.312V350.328C231.195 350.562 231.992 351.438 231.992 352.758C231.992 354.602 230.602 356 227.625 356H225.617C225.164 356 224.914 355.742 224.914 355.297ZM234.125 352.93V348.719C234.125 348.312 234.352 348.078 234.844 348.078C235.32 348.078 235.555 348.312 235.555 348.719V352.719C235.555 354.289 236.227 354.961 237.336 354.961C238.695 354.961 239.375 353.617 239.375 353.617V348.719C239.375 348.312 239.609 348.078 240.094 348.078C240.578 348.078 240.805 348.312 240.805 348.719V355.469C240.805 355.852 240.594 356.07 240.211 356.07C239.82 356.07 239.633 355.859 239.57 355.438L239.5 354.898H239.477C239.477 354.898 238.727 356.141 237.008 356.141C235.242 356.141 234.125 355.031 234.125 352.93ZM243.078 350.273C243.078 349.016 244.109 347.984 246.07 347.984C247.148 347.984 247.75 348.273 247.961 348.484C248.109 348.633 248.156 348.758 248.156 348.969C248.156 349.25 247.945 349.461 247.648 349.461C247.305 349.461 246.883 349.109 245.945 349.109C244.93 349.109 244.484 349.547 244.484 350.109C244.484 351.781 248.547 350.992 248.547 353.711C248.547 355.055 247.453 356.141 245.375 356.141C244.086 356.141 243.445 355.82 243.227 355.602C243.102 355.477 243.031 355.336 243.031 355.117C243.031 354.805 243.242 354.594 243.539 354.594C243.883 354.594 244.289 355.016 245.492 355.016C246.633 355.016 247.133 354.523 247.133 353.875C247.133 352.141 243.078 352.93 243.078 350.273ZM250.656 355.406V348.719C250.656 348.312 250.891 348.078 251.367 348.078C251.844 348.078 252.086 348.312 252.086 348.719V355.406C252.086 355.812 251.844 356.047 251.367 356.047C250.891 356.047 250.656 355.812 250.656 355.406ZM250.398 345.703C250.398 345.148 250.805 344.734 251.383 344.734C251.93 344.734 252.336 345.148 252.336 345.672C252.336 346.227 251.93 346.633 251.352 346.633C250.805 346.633 250.398 346.227 250.398 345.703ZM254.797 355.406V348.656C254.797 348.281 255.008 348.062 255.391 348.062C255.781 348.062 255.969 348.266 256.031 348.688L256.102 349.227H256.125C256.125 349.227 256.875 347.984 258.594 347.984C260.414 347.984 261.531 349.102 261.531 351.203V355.406C261.531 355.812 261.297 356.047 260.82 356.047C260.336 356.047 260.102 355.812 260.102 355.406V351.406C260.102 349.844 259.422 349.164 258.266 349.164C256.906 349.164 256.227 350.508 256.227 350.508V355.406C256.227 355.812 255.984 356.047 255.508 356.047C255.031 356.047 254.797 355.812 254.797 355.406ZM269.531 352.219H265.016V352.273C265.055 353.969 266.078 354.969 267.586 354.969C268.781 354.969 269.203 354.57 269.562 354.57C269.852 354.57 270.023 354.781 270.023 355.031C270.023 355.211 269.961 355.344 269.82 355.484C269.555 355.75 268.68 356.148 267.352 356.148C265.062 356.148 263.578 354.664 263.578 352.32C263.578 349.547 265.148 347.984 267.273 347.984C269.086 347.984 270.352 349.242 270.352 351.336C270.352 351.922 270.07 352.219 269.531 352.219ZM265.078 351.195H269.008C268.859 349.766 268.219 349.086 267.102 349.086C266.156 349.086 265.328 349.758 265.078 351.195ZM272.078 350.273C272.078 349.016 273.109 347.984 275.07 347.984C276.148 347.984 276.75 348.273 276.961 348.484C277.109 348.633 277.156 348.758 277.156 348.969C277.156 349.25 276.945 349.461 276.648 349.461C276.305 349.461 275.883 349.109 274.945 349.109C273.93 349.109 273.484 349.547 273.484 350.109C273.484 351.781 277.547 350.992 277.547 353.711C277.547 355.055 276.453 356.141 274.375 356.141C273.086 356.141 272.445 355.82 272.227 355.602C272.102 355.477 272.031 355.336 272.031 355.117C272.031 354.805 272.242 354.594 272.539 354.594C272.883 354.594 273.289 355.016 274.492 355.016C275.633 355.016 276.133 354.523 276.133 353.875C276.133 352.141 272.078 352.93 272.078 350.273ZM279.109 350.273C279.109 349.016 280.141 347.984 282.102 347.984C283.18 347.984 283.781 348.273 283.992 348.484C284.141 348.633 284.188 348.758 284.188 348.969C284.188 349.25 283.977 349.461 283.68 349.461C283.336 349.461 282.914 349.109 281.977 349.109C280.961 349.109 280.516 349.547 280.516 350.109C280.516 351.781 284.578 350.992 284.578 353.711C284.578 355.055 283.484 356.141 281.406 356.141C280.117 356.141 279.477 355.82 279.258 355.602C279.133 355.477 279.062 355.336 279.062 355.117C279.062 354.805 279.273 354.594 279.57 354.594C279.914 354.594 280.32 355.016 281.523 355.016C282.664 355.016 283.164 354.523 283.164 353.875C283.164 352.141 279.109 352.93 279.109 350.273ZM216.906 375.398V365.836C216.906 365.422 217.148 365.188 217.641 365.188C218.133 365.188 218.375 365.422 218.375 365.836V375.398C218.375 375.812 218.133 376.047 217.641 376.047C217.148 376.047 216.906 375.812 216.906 375.398ZM221.242 375.406V368.656C221.242 368.281 221.453 368.062 221.836 368.062C222.227 368.062 222.414 368.266 222.477 368.688L222.547 369.227H222.57C222.57 369.227 223.32 367.984 225.039 367.984C226.859 367.984 227.977 369.102 227.977 371.203V375.406C227.977 375.812 227.742 376.047 227.266 376.047C226.781 376.047 226.547 375.812 226.547 375.406V371.406C226.547 369.844 225.867 369.164 224.711 369.164C223.352 369.164 222.672 370.508 222.672 370.508V375.406C222.672 375.812 222.43 376.047 221.953 376.047C221.477 376.047 221.242 375.812 221.242 375.406ZM230.891 369.258H230.023C229.719 369.258 229.508 369.055 229.508 368.695C229.508 368.336 229.719 368.125 230.023 368.125H230.906L231.102 366.648C231.164 366.203 231.398 365.984 231.758 365.984C232.109 365.984 232.32 366.195 232.32 366.57V368.125H233.961C234.266 368.125 234.477 368.336 234.477 368.695C234.477 369.055 234.266 369.258 233.961 369.258H232.32V373.758C232.32 374.602 232.617 374.914 233.234 374.914C233.711 374.914 233.891 374.773 234.102 374.773C234.367 374.773 234.539 374.961 234.539 375.227C234.539 375.43 234.461 375.555 234.344 375.672C234.195 375.82 233.766 376.078 232.914 376.078C231.547 376.078 230.891 375.422 230.891 374.117V369.258ZM241.414 372.219H236.898V372.273C236.938 373.969 237.961 374.969 239.469 374.969C240.664 374.969 241.086 374.57 241.445 374.57C241.734 374.57 241.906 374.781 241.906 375.031C241.906 375.211 241.844 375.344 241.703 375.484C241.438 375.75 240.562 376.148 239.234 376.148C236.945 376.148 235.461 374.664 235.461 372.32C235.461 369.547 237.031 367.984 239.156 367.984C240.969 367.984 242.234 369.242 242.234 371.336C242.234 371.922 241.953 372.219 241.414 372.219ZM236.961 371.195H240.891C240.742 369.766 240.102 369.086 238.984 369.086C238.039 369.086 237.211 369.758 236.961 371.195ZM244.383 374.164V365.055C244.383 364.656 244.617 364.414 245.094 364.414C245.57 364.414 245.812 364.656 245.812 365.055V373.773C245.812 374.656 246.062 374.914 246.469 374.914C246.656 374.914 246.781 374.883 246.914 374.883C247.156 374.883 247.328 375.062 247.328 375.328C247.328 375.539 247.25 375.672 247.156 375.766C247 375.922 246.711 376.078 246.133 376.078C245.008 376.078 244.383 375.453 244.383 374.164ZM248.836 374.164V365.055C248.836 364.656 249.07 364.414 249.547 364.414C250.023 364.414 250.266 364.656 250.266 365.055V373.773C250.266 374.656 250.516 374.914 250.922 374.914C251.109 374.914 251.234 374.883 251.367 374.883C251.609 374.883 251.781 375.062 251.781 375.328C251.781 375.539 251.703 375.672 251.609 375.766C251.453 375.922 251.164 376.078 250.586 376.078C249.461 376.078 248.836 375.453 248.836 374.164ZM253.32 375.406V368.719C253.32 368.312 253.555 368.078 254.031 368.078C254.508 368.078 254.75 368.312 254.75 368.719V375.406C254.75 375.812 254.508 376.047 254.031 376.047C253.555 376.047 253.32 375.812 253.32 375.406ZM253.062 365.703C253.062 365.148 253.469 364.734 254.047 364.734C254.594 364.734 255 365.148 255 365.672C255 366.227 254.594 366.633 254.016 366.633C253.469 366.633 253.062 366.227 253.062 365.703ZM263.445 368.008L262.633 368.789C263.148 369.258 263.438 369.898 263.438 370.602C263.438 372.25 262.273 373.414 260.18 373.414C259.773 373.414 259.383 373.352 259.062 373.234C259.062 373.234 258.641 373.586 258.641 374.031C258.641 374.523 258.992 374.867 260.211 374.867H261.125C263.102 374.867 264.039 375.664 264.039 377C264.039 378.547 262.672 379.844 260.039 379.844C257.672 379.844 256.617 378.758 256.617 377.492C256.617 376.055 257.852 375.398 257.852 375.398C257.484 375.078 257.328 374.664 257.328 374.219C257.328 373.359 258.109 372.766 258.109 372.766C257.477 372.297 257.117 371.586 257.117 370.805C257.117 369.164 258.289 367.992 260.375 367.992C260.867 367.992 261.312 368.086 261.703 368.234L262.633 367.148C262.867 366.867 263 366.781 263.219 366.781C263.523 366.781 263.844 367.039 263.844 367.391C263.844 367.602 263.719 367.75 263.445 368.008ZM260.859 376.008H259.984C259.531 376.008 259.172 375.961 258.82 375.859C258.82 375.859 258.047 376.391 258.047 377.305C258.047 378.109 258.703 378.734 260.172 378.734C261.805 378.734 262.617 378.016 262.617 377.188C262.617 376.461 262.164 376.008 260.859 376.008ZM258.531 370.688C258.531 371.648 259.188 372.305 260.289 372.305C261.398 372.305 262.031 371.68 262.031 370.719C262.031 369.758 261.375 369.102 260.258 369.102C259.164 369.102 258.531 369.727 258.531 370.688ZM271.039 372.219H266.523V372.273C266.562 373.969 267.586 374.969 269.094 374.969C270.289 374.969 270.711 374.57 271.07 374.57C271.359 374.57 271.531 374.781 271.531 375.031C271.531 375.211 271.469 375.344 271.328 375.484C271.062 375.75 270.188 376.148 268.859 376.148C266.57 376.148 265.086 374.664 265.086 372.32C265.086 369.547 266.656 367.984 268.781 367.984C270.594 367.984 271.859 369.242 271.859 371.336C271.859 371.922 271.578 372.219 271.039 372.219ZM266.586 371.195H270.516C270.367 369.766 269.727 369.086 268.609 369.086C267.664 369.086 266.836 369.758 266.586 371.195ZM274.039 375.406V368.656C274.039 368.281 274.25 368.062 274.633 368.062C275.023 368.062 275.211 368.266 275.273 368.688L275.344 369.227H275.367C275.367 369.227 276.117 367.984 277.836 367.984C279.656 367.984 280.773 369.102 280.773 371.203V375.406C280.773 375.812 280.539 376.047 280.062 376.047C279.578 376.047 279.344 375.812 279.344 375.406V371.406C279.344 369.844 278.664 369.164 277.508 369.164C276.148 369.164 275.469 370.508 275.469 370.508V375.406C275.469 375.812 275.227 376.047 274.75 376.047C274.273 376.047 274.039 375.812 274.039 375.406ZM282.82 372.359C282.82 369.633 284.469 367.984 286.812 367.984C287.758 367.984 288.32 368.273 288.516 368.477C288.656 368.609 288.711 368.75 288.711 368.961C288.711 369.242 288.516 369.477 288.203 369.477C287.852 369.477 287.57 369.148 286.688 369.148C285.344 369.148 284.289 370.203 284.289 372.172C284.289 373.938 285.312 374.969 286.789 374.969C287.695 374.969 287.977 374.664 288.297 374.664C288.57 374.664 288.75 374.867 288.75 375.133C288.75 375.312 288.68 375.453 288.539 375.594C288.266 375.875 287.539 376.148 286.508 376.148C284.305 376.148 282.82 374.664 282.82 372.359ZM295.961 372.219H291.445V372.273C291.484 373.969 292.508 374.969 294.016 374.969C295.211 374.969 295.633 374.57 295.992 374.57C296.281 374.57 296.453 374.781 296.453 375.031C296.453 375.211 296.391 375.344 296.25 375.484C295.984 375.75 295.109 376.148 293.781 376.148C291.492 376.148 290.008 374.664 290.008 372.32C290.008 369.547 291.578 367.984 293.703 367.984C295.516 367.984 296.781 369.242 296.781 371.336C296.781 371.922 296.5 372.219 295.961 372.219ZM291.508 371.195H295.438C295.289 369.766 294.648 369.086 293.531 369.086C292.586 369.086 291.758 369.758 291.508 371.195Z" fill="white"/>
<path d="M220 35.875L222.625 38.5L227 32.375M234 35C234 40.799 229.299 45.5 223.5 45.5C217.701 45.5 213 40.799 213 35C213 29.201 217.701 24.5 223.5 24.5C229.299 24.5 234 29.201 234 35Z" stroke="white" stroke-width="1.5" stroke-linecap="round" stroke-linejoin="round"/>
<path d="M172.438 61.0859C172.438 59.3672 173.711 58.0859 176.086 58.0859C177.312 58.0859 178.125 58.4375 178.406 58.7188C178.578 58.8906 178.633 59.0312 178.633 59.2344C178.633 59.5625 178.398 59.7734 178.07 59.7734C177.625 59.7734 177.281 59.2969 175.961 59.2969C174.586 59.2969 173.914 59.9688 173.914 60.9141C173.914 63.4219 179.039 62.1719 179.039 65.9453C179.039 67.8125 177.719 69.1406 175.188 69.1406C173.758 69.1406 172.891 68.75 172.609 68.4688C172.445 68.3047 172.383 68.1641 172.383 67.9453C172.383 67.6172 172.609 67.3984 172.938 67.3984C173.383 67.3984 173.688 67.9297 175.312 67.9297C176.805 67.9297 177.562 67.1719 177.562 66.1172C177.562 63.4141 172.438 64.6641 172.438 61.0859ZM180.734 65.3594C180.734 62.6328 182.383 60.9844 184.727 60.9844C185.672 60.9844 186.234 61.2734 186.43 61.4766C186.57 61.6094 186.625 61.75 186.625 61.9609C186.625 62.2422 186.43 62.4766 186.117 62.4766C185.766 62.4766 185.484 62.1484 184.602 62.1484C183.258 62.1484 182.203 63.2031 182.203 65.1719C182.203 66.9375 183.227 67.9688 184.703 67.9688C185.609 67.9688 185.891 67.6641 186.211 67.6641C186.484 67.6641 186.664 67.8672 186.664 68.1328C186.664 68.3125 186.594 68.4531 186.453 68.5938C186.18 68.875 185.453 69.1484 184.422 69.1484C182.219 69.1484 180.734 67.6641 180.734 65.3594ZM188.547 68.4062V58.0547C188.547 57.6562 188.781 57.4141 189.258 57.4141C189.734 57.4141 189.977 57.6562 189.977 58.0547V61.0703C189.977 61.4297 189.961 61.75 189.922 62.1328H189.945C189.945 62.1328 190.711 60.9844 192.344 60.9844C194.164 60.9844 195.281 62.1016 195.281 64.2031V68.4062C195.281 68.8125 195.047 69.0469 194.57 69.0469C194.086 69.0469 193.852 68.8125 193.852 68.4062V64.4062C193.852 62.8438 193.172 62.1641 192.016 62.1641C190.656 62.1641 189.977 63.5078 189.977 63.5078V68.4062C189.977 68.8125 189.734 69.0469 189.258 69.0469C188.781 69.0469 188.547 68.8125 188.547 68.4062ZM197.922 68.4062V61.6562C197.922 61.2812 198.133 61.0625 198.516 61.0625C198.906 61.0625 199.094 61.2656 199.156 61.6875L199.227 62.2266H199.25C199.25 62.2266 200 60.9844 201.719 60.9844C203.539 60.9844 204.656 62.1016 204.656 64.2031V68.4062C204.656 68.8125 204.422 69.0469 203.945 69.0469C203.461 69.0469 203.227 68.8125 203.227 68.4062V64.4062C203.227 62.8438 202.547 62.1641 201.391 62.1641C200.031 62.1641 199.352 63.5078 199.352 63.5078V68.4062C199.352 68.8125 199.109 69.0469 198.633 69.0469C198.156 69.0469 197.922 68.8125 197.922 68.4062ZM207.297 68.4062V61.7188C207.297 61.3125 207.531 61.0781 208.008 61.0781C208.484 61.0781 208.727 61.3125 208.727 61.7188V68.4062C208.727 68.8125 208.484 69.0469 208.008 69.0469C207.531 69.0469 207.297 68.8125 207.297 68.4062ZM207.039 58.7031C207.039 58.1484 207.445 57.7344 208.023 57.7344C208.57 57.7344 208.977 58.1484 208.977 58.6719C208.977 59.2266 208.57 59.6328 207.992 59.6328C207.445 59.6328 207.039 59.2266 207.039 58.7031ZM211.711 62.2578H210.844C210.539 62.2578 210.328 62.0469 210.328 61.6953C210.328 61.3359 210.539 61.125 210.844 61.125H211.727L211.922 59.6484C211.984 59.2031 212.219 58.9844 212.578 58.9844C212.93 58.9844 213.141 59.1953 213.141 59.5703V61.125H216.734L216.93 59.6484C216.984 59.2031 217.219 58.9844 217.578 58.9844C217.93 58.9844 218.141 59.1953 218.141 59.5703V61.125H219.781C220.094 61.125 220.297 61.3359 220.297 61.6953C220.297 62.0469 220.094 62.2578 219.781 62.2578H218.141V66.7578C218.141 67.6016 218.445 67.9141 219.062 67.9141C219.539 67.9141 219.719 67.7734 219.922 67.7734C220.195 67.7734 220.359 67.9609 220.359 68.2266C220.359 68.4297 220.281 68.5547 220.164 68.6719C220.023 68.8203 219.594 69.0781 218.742 69.0781C217.367 69.0781 216.711 68.4219 216.711 67.1172V62.25H213.141V66.7578C213.141 67.6016 213.438 67.9141 213.984 67.9141C214.414 67.9141 214.562 67.7891 214.766 67.7891C215.039 67.7891 215.203 67.9766 215.203 68.2422C215.203 68.4531 215.125 68.5781 215.008 68.6953C214.867 68.8359 214.469 69.0781 213.664 69.0781C212.367 69.0781 211.711 68.4219 211.711 67.1172V62.2578ZM221.484 63.2734C221.484 62.0156 222.516 60.9844 224.477 60.9844C225.555 60.9844 226.156 61.2734 226.367 61.4844C226.516 61.6328 226.562 61.7578 226.562 61.9688C226.562 62.25 226.352 62.4609 226.055 62.4609C225.711 62.4609 225.289 62.1094 224.352 62.1094C223.336 62.1094 222.891 62.5469 222.891 63.1094C222.891 64.7812 226.953 63.9922 226.953 66.7109C226.953 68.0547 225.859 69.1406 223.781 69.1406C222.492 69.1406 221.852 68.8203 221.633 68.6016C221.508 68.4766 221.438 68.3359 221.438 68.1172C221.438 67.8047 221.648 67.5938 221.945 67.5938C222.289 67.5938 222.695 68.0156 223.898 68.0156C225.039 68.0156 225.539 67.5234 225.539 66.875C225.539 65.1406 221.484 65.9297 221.484 63.2734ZM229.289 62.2578H228.422C228.117 62.2578 227.906 62.0547 227.906 61.6953C227.906 61.3359 228.117 61.125 228.422 61.125H229.305L229.5 59.6484C229.562 59.2031 229.797 58.9844 230.156 58.9844C230.508 58.9844 230.719 59.1953 230.719 59.5703V61.125H232.359C232.664 61.125 232.875 61.3359 232.875 61.6953C232.875 62.0547 232.664 62.2578 232.359 62.2578H230.719V66.7578C230.719 67.6016 231.016 67.9141 231.633 67.9141C232.109 67.9141 232.289 67.7734 232.5 67.7734C232.766 67.7734 232.938 67.9609 232.938 68.2266C232.938 68.4297 232.859 68.5547 232.742 68.6719C232.594 68.8203 232.164 69.0781 231.312 69.0781C229.945 69.0781 229.289 68.4219 229.289 67.1172V62.2578ZM239.812 65.2188H235.297V65.2734C235.336 66.9688 236.359 67.9688 237.867 67.9688C239.062 67.9688 239.484 67.5703 239.844 67.5703C240.133 67.5703 240.305 67.7812 240.305 68.0312C240.305 68.2109 240.242 68.3438 240.102 68.4844C239.836 68.75 238.961 69.1484 237.633 69.1484C235.344 69.1484 233.859 67.6641 233.859 65.3203C233.859 62.5469 235.43 60.9844 237.555 60.9844C239.367 60.9844 240.633 62.2422 240.633 64.3359C240.633 64.9219 240.352 65.2188 239.812 65.2188ZM235.359 64.1953H239.289C239.141 62.7656 238.5 62.0859 237.383 62.0859C236.438 62.0859 235.609 62.7578 235.359 64.1953ZM242.781 67.1641V58.0547C242.781 57.6562 243.016 57.4141 243.492 57.4141C243.969 57.4141 244.211 57.6562 244.211 58.0547V66.7734C244.211 67.6562 244.461 67.9141 244.867 67.9141C245.055 67.9141 245.18 67.8828 245.312 67.8828C245.555 67.8828 245.727 68.0625 245.727 68.3281C245.727 68.5391 245.648 68.6719 245.555 68.7656C245.398 68.9219 245.109 69.0781 244.531 69.0781C243.406 69.0781 242.781 68.4531 242.781 67.1641ZM247.234 67.1641V58.0547C247.234 57.6562 247.469 57.4141 247.945 57.4141C248.422 57.4141 248.664 57.6562 248.664 58.0547V66.7734C248.664 67.6562 248.914 67.9141 249.32 67.9141C249.508 67.9141 249.633 67.8828 249.766 67.8828C250.008 67.8828 250.18 68.0625 250.18 68.3281C250.18 68.5391 250.102 68.6719 250.008 68.7656C249.852 68.9219 249.562 69.0781 248.984 69.0781C247.859 69.0781 247.234 68.4531 247.234 67.1641ZM257.062 65.2188H252.547V65.2734C252.586 66.9688 253.609 67.9688 255.117 67.9688C256.312 67.9688 256.734 67.5703 257.094 67.5703C257.383 67.5703 257.555 67.7812 257.555 68.0312C257.555 68.2109 257.492 68.3438 257.352 68.4844C257.086 68.75 256.211 69.1484 254.883 69.1484C252.594 69.1484 251.109 67.6641 251.109 65.3203C251.109 62.5469 252.68 60.9844 254.805 60.9844C256.617 60.9844 257.883 62.2422 257.883 64.3359C257.883 64.9219 257.602 65.2188 257.062 65.2188ZM252.609 64.1953H256.539C256.391 62.7656 255.75 62.0859 254.633 62.0859C253.688 62.0859 252.859 62.7578 252.609 64.1953ZM260.062 68.4062V61.6562C260.062 61.2812 260.273 61.0625 260.656 61.0625C261.047 61.0625 261.234 61.2656 261.297 61.6875L261.367 62.2266H261.391C261.391 62.2266 262.141 60.9844 263.859 60.9844C265.68 60.9844 266.797 62.1016 266.797 64.2031V68.4062C266.797 68.8125 266.562 69.0469 266.086 69.0469C265.602 69.0469 265.367 68.8125 265.367 68.4062V64.4062C265.367 62.8438 264.688 62.1641 263.531 62.1641C262.172 62.1641 261.492 63.5078 261.492 63.5078V68.4062C261.492 68.8125 261.25 69.0469 260.773 69.0469C260.297 69.0469 260.062 68.8125 260.062 68.4062ZM269.844 64.2188H273.82C274.148 64.2188 274.344 64.4141 274.344 64.7891C274.344 65.1719 274.148 65.3672 273.82 65.3672H269.844C269.523 65.3672 269.32 65.1719 269.32 64.7891C269.32 64.4141 269.523 64.2188 269.844 64.2188ZM200.984 87.1641V78.0547C200.984 77.6562 201.219 77.4141 201.695 77.4141C202.172 77.4141 202.414 77.6562 202.414 78.0547V86.7734C202.414 87.6562 202.664 87.9141 203.07 87.9141C203.258 87.9141 203.383 87.8828 203.516 87.8828C203.758 87.8828 203.93 88.0625 203.93 88.3281C203.93 88.5391 203.852 88.6719 203.758 88.7656C203.602 88.9219 203.312 89.0781 202.734 89.0781C201.609 89.0781 200.984 88.4531 200.984 87.1641ZM204.859 85.2031C204.859 82.5469 206.43 80.9844 208.789 80.9844C210.961 80.9844 212.516 82.5391 212.516 84.9219C212.516 87.5781 210.953 89.1484 208.594 89.1484C206.422 89.1484 204.859 87.5859 204.859 85.2031ZM206.328 85.0469C206.328 86.9297 207.383 87.9844 208.711 87.9844C210.055 87.9844 211.055 86.9766 211.055 85.0781C211.055 83.2109 209.992 82.1406 208.68 82.1406C207.336 82.1406 206.328 83.1484 206.328 85.0469ZM206.18 78.7031C206.18 78.1797 206.586 77.7734 207.117 77.7734C207.656 77.7734 208.031 78.1484 208.031 78.6719C208.031 79.2031 207.641 79.6172 207.102 79.6172C206.562 79.6172 206.18 79.2422 206.18 78.7031ZM209.312 78.7031C209.312 78.1797 209.719 77.7734 210.258 77.7734C210.789 77.7734 211.164 78.1484 211.164 78.6719C211.164 79.2031 210.773 79.6172 210.242 79.6172C209.695 79.6172 209.312 79.2422 209.312 78.7031ZM214.203 83.2734C214.203 82.0156 215.234 80.9844 217.195 80.9844C218.273 80.9844 218.875 81.2734 219.086 81.4844C219.234 81.6328 219.281 81.7578 219.281 81.9688C219.281 82.25 219.07 82.4609 218.773 82.4609C218.43 82.4609 218.008 82.1094 217.07 82.1094C216.055 82.1094 215.609 82.5469 215.609 83.1094C215.609 84.7812 219.672 83.9922 219.672 86.7109C219.672 88.0547 218.578 89.1406 216.5 89.1406C215.211 89.1406 214.57 88.8203 214.352 88.6016C214.227 88.4766 214.156 88.3359 214.156 88.1172C214.156 87.8047 214.367 87.5938 214.664 87.5938C215.008 87.5938 215.414 88.0156 216.617 88.0156C217.758 88.0156 218.258 87.5234 218.258 86.875C218.258 85.1406 214.203 85.9297 214.203 83.2734ZM221.703 85.9297V81.7188C221.703 81.3125 221.93 81.0781 222.422 81.0781C222.898 81.0781 223.133 81.3125 223.133 81.7188V85.7188C223.133 87.2891 223.805 87.9609 224.914 87.9609C226.273 87.9609 226.953 86.6172 226.953 86.6172V81.7188C226.953 81.3125 227.188 81.0781 227.672 81.0781C228.156 81.0781 228.383 81.3125 228.383 81.7188V88.4688C228.383 88.8516 228.172 89.0703 227.789 89.0703C227.398 89.0703 227.211 88.8594 227.148 88.4375L227.078 87.8984H227.055C227.055 87.8984 226.305 89.1406 224.586 89.1406C222.82 89.1406 221.703 88.0312 221.703 85.9297ZM231.109 88.4062V81.6562C231.109 81.2812 231.32 81.0625 231.703 81.0625C232.094 81.0625 232.281 81.2656 232.344 81.6875L232.414 82.2266H232.438C232.438 82.2266 233.188 80.9844 234.906 80.9844C236.727 80.9844 237.844 82.1016 237.844 84.2031V88.4062C237.844 88.8125 237.609 89.0469 237.133 89.0469C236.648 89.0469 236.414 88.8125 236.414 88.4062V84.4062C236.414 82.8438 235.734 82.1641 234.578 82.1641C233.219 82.1641 232.539 83.5078 232.539 83.5078V88.4062C232.539 88.8125 232.297 89.0469 231.82 89.0469C231.344 89.0469 231.109 88.8125 231.109 88.4062ZM246.469 81.0078L245.656 81.7891C246.172 82.2578 246.461 82.8984 246.461 83.6016C246.461 85.25 245.297 86.4141 243.203 86.4141C242.797 86.4141 242.406 86.3516 242.086 86.2344C242.086 86.2344 241.664 86.5859 241.664 87.0312C241.664 87.5234 242.016 87.8672 243.234 87.8672H244.148C246.125 87.8672 247.062 88.6641 247.062 90C247.062 91.5469 245.695 92.8438 243.062 92.8438C240.695 92.8438 239.641 91.7578 239.641 90.4922C239.641 89.0547 240.875 88.3984 240.875 88.3984C240.508 88.0781 240.352 87.6641 240.352 87.2188C240.352 86.3594 241.133 85.7656 241.133 85.7656C240.5 85.2969 240.141 84.5859 240.141 83.8047C240.141 82.1641 241.312 80.9922 243.398 80.9922C243.891 80.9922 244.336 81.0859 244.727 81.2344L245.656 80.1484C245.891 79.8672 246.023 79.7812 246.242 79.7812C246.547 79.7812 246.867 80.0391 246.867 80.3906C246.867 80.6016 246.742 80.75 246.469 81.0078ZM243.883 89.0078H243.008C242.555 89.0078 242.195 88.9609 241.844 88.8594C241.844 88.8594 241.07 89.3906 241.07 90.3047C241.07 91.1094 241.727 91.7344 243.195 91.7344C244.828 91.7344 245.641 91.0156 245.641 90.1875C245.641 89.4609 245.188 89.0078 243.883 89.0078ZM241.555 83.6875C241.555 84.6484 242.211 85.3047 243.312 85.3047C244.422 85.3047 245.055 84.6797 245.055 83.7188C245.055 82.7578 244.398 82.1016 243.281 82.1016C242.188 82.1016 241.555 82.7266 241.555 83.6875Z" fill="white"/>
<path d="M381 113.875L383.625 116.5L388 110.375M395 113C395 118.799 390.299 123.5 384.5 123.5C378.701 123.5 374 118.799 374 113C374 107.201 378.701 102.5 384.5 102.5C390.299 102.5 395 107.201 395 113Z" stroke="white" stroke-width="1.5" stroke-linecap="round" stroke-linejoin="round"/>
<path d="M354.086 139.086C354.086 137.367 355.359 136.086 357.734 136.086C358.961 136.086 359.773 136.438 360.055 136.719C360.227 136.891 360.281 137.031 360.281 137.234C360.281 137.562 360.047 137.773 359.719 137.773C359.273 137.773 358.93 137.297 357.609 137.297C356.234 137.297 355.562 137.969 355.562 138.914C355.562 141.422 360.688 140.172 360.688 143.945C360.688 145.812 359.367 147.141 356.836 147.141C355.406 147.141 354.539 146.75 354.258 146.469C354.094 146.305 354.031 146.164 354.031 145.945C354.031 145.617 354.258 145.398 354.586 145.398C355.031 145.398 355.336 145.93 356.961 145.93C358.453 145.93 359.211 145.172 359.211 144.117C359.211 141.414 354.086 142.664 354.086 139.086ZM362.383 143.203C362.383 140.547 363.953 138.984 366.312 138.984C368.484 138.984 370.039 140.539 370.039 142.922C370.039 145.578 368.477 147.148 366.117 147.148C363.945 147.148 362.383 145.586 362.383 143.203ZM363.852 143.047C363.852 144.93 364.906 145.984 366.234 145.984C367.578 145.984 368.578 144.977 368.578 143.078C368.578 141.211 367.516 140.141 366.203 140.141C364.859 140.141 363.852 141.148 363.852 143.047ZM372.461 140.25H371.602C371.289 140.25 371.086 140.047 371.086 139.688C371.086 139.336 371.289 139.125 371.602 139.125H372.461V138.297C372.461 136.406 373.508 135.344 375.164 135.344C375.75 135.344 376.156 135.5 376.328 135.672C376.453 135.797 376.508 135.938 376.508 136.133C376.508 136.461 376.297 136.656 376.031 136.656C375.773 136.656 375.609 136.492 375.109 136.492C374.336 136.492 373.883 136.992 373.883 138.172V139.125H377.344L377.539 137.648C377.594 137.203 377.836 136.984 378.188 136.984C378.547 136.984 378.75 137.195 378.75 137.57V139.125H380.398C380.703 139.125 380.906 139.336 380.906 139.688C380.906 140.047 380.703 140.25 380.398 140.25H378.75V144.758C378.75 145.602 379.055 145.914 379.672 145.914C380.148 145.914 380.328 145.773 380.539 145.773C380.805 145.773 380.969 145.961 380.969 146.227C380.969 146.43 380.898 146.555 380.773 146.672C380.633 146.82 380.203 147.078 379.352 147.078C377.984 147.078 377.32 146.422 377.32 145.117V140.25H373.891V146.406C373.891 146.812 373.656 147.047 373.18 147.047C372.703 147.047 372.461 146.812 372.461 146.406V140.25ZM383.734 146.109L381.891 140.18C381.789 139.859 381.781 139.773 381.781 139.688C381.781 139.273 382.227 139.055 382.57 139.055C382.766 139.055 382.922 139.117 383.023 139.219C383.125 139.32 383.172 139.477 383.266 139.805L384.609 144.422C384.805 145.094 384.891 145.586 384.891 145.586H384.922C384.922 145.586 385.016 145.086 385.211 144.422L386.523 140.008C386.734 139.289 386.984 139.055 387.523 139.055C388.07 139.055 388.32 139.289 388.531 140L389.844 144.422C390.039 145.078 390.133 145.586 390.133 145.586H390.164C390.164 145.586 390.266 145.078 390.445 144.422L391.734 139.797C391.82 139.484 391.875 139.328 391.977 139.211C392.07 139.109 392.227 139.055 392.414 139.055C392.758 139.055 393.141 139.25 393.141 139.641C393.141 139.727 393.141 139.812 393.039 140.133L391.195 146.078C391.086 146.43 390.969 146.664 390.836 146.805C390.664 146.992 390.422 147.047 390.125 147.047C389.828 147.047 389.594 146.992 389.43 146.82C389.281 146.664 389.18 146.43 389.07 146.07L387.789 141.789C387.578 141.086 387.492 140.586 387.492 140.586H387.461C387.461 140.586 387.383 141.086 387.172 141.789L385.891 146.07C385.789 146.398 385.68 146.656 385.531 146.805C385.367 146.969 385.148 147.047 384.82 147.047C384.477 147.047 384.242 146.961 384.086 146.805C383.945 146.664 383.844 146.453 383.734 146.109ZM399.383 144.953V143.969C399.383 143.969 398.773 143.781 397.914 143.781C396.602 143.781 395.977 144.148 395.977 144.836C395.977 145.5 396.5 146.023 397.453 146.023C398.68 146.023 399.383 144.953 399.383 144.953ZM399.383 142.945V141.984C399.383 140.688 398.867 140.164 397.523 140.164C396.281 140.164 395.773 140.633 395.414 140.633C395.125 140.633 394.93 140.445 394.93 140.125C394.93 139.961 394.984 139.836 395.102 139.711C395.391 139.43 396.477 138.992 397.828 138.992C399.828 138.992 400.812 139.945 400.812 141.695V144.586C400.812 145.961 401 146.195 401 146.516C401 146.836 400.766 147.07 400.383 147.07C399.898 147.07 399.648 146.672 399.531 146.055H399.508C399.508 146.055 398.695 147.141 397.141 147.141C395.477 147.141 394.516 146.18 394.516 144.898C394.516 143.5 395.75 142.766 397.758 142.766C398.773 142.766 399.383 142.945 399.383 142.945ZM403.461 146.406V139.656C403.461 139.281 403.672 139.062 404.055 139.062C404.445 139.062 404.633 139.273 404.695 139.703L404.789 140.422H404.812C405.242 139.586 405.945 138.984 406.758 138.984C407.297 138.984 407.594 139.258 407.594 139.742C407.594 140.266 407.297 140.547 406.992 140.547C406.773 140.547 406.672 140.469 406.453 140.469C405.914 140.469 405.359 140.977 404.891 141.883V146.406C404.891 146.812 404.648 147.047 404.172 147.047C403.695 147.047 403.461 146.812 403.461 146.406ZM414.305 143.219H409.789V143.273C409.828 144.969 410.852 145.969 412.359 145.969C413.555 145.969 413.977 145.57 414.336 145.57C414.625 145.57 414.797 145.781 414.797 146.031C414.797 146.211 414.734 146.344 414.594 146.484C414.328 146.75 413.453 147.148 412.125 147.148C409.836 147.148 408.352 145.664 408.352 143.32C408.352 140.547 409.922 138.984 412.047 138.984C413.859 138.984 415.125 140.242 415.125 142.336C415.125 142.922 414.844 143.219 414.305 143.219ZM409.852 142.195H413.781C413.633 140.766 412.992 140.086 411.875 140.086C410.93 140.086 410.102 140.758 409.852 142.195ZM345.977 161.758C345.977 158.188 348.078 156.078 351.055 156.078C353.945 156.078 355.945 158.078 355.945 161.469C355.945 165.039 353.836 167.148 350.867 167.148C347.977 167.148 345.977 165.148 345.977 161.758ZM347.484 161.602C347.484 164.375 349.031 165.922 350.977 165.922C352.914 165.922 354.438 164.398 354.438 161.633C354.438 158.852 352.891 157.305 350.945 157.305C349.008 157.305 347.484 158.828 347.484 161.602ZM348.336 154.109C348.336 153.578 348.742 153.172 349.273 153.172C349.82 153.172 350.195 153.547 350.195 154.078C350.195 154.617 349.805 155.031 349.258 155.031C348.719 155.031 348.336 154.648 348.336 154.109ZM351.68 154.109C351.68 153.578 352.094 153.172 352.633 153.172C353.164 153.172 353.539 153.547 353.539 154.078C353.539 154.617 353.148 155.031 352.609 155.031C352.07 155.031 351.68 154.648 351.68 154.109ZM359.562 162.461L362.625 159.516C362.75 159.398 362.859 159.297 362.938 159.234C363.062 159.133 363.195 159.055 363.383 159.055C363.758 159.055 364.086 159.383 364.086 159.711C364.086 159.906 363.984 160.062 363.797 160.234L361.148 162.633L363.961 165.828C364.141 166.031 364.195 166.164 364.195 166.336C364.195 166.758 363.797 167.07 363.414 167.07C363.258 167.07 363.102 167.008 362.977 166.883C362.898 166.805 362.836 166.734 362.734 166.617L359.562 162.844V166.406C359.562 166.812 359.32 167.047 358.844 167.047C358.367 167.047 358.133 166.812 358.133 166.406V156.055C358.133 155.656 358.367 155.414 358.844 155.414C359.32 155.414 359.562 155.656 359.562 156.055V162.461ZM365.32 163.203C365.32 160.547 366.891 158.984 369.25 158.984C371.422 158.984 372.977 160.539 372.977 162.922C372.977 165.578 371.414 167.148 369.055 167.148C366.883 167.148 365.32 165.586 365.32 163.203ZM366.789 163.047C366.789 164.93 367.844 165.984 369.172 165.984C370.516 165.984 371.516 164.977 371.516 163.078C371.516 161.211 370.453 160.141 369.141 160.141C367.797 160.141 366.789 161.148 366.789 163.047ZM374.664 161.273C374.664 160.016 375.695 158.984 377.656 158.984C378.734 158.984 379.336 159.273 379.547 159.484C379.695 159.633 379.742 159.758 379.742 159.969C379.742 160.25 379.531 160.461 379.234 160.461C378.891 160.461 378.469 160.109 377.531 160.109C376.516 160.109 376.07 160.547 376.07 161.109C376.07 162.781 380.133 161.992 380.133 164.711C380.133 166.055 379.039 167.141 376.961 167.141C375.672 167.141 375.031 166.82 374.812 166.602C374.688 166.477 374.617 166.336 374.617 166.117C374.617 165.805 374.828 165.594 375.125 165.594C375.469 165.594 375.875 166.016 377.078 166.016C378.219 166.016 378.719 165.523 378.719 164.875C378.719 163.141 374.664 163.93 374.664 161.273ZM383.969 167.078L381.328 160.242C381.203 159.922 381.18 159.836 381.18 159.727C381.18 159.297 381.625 159.055 381.969 159.055C382.172 159.055 382.312 159.117 382.406 159.227C382.492 159.32 382.539 159.438 382.656 159.75L384.367 164.414C384.617 165.102 384.758 165.609 384.758 165.609H384.789C384.789 165.609 384.914 165.102 385.164 164.414L386.859 159.711C386.953 159.453 387 159.312 387.094 159.219C387.203 159.109 387.352 159.055 387.531 159.055C387.867 159.055 388.273 159.258 388.273 159.664C388.273 159.766 388.25 159.859 388.141 160.133L385.734 166.32C384.445 169.641 383.188 170.773 381.477 170.773C381.078 170.773 380.758 170.688 380.586 170.516C380.469 170.398 380.414 170.242 380.414 170.062C380.414 169.758 380.617 169.555 380.938 169.555C381.164 169.555 381.297 169.586 381.516 169.586C382.539 169.586 383.297 168.695 383.969 167.078ZM389.492 161.273C389.492 160.016 390.523 158.984 392.484 158.984C393.562 158.984 394.164 159.273 394.375 159.484C394.523 159.633 394.57 159.758 394.57 159.969C394.57 160.25 394.359 160.461 394.062 160.461C393.719 160.461 393.297 160.109 392.359 160.109C391.344 160.109 390.898 160.547 390.898 161.109C390.898 162.781 394.961 161.992 394.961 164.711C394.961 166.055 393.867 167.141 391.789 167.141C390.5 167.141 389.859 166.82 389.641 166.602C389.516 166.477 389.445 166.336 389.445 166.117C389.445 165.805 389.656 165.594 389.953 165.594C390.297 165.594 390.703 166.016 391.906 166.016C393.047 166.016 393.547 165.523 393.547 164.875C393.547 163.141 389.492 163.93 389.492 161.273ZM397.297 160.258H396.43C396.125 160.258 395.914 160.055 395.914 159.695C395.914 159.336 396.125 159.125 396.43 159.125H397.312L397.508 157.648C397.57 157.203 397.805 156.984 398.164 156.984C398.516 156.984 398.727 157.195 398.727 157.57V159.125H400.367C400.672 159.125 400.883 159.336 400.883 159.695C400.883 160.055 400.672 160.258 400.367 160.258H398.727V164.758C398.727 165.602 399.023 165.914 399.641 165.914C400.117 165.914 400.297 165.773 400.508 165.773C400.773 165.773 400.945 165.961 400.945 166.227C400.945 166.43 400.867 166.555 400.75 166.672C400.602 166.82 400.172 167.078 399.32 167.078C397.953 167.078 397.297 166.422 397.297 165.117V160.258ZM407.82 163.219H403.305V163.273C403.344 164.969 404.367 165.969 405.875 165.969C407.07 165.969 407.492 165.57 407.852 165.57C408.141 165.57 408.312 165.781 408.312 166.031C408.312 166.211 408.25 166.344 408.109 166.484C407.844 166.75 406.969 167.148 405.641 167.148C403.352 167.148 401.867 165.664 401.867 163.32C401.867 160.547 403.438 158.984 405.562 158.984C407.375 158.984 408.641 160.242 408.641 162.336C408.641 162.922 408.359 163.219 407.82 163.219ZM403.367 162.195H407.297C407.148 160.766 406.508 160.086 405.391 160.086C404.445 160.086 403.617 160.758 403.367 162.195ZM410.82 166.406V159.656C410.82 159.281 411.031 159.062 411.414 159.062C411.805 159.062 411.992 159.273 412.055 159.688L412.125 160.227H412.148C412.148 160.227 412.898 158.984 414.547 158.984C415.797 158.984 416.617 159.555 417.047 160.453C417.047 160.453 417.914 158.984 419.711 158.984C421.453 158.984 422.57 160.102 422.57 162.203V166.406C422.57 166.812 422.336 167.047 421.859 167.047C421.375 167.047 421.141 166.812 421.141 166.406V162.406C421.141 160.844 420.469 160.164 419.375 160.164C418.062 160.164 417.367 161.57 417.367 161.57C417.367 161.609 417.406 161.93 417.406 162.305V166.406C417.406 166.812 417.172 167.047 416.695 167.047C416.219 167.047 415.977 166.812 415.977 166.406V162.406C415.977 160.844 415.305 160.164 414.211 160.164C412.93 160.164 412.25 161.508 412.25 161.508V166.406C412.25 166.812 412.008 167.047 411.531 167.047C411.055 167.047 410.82 166.812 410.82 166.406Z" fill="white"/>
</svg>
