<svg width="135" height="135" viewBox="0 0 135 135" fill="none" xmlns="http://www.w3.org/2000/svg">
<path d="M134.572 67.2859C134.572 104.461 104.436 134.572 67.2859 134.572C30.1357 134.572 0 104.436 0 67.2859C0 30.1357 30.1112 0 67.2859 0C104.461 0 134.572 30.1357 134.572 67.2859Z" fill="#077BC0"/>
<path d="M64 31.875L66.625 34.5L71 28.375M78 31C78 36.799 73.299 41.5 67.5 41.5C61.701 41.5 57 36.799 57 31C57 25.201 61.701 20.5 67.5 20.5C73.299 20.5 78 25.201 78 31Z" stroke="white" stroke-width="1.5" stroke-linecap="round" stroke-linejoin="round"/>
<path d="M29.2188 84.0859L30.1328 75.2188C30.1719 74.8672 30.2812 74.625 30.4453 74.4609C30.6094 74.2969 30.8906 74.1875 31.2734 74.1875C31.9609 74.1875 32.2891 74.5078 32.5 75.1641L34.7422 81.9609C35.0078 82.7578 35.1797 83.4453 35.1797 83.4453H35.2109C35.2109 83.4453 35.375 82.7578 35.6406 81.9609L37.8828 75.1797C38.1016 74.5078 38.4219 74.1875 39.0938 74.1875C39.4453 74.1875 39.7031 74.2812 39.875 74.4453C40.0547 74.6328 40.1406 74.8828 40.1719 75.2188L41.0938 84.0938C41.1094 84.2578 41.125 84.3672 41.125 84.4688C41.125 84.8281 40.7891 85.0703 40.3594 85.0703C40.1484 85.0703 39.9375 85.0078 39.8203 84.8828C39.6797 84.7422 39.6562 84.5391 39.625 84.1953L39.0234 77.5078C38.9453 76.6406 38.9609 75.8438 38.9609 75.8438H38.9297L36.1953 84.1406C36.0938 84.4609 35.9766 84.6797 35.8438 84.8125C35.6719 84.9844 35.4531 85.0469 35.1562 85.0469C34.8438 85.0469 34.625 84.9844 34.4531 84.8125C34.3203 84.6797 34.2031 84.4531 34.1016 84.1406L31.3594 75.8438H31.3281C31.3281 75.8438 31.3125 76.6328 31.2422 77.4922L30.6328 84.1953C30.6016 84.5312 30.5781 84.7344 30.4297 84.8828C30.3125 85.0078 30.125 85.0703 29.9141 85.0703C29.5156 85.0703 29.1797 84.8438 29.1797 84.4766C29.1797 84.375 29.1953 84.2656 29.2188 84.0859ZM42.9375 81.2031C42.9375 78.5469 44.5078 76.9844 46.8672 76.9844C49.0391 76.9844 50.5938 78.5391 50.5938 80.9219C50.5938 83.5781 49.0312 85.1484 46.6719 85.1484C44.5 85.1484 42.9375 83.5859 42.9375 81.2031ZM44.4062 81.0469C44.4062 82.9297 45.4609 83.9844 46.7891 83.9844C48.1328 83.9844 49.1328 82.9766 49.1328 81.0781C49.1328 79.2109 48.0703 78.1406 46.7578 78.1406C45.4141 78.1406 44.4062 79.1484 44.4062 81.0469ZM52.7344 84.4062V77.6562C52.7344 77.2812 52.9453 77.0625 53.3281 77.0625C53.7188 77.0625 53.9062 77.2656 53.9688 77.6875L54.0391 78.2266H54.0625C54.0625 78.2266 54.8125 76.9844 56.5312 76.9844C58.3516 76.9844 59.4688 78.1016 59.4688 80.2031V84.4062C59.4688 84.8125 59.2344 85.0469 58.7578 85.0469C58.2734 85.0469 58.0391 84.8125 58.0391 84.4062V80.4062C58.0391 78.8438 57.3594 78.1641 56.2031 78.1641C54.8438 78.1641 54.1641 79.5078 54.1641 79.5078V84.4062C54.1641 84.8125 53.9219 85.0469 53.4453 85.0469C52.9688 85.0469 52.7344 84.8125 52.7344 84.4062ZM62.1094 84.4062V77.7188C62.1094 77.3125 62.3438 77.0781 62.8203 77.0781C63.2969 77.0781 63.5391 77.3125 63.5391 77.7188V84.4062C63.5391 84.8125 63.2969 85.0469 62.8203 85.0469C62.3438 85.0469 62.1094 84.8125 62.1094 84.4062ZM61.8516 74.7031C61.8516 74.1484 62.2578 73.7344 62.8359 73.7344C63.3828 73.7344 63.7891 74.1484 63.7891 74.6719C63.7891 75.2266 63.3828 75.6328 62.8047 75.6328C62.2578 75.6328 61.8516 75.2266 61.8516 74.7031ZM66.5234 78.2578H65.6562C65.3516 78.2578 65.1406 78.0547 65.1406 77.6953C65.1406 77.3359 65.3516 77.125 65.6562 77.125H66.5391L66.7344 75.6484C66.7969 75.2031 67.0312 74.9844 67.3906 74.9844C67.7422 74.9844 67.9531 75.1953 67.9531 75.5703V77.125H69.5938C69.8984 77.125 70.1094 77.3359 70.1094 77.6953C70.1094 78.0547 69.8984 78.2578 69.5938 78.2578H67.9531V82.7578C67.9531 83.6016 68.25 83.9141 68.8672 83.9141C69.3438 83.9141 69.5234 83.7734 69.7344 83.7734C70 83.7734 70.1719 83.9609 70.1719 84.2266C70.1719 84.4297 70.0938 84.5547 69.9766 84.6719C69.8281 84.8203 69.3984 85.0781 68.5469 85.0781C67.1797 85.0781 66.5234 84.4219 66.5234 83.1172V78.2578ZM71.0938 81.2031C71.0938 78.5469 72.6641 76.9844 75.0234 76.9844C77.1953 76.9844 78.75 78.5391 78.75 80.9219C78.75 83.5781 77.1875 85.1484 74.8281 85.1484C72.6562 85.1484 71.0938 83.5859 71.0938 81.2031ZM72.5625 81.0469C72.5625 82.9297 73.6172 83.9844 74.9453 83.9844C76.2891 83.9844 77.2891 82.9766 77.2891 81.0781C77.2891 79.2109 76.2266 78.1406 74.9141 78.1406C73.5703 78.1406 72.5625 79.1484 72.5625 81.0469ZM80.8906 84.4062V77.6562C80.8906 77.2812 81.1016 77.0625 81.4844 77.0625C81.875 77.0625 82.0625 77.2734 82.125 77.7031L82.2188 78.4219H82.2422C82.6719 77.5859 83.375 76.9844 84.1875 76.9844C84.7266 76.9844 85.0234 77.2578 85.0234 77.7422C85.0234 78.2656 84.7266 78.5469 84.4219 78.5469C84.2031 78.5469 84.1016 78.4688 83.8828 78.4688C83.3438 78.4688 82.7891 78.9766 82.3203 79.8828V84.4062C82.3203 84.8125 82.0781 85.0469 81.6016 85.0469C81.125 85.0469 80.8906 84.8125 80.8906 84.4062ZM86.4844 84.4062V77.7188C86.4844 77.3125 86.7188 77.0781 87.1953 77.0781C87.6719 77.0781 87.9141 77.3125 87.9141 77.7188V84.4062C87.9141 84.8125 87.6719 85.0469 87.1953 85.0469C86.7188 85.0469 86.4844 84.8125 86.4844 84.4062ZM86.2266 74.7031C86.2266 74.1484 86.6328 73.7344 87.2109 73.7344C87.7578 73.7344 88.1641 74.1484 88.1641 74.6719C88.1641 75.2266 87.7578 75.6328 87.1797 75.6328C86.6328 75.6328 86.2266 75.2266 86.2266 74.7031ZM90.625 84.4062V77.6562C90.625 77.2812 90.8359 77.0625 91.2188 77.0625C91.6094 77.0625 91.7969 77.2656 91.8594 77.6875L91.9297 78.2266H91.9531C91.9531 78.2266 92.7031 76.9844 94.4219 76.9844C96.2422 76.9844 97.3594 78.1016 97.3594 80.2031V84.4062C97.3594 84.8125 97.125 85.0469 96.6484 85.0469C96.1641 85.0469 95.9297 84.8125 95.9297 84.4062V80.4062C95.9297 78.8438 95.25 78.1641 94.0938 78.1641C92.7344 78.1641 92.0547 79.5078 92.0547 79.5078V84.4062C92.0547 84.8125 91.8125 85.0469 91.3359 85.0469C90.8594 85.0469 90.625 84.8125 90.625 84.4062ZM105.984 77.0078L105.172 77.7891C105.688 78.2578 105.977 78.8984 105.977 79.6016C105.977 81.25 104.812 82.4141 102.719 82.4141C102.312 82.4141 101.922 82.3516 101.602 82.2344C101.602 82.2344 101.18 82.5859 101.18 83.0312C101.18 83.5234 101.531 83.8672 102.75 83.8672H103.664C105.641 83.8672 106.578 84.6641 106.578 86C106.578 87.5469 105.211 88.8438 102.578 88.8438C100.211 88.8438 99.1562 87.7578 99.1562 86.4922C99.1562 85.0547 100.391 84.3984 100.391 84.3984C100.023 84.0781 99.8672 83.6641 99.8672 83.2188C99.8672 82.3594 100.648 81.7656 100.648 81.7656C100.016 81.2969 99.6562 80.5859 99.6562 79.8047C99.6562 78.1641 100.828 76.9922 102.914 76.9922C103.406 76.9922 103.852 77.0859 104.242 77.2344L105.172 76.1484C105.406 75.8672 105.539 75.7812 105.758 75.7812C106.062 75.7812 106.383 76.0391 106.383 76.3906C106.383 76.6016 106.258 76.75 105.984 77.0078ZM103.398 85.0078H102.523C102.07 85.0078 101.711 84.9609 101.359 84.8594C101.359 84.8594 100.586 85.3906 100.586 86.3047C100.586 87.1094 101.242 87.7344 102.711 87.7344C104.344 87.7344 105.156 87.0156 105.156 86.1875C105.156 85.4609 104.703 85.0078 103.398 85.0078ZM101.07 79.6875C101.07 80.6484 101.727 81.3047 102.828 81.3047C103.938 81.3047 104.57 80.6797 104.57 79.7188C104.57 78.7578 103.914 78.1016 102.797 78.1016C101.703 78.1016 101.07 78.7266 101.07 79.6875Z" fill="white"/>
<line x1="14" y1="96.5" x2="121" y2="96.5" stroke="white"/>
</svg>
