
<svg width="592px" height="392px" viewBox="0 0 592 392" version="1.1" xmlns="http://www.w3.org/2000/svg" xmlns:xlink="http://www.w3.org/1999/xlink">
    <g id="Page-1" stroke="none" stroke-width="1" fill="none" fill-rule="evenodd">
        <g id="fairpizza" transform="translate(0.000000, 0.000000)" fill="#EF4444" fill-rule="nonzero">
            <path d="M349.913041,12.8588469 L348.462597,10.6878728 C338.309493,-0.890656101 322.354614,-3.0616302 310.751066,4.1749503 C283.192639,20.8190855 258.535099,41.0815109 238.228889,64.962227 L85.2070965,64.962227 C72.1531047,64.962227 62,75.093439 62,88.119284 L62,88.119284 C62,101.145129 72.1531047,112 85.2070965,112 L204.143466,112 L267.23776,112 L280.291751,112 C298.422296,89.5666 320.178949,70.751491 345.56171,55.554672 C352.813928,51.2127237 357.165259,43.9761431 357.89048,36.0159046 C358.615702,27.332008 355.714815,19.3717694 349.913041,12.8588469 Z M159.89313,299.195864 L109.182158,299.195864 C96.8666368,299.195864 86,288.324654 86,275.279203 L86,275.279203 C86,262.958499 96.8666368,252.08729 109.182158,252.08729 L160.617573,252.08729 L175.106422,252.08729 C188.146386,252.08729 198.28858,241.21608 198.28858,228.895376 L198.28858,228.895376 C198.28858,215.849925 188.146386,204.978715 175.106422,204.978715 L167.861997,204.978715 L122.222123,204.978715 C109.906601,204.978715 99.0399641,194.832253 99.0399641,181.786802 L99.0399641,181.786802 C99.0399641,168.741351 109.906601,157.870141 122.222123,157.870141 L181.626404,157.870141 L193.941925,157.870141 L249.723994,157.870141 C245.377339,166.567109 241.755127,175.264076 238.132915,184.685791 C223.644066,222.372651 217.848526,263.683246 220.746296,304.993842 C222.195181,268.03173 231.612933,230.344871 249.723994,194.832253 C276.528365,141.200954 318.546027,99.890358 367.808114,73.799455 C372.879211,70.175719 380.123635,72.349961 384.47029,77.423192 L404.754679,104.963589 C375.052538,125.98126 360.563689,165.117614 372.879211,202.079726 C388.092502,247.014059 436.630147,270.930719 481.545578,256.435773 C491.687773,252.812037 500.381082,247.738806 507.625507,241.940827 L588.763061,349.928174 C592.385274,354.276658 593.109716,360.074636 590.211946,365.147867 C588.038619,370.221099 582.967522,373.120088 577.171982,373.120088 L356.941477,373.120088 C359.114804,365.872615 359.114804,357.175647 356.217034,348.47868 C348.97261,326.736261 325.066009,315.140304 303.332735,322.387777 C282.323904,329.63525 270.008383,352.102416 276.528365,373.844835 L236.68403,373.844835 C233.78626,373.844835 231.612933,373.120088 229.439605,371.670593 C228.715163,375.29433 227.266278,378.193319 225.092951,381.092308 C220.021854,387.615034 212.777429,391.23877 204.08412,391.963517 L201.910792,391.963517 C187.421943,392.688265 174.381979,382.541803 170.759767,368.046857 C168.586439,360.799384 167.137555,353.551911 165.68867,345.579691 C176.555306,344.130196 185.248616,333.983734 185.248616,322.387777 L185.248616,322.387777 C185.248616,309.342326 174.381979,299.195864 162.066457,299.195864 L159.89313,299.195864 Z M50.7843137,206 L23.9411765,206 C10.8823529,206 0,195.876923 0,182.861538 L0,182.861538 C0,169.846154 10.8823529,159 23.9411765,159 L50.7843137,159 C63.8431373,159 74,169.846154 74,182.861538 L74,182.861538 C74,195.876923 63.8431373,206 50.7843137,206 Z M460.170673,298.549567 C468.02539,296.407371 476.594173,300.691762 479.450433,308.546479 C481.592629,315.687131 477.308238,324.255913 469.453521,327.112174 C462.312869,329.968435 453.744087,325.684044 450.887826,317.829327 C448.031565,309.97461 452.315956,301.405827 460.170673,298.549567 Z M434.40745,118.222351 C466.108288,107.415247 500.691019,124.706613 510.777649,156.40745 C521.584753,188.108288 504.293387,221.970545 472.59255,232.777649 C440.891712,243.584753 407.029455,226.293387 396.222351,194.59255 C385.415247,162.891712 402.706613,128.308981 434.40745,118.222351 Z M455.933623,287.514734 C470.210918,282.51768 485.202078,290.370193 489.485266,303.933623 C494.48232,318.210918 486.629807,333.202078 473.066377,337.485266 C458.789082,342.48232 443.797922,334.629807 439.514734,321.066377 C434.51768,306.789082 442.370193,291.797922 455.933623,287.514734 Z M311.564082,215.230922 C325.272874,210.960092 340.424696,218.078142 345.475304,232.314242 C350.525911,245.838538 342.589242,260.786443 328.158935,265.769078 C314.450144,270.039908 299.298321,262.921858 294.247714,248.685758 C289.918622,235.161462 297.133775,220.213557 311.564082,215.230922 Z" id="Shape"></path>
        </g>
    </g>
</svg>
