
<svg width="739px" height="365px" viewBox="0 0 739 365" version="1.1" xmlns="http://www.w3.org/2000/svg" xmlns:xlink="http://www.w3.org/1999/xlink">
    <g id="Page-1" stroke="none" stroke-width="1" fill="none" fill-rule="evenodd">
        <g id="Group" transform="translate(-0.000000, 0.185025)" fill-rule="nonzero">
            <path d="M614.37867,36.339065 C614.37867,36.339065 597.00859,46.000475 602.00859,57.000475 C607.00859,68.000475 678.00859,59.000475 678.00859,59.000475 C678.00859,59.000475 673.00859,44.000475 664.00859,41.000475 C655.00859,38.000475 614.37867,36.339065 614.37867,36.339065 Z" id="Path" fill="#FFFFFF"></path>
            <path d="M607.60741,38.915025 C611.098784,36.6457588 614.97939,35.0411081 619.05382,34.181875 C632.644208,30.8879378 646.872549,31.3317115 660.23125,35.466175 L659.98644,35.267075 C665.677553,38.2711219 670.674135,42.4371944 674.65251,47.495415 L607.60741,38.915025 Z" id="Path" fill="#CCCCCC"></path>
            <path d="M684.52861,86.220445 C684.28861,89.810445 684.04861,93.3971117 683.80861,96.980445 C683.479657,104.485798 682.661251,111.961684 681.35861,119.360445 C680.13861,125.550445 678.19861,131.690445 674.72861,136.960445 C671.25861,142.220445 666.10861,146.570445 660.00861,148.170445 C656.263442,149.068094 652.369473,149.153338 648.58861,148.420445 C641.45861,144.370445 636.62861,149.550445 643.74861,154.820445 C645.363791,156.014493 647.042957,157.119471 648.77861,158.130445 L652.00861,208.000445 L592.00861,195.000445 L603.71861,128.660445 C601.924976,127.030841 600.284758,125.23999 598.81861,123.310445 C592.10861,114.400445 589.79861,102.790445 590.23861,91.650445 C590.68861,80.500445 593.65861,69.630445 596.60861,58.880445 C597.360769,55.9638857 598.268739,53.089745 599.32861,50.270395 C600.63861,50.810395 601.96861,51.300395 603.31861,51.710395 C611.94861,54.330395 621.11861,54.540395 630.13861,54.530395 C646.18861,54.520395 662.21861,53.8937284 678.22861,52.650395 C681.907646,58.7074121 684.142075,65.5304625 684.75861,72.590395 C685.017035,77.133223 684.94016,81.6889225 684.52861,86.220445 Z" id="Path" fill="#CCCCCC"></path>
            <path d="M5.68434189e-14,261.424975 C8.6872555,271.718468 18.0834941,281.392049 28.12,290.374975 L710.7,290.374975 C720.736506,281.392049 730.132745,271.718468 738.82,261.424975 L5.68434189e-14,261.424975 Z" id="Path" fill="#3F3D56"></path>
            <path d="M185.16,164.614975 L185.16,267.174975 L257.010005,267.174975 L257.010005,164.614975 C257.012505,163.100723 256.026753,161.762047 254.58,161.314975 C254.247827,161.205256 253.899804,161.151194 253.55,161.15479 L188.63,161.15479 C187.710885,161.153189 186.828754,161.51683 186.177903,162.165806 C185.527052,162.814781 185.160866,163.695858 185.16,164.614975 L185.16,164.614975 Z M213.2,199.854975 C213.239038,195.646709 216.661553,192.255795 220.87,192.255795 C225.078447,192.255795 228.500962,195.646709 228.54,199.854975 L228.54,211.754975 C228.518447,215.975712 225.090792,219.385909 220.87,219.385909 C216.649208,219.385909 213.221553,215.975712 213.2,211.754975 L213.2,199.854975 Z" id="Shape" fill="#2F2E41"></path>
            <path d="M184.94,263.894975 L184.94,273.784975 C184.94337,274.851114 185.803892,275.716095 186.87,275.724975 L255.3,275.724975 C256.367591,275.719631 257.23,274.85258 257.23,273.784975 L257.23,263.894975 L184.94,263.894975 Z" id="Path" fill="#3F3D56"></path>
            <path d="M72.13,10.094975 L72.13,197.354975 C72.1339373,202.323906 76.1610691,206.351038 81.13,206.354975 L358.63,206.354975 C363.59894,206.35106 367.626085,202.323915 367.63,197.354975 L367.63,10.094975 C367.618177,5.13093786 363.594047,1.11127931 358.63,1.10497503 L81.13,1.10497503 C76.1659619,1.11130125 72.1418449,5.13094699 72.13,10.094975 L72.13,10.094975 Z" id="Path" fill="#3F3D56"></path>
            <path d="M78.64,12.424975 L78.64,195.044975 C78.6445853,197.699563 80.795412,199.85039 83.45,199.854975 L356.32,199.854975 C358.974597,199.850412 361.125437,197.699572 361.13,195.044975 L361.13,12.424975 C361.13,9.76696759 358.978001,7.61074268 356.32,7.60497503 L83.45,7.60497503 C80.792008,7.61076466 78.64,9.76697669 78.64,12.424975 L78.64,12.424975 Z" id="Path" fill="#FFFFFF"></path>
            <path d="M134.28,278.054975 C134.842699,278.760539 135.697543,279.169537 136.6,279.165013 L298.94,279.165013 C299.839116,279.163856 300.689905,278.757819 301.256297,278.059527 C301.822689,277.361236 302.044433,276.444973 301.86,275.564975 L299.34,263.594975 C299.127779,262.603187 298.427663,261.786384 297.48,261.424975 C297.14232,261.292478 296.782744,261.224633 296.42,261.224974 L139.11,261.224974 C138.747256,261.224628 138.387678,261.292472 138.05,261.424975 C137.102311,261.786347 136.40218,262.603167 136.19,263.594975 L133.67,275.564975 C133.488408,276.444477 133.712447,277.358998 134.28,278.054975 Z" id="Path" fill="#2F2E41"></path>
            <rect id="Rectangle" fill="#3F3D56" transform="translate(292.767000, 264.880745) rotate(-180.000000) translate(-292.767000, -264.880745) " x="290.267" y="263.380745" width="5" height="3" rx="0.48819"></rect>
            <rect id="Rectangle" fill="#3F3D56" transform="translate(282.767000, 264.880745) rotate(-180.000000) translate(-282.767000, -264.880745) " x="280.267" y="263.380745" width="5" height="3" rx="0.48819"></rect>
            <rect id="Rectangle" fill="#3F3D56" transform="translate(272.767000, 264.880745) rotate(-180.000000) translate(-272.767000, -264.880745) " x="270.267" y="263.380745" width="5" height="3" rx="0.48819"></rect>
            <rect id="Rectangle" fill="#3F3D56" transform="translate(262.767000, 264.880745) rotate(-180.000000) translate(-262.767000, -264.880745) " x="260.267" y="263.380745" width="5" height="3" rx="0.48819"></rect>
            <rect id="Rectangle" fill="#3F3D56" transform="translate(252.767000, 264.880745) rotate(-180.000000) translate(-252.767000, -264.880745) " x="250.267" y="263.380745" width="5" height="3" rx="0.48819"></rect>
            <rect id="Rectangle" fill="#3F3D56" transform="translate(242.767000, 264.880745) rotate(-180.000000) translate(-242.767000, -264.880745) " x="240.267" y="263.380745" width="5" height="3" rx="0.48819"></rect>
            <rect id="Rectangle" fill="#3F3D56" transform="translate(232.767000, 264.880745) rotate(-180.000000) translate(-232.767000, -264.880745) " x="230.267" y="263.380745" width="5" height="3" rx="0.48819"></rect>
            <rect id="Rectangle" fill="#3F3D56" transform="translate(222.767000, 264.880745) rotate(-180.000000) translate(-222.767000, -264.880745) " x="220.267" y="263.380745" width="5" height="3" rx="0.48819"></rect>
            <rect id="Rectangle" fill="#3F3D56" transform="translate(212.767000, 264.880745) rotate(-180.000000) translate(-212.767000, -264.880745) " x="210.267" y="263.380745" width="5" height="3" rx="0.48819"></rect>
            <rect id="Rectangle" fill="#3F3D56" transform="translate(202.767000, 264.880745) rotate(-180.000000) translate(-202.767000, -264.880745) " x="200.267" y="263.380745" width="5" height="3" rx="0.48819"></rect>
            <rect id="Rectangle" fill="#3F3D56" transform="translate(192.767000, 264.880745) rotate(-180.000000) translate(-192.767000, -264.880745) " x="190.267" y="263.380745" width="5" height="3" rx="0.48819"></rect>
            <rect id="Rectangle" fill="#3F3D56" transform="translate(182.767000, 264.880745) rotate(-180.000000) translate(-182.767000, -264.880745) " x="180.267" y="263.380745" width="5" height="3" rx="0.48819"></rect>
            <rect id="Rectangle" fill="#3F3D56" transform="translate(172.767000, 264.880745) rotate(-180.000000) translate(-172.767000, -264.880745) " x="170.267" y="263.380745" width="5" height="3" rx="0.48819"></rect>
            <rect id="Rectangle" fill="#3F3D56" transform="translate(162.767000, 264.880745) rotate(-180.000000) translate(-162.767000, -264.880745) " x="160.267" y="263.380745" width="5" height="3" rx="0.48819"></rect>
            <rect id="Rectangle" fill="#3F3D56" transform="translate(152.767000, 264.880745) rotate(-180.000000) translate(-152.767000, -264.880745) " x="150.267" y="263.380745" width="5" height="3" rx="0.48819"></rect>
            <rect id="Rectangle" fill="#3F3D56" transform="translate(142.767000, 264.880745) rotate(-180.000000) translate(-142.767000, -264.880745) " x="140.267" y="263.380745" width="5" height="3" rx="0.48819"></rect>
            <rect id="Rectangle" fill="#3F3D56" transform="translate(292.885170, 269.880745) rotate(-180.000000) translate(-292.885170, -269.880745) " x="290.38517" y="268.380745" width="5" height="3" rx="0.48819"></rect>
            <rect id="Rectangle" fill="#3F3D56" transform="translate(282.885170, 269.880745) rotate(-180.000000) translate(-282.885170, -269.880745) " x="280.38517" y="268.380745" width="5" height="3" rx="0.48819"></rect>
            <rect id="Rectangle" fill="#3F3D56" transform="translate(272.885170, 269.880745) rotate(-180.000000) translate(-272.885170, -269.880745) " x="270.38517" y="268.380745" width="5" height="3" rx="0.48819"></rect>
            <rect id="Rectangle" fill="#3F3D56" transform="translate(262.885170, 269.880745) rotate(-180.000000) translate(-262.885170, -269.880745) " x="260.38517" y="268.380745" width="5" height="3" rx="0.48819"></rect>
            <rect id="Rectangle" fill="#3F3D56" transform="translate(252.885170, 269.880745) rotate(-180.000000) translate(-252.885170, -269.880745) " x="250.38517" y="268.380745" width="5" height="3" rx="0.48819"></rect>
            <rect id="Rectangle" fill="#3F3D56" transform="translate(242.885170, 269.880745) rotate(-180.000000) translate(-242.885170, -269.880745) " x="240.38517" y="268.380745" width="5" height="3" rx="0.48819"></rect>
            <rect id="Rectangle" fill="#3F3D56" transform="translate(232.885170, 269.880745) rotate(-180.000000) translate(-232.885170, -269.880745) " x="230.38517" y="268.380745" width="5" height="3" rx="0.48819"></rect>
            <rect id="Rectangle" fill="#3F3D56" transform="translate(222.885170, 269.880745) rotate(-180.000000) translate(-222.885170, -269.880745) " x="220.38517" y="268.380745" width="5" height="3" rx="0.48819"></rect>
            <rect id="Rectangle" fill="#3F3D56" transform="translate(212.885170, 269.880745) rotate(-180.000000) translate(-212.885170, -269.880745) " x="210.38517" y="268.380745" width="5" height="3" rx="0.48819"></rect>
            <rect id="Rectangle" fill="#3F3D56" transform="translate(202.885170, 269.880745) rotate(-180.000000) translate(-202.885170, -269.880745) " x="200.38517" y="268.380745" width="5" height="3" rx="0.48819"></rect>
            <rect id="Rectangle" fill="#3F3D56" transform="translate(192.885170, 269.880745) rotate(-180.000000) translate(-192.885170, -269.880745) " x="190.38517" y="268.380745" width="5" height="3" rx="0.48819"></rect>
            <rect id="Rectangle" fill="#3F3D56" transform="translate(182.885170, 269.880745) rotate(-180.000000) translate(-182.885170, -269.880745) " x="180.38517" y="268.380745" width="5" height="3" rx="0.48819"></rect>
            <rect id="Rectangle" fill="#3F3D56" transform="translate(172.885170, 269.880745) rotate(-180.000000) translate(-172.885170, -269.880745) " x="170.38517" y="268.380745" width="5" height="3" rx="0.48819"></rect>
            <rect id="Rectangle" fill="#3F3D56" transform="translate(162.885170, 269.880745) rotate(-180.000000) translate(-162.885170, -269.880745) " x="160.38517" y="268.380745" width="5" height="3" rx="0.48819"></rect>
            <rect id="Rectangle" fill="#3F3D56" transform="translate(152.885170, 269.880745) rotate(-180.000000) translate(-152.885170, -269.880745) " x="150.38517" y="268.380745" width="5" height="3" rx="0.48819"></rect>
            <rect id="Rectangle" fill="#3F3D56" transform="translate(142.885170, 269.880745) rotate(-180.000000) translate(-142.885170, -269.880745) " x="140.38517" y="268.380745" width="5" height="3" rx="0.48819"></rect>
            <rect id="Rectangle" fill="#3F3D56" transform="translate(227.385170, 275.880745) rotate(-180.000000) translate(-227.385170, -275.880745) " x="207.38517" y="274.380745" width="40" height="3" rx="0.48819"></rect>
            <path d="M97.16187,32.761675 L352.48523,32.761675 C353.037299,32.7495464 353.478514,32.2985327 353.478514,31.74633 C353.478514,31.1941274 353.037299,30.7431136 352.48523,30.730985 L97.16187,30.730985 C96.6098006,30.7431136 96.1685865,31.1941274 96.1685865,31.74633 C96.1685865,32.2985327 96.6098006,32.7495464 97.16187,32.761675 Z" id="Path" fill="#3F3D56"></path>
            <ellipse id="Oval" fill="#3F3D56" cx="335.10504" cy="19.463785" rx="5.95043" ry="6.08304"></ellipse>
            <ellipse id="Oval" fill="#3F3D56" cx="314.54902" cy="19.463785" rx="5.95043" ry="6.08304"></ellipse>
            <ellipse id="Oval" fill="#3F3D56" cx="293.993" cy="19.463785" rx="5.95043" ry="6.08304"></ellipse>
            <path d="M108.449979,15.994975 C108.448618,16.285404 108.562694,16.5644809 108.76712,16.7707831 C108.971547,16.9770853 109.24957,17.093705 109.54,17.094975 L124.14,17.094975 C124.740244,17.0809871 125.219549,16.5903823 125.219549,15.989975 C125.219549,15.3895677 124.740244,14.8989629 124.14,14.884975 L109.54,14.884975 C108.933268,14.8923328 108.446326,15.3882096 108.449979,15.994975 L108.449979,15.994975 Z" id="Path" fill="#3F3D56"></path>
            <path d="M108.449979,20.144975 C108.448602,20.4354088 108.562672,20.7144949 108.767103,20.9208006 C108.971533,21.1271063 109.249566,21.2437209 109.54,21.244975 L124.14,21.244975 C124.740758,21.2316937 125.220841,20.7408796 125.220841,20.139975 C125.220841,19.5390704 124.740758,19.0482564 124.14,19.034975 L109.54,19.034975 C108.933268,19.0423328 108.446326,19.5382096 108.449979,20.144975 Z" id="Path" fill="#3F3D56"></path>
            <path d="M108.449979,24.284975 C108.446326,24.8917404 108.933268,25.3876173 109.54,25.394975 L124.14,25.394975 C124.740244,25.3809871 125.219549,24.8903823 125.219549,24.289975 C125.219549,23.6895677 124.740244,23.1989629 124.14,23.184975 L109.54,23.184975 C109.249567,23.1862345 108.971538,23.3028508 108.767109,23.5091553 C108.562679,23.7154599 108.448607,23.9945428 108.449979,24.284975 Z" id="Path" fill="#3F3D56"></path>
            <rect id="Rectangle" fill="#E6E6E6" x="104.83599" y="56.358265" width="11.00609" height="5.75992" rx="2.87996"></rect>
            <rect id="Rectangle" fill="#E6E6E6" x="164.83599" y="56.358265" width="11.00609" height="5.75992" rx="2.87996"></rect>
            <rect id="Rectangle" fill="#E6E6E6" x="181.83599" y="56.358265" width="11.00609" height="5.75992" rx="2.87996"></rect>
            <rect id="Rectangle" fill="#E6E6E6" x="121.15618" y="55.878105" width="38.3657" height="5.75992" rx="2.87996"></rect>
            <rect id="Rectangle" fill="#E6E6E6" x="201.15618" y="55.878105" width="38.3657" height="5.75992" rx="2.87996"></rect>
            <rect id="Rectangle" fill="#E6E6E6" x="120.83599" y="69.358265" width="11.00609" height="5.75992" rx="2.87996"></rect>
            <rect id="Rectangle" fill="#E6E6E6" x="180.83599" y="69.358265" width="11.00609" height="5.75992" rx="2.87996"></rect>
            <rect id="Rectangle" fill="#E6E6E6" x="197.83599" y="69.358265" width="11.00609" height="5.75992" rx="2.87996"></rect>
            <rect id="Rectangle" fill="#E6E6E6" x="137.15618" y="68.878105" width="38.3657" height="5.75992" rx="2.87996"></rect>
            <rect id="Rectangle" fill="#E6E6E6" x="217.15618" y="68.878105" width="38.3657" height="5.75992" rx="2.87996"></rect>
            <rect id="Rectangle" fill="#E6E6E6" x="136.83599" y="82.358265" width="11.00609" height="5.75992" rx="2.87996"></rect>
            <rect id="Rectangle" fill="#E6E6E6" x="196.83599" y="82.358265" width="11.00609" height="5.75992" rx="2.87996"></rect>
            <rect id="Rectangle" fill="#E6E6E6" x="213.83599" y="82.358265" width="11.00609" height="5.75992" rx="2.87996"></rect>
            <rect id="Rectangle" fill="#E6E6E6" x="153.15618" y="81.878105" width="38.3657" height="5.75992" rx="2.87996"></rect>
            <rect id="Rectangle" fill="#E6E6E6" x="233.15618" y="81.878105" width="38.3657" height="5.75992" rx="2.87996"></rect>
            <rect id="Rectangle" fill="#E6E6E6" x="152.83599" y="95.358265" width="11.00609" height="5.75992" rx="2.87996"></rect>
            <rect id="Rectangle" fill="#E6E6E6" x="212.83599" y="95.358265" width="11.00609" height="5.75992" rx="2.87996"></rect>
            <rect id="Rectangle" fill="#E6E6E6" x="229.83599" y="95.358265" width="11.00609" height="5.75992" rx="2.87996"></rect>
            <rect id="Rectangle" fill="#E6E6E6" x="169.15618" y="94.878105" width="38.3657" height="5.75992" rx="2.87996"></rect>
            <rect id="Rectangle" fill="#E6E6E6" x="164.83599" y="147.051785" width="11.00609" height="5.75992" rx="2.87996"></rect>
            <rect id="Rectangle" fill="#E6E6E6" x="181.83599" y="147.051785" width="11.00609" height="5.75992" rx="2.87996"></rect>
            <rect id="Rectangle" fill="#E6E6E6" x="201.15618" y="147.531955" width="38.3657" height="5.75992" rx="2.87996"></rect>
            <rect id="Rectangle" fill="#E6E6E6" x="104.83599" y="147.051785" width="11.00609" height="5.75992" rx="2.87996"></rect>
            <rect id="Rectangle" fill="#E6E6E6" x="121.15618" y="147.531955" width="38.3657" height="5.75992" rx="2.87996"></rect>
            <rect id="Rectangle" fill="#E6E6E6" x="120.83599" y="134.051785" width="11.00609" height="5.75992" rx="2.87996"></rect>
            <rect id="Rectangle" fill="#E6E6E6" x="180.83599" y="134.051785" width="11.00609" height="5.75992" rx="2.87996"></rect>
            <rect id="Rectangle" fill="#E6E6E6" x="197.83599" y="134.051785" width="11.00609" height="5.75992" rx="2.87996"></rect>
            <rect id="Rectangle" fill="#E6E6E6" x="137.15618" y="134.531955" width="38.3657" height="5.75992" rx="2.87996"></rect>
            <rect id="Rectangle" fill="#E6E6E6" x="136.83599" y="121.051785" width="11.00609" height="5.75992" rx="2.87996"></rect>
            <rect id="Rectangle" fill="#E6E6E6" x="196.83599" y="121.051785" width="11.00609" height="5.75992" rx="2.87996"></rect>
            <rect id="Rectangle" fill="#E6E6E6" x="213.83599" y="121.051785" width="11.00609" height="5.75992" rx="2.87996"></rect>
            <rect id="Rectangle" fill="#E6E6E6" x="153.15618" y="121.531955" width="38.3657" height="5.75992" rx="2.87996"></rect>
            <rect id="Rectangle" fill="#E6E6E6" x="152.83599" y="108.051785" width="11.00609" height="5.75992" rx="2.87996"></rect>
            <rect id="Rectangle" fill="#E6E6E6" x="212.83599" y="108.051785" width="11.00609" height="5.75992" rx="2.87996"></rect>
            <rect id="Rectangle" fill="#E6E6E6" x="229.83599" y="108.051785" width="11.00609" height="5.75992" rx="2.87996"></rect>
            <rect id="Rectangle" fill="#E6E6E6" x="169.15618" y="108.531955" width="38.3657" height="5.75992" rx="2.87996"></rect>
            <path d="M94.1,334.854975 C94.71,335.164975 95.33,335.474975 95.94,335.774975 C111.74,343.674975 124.37994,348.164975 141.67,353.084975 C143.13,336.784975 144.54,308.134975 145.91,290.374975 C146.27,285.764975 146.63,281.894975 146.98,279.164975 C147.068284,277.713475 147.364645,276.282187 147.86,274.914975 L147.8,279.164975 L147.65,290.374975 L146.78,354.484975 C168.287502,360.175578 190.380902,363.360061 212.62,363.974975 C213.78,364.004975 214.92,364.024975 216.02,364.044925 C216.41,364.054925 216.79,364.064925 217.17,364.064925 C218.42,364.074925 219.66,364.085004 220.91,364.085004 C244.345904,364.102264 267.69707,361.271515 290.45,355.654925 C289.96,339.524925 289.47,311.194925 289,290.374925 C288.9,286.304925 288.81,282.514925 288.71,279.164925 C288.52,272.004925 288.32,266.844975 288.13,265.114925 C288.298426,265.42145 288.429366,265.747123 288.52,266.084925 C289.446159,270.396972 290.077619,274.76708 290.41,279.164925 C290.76,282.514925 291.11,286.304925 291.46,290.374925 C293.32,312.004925 295.26,341.414925 297.26,353.884925 C309.164424,350.634961 320.845595,346.616532 332.23,341.854925 C338.23,339.354925 344.123333,336.658258 349.91,333.764925 C348.81,326.564925 347.66,318.494925 346.48,310.124925 C345.56,303.634925 344.61,296.964925 343.64,290.374925 C342.14,280.194925 319.85,209.054925 318.44005,206.354925 C317.23005,204.044925 316.08,201.864925 314.99005,199.854925 C312.35005,194.974925 310.11005,191.084925 308.45005,188.624925 C301.509966,178.097734 291.178231,170.260718 279.17005,166.414925 L278.87005,166.334925 L278.66005,166.424925 L258.21005,160.144925 L255.22005,159.224925 L253.21005,158.604925 L246.13005,153.214925 L242.28005,150.284925 L238.67005,147.534925 L231.61005,142.164925 L187.90005,144.854925 L179.39005,165.344925 L160.33005,172.314925 L160.0001,172.164925 L159.7101,172.044925 L159.4101,172.124925 C147.40378,175.974295 137.073128,183.810489 130.1301,194.334925 C129.19016,195.744925 128.0501,197.604925 126.7601,199.854925 C125.6601,201.764925 124.4601,203.944925 123.1601,206.354925 C121.3101,209.784925 119.2901,213.654925 117.1501,217.844925 C116.6801,218.764925 116.2001,219.704925 115.7201,220.654925 C114.8301,222.414878 113.926767,224.211528 113.0101,226.044875 C110.8801,230.294875 108.6801,234.734875 106.4801,239.244875 C104.5701,243.154875 102.6401,251.194875 100.7401,261.424875 C99.1701,269.924875 97.6101,279.944875 96.1001,290.374875 C94.1201,303.894875 96.2301,320.084875 94.4401,332.524875 C94.33,333.314975 94.21,334.084975 94.1,334.854975 Z" id="Path" fill="#3F3D56"></path>
            <polygon id="Path" fill="#000000" opacity="0.2" points="303.59003 261.380965 295.09303 228.588965 287.59003 256.884965"></polygon>
            <path d="M77.48,240.014975 C80.52,281.894975 77.37,300.334975 94.15,334.864975 C109.417421,342.337616 125.320298,348.435058 141.67,353.084975 C143.37,353.564975 145.073333,354.031642 146.78,354.484975 C168.287502,360.175578 190.380902,363.360061 212.62,363.974975 C213.78,364.004975 214.92,364.024975 216.02,364.044925 C216.41,364.054925 216.79,364.064925 217.17,364.064925 C218.42,364.074925 219.66,364.085004 220.91,364.085004 C244.345904,364.102264 267.69707,361.271515 290.45,355.654925 C292.73,355.094925 295,354.504925 297.26,353.884925 C309.164424,350.634961 320.845595,346.616532 332.23,341.854925 C338.23,339.354925 344.123333,336.658258 349.91,333.764925 C351.22,333.104925 352.53,332.444925 353.82,331.764925 C360.45,320.104925 364.22,305.924925 364.3,288.884925 C359.71,259.524975 87.62,214.694975 77.48,240.014975 Z" id="Path" fill="#2F2E41"></path>
            <path d="M77.48788,247.187155 C77.33261,244.594445 77.15902,241.916225 76.95657,239.127285 C87.09657,213.807285 359.18657,258.637285 363.77657,287.997285 C363.76393,290.689125 363.64882,293.301425 363.45528,295.851845 C352.33969,266.873555 93.85055,224.265525 77.48788,247.187155 Z" id="Path" fill="#000000" opacity="0.2"></path>
            <path d="M15.82933,261.000715 C16.7331938,263.632391 19.2303172,265.381517 22.01244,265.331715 L48.50426,264.649975 C51.3098842,264.595335 53.7444825,262.69963 54.48511,259.992975 L58.234,219.905755 C59.5640647,220.508304 61.0120295,220.805826 62.47192,220.776545 C67.8034433,220.639151 72.0151607,216.207575 71.8813167,210.875961 C71.7474728,205.544348 67.3187016,201.329681 61.987,201.459975 C61.403488,201.458095 60.8214482,201.518626 60.25081,201.640535 C58.9958962,200.282845 57.2254857,199.518968 55.37676,199.537204 L14.62625,200.589825 C14.2882103,200.602306 13.9518884,200.644062 13.62106,200.714625 C11.8129949,201.051674 10.2391346,202.154403 9.30496163,203.738708 C8.37078863,205.323013 8.16764945,207.233976 8.74788,208.979265 L15.82933,261.000715 Z M59.00279,217.183875 L61.67042,207.631135 C61.9738824,206.527643 61.9809087,205.36363 61.69079,204.256555 C61.82023,204.256215 61.93441,204.194875 62.06385,204.194555 C65.872205,204.115806 69.026131,207.133657 69.1153097,210.941783 C69.2044884,214.749908 66.1952865,217.912087 62.38742,218.011695 C61.2049241,218.048662 60.0347342,217.762455 59.00279,217.183875 L59.00279,217.183875 Z" id="Shape" fill="#2F2E41"></path>
            <path d="M13.62109,200.714565 C14.48927,205.678685 24.25018,209.168445 35.98694,208.561865 C46.77965,208.064605 55.6044,204.274865 57.22115,199.783355 C56.6228044,199.606386 56.0005997,199.523437 55.37679,199.537475 L14.62628,200.589765 C14.2882403,200.602246 13.9519184,200.644002 13.62109,200.714565 L13.62109,200.714565 Z" id="Path" fill="#3F3D56"></path>
            <rect id="Rectangle" fill="#3F3D56" x="582.00859" y="186.000475" width="89" height="78"></rect>
            <path d="M684.20019,77.050495 C682.550149,86.8291478 683.999239,96.8790095 688.3446,105.793185 C689.95305,109.071835 691.94494,113.021515 689.98641,116.103855 C688.873364,117.664192 687.115233,118.63847 685.20214,118.755085 C683.312526,118.855175 681.420486,118.610175 679.61869,118.032085" id="Path" fill="#CCCCCC"></path>
            <ellipse id="Oval" fill="#3F3D56" cx="606.00859" cy="44.500475" rx="3" ry="2.5"></ellipse>
            <ellipse id="Oval" fill="#3F3D56" cx="617.00859" cy="45.500475" rx="3" ry="2.5"></ellipse>
            <ellipse id="Oval" fill="#3F3D56" cx="628.00859" cy="50.500475" rx="3" ry="2.5"></ellipse>
            <ellipse id="Oval" fill="#3F3D56" cx="641.00859" cy="47.500475" rx="3" ry="2.5"></ellipse>
            <path d="M367.934,97.383645 C382.50446,93.338835 398.733,97.673775 409.99245,107.603405 C416.067478,112.997981 420.525832,119.972992 422.871,127.751655 C425.7457,137.010375 426.22119,146.777075 426.52231,156.401355 C426.85526,167.042975 427.14426,177.686145 427.45431,188.328455 C427.74994,198.475615 427.78464,208.670165 428.46163,218.800545 C429.02971,227.301095 430.39039,236.125685 434.93975,243.498545 C439.15747,250.333875 445.821,254.949095 453.35148,257.493085 C460.98431,260.071655 469.21215,260.671915 477.219,260.619175 C486.537211,260.589616 495.83975,259.853106 505.04652,258.415985 C522.53357,255.614635 539.80619,248.469175 550.48678,233.727325 C555.404107,227.033469 558.167417,219.001402 558.40931,210.699035 C558.63448,201.024215 555.54342,191.653535 552.15784,182.717325 C548.86325,174.021265 545.29892,165.453535 543.21343,156.361545 C541.276487,147.8528 540.353579,139.144681 540.46397,130.418955 C540.642622,112.962021 544.826552,95.7791073 552.69338,80.194195 C556.674893,72.1897387 561.72568,64.7634609 567.70711,58.119195 C573.87553,51.407195 581.51365,45.866285 590.59679,44.049855 C595.029498,43.1315755 599.619908,43.3161667 603.96457,44.587405 C605.81803,45.142405 606.61,42.247875 604.76209,41.694565 C595.76398,39.000315 585.98858,41.048915 578.01073,45.725195 C570.16647,50.323195 563.96741,57.220945 558.70654,64.534575 C538.227333,93.5852816 532.174359,130.412684 542.27781,164.489975 C547.61651,181.978975 559.2281,200.183745 554.23973,219.110805 C549.87341,235.677665 534.74814,246.935945 519.12295,252.021805 C509.64354,255.107265 499.70513,256.412555 489.79166,257.087755 C481.41418,257.658345 472.92258,258.021275 464.56916,256.944655 C456.89652,255.955785 449.00451,253.610325 443.05564,248.460005 C436.53492,242.814595 433.55453,234.702255 432.25737,226.376925 C430.78971,216.957375 431.00542,207.244075 430.72851,197.739415 L429.78331,165.296275 C429.24947,146.972695 429.70958,126.665085 417.78803,111.482185 C408.129899,99.4940354 393.484159,92.6281447 378.09145,92.872515 C374.387006,92.957655 370.707361,93.5012146 367.13652,94.490785 C366.364691,94.7326939 365.92326,95.5425892 366.138231,96.3223503 C366.353203,97.1021114 367.147287,97.5713894 367.93404,97.383615 L367.934,97.383645 Z" id="Path" fill="#3F3D56"></path>
            <path d="M154.96645,78.404885 C159.388453,109.868412 188.463804,131.801184 219.931786,127.410996 C251.399768,123.020809 273.361927,93.96765 269.00356,62.495245 L268.88956,61.678425 C263.822911,30.6555264 234.808927,9.43151062 203.708441,13.9977921 C172.607954,18.5640737 150.919341,47.2324209 154.98407,78.402425 L154.96645,78.404885 Z" id="Path" fill="#FFB6B6"></path>
            <path d="M205.71821,126.008835 C202.74165,120.013195 199.68298,113.575705 200.49157,106.930835 C201.30016,100.285965 207.79272,93.915515 214.19546,95.868055 C218.0242,97.035645 220.92762,100.802845 224.92639,100.982725 C230.42839,101.230225 233.56132,94.923775 235.25607,89.683465 L242.15832,68.341055 C255.47162,78.799985 238.61081,67.835125 255.10245,64.006425 C261.57233,62.504425 268.10395,59.596165 271.88382,54.134655 C275.66369,48.673145 275.61254,40.221215 270.38929,36.118385 C267.8282,34.106665 264.42581,33.350455 261.97755,31.202845 C258.859094,28.467365 257.900486,24.0121404 259.617902,20.2361504 C261.335319,16.4601604 265.323336,14.2547871 269.43455,14.807545 L251.8682,12.671775 L257.0682,3.19210503 C253.30852,6.17641503 248.06332,6.59361503 243.33633,5.75882503 C238.60934,4.92403503 234.15364,2.99382503 229.52778,1.71211503 C207.32058,-4.44088497 181.57178,6.47298503 170.55035,26.710225 C161.694216,23.7859153 151.952207,26.6342991 146.06635,33.868895 C141.38583,39.850585 140.13418,47.816335 139.97748,55.409975 C139.685745,70.3825675 142.999776,85.205669 149.63993,98.628485 C151.70951,102.799995 154.15572,106.892075 157.67338,109.943425 C161.19104,112.994775 200.94477,129.898155 205.53275,129.101225" id="Path" fill="#2F2E41"></path>
            <path d="M621.008729,86.500475 C621.016535,89.0960869 620.683691,91.6815101 620.01859,94.190475 L620.01859,94.200475 C620.00859,94.250475 619.98859,94.300475 619.97859,94.350475 C617.95859,101.780475 613.13859,107.000475 607.50859,107.000475 C601.90859,107.000475 597.10859,101.820475 595.05859,94.450475 C594.91859,93.940475 594.79859,93.430475 594.68859,92.900475 C594.54859,92.310475 594.43859,91.700475 594.34859,91.070475 C594.26859,90.570475 594.20859,90.060475 594.15859,89.540475 C594.08859,88.820475 594.03859,88.100475 594.02859,87.350475 L594.02859,87.340475 C594.00859,87.060475 594.00859,86.780475 594.00859,86.500475 L594.00859,86.250475 L594.01859,86.240475 C594.019857,84.973064 594.103366,83.7070709 594.26859,82.450475 C594.33859,81.920475 594.41859,81.410475 594.51859,80.900475 C594.63859,80.280475 594.76859,79.670475 594.92859,79.070475 C595.05859,78.540475 595.20859,78.030475 595.36859,77.520475 C595.58859,76.840475 595.82859,76.180475 596.09859,75.550475 C596.26859,75.140475 596.44859,74.740475 596.62859,74.350475 C599.08859,69.290475 603.04859,66.000475 607.50859,66.000475 C613.67859,66.000475 618.87859,72.290475 620.48859,80.870475 C620.50859,81.000475 620.53859,81.130475 620.54859,81.260475 L620.54859,81.270475 C620.856639,82.9967278 621.010578,84.7469533 621.008729,86.500475 Z" id="Path" fill="#E6E6E6"></path>
            <path d="M596.75859,74.790455 C596.747087,75.1684167 596.471209,75.4860947 596.09859,75.550455 C596.26859,75.140455 596.44859,74.740455 596.62859,74.350455 C596.711951,74.4821996 596.756967,74.6345605 596.75859,74.790455 Z" id="Path" fill="#FFFFFF"></path>
            <rect id="Rectangle" fill="#FFFFFF" x="599.00433" y="73.879685" width="10.35447" height="1.55454" rx="0.77727"></rect>
            <path d="M596.48857,78.290455 C596.488019,78.7210087 596.139124,79.0699041 595.70857,79.070455 L594.92857,79.070455 C595.05857,78.540455 595.20857,78.030455 595.36857,77.5204543 L595.70857,77.5204543 C596.135699,77.5198782 596.483636,77.8633541 596.48857,78.290455 L596.48857,78.290455 Z" id="Path" fill="#FFFFFF"></path>
            <rect id="Rectangle" fill="#FFFFFF" x="598.10825" y="77.517835" width="2.97042" height="1.55454" rx="0.77727"></rect>
            <rect id="Rectangle" fill="#FFFFFF" x="603.32255" y="77.388235" width="10.35447" height="1.55454" rx="0.77727"></rect>
            <rect id="Rectangle" fill="#FFFFFF" x="597.83836" y="81.026385" width="2.97042" height="1.55454" rx="0.77727"></rect>
            <rect id="Rectangle" fill="#FFFFFF" x="602.42647" y="81.026385" width="2.97042" height="1.55454" rx="0.77727"></rect>
            <path d="M596.40862,81.670465 C596.408036,82.101005 596.05916,82.4498811 595.62862,82.450465 L594.26862,82.450465 C594.33862,81.920465 594.41862,81.410465 594.51862,80.900465 L595.62862,80.900465 C595.834359,80.8984825 596.032389,80.9786494 596.178811,81.1231938 C596.325232,81.2677381 596.407948,81.4647179 596.40862,81.670465 Z" id="Path" fill="#FFFFFF"></path>
            <rect id="Rectangle" fill="#FFFFFF" x="607.64077" y="80.896795" width="10.35447" height="1.55454" rx="0.77727"></rect>
            <path d="M596.75859,86.790455 C596.757926,86.9962047 596.675213,87.1931891 596.52879,87.3377352 C596.382366,87.4822813 596.184331,87.5624456 595.97859,87.560455 L594.56859,87.560455 C594.368501,87.5613126 594.175529,87.4862682 594.02859,87.350455 L594.02859,87.340455 C594.00859,87.060455 594.00859,86.780455 594.00859,86.500455 L594.00859,86.250455 L594.01859,86.240455 C594.163597,86.0930382 594.361809,86.0101496 594.56859,86.0104542 L595.97859,86.0104542 C596.409144,86.011006 596.758039,86.3599013 596.75859,86.790455 L596.75859,86.790455 Z" id="Path" fill="#CCCCCC"></path>
            <rect id="Rectangle" fill="#CCCCCC" x="599.00433" y="85.879685" width="10.35447" height="1.55454" rx="0.77727"></rect>
            <path d="M596.48857,90.290455 C596.488019,90.7210087 596.139124,91.0699041 595.70857,91.070455 L594.34857,91.070455 C594.26857,90.570455 594.20857,90.060455 594.15857,89.540455 C594.203302,89.5240503 594.250984,89.5172361 594.29852,89.520455 L595.70852,89.520455 C596.135668,89.5198508 596.483635,89.8633346 596.48857,90.290455 L596.48857,90.290455 Z" id="Path" fill="#CCCCCC"></path>
            <rect id="Rectangle" fill="#CCCCCC" x="598.10825" y="89.517835" width="2.97042" height="1.55454" rx="0.77727"></rect>
            <rect id="Rectangle" fill="#CCCCCC" x="603.32255" y="89.388235" width="10.35447" height="1.55454" rx="0.77727"></rect>
            <rect id="Rectangle" fill="#CCCCCC" x="597.83836" y="93.026385" width="2.97042" height="1.55454" rx="0.77727"></rect>
            <rect id="Rectangle" fill="#CCCCCC" x="602.42647" y="93.026385" width="2.97042" height="1.55454" rx="0.77727"></rect>
            <path d="M596.40862,93.670465 C596.408036,94.101005 596.05916,94.4498811 595.62862,94.450465 L595.05862,94.450465 C594.91862,93.940465 594.79862,93.430465 594.68862,92.900465 L595.62862,92.900465 C595.834359,92.8984825 596.032389,92.9786494 596.178811,93.1231938 C596.325232,93.2677381 596.407948,93.4647179 596.40862,93.670465 Z" id="Path" fill="#CCCCCC"></path>
            <rect id="Rectangle" fill="#CCCCCC" x="607.64077" y="92.896795" width="10.35447" height="1.55454" rx="0.77727"></rect>
        </g>
        <g id="Group" transform="translate(25.000000, 225.000000)" fill-rule="nonzero">
            <g id="arc" transform="translate(10.000000, 6.000000) scale(-1, 1) rotate(-180.000000) translate(-10.000000, -6.000000) ">
                <g id="red" transform="translate(0.000000, 0.046554)" fill="#DC002E">
                    <path d="M2.86521009,2.59933399 L2.86521009,2.6103221 C2.86521009,6.65378438 5.53139909,9.07278412 9.99991448,9.07407684 C14.4681084,9.07278412 17.1355835,6.65378438 17.1355835,2.6103221 L17.1355835,2.59933399 L17.1355835,0 L19.9993692,0 L19.9993692,2.59933399 L19.9996908,2.59933399 C20.0186627,5.22904686 19.1641253,7.49437468 17.5286868,9.15163996 C16.6207709,10.0720556 15.4959649,10.7801423 14.1899616,11.2578018 C12.9264038,11.7189792 11.516216,11.953446 9.99991448,11.953446 C8.48441683,11.953446 7.07487219,11.7189792 5.81002814,11.2578018 C4.50322092,10.7801423 3.38034424,10.0720556 2.47226756,9.15163996 C0.8360253,7.49437468 -0.0183513718,5.22904686 0.000298928148,2.59933399 L0.000298928148,0 L2.86521009,0 L2.86521009,2.59933399 Z" id="path158"></path>
                </g>
                <g id="green" transform="translate(3.621785, 0.037198)" fill="#009534">
                    <path d="M12.7579306,2.28084044 L12.7579306,2.28084044 C12.7579306,7.0905617 9.45891764,8.34272128 6.37808102,8.34272128 C3.29676207,8.34272128 3.48074881e-16,7.09088487 3.48074881e-16,2.28084044 L3.48074881e-16,3.22921356e-16 L2.14719617,3.22921356e-16 L2.14719617,2.28084044 C2.14719617,4.53049403 3.73005999,6.28471322 6.37808102,6.28471322 C9.02674517,6.28471322 10.6078404,4.52887814 10.6078404,2.28084044 L10.6078404,3.22921356e-16 L12.7579306,3.22921356e-16 L12.7579306,2.28084044 Z" id="path162"></path>
                </g>
                <g id="blue" transform="translate(6.530798, 0.000000)" fill="#007BC0">
                    <path d="M3.46911657,5.53121984 C1.39475304,5.53121984 0,4.13411419 0,2.05542262 L0,0 L1.43189286,0 L1.43189286,2.05542262 C1.43189286,3.3300432 2.19366114,4.0909697 3.46911657,4.0909697 C4.74489355,4.0909697 5.50730494,3.3300432 5.50730494,2.05542262 L5.50730494,0 L6.93887624,0 L6.93887624,2.05542262 C6.93887624,4.13411419 5.54396243,5.53121984 3.46911657,5.53121984" id="path166"></path>
                </g>
            </g>
        </g>
    </g>
</svg>
