<svg width="2048px" height="2048px" viewBox="0 0 2048 2048" version="1.1" xmlns="http://www.w3.org/2000/svg" xmlns:xlink="http://www.w3.org/1999/xlink">
  <g id="Page-1" stroke="none" stroke-width="1" fill="none" fill-rule="evenodd">
    <g id="Group">
      <path d="M252.438188,0 L1795.56181,0 C1934.40573,0 2048,113.594265 2048,252.438188 L2048,1795.57015 C2048,1934.40573 1934.40573,2048 1795.56181,2048 L252.438188,2048 C113.594265,2048 0,1934.40573 0,1795.57015 L0,252.438188 C0,113.594265 113.594265,0 252.438188,0" id="Fill-1" fill="#FFFFFF"></path>
      <path d="M1795.56181,2048 L252.438188,2048 C113.594265,2048 0,1934.4859 0,1795.74831 L0,1556 L2048,1556 L2048,1795.74831 C2048,1934.4859 1934.40573,2048 1795.56181,2048" id="Fill-2" fill="#06B6D4"></path>
      <path d="M1000.4985,332.0078 L1035.85503,332.966509 C1045.52427,333.216608 1053.61673,339.168947 1056.73691,348.305871 L1067.98293,381.135439 C1070.66095,388.946842 1076.79286,394.348965 1084.88532,396.00795 L1117.54715,402.76894 C1123.43712,404.011095 1128.90996,403.035712 1134.04075,399.901146 L1169.02186,378.484397 C1177.22277,373.457421 1187.14229,373.982628 1194.76755,379.826591 L1222.78248,401.376726 C1230.44945,407.254036 1233.51124,416.824464 1230.66637,426.05309 L1220.45485,459.199449 C1218.03546,467.085882 1219.80412,475.064017 1225.36873,481.158079 L1247.8107,505.826106 C1251.86527,510.277856 1256.85423,512.712146 1262.84432,513.178996 L1303.76546,516.405263 C1313.32624,517.138885 1321.05996,523.399679 1323.78803,532.594959 L1333.79932,566.491613 C1335.02571,570.643245 1335.07576,574.844896 1334.0496,578.738092 L1784.82456,578.738092 C1793.17564,578.738092 1800,585.549102 1800,593.902385 L1800,715.341775 C1800,723.695057 1793.17564,730.506067 1784.82456,730.506067 L1709.25601,730.506067 L1464.68858,1215.66339 C1462.05227,1220.89878 1457.01326,1224 1451.13997,1224 L596.851691,1224 C590.986744,1224 585.947729,1220.89878 583.311423,1215.66339 L338.735645,730.506067 L263.175445,730.506067 C254.816019,730.506067 248,723.695057 248,715.341775 L248,593.902385 C248,585.549102 254.816019,578.738092 263.175445,578.738092 L422.947267,578.738092 C428.812213,578.738092 433.851228,581.839311 436.487534,587.074702 L681.063312,1072.23203 L1366.93669,1072.23203 L1539.20593,730.506067 L1338.7716,730.506067 C1338.62977,730.997927 1338.4796,731.498124 1338.3044,731.989984 L1326.45771,765.278065 C1323.22907,774.406653 1315.06987,780.250616 1305.40063,780.392338 L1270.70318,780.925881 C1262.43552,781.07594 1255.40259,785.235908 1251.30631,792.380383 L1234.77099,821.3501 C1231.79264,826.577155 1231.0251,832.07098 1232.41834,837.92328 L1242.02084,877.788946 C1244.24,887.125949 1240.686,896.396259 1232.77708,901.823391 L1203.61086,921.814581 C1195.62686,927.283397 1185.5822,927.22504 1177.66494,921.672858 L1149.27459,901.723352 C1142.50863,896.963148 1134.3828,896.19618 1126.84096,899.58918 L1096.4567,913.319576 C1090.96718,915.795549 1087.0878,919.772112 1084.79355,925.33263 L1069.10085,963.205847 C1065.43839,972.084336 1057.09565,977.478122 1047.5015,977.228024 L1012.13662,976.27765 C1002.46739,976.019215 994.374929,970.075213 991.254744,960.929952 L980.00873,928.108721 C977.339053,920.297318 971.198796,914.895195 963.11468,913.227873 L930.444509,906.475219 C924.554534,905.233065 919.081697,906.200111 913.950911,909.334676 L878.969801,930.759763 C870.768887,935.778402 860.849368,935.261532 853.232446,929.417569 L825.209181,907.867433 C817.542203,901.990124 814.480417,892.419696 817.333634,883.182733 L827.536806,850.036373 C829.964543,842.149941 828.18754,834.171806 822.622932,828.077744 L800.18096,803.409717 C796.126388,798.966304 791.137429,796.532014 785.147342,796.056827 L744.2262,792.830559 C734.66542,792.096938 726.931699,785.836144 724.203623,776.649201 L714.192335,742.74421 C711.447573,733.482237 714.609472,723.961829 722.343192,718.151212 L750.107832,697.318025 C756.715282,692.374416 759.960609,684.879804 759.059593,676.668243 L755.405472,643.538558 C754.738053,637.569545 752.135118,632.659282 747.563296,628.749412 L716.353104,602.130618 C709.044864,595.894835 706.483642,586.307734 709.687255,577.245839 L721.533946,543.957758 C724.762587,534.82917 732.921787,528.993544 742.591023,528.851821 L777.28848,528.309942 C785.556136,528.168219 792.589066,524.008251 796.685352,516.85544 L813.220663,487.885723 C816.199022,482.667005 816.974897,477.164843 815.573316,471.32088 L805.970822,431.446877 C803.751653,422.118211 807.30566,412.847901 815.214578,407.412432 L844.380799,387.429579 C852.364801,381.952426 862.409461,382.010783 870.326721,387.571301 L898.72541,407.520808 C905.491372,412.272675 913.617202,413.04798 921.150696,409.65498 L951.543299,395.924584 C957.02448,393.448611 960.903854,389.463711 963.198108,383.91153 L978.890803,346.029976 C982.553266,337.159824 990.896006,331.766037 1000.4985,332.0078 Z M1024,521.565625 C1097.53291,521.565625 1157.14179,581.139036 1157.14179,654.626248 C1157.14179,728.096787 1097.53291,787.670198 1024,787.670198 C950.467086,787.670198 890.849863,728.096787 890.849863,654.626248 C890.849863,581.139036 950.467086,521.565625 1024,521.565625 L1024,521.565625 Z" id="Fill-3" fill="#06B6D4"></path>
      <path d="M672.480323,1754.95851 L672.480323,1778.41101 L732.255284,1778.41101 L732.255284,1823.42987 L672.480323,1823.42987 L672.480323,1850.3899 L740.409826,1850.3899 L740.409826,1898.1056 L612.155056,1898.1056 L612.155056,1852.72275 C612.280126,1851.01861 612.34683,1849.28139 612.34683,1847.51108 C612.34683,1825.74617 601.640867,1810.80606 580.220603,1802.67421 C601.640867,1794.54235 612.34683,1779.60225 612.34683,1757.82906 C612.34683,1756.06702 612.280126,1754.3298 612.155056,1752.62567 L612.155056,1707.23454 L740.409826,1707.23454 L740.409826,1754.95851 L672.480323,1754.95851 Z M755.634972,1707.23454 L822.338792,1707.23454 L855.157071,1752.84903 L887.967012,1707.23454 L959.665281,1707.23454 L919.876452,1762.54438 L862.12762,1762.54438 L959.665281,1898.1056 L887.967012,1898.1056 L855.157071,1852.49939 L822.338792,1898.1056 L750.640524,1898.1056 L819.303768,1802.67421 L750.640524,1707.23454 L755.634972,1707.23454 Z M1129.38481,1772.75263 C1129.38481,1784.78909 1126.58325,1795.70877 1120.96345,1805.5034 C1115.352,1815.29802 1107.06405,1823.06588 1096.09961,1828.82353 C1085.1435,1834.57291 1071.86944,1837.45174 1056.2941,1837.45174 L1032.38078,1837.45174 L1032.38078,1898.1056 L972.063853,1898.1056 L972.063853,1707.23454 L1056.2941,1707.23454 C1079.84055,1707.23454 1097.91728,1713.16591 1110.49929,1725.02866 C1123.09798,1736.8914 1129.38481,1752.79939 1129.38481,1772.75263 Z M1049.49865,1790.27375 C1062.00562,1790.27375 1068.25076,1784.43338 1068.25076,1772.75263 C1068.25076,1761.06361 1062.00562,1755.22323 1049.49865,1755.22323 L1032.38078,1755.22323 L1032.38078,1790.27375 L1049.49865,1790.27375 Z M1245.14095,1898.1056 L1209.00416,1829.63424 L1208.72901,1829.63424 L1208.72901,1898.1056 L1148.40374,1898.1056 L1148.40374,1707.23454 L1238.07869,1707.23454 C1253.65403,1707.23454 1266.96978,1709.98101 1278.02594,1715.45739 C1289.07376,1720.94205 1297.36171,1728.40383 1302.88145,1737.83447 C1308.40953,1747.27337 1311.1694,1757.92006 1311.1694,1769.78281 C1311.1694,1782.54725 1307.5924,1793.86401 1300.43842,1803.7579 C1293.28443,1813.63525 1283.00371,1820.73304 1269.59624,1825.05128 L1311.44455,1898.1056 L1245.14095,1898.1056 Z M1208.72901,1789.72777 L1232.64232,1789.72777 C1238.43722,1789.72777 1242.78964,1788.42899 1245.68292,1785.82315 C1248.58454,1783.21732 1250.03535,1779.13071 1250.03535,1773.55506 C1250.03535,1768.52539 1248.54285,1764.57114 1245.54951,1761.69231 C1242.55618,1758.82176 1238.26212,1757.38235 1232.64232,1757.38235 L1208.72901,1757.38235 L1208.72901,1789.72777 Z M1390.7804,1754.95851 L1390.7804,1778.41101 L1450.5637,1778.41101 L1450.5637,1823.42987 L1390.7804,1823.42987 L1390.7804,1850.3899 L1458.71824,1850.3899 L1458.71824,1898.1056 L1330.46348,1898.1056 L1330.46348,1707.23454 L1458.71824,1707.23454 L1458.71824,1754.95851 L1390.7804,1754.95851 Z M1556.80621,1900 C1533.80173,1900 1514.8245,1894.6477 1499.88284,1883.95138 C1484.94118,1873.26333 1476.83667,1857.57869 1475.5693,1836.91403 L1539.68834,1836.91403 C1540.59718,1847.87507 1545.48324,1853.35145 1554.36318,1853.35145 C1557.62333,1853.35145 1560.3832,1852.59039 1562.65113,1851.06825 C1564.91906,1849.53784 1566.04469,1847.15536 1566.04469,1843.92082 C1566.04469,1839.42886 1563.60166,1835.78897 1558.71561,1833.00114 C1553.82122,1830.21331 1546.20864,1827.02013 1535.88623,1823.42987 C1523.57103,1819.11991 1513.38203,1814.89267 1505.3192,1810.7647 C1497.25638,1806.62846 1490.32752,1800.60609 1484.53262,1792.69759 C1478.72939,1784.78909 1475.92783,1774.63875 1476.10293,1762.2383 C1476.10293,1749.82957 1479.32139,1739.27388 1485.74997,1730.55468 C1492.17855,1721.84375 1500.96678,1715.23404 1512.10631,1710.74208 C1523.25419,1706.25012 1535.79451,1704 1549.74394,1704 C1573.29039,1704 1591.99248,1709.39366 1605.85853,1720.18098 C1619.70791,1730.96003 1627.00364,1746.14831 1627.72905,1765.73756 L1562.78454,1765.73756 C1562.60111,1760.3439 1561.24202,1756.48065 1558.71561,1754.14781 C1556.17253,1751.81497 1553.09581,1750.64027 1549.46879,1750.64027 C1546.93405,1750.64027 1544.85789,1751.49234 1543.22365,1753.20474 C1541.5894,1754.90888 1540.78062,1757.29135 1540.78062,1760.3439 C1540.78062,1764.66214 1543.17362,1768.21103 1547.97629,1770.99886 C1552.77897,1773.77842 1560.43323,1777.15359 1570.93908,1781.10784 C1583.07918,1785.5998 1593.08475,1789.90976 1600.96414,1794.04601 C1608.84353,1798.18225 1615.68067,1803.93163 1621.47556,1811.29414 C1627.2788,1818.66492 1630.17208,1827.92183 1630.17208,1839.06487 C1630.17208,1850.74562 1627.2788,1861.21859 1621.47556,1870.4755 C1615.68067,1879.73241 1607.25931,1886.96256 1596.20316,1892.17423 C1585.16367,1897.38589 1572.02302,1900 1556.80621,1900 Z M1726.63414,1900 C1703.62966,1900 1684.65242,1894.6477 1669.71076,1883.95138 C1654.76911,1873.26333 1646.65626,1857.57869 1645.38888,1836.91403 L1709.51627,1836.91403 C1710.42511,1847.87507 1715.31116,1853.35145 1724.19111,1853.35145 C1727.45126,1853.35145 1730.21113,1852.59039 1732.47906,1851.06825 C1734.73865,1849.53784 1735.87262,1847.15536 1735.87262,1843.92082 C1735.87262,1839.42886 1733.42959,1835.78897 1728.5352,1833.00114 C1723.64914,1830.21331 1716.03657,1827.02013 1705.71415,1823.42987 C1693.39896,1819.11991 1683.20161,1814.89267 1675.14713,1810.7647 C1667.0843,1806.62846 1660.15544,1800.60609 1654.36055,1792.69759 C1648.55732,1784.78909 1645.75576,1774.63875 1645.93085,1762.2383 C1645.93085,1749.82957 1649.14931,1739.27388 1655.57789,1730.55468 C1662.00647,1721.84375 1670.7947,1715.23404 1681.93424,1710.74208 C1693.08212,1706.25012 1705.62243,1704 1719.57187,1704 C1743.11832,1704 1761.8204,1709.39366 1775.67812,1720.18098 C1789.53584,1730.96003 1796.83157,1746.14831 1797.55697,1765.73756 L1732.61247,1765.73756 C1732.42903,1760.3439 1731.06994,1756.48065 1728.5352,1754.14781 C1726.00045,1751.81497 1722.92374,1750.64027 1719.29672,1750.64027 C1716.76197,1750.64027 1714.67748,1751.49234 1713.05157,1753.20474 C1711.41733,1754.90888 1710.60021,1757.29135 1710.60021,1760.3439 C1710.60021,1764.66214 1713.00154,1768.21103 1717.80422,1770.99886 C1722.60689,1773.77842 1730.26116,1777.15359 1740.76701,1781.10784 C1752.9071,1785.5998 1762.91268,1789.90976 1770.78373,1794.04601 C1778.67145,1798.18225 1785.5086,1803.93163 1791.30349,1811.29414 C1797.09838,1818.66492 1800,1827.92183 1800,1839.06487 C1800,1850.74562 1797.09838,1861.21859 1791.30349,1870.4755 C1785.5086,1879.73241 1777.08724,1886.96256 1766.03108,1892.17423 C1754.98326,1897.38589 1741.85095,1900 1726.63414,1900 Z M471.618446,1747.29819 L471.218224,1749.05196 L471.201548,1749.15123 L471.001436,1750.08602 L470.909718,1750.55755 L470.818001,1751.04563 L470.818001,1751.06217 L470.651241,1751.96387 L470.642903,1751.99696 L470.634565,1752.07969 C470.467806,1753.02275 470.317722,1753.97409 470.184314,1754.93369 L470.142624,1755.19841 L470.067583,1755.73612 L470.000879,1756.26556 L469.800767,1757.95315 L469.750739,1758.41641 L469.692374,1758.96239 L469.692374,1758.97894 L469.592318,1760.013 L469.592318,1760.05436 L469.54229,1760.60862 L469.5006,1761.05533 L469.492262,1761.16288 L469.425558,1762.10594 L469.41722,1762.27966 L469.375531,1762.84219 L469.358855,1763.17309 L469.308827,1763.97552 L469.300489,1764.24024 L469.250461,1765.1254 L469.250461,1765.32394 L469.208771,1766.40763 L469.192095,1766.85435 L469.175419,1767.44169 L469.175419,1767.50787 L469.158743,1768.02904 L469.150405,1768.61638 L527.841428,1768.61638 C527.482895,1762.1473 528.433425,1757.24999 530.693017,1753.92445 C532.960947,1750.59891 536.896472,1748.93614 542.516269,1748.93614 C545.776418,1748.93614 548.494599,1750.1522 550.670811,1752.57604 C552.838685,1754.99987 553.93096,1758.19305 553.93096,1762.1473 C553.93096,1767.17697 552.255026,1770.99886 548.903159,1773.60469 C545.551292,1776.21053 539.889806,1777.50931 531.918699,1777.50931 L521.863099,1777.50931 L521.863099,1827.83084 L531.918699,1827.83084 C539.889806,1827.83084 545.551292,1829.13789 548.903159,1831.74372 C552.255026,1834.34955 553.93096,1838.16317 553.93096,1843.20111 C553.93096,1847.15536 552.838685,1850.34027 550.670811,1852.77238 C548.494599,1855.19622 545.776418,1856.41227 542.516269,1856.41227 C536.896472,1856.41227 532.960947,1854.7495 530.693017,1851.42396 C528.433425,1848.09843 527.482895,1843.20111 527.841428,1836.73203 L469.150405,1836.73203 L469.158743,1837.31938 L469.175419,1837.84054 L469.175419,1837.90672 L469.192095,1838.49407 L469.208771,1838.94078 L469.250461,1840.02448 L469.250461,1840.22302 L469.300489,1841.0999 L469.300489,1841.10818 L469.308827,1841.36462 L469.375531,1842.49795 L469.425558,1843.24248 L469.492262,1844.17727 L469.5006,1844.29308 L469.54229,1844.7398 L469.592318,1845.28578 L469.592318,1845.33542 L469.692374,1846.36948 L469.692374,1846.38602 L469.750739,1846.93201 L469.800767,1847.39526 L469.809105,1847.46972 L470.000879,1849.08285 L470.042569,1849.41375 L470.067583,1849.61229 L470.142624,1850.14173 L470.184314,1850.40645 C470.317722,1851.37433 470.467806,1852.32567 470.634565,1853.26046 L470.642903,1853.34318 L470.717945,1853.77335 L470.818001,1854.27797 L470.818001,1854.30279 L470.909718,1854.79087 L471.001436,1855.25413 L471.009774,1855.28722 L471.201548,1856.19719 L471.218224,1856.28819 L471.326617,1856.78454 L471.401659,1857.13198 L471.618446,1858.05023 L471.660136,1858.25704 L471.776868,1858.73684 L471.835234,1858.96847 L471.901938,1859.22492 L472.027007,1859.69645 L472.068697,1859.87017 L472.543962,1861.59085 L472.560638,1861.65703 L472.67737,1862.06238 L472.819115,1862.52564 L472.819115,1862.53391 L472.960861,1862.9889 L473.094268,1863.40252 L473.102606,1863.44389 L473.561195,1864.80885 L473.661251,1865.10666 L474.194881,1866.58743 L474.269923,1866.7777 L474.361641,1867.0176 L474.528401,1867.45604 L474.586766,1867.59667 L474.703498,1867.89448 L474.878596,1868.31638 L475.053693,1868.74655 L475.237129,1869.17672 C478.655699,1877.17621 483.500064,1883.78593 489.803575,1889.03068 C494.147662,1892.63749 499.025378,1895.66522 504.436726,1898.1056 L415.187015,1898.1056 L415.187015,1802.9472 L385.562181,1898.1056 L333.941763,1898.1056 L304.316929,1802.9472 L304.316929,1898.1056 L244,1898.1056 L244,1707.23454 L317.907832,1707.23454 L360.298109,1821.81674 L401.596112,1707.23454 L504.436726,1707.23454 C499.025378,1709.6832 494.147662,1712.70265 489.803575,1716.31773 C483.099841,1721.89339 478.022013,1729.03254 474.586766,1737.75174 L474.528401,1737.8841 C474.019784,1739.19115 473.544519,1740.5313 473.102606,1741.89626 L473.094268,1741.94589 L472.819115,1742.8145 L472.819115,1742.82277 L472.560638,1743.69139 L472.543962,1743.74929 L472.068697,1745.47824 L472.027007,1745.64369 L471.901938,1746.1235 L471.835234,1746.37994 L471.776868,1746.6033 L471.660136,1747.09138 L471.618446,1747.29819 L471.618446,1747.29819 Z" id="Fill-4" fill="#FFFFFF"></path>
    </g>
  </g>
</svg>
