<?xml version="1.0" encoding="UTF-8"?>
<svg width="1595px" height="2143px" viewBox="0 0 1595 2143" version="1.1" xmlns="http://www.w3.org/2000/svg" xmlns:xlink="http://www.w3.org/1999/xlink">
    <title>Group 10</title>
    <defs>
        <path d="M112.082025,294.494582 C162.601113,184.408796 221.065437,100.194532 287.474995,41.8517884 C387.089333,-45.6623269 388.539963,29.2429126 431.61617,41.8517884 C474.692376,54.4606642 372.765577,485.105901 254.202024,531.228845 C175.159655,561.977474 90.4256474,522.685122 0,413.351788" id="path-1"/>
        <path d="M216.243715,0 C72.2248838,230.920448 0.215468084,405.101351 0.215468084,522.542709 C0.215468084,698.704746 -7.25790833,756.378652 65.8219142,898.605836 C114.541796,993.423958 181.541796,1058.47081 266.821914,1093.74638 C207.821423,1002.62419 178.321177,925.534427 178.321177,862.477106 C178.321177,767.891124 173.231393,468.826328 244.832475,349.536813" id="path-3"/>
        <path d="M522.893739,58.170056 C498.875492,21.0100718 497.620353,-15.8944646 378.554266,7.13659129 C259.48818,30.1676472 98.4250972,136.442974 55.0904428,219.605757 C11.7557883,302.76854 -67.8025301,456.916359 114.388926,648.289452 C296.580383,839.662545 596.650022,839.662545 784.832754,771.785102 C973.015486,703.90766 1039.39164,633.589942 1076.84716,457.487614 C1120.74747,226.170445 910.083311,44.0411277 694.109918,7.13659129 C539.828631,-4.1118234 549.836878,19.0132356 522.893739,58.170056 Z" id="path-5"/>
        <path d="M559.35238,91.6363598 C347.432948,130.995592 186.817254,229.082498 77.5052974,385.897078 C-31.8066589,542.711657 -25.4900305,706.840259 96.4551825,878.282884 C209.972033,1039.8664 405.102645,1129.10544 681.84702,1146 C933.884902,1143.01759 1131.53304,1073.52386 1274.79143,937.518817 C1430.5454,750.301166 1449.71301,562.398746 1332.29424,373.811557 C1227.74285,191.054405 1050.97754,99.6758296 801.998305,99.6758296 C783.166666,77.9621653 775.488928,44.7368888 778.965091,0 C743.947626,5.37312263 719.26217,28.7240327 704.908724,70.0527302 C665.576961,23.3509101 612.242267,0 544.904642,0 C550.004069,36.7618792 554.819981,67.3073325 559.35238,91.6363598 Z" id="path-7"/>
    </defs>
    <g id="Page-1" stroke="none" stroke-width="1" fill="none" fill-rule="evenodd">
        <g id="Group-10" transform="translate(12.000000, 8.000000)">
            <g id="Body" transform="translate(109.790680, 805.073178)">
                <path d="M219.20932,220.499478 L90.8915139,970.523166 L268.20932,1327.76725 C759.471082,1328.53978 1027.60635,1328.53978 1072.61514,1327.76725 C1087.22358,1156.71934 1173.12935,948.847038 1016.11324,568.926822 C1057.67237,557.244217 1112.75665,513.019128 1181.36609,436.251554 C1086.15712,324.120932 1029.36817,247.846021 1010.99925,207.426822 C992.630331,167.007623 728.700354,171.365175 219.20932,220.499478 Z" id="Path-22" fill="#3D3FAA"/>
                <path d="M217.631121,221.035698 C73.4686444,453.524121 1.3874059,628.489011 1.3874059,745.930369 C1.3874059,922.092406 3.09748047,981.480548 76.177303,1123.70773 C124.897185,1218.52585 170.030488,1253.66468 211.577213,1229.12421 C190.33146,1195.10726 179.708583,1146.57013 179.708583,1083.5128 C179.708583,988.926822 174.618799,689.862026 246.219881,570.572511" id="Path-10" stroke="#000000" stroke-width="15" fill="#3D3FAA"/>
                <g id="Group-9" transform="translate(1296.615420, 0.000000)" stroke="#2E2E2E" stroke-width="15">
                    <path d="M0,205.523166 C5.22102524,89.2231738 45.9939023,20.7154519 122.318631,0 C171.704804,0.645876646 181.709867,75.4790359 152.33382,224.499478 L0,205.523166 Z" id="Path-13" fill="#D8D8D8"/>
                    <path d="M84.6289543,205.523166 C96.2901129,71.0228442 112.929573,3.77268348 134.547336,3.77268348 C171.305487,10.3057458 177.666548,83.8813439 153.630519,224.499478 L84.6289543,205.523166 Z" id="Path-16" fill="#B1B1B1"/>
                </g>
                <path d="M1017.99925,209.426822 C1071.19986,312.464533 1116.41269,374.437938 1153.63772,395.347037" id="Path-20" stroke="#2E2E2E" stroke-width="15"/>
                <path d="M1122.08127,459.069616 C1172.60036,348.98383 1231.06469,264.769566 1297.47424,206.426822 C1397.08858,118.912707 1398.53921,193.817946 1441.61542,206.426822 C1484.69163,219.035698 1382.76483,649.680935 1264.20127,695.803879 C1185.15891,726.552508 1100.4249,687.260155 1009.99925,577.926822" id="Path-21" fill="#3D3FAA"/>
                <path d="M404.726054,1206.97797 C528.20932,1279.13825 701.643158,1312.62127 898.051702,1206.97797 C1043.89408,982.44633 973.22952,698.612728 860.176701,547.478807 C777.971902,448.533421 543.77501,429.062328 404.726054,547.478807 C245.885255,725.473501 281.242788,1134.8177 404.726054,1206.97797 Z" id="Path-11" fill="#494CCC"/>
                <g id="Path-19" transform="translate(1008.999250, 166.575034)">
                    <mask id="mask-2" fill="white">
                        <use xlink:href="#path-1"/>
                    </mask>
                    <use id="Mask" fill="#3D3FAA" xlink:href="#path-1"/>
                    <path d="M5.11398869,410.153558 C5.11398869,360.427838 123.892524,489.009387 172.366841,489.009387 C220.841158,489.009387 271.88536,457.818785 302.61617,403.351788 C333.34698,348.884792 423.245124,128.625898 423.245124,54.9244442 C423.245124,5.79014161 439.291624,25.6550146 471.384623,114.519063 L354.311139,457.818785 L238.249306,587.339862 L67.8192355,520.049687 C26.0157376,479.93608 5.11398869,443.304037 5.11398869,410.153558 Z" fill="#2E3082" mask="url(#mask-2)"/>
                </g>
                <path d="M1129.08127,457.069616 C1179.60036,346.98383 1238.06469,262.769566 1304.47424,204.426822 C1404.08858,116.912707 1405.53921,191.817946 1448.61542,204.426822 C1491.69163,217.035698 1389.76483,647.680935 1271.20127,693.803879 C1192.15891,724.552508 1107.4249,685.260155 1016.99925,575.926822" id="Path-21" stroke="#2E2E2E" stroke-width="15"/>
                <path d="M1072.61514,1327.76725 C1131.53932,1008.74451 1112.03869,756.131031 1014.11324,569.926822" id="Path-12" stroke="#2E2E2E" stroke-width="15"/>
                <g id="Path-24" transform="translate(1.387406, 221.035698)">
                    <mask id="mask-4" fill="white">
                        <use xlink:href="#path-3"/>
                    </mask>
                    <use id="Mask" fill="#3D3FAA" xlink:href="#path-3"/>
                    <path d="M236.740672,348.891124 C201.60091,360.547308 175.461078,396.519232 158.321177,456.806895 C132.611325,547.238391 123.887224,752.440589 130.745735,860.892384 C135.318075,933.193581 154.862418,954.753455 189.378762,925.572006 L236.740672,348.891124 Z" fill="#2E3082" mask="url(#mask-4)"/>
                </g>
                <path d="M217.631121,221.035698 C73.6122897,451.956146 1.60287399,626.137049 1.60287399,743.578407 C1.60287399,919.740444 -14.9235644,958.015207 58.1562581,1100.24239 C106.87614,1195.06051 175.579481,1268.57088 264.266281,1320.77349 C207.894482,1225.65702 179.708583,1146.57013 179.708583,1083.5128 C179.708583,988.926822 174.618799,689.862026 246.219881,570.572511" id="Path-10-Copy" stroke="#2E2E2E" stroke-width="15" stroke-linejoin="round"/>
                <g id="Group-8" transform="translate(67.209320, 1111.926822)" stroke="#2E2E2E" stroke-linejoin="round" stroke-width="15">
                    <path d="M118.854084,47.2978934 C84.2696721,55.2401412 19.5826781,29.2519828 3.59223962,2.69178747 C-12.3981989,-23.8684078 24.9661936,153.986422 116.283582,190.796124 C129.584004,197.413319 150.489476,198.736976 179,194.767095 C138.641094,137.938139 118.592456,88.7817385 118.854084,47.2978934 Z" id="Path-14" fill="#D8D8D8"/>
                    <path d="M64.1136953,42 C64.844995,110.512973 90.5767541,160.725854 141.308973,192.638644 C157.676274,198.629235 171.573283,200.918706 183,199.507057 C157.289087,143.25791 137.455753,93.6927612 123.5,50.8116123 C99.0849449,49.9687059 79.28951,47.0315018 64.1136953,42 Z" id="Path-15" fill="#B1B1B1"/>
                </g>
            </g>
            <g id="Group" transform="translate(-0.000000, 0.000000)">
                <path d="M555.379707,97.5168929 C344.965384,136.395297 185.490427,233.283934 76.9548336,388.182803 C-31.5807593,543.081672 -25.3089934,705.205212 95.7701315,874.553425 C208.480754,1034.16297 402.225496,1122.31183 677.004356,1139 C927.252197,1136.05402 1123.49658,1067.40926 1265.73751,933.065707 C1420.38528,748.135183 1439.41675,562.528256 1322.83192,376.244924 C1219.02309,195.720407 1043.51321,105.458149 796.302295,105.458149 C777.604403,84.009748 769.981194,51.1903648 773.432669,7 C738.663907,12.3074824 714.153774,35.3731283 699.90227,76.1969377 C660.849852,30.0656459 607.893956,7 541.034581,7 C546.09779,43.3127812 550.879498,73.4850789 555.379707,97.5168929 Z" id="Path-5" fill="#3D3FAA"/>
                <path d="M687.04551,270.241606 C663.027008,233.035914 661.771856,196.085985 542.704509,219.145369 C423.637163,242.204754 262.572375,348.6108 219.237262,431.875875 C175.902149,515.140949 96.3429889,669.478372 278.536374,861.086856 C460.729758,1052.69534 760.802573,1052.69534 948.987297,984.734408 C1137.17202,916.773475 1203.54888,846.369265 1241.0048,670.050329 C1284.90557,438.448638 1074.23918,256.095299 858.263501,219.145369 C703.980581,207.883119 713.988934,231.036622 687.04551,270.241606 Z" id="Path-6" stroke="#2E2E2E" stroke-width="30" fill="#EEF2FF" stroke-linecap="round" stroke-linejoin="round"/>
                <g id="Group-7" transform="translate(164.151966, 213.000000)">
                    <mask id="mask-6" fill="white">
                        <use xlink:href="#path-5"/>
                    </mask>
                    <use id="Mask" fill="#EEF2FF" xlink:href="#path-5"/>
                    <g mask="url(#mask-6)" fill="#8E85FF" id="Path-7">
                        <g transform="translate(-65.533929, 157.260780)">
                            <path d="M6.38196292,164.133393 C184.74117,42.1559642 316.74117,9.84591154 402.381963,67.203235 C530.843152,153.23922 458.167805,291.6209 357.381963,336.072577 C256.596121,380.524255 151.982247,385.075148 99.1699366,485.121993 C16.2849914,414.840179 -14.6443331,307.843979 6.38196292,164.133393 Z"/>
                            <path d="M738.381963,144.133393 C916.74117,22.1559642 1048.74117,-10.1540885 1134.38196,47.203235 C1262.84315,133.23922 1190.1678,271.6209 1089.38196,316.072577 C988.596121,360.524255 883.982247,365.075148 831.169937,465.121993 C748.284991,394.840179 717.355667,287.843979 738.381963,144.133393 Z" transform="translate(967.595768, 242.404004) scale(-1, 1) rotate(5.000000) translate(-967.595768, -242.404004) "/>
                        </g>
                    </g>
                </g>
                <ellipse id="Oval" stroke="#1F2937" stroke-width="15" fill="#2E2E2E" cx="699.5" cy="636" rx="63" ry="47.5"/>
                <ellipse id="Oval" fill="#2E2E2E" cx="429.5" cy="561" rx="69.2295082" ry="82"/>
                <ellipse id="Oval" fill="#2E2E2E" cx="969.5" cy="552" rx="69.2295082" ry="82"/>
                <circle id="Oval" fill="#F9F9F9" cx="452.5" cy="529.5" r="22.5"/>
                <circle id="Oval" fill="#F9F9F9" cx="980.5" cy="529.5" r="22.5"/>
                <path d="M685,832.232198 C712.45566,868.341323 744.221769,880.46334 780.298325,868.598248 C834.413161,850.80061 805.043516,804 805.043516,804" id="Path-9" stroke="#2E2E2E" stroke-width="26" stroke-linecap="round" stroke-linejoin="bevel" transform="translate(749.000000, 838.500000) rotate(10.000000) translate(-749.000000, -838.500000) "/>
                <g id="Path-23">
                    <mask id="mask-8" fill="white">
                        <use xlink:href="#path-7"/>
                    </mask>
                    <g id="Mask"/>
                    <g id="Path-18" mask="url(#mask-8)">
                        <g transform="translate(-167.025447, 52.508035)">
                            <path d="M265.463878,275.794411 C219.769865,604.985256 263.728349,811.727877 397.339329,896.022276 C508.770763,990.45701 665.952363,1032.99143 868.884129,1023.62554 C1079.68626,1023.62554 1232.74609,1023.62554 1328.06364,1023.62554 C1423.38118,1023.62554 1488.45968,1007.41279 1523.29912,974.987296 L1128.60005,1208.23546 L306.851285,1164.01327 L0,696.271103 L150.844902,222.235458 L265.463878,275.794411 Z" id="Path-23" fill="#000000" opacity="0.107036409"/>
                            <path d="M985.044005,56.7273255 C1268.47316,90.1407922 1461.80031,230.229005 1565.02545,476.991965 C1668.25058,723.754925 1628.0648,570.33134 1444.46809,16.7212097 L985.044005,5.68434189e-14 L985.044005,56.7273255 Z" id="Path-8" fill="#484AC6"/>
                        </g>
                    </g>
                </g>
                <path d="M555.35238,92.6363598 C343.432948,131.995592 182.817254,230.082498 73.5052974,386.897078 C-35.8066589,543.711657 -29.4900305,707.840259 92.4551825,879.282884 C205.972033,1040.8664 401.102645,1130.10544 677.84702,1147 C929.884902,1144.01759 1127.53304,1074.52386 1270.79143,938.518817 C1426.5454,751.301166 1445.71301,563.398746 1328.29424,374.811557 C1223.74285,192.054405 1046.97754,100.67583 797.998305,100.67583 C779.166666,78.9621653 771.488928,45.7368888 774.965091,1 C739.947626,6.37312263 715.26217,29.7240327 700.908724,71.0527302 C661.576961,24.3509101 608.242267,1 540.904642,1 C546.004069,37.7618792 550.819981,68.3073325 555.35238,92.6363598 Z" id="Path-5" stroke="#2E2E2E" stroke-width="15"/>
            </g>
        </g>
    </g>
</svg>