<?xml version="1.0" encoding="UTF-8"?>
<svg width="142px" height="87px" viewBox="0 0 142 87" version="1.1" xmlns="http://www.w3.org/2000/svg" xmlns:xlink="http://www.w3.org/1999/xlink">
    <path d="M1,85 L1,56.6110985 C3.24741801,19.5370328 26.6594507,1 71.2360981,1 C115.812745,1 139.157862,19.5370328 141.271446,56.6110985 L141.271446,85 L121.660286,85 L121.660286,56.6110985 C119.786164,33.5370328 102.944643,21.8622598 71.1357232,21.5867793 C39.3268037,21.3112988 23.1879076,32.9860719 22.7190349,56.6110985 L22.7190349,85 L1,85 Z" id="A3" stroke="#DC002E" fill="#DC002E"></path>
    <path d="M27,85.3131562 L27,64.2520673 C26.3068764,39.4173558 41.1007066,27 71.3814907,27 C101.662275,27 116.802667,39.4173558 116.802667,64.2520673 L116.802667,85.3131562 L101.730066,85.3131562 L101.730066,64.2520673 C101.730066,50.2927932 91.613874,43.3131562 71.3814907,43.3131562 C51.1491073,43.3131562 41.5361895,50.2927932 42.5427373,64.2520673 L42.5427373,85.3131562 L27,85.3131562 Z" id="A2" stroke="#009534" fill="#009534"></path>
    <path d="M48,85.6554809 L48,64.4033472 C48.4539456,52.8011157 56.4985584,47 72.1338383,47 C87.7691183,47 95.5867582,52.8011157 95.5867582,64.4033472 L95.5867582,85.6554809 L85.622528,85.6554809 L85.622528,64.4033472 C85.622528,59.7895546 81.1262981,57.4826584 72.1338383,57.4826584 C63.1413785,57.4826584 58.7598414,59.7895546 58.9892269,64.4033472 L58.9892269,85.6554809 L48,85.6554809 Z" id="A1" stroke="#007BC0" fill="#007BC0"></path>
</svg>
