<svg xmlns="http://www.w3.org/2000/svg" xmlns:xlink="http://www.w3.org/1999/xlink" width="197" height="56" viewBox="0 0 197 56">
    <title>
        AFRY logotype
    </title>
    <g fill="none" fill-rule="evenodd">
        <path fill="#000" d="M108 42V14h22v3.254h-17.886l-.651.646v8.734l.651.646h14.46v3.007h-14.46l-.651.647V42zM97.264 42l-3.689-8.396H82.542l1.34-3.007h8.37l-5.396-11.959-.952.002L75.522 42H72l12.851-28h3.318L101 42zM160.831 41.958l-7.885-11.431h-7.618v-2.939h9.637c3.041 0 5.422-2.21 5.422-5.04 0-1.21-.479-2.375-1.348-3.284-1.527-1.515-3.386-1.72-5.002-1.72h-11.034l-.636.632v23.782h-3.383V14.606h15.053c3.369 0 5.862.89 7.62 2.721 1.355 1.428 2.071 3.248 2.071 5.262 0 3.569-2.418 6.432-6.31 7.481a7.75 7.75 0 01-.733.18l-.22.042 8.189 11.666h-3.823zM181.461 41.958V30.781l-11.433-16.175h3.882l8.865 12.672h.786l8.834-12.672h3.882l-11.433 16.175v11.177zM112.118 54.705h-2.49l-.485 1.152h-.992l2.292-5.22h.868l2.284 5.22h-.985l-.492-1.152zm-.354-.847l-.891-2.098-.885 2.098h1.776zM117.184 51.515v1.495h2.475v.848h-2.475v1.998h-.922v-5.187h3.736v.846zM126.64 50.669h1.969c.62 0 1.12.165 1.499.496.379.33.568.763.568 1.297 0 .57-.202 1.024-.607 1.365-.395.34-.925.51-1.591.51h-.915v1.52h-.923V50.67zm.923 2.83h1.015c.353 0 .639-.096.857-.286a.951.951 0 00.327-.751.834.834 0 00-.327-.687c-.218-.173-.504-.26-.857-.26h-1.015v1.984z"></path>
        <g transform="translate(132.878 48.297)">
            <path fill="#000" d="M1.004 3.058a2.643 2.643 0 011.93-.793c.748 0 1.39.265 1.922.793.533.529.8 1.165.8 1.907a2.6 2.6 0 01-.8 1.915 2.63 2.63 0 01-1.922.787 2.638 2.638 0 01-1.93-.787 2.596 2.596 0 01-.792-1.915c0-.747.265-1.383.792-1.907M2.942 6.81c.502 0 .925-.178 1.268-.534.343-.356.516-.794.516-1.312 0-.514-.173-.948-.516-1.305a1.698 1.698 0 00-1.268-.542c-.502 0-.928.181-1.276.542a1.808 1.808 0 00-.516 1.305c0 .518.172.956.516 1.312a1.7 1.7 0 001.276.534M2.127.74c.159 0 .292.05.4.153a.5.5 0 01.16.38c0 .153-.053.28-.16.382a.554.554 0 01-.4.153.56.56 0 01-.397-.153.5.5 0 01-.165-.382c0-.152.056-.279.165-.38a.56.56 0 01.397-.153m1.599 0c.158 0 .292.05.4.153a.5.5 0 01.16.38c0 .153-.053.28-.16.382a.555.555 0 01-.4.153.56.56 0 01-.396-.153.5.5 0 01-.166-.382c0-.152.056-.279.166-.38a.56.56 0 01.396-.153"></path>
        </g>
        <path fill="#000" d="M145.522 50.669l-2.091 3.44v1.748h-.938v-1.748l-2.099-3.44h1.023l1.537 2.54 1.546-2.54zM150.066 54.148h-1.03v1.708h-.923V50.67h2.145c.6 0 1.086.16 1.461.48.379.32.569.74.569 1.258 0 .383-.107.716-.32 1a1.736 1.736 0 01-.88.611l1.515 1.838h-1.123l-1.414-1.708zm-1.03-.847h1.191c.339 0 .615-.082.83-.244a.774.774 0 00.324-.65.775.775 0 00-.323-.647c-.216-.163-.492-.245-.83-.245h-1.192v1.786zM159.791 50.669l-2.091 3.44v1.748h-.938v-1.748l-2.099-3.44h1.023l1.537 2.54 1.546-2.54zM111.498 49.354a.9.9 0 00-.623-.22.9.9 0 00-.622.22c-.154.143-.231.336-.231.58 0 .239.077.432.23.58a.897.897 0 00.623.221.897.897 0 00.623-.221c.16-.143.239-.336.239-.58 0-.244-.08-.437-.239-.58m-.307.763c-.062.122-.167.178-.316.168-.143.01-.245-.046-.307-.168a.384.384 0 010-.366c.062-.123.164-.179.307-.168.149-.01.254.045.316.168a.384.384 0 010 .366"></path>
        <g>
            <path fill="#000" d="M49.077 10.332C39.114-1.3 21.535-2.714 9.815 7.172-1.906 17.06-3.332 34.502 6.63 46.134c9.963 11.63 27.54 13.046 39.262 3.158 11.721-9.885 13.146-27.328 3.184-38.96M11.57 9.224c9.563-8.066 23.5-7.781 32.714.124l-40.3 11.07a24.787 24.787 0 017.586-11.194M8.698 44.391c-4.694-5.481-6.58-12.408-5.803-19.045l13.562 6.875 2.192-1.854L4.906 23.39l.057-.448 39.067-10.73.304.355L19.313 33.67l7.39 19.471c-6.725-.309-13.311-3.272-18.005-8.75m20.276 7.096l-6.45-16.992L46.09 14.617l.304.356-16.967 36.531-.454-.016m15.162-4.246a25.066 25.066 0 01-12.354 5.626l17.502-37.685c6.377 10.299 4.415 23.993-5.148 32.059"></path>
        </g>
    </g>
</svg>
