<svg width="637px" height="151px" viewBox="0 0 637 151" version="1.1" xmlns="http://www.w3.org/2000/svg" xmlns:xlink="http://www.w3.org/1999/xlink">
  <g id="Page-1" stroke="none" stroke-width="1" fill="none" fill-rule="evenodd">
    <g id="Burkhalter_Holding_logo" transform="translate(0.000000, 0.430904)" fill="#181716" fill-rule="nonzero">
      <g id="Group-2">
        <path d="M50.9713165,0 C39.7440555,0 28.071756,0.483826098 16.155456,1.45658528 C14.7368489,1.57818018 14.2504693,1.94361337 14.1288744,3.11903072 L0.0218397567,91.6394677 C-0.0997551409,92.814885 0.269082715,93.1803182 1.56568964,93.3019131 C13.1172048,94.2341407 27.054412,94.7189395 38.2816742,94.7189395 C62.5195892,94.7189395 73.0201193,88.1949274 75.9789285,68.9829336 C78.2486999,55.1211153 75.045485,48.8406172 62.5212105,47.6246682 L62.6387522,47.2606942 C73.8254828,45.4773023 78.6082155,39.6021206 80.8779869,25.9024288 C83.8773277,6.93362478 75.5322699,0 50.9701006,0 L50.9713165,0 Z M227.204881,0.687781272 C226.029464,0.687781272 225.299895,1.4211201 225.1783,2.59653744 L211.110986,92.1698646 C210.867796,93.4668769 211.354176,94.0697849 212.527972,94.0697849 L229.714195,94.0697849 C230.889612,94.0697849 231.616344,93.4668769 231.859534,92.1698646 L237.210925,57.8367346 L251.761376,92.7794198 C252.126161,93.5900525 252.976515,94.0697849 254.151932,94.0697849 L272.391167,94.0697849 C275.633697,94.0697849 275.516561,92.4117979 274.908586,90.8715959 L258.331959,53.1740162 L280.378735,28.736279 C281.554153,27.3987351 281.798558,26.4643188 279.650382,26.4643188 L260.556335,26.4643188 C259.461981,26.4643188 258.530969,26.9142605 257.8014,27.6438299 L238.588596,49.3662719 L245.966569,2.63613685 C246.088164,1.4607195 245.605837,0.728312905 244.430825,0.728312905 L244.430825,0.687781272 L227.204881,0.687781272 Z M297.485922,0.687781272 C296.310504,0.687781272 295.580935,1.4211201 295.45934,2.59653744 L281.273269,92.1698646 C281.030079,93.4668769 281.516458,94.0697849 282.690254,94.0697849 L300.114398,94.0697849 C301.289815,94.0697849 302.019385,93.4668769 302.14098,92.1698646 L309.882927,43.7298215 L317.870495,43.7298215 C328.611378,43.7298215 329.345001,44.702905 326.832039,61.2803427 L321.923659,92.1698646 C321.680469,93.4668769 322.045254,94.0697849 323.221887,94.0697849 L340.527273,94.0697849 C341.70269,94.0697849 342.429422,93.4668769 342.672612,92.1698646 L348.633599,54.8364616 C352.321978,31.0038617 347.580182,25.8626673 323.95024,25.8626673 C320.748241,25.8626673 316.207483,26.099372 312.519104,26.4643188 L316.28733,2.63613685 C316.408925,1.4607195 315.926598,0.728312905 314.751586,0.728312905 L314.751586,0.687781272 L297.485922,0.687781272 Z M444.698035,0.729245133 C443.522618,0.729245133 442.793048,1.46165173 442.671453,2.63706908 L428.485382,92.2103962 C428.363787,93.5074085 428.846113,94.1182607 430.021125,94.1182607 L447.207754,94.1182607 C448.383171,94.1182607 449.109903,93.5074085 449.353093,92.2103962 L463.539164,2.63706908 C463.660759,1.46165173 463.178433,0.729245133 462.003421,0.729245133 L444.698035,0.729245133 Z M501.204805,7.82228083 C500.981881,7.76229401 500.705861,7.77080565 500.381608,7.86281246 L482.467031,12.4067733 C481.170019,12.7715579 480.564882,13.0096813 480.321692,14.3066935 L478.413868,26.9569808 L471.360553,26.9569808 C469.941946,26.9569808 469.091187,27.5627261 468.969592,28.7381434 L467.188633,40.288078 C466.945443,41.5850902 467.553417,42.1959424 468.850835,42.1959424 L475.904555,42.1959424 L470.307542,78.310235 C467.672986,94.1581033 476.718025,94.6416457 487.945287,94.6416457 C491.147286,94.6416457 494.749332,94.3161767 499.977913,93.343377 C501.315456,93.1001872 502.130548,92.4928207 502.495332,90.9526186 L504.395455,78.555654 C504.51705,77.3802367 503.913939,76.7665472 502.495332,76.7665472 L498.078195,76.7665472 C493.295462,76.7665472 491.384801,75.960981 492.235965,70.8134637 L496.779967,42.1959424 L507.031227,42.1959424 C508.368771,42.1959424 509.178999,41.5850902 509.422188,40.288078 L511.330012,28.7381434 C511.451607,27.5627261 510.840795,26.9569808 509.422188,26.9569808 L499.170522,26.9569808 L501.925458,9.7706364 C502.10785,8.79787722 501.87682,8.00370041 501.204805,7.82321305 L501.204805,7.82228083 Z M33.5394732,19.2138583 L45.6199251,19.2138583 C55.6312383,19.2138583 59.1951847,21.7290487 57.8981725,29.5921854 C56.6011603,37.5769171 52.4272127,39.5984322 41.3215454,39.5984322 L30.3415274,39.5984322 L33.5394732,19.2138583 Z M194.367774,25.8635995 C181.60031,25.8635995 171.105454,28.2549658 168.592493,44.1028341 L160.977004,92.1707968 C160.733815,93.4678091 161.220194,94.0707171 162.39399,94.0707171 L179.698971,94.0707171 C180.874388,94.0707171 181.60112,93.4678091 181.84431,92.1707968 L188.533651,49.7313404 C189.384815,44.6243547 191.651749,43.7782568 196.758735,43.7782568 L208.553845,43.7782568 C209.891389,43.7782568 210.704454,43.1645674 210.826049,41.98915 L212.85263,29.8296603 C213.09582,28.1678633 212.487846,27.5633746 211.190023,27.3201848 C206.285695,26.2258307 198.056152,25.9041311 194.367774,25.8635995 Z M394.437587,25.8633968 C385.885412,25.8633968 378.469745,26.3499791 370.728203,27.8901811 C369.552785,28.1333709 369.063163,28.3714943 368.819974,29.7901014 L366.91215,41.585455 C366.66896,43.0040621 367.033744,43.7307538 368.210783,43.7307538 L391.595508,43.7307538 C397.553658,43.7307538 400.312647,45.7583081 399.583077,50.7842306 L399.218293,53.1749484 L386.084828,53.3014071 C369.02101,53.3014071 359.738456,56.3795819 356.739115,73.3218043 C353.861369,93.3849624 364.115872,94.6800697 383.084676,94.6800697 C389.488674,94.6800697 400.111204,94.3189328 410.97369,92.1705942 C413.000272,91.6842146 413.930878,90.7542163 414.417258,88.36285 L420.861382,47.3404199 C422.887963,34.5729556 420.496597,25.9039285 394.436776,25.8633968 L394.437587,25.8633968 Z M552.589998,25.8635995 C527.663044,25.8635995 520.043503,32.6323821 515.74715,60.3154872 C511.329202,87.8364656 516.674919,94.6407135 541.601873,94.6407135 C549.829794,94.6407135 559.35716,94.1594003 566.166474,92.7407932 C567.220296,92.4976034 567.949866,92.1328187 568.193055,90.7142116 L570.100879,78.5547218 C570.222474,77.3793045 569.772573,76.765615 568.55703,76.765615 L546.75547,76.765615 C537.433194,76.765615 534.715954,75.7140218 536.012966,66.8781259 L573.219789,66.8781259 C575.854345,66.8781259 576.789409,66.1849539 577.154194,63.6719927 L577.756089,59.9909098 C582.052442,32.6725895 577.152168,25.9041311 552.589998,25.8635995 Z M617.765269,25.8635995 C605.038336,25.8635995 594.542264,28.2549658 592.029303,44.1028341 L584.405708,92.1707968 C584.162519,93.4678091 584.648898,94.0707171 585.822694,94.0707171 L603.135781,94.0707171 C604.35173,94.0707171 605.037931,93.4678091 605.281121,92.1707968 L611.970461,49.7313404 C612.821625,44.6243547 615.08856,43.7782568 620.195545,43.7782568 L631.990656,43.7782568 C633.3282,43.7782568 634.141264,43.1645674 634.262859,41.98915 L636.289441,29.8296603 C636.53263,28.1678633 635.924656,27.5633746 634.626833,27.3201848 C629.722506,26.2258307 621.494179,25.9041311 617.765269,25.8635995 Z M97.0918558,26.4652511 C95.8759069,26.4652511 95.0709487,27.0760628 94.8277589,28.373075 L88.9855293,65.5798572 C85.1755559,89.534052 90.0389465,94.6802723 113.668888,94.6802723 C124.288176,94.6802723 136.698151,93.9535807 144.439693,92.5349736 C145.736705,92.2917838 146.223085,92.048594 146.466275,90.5083919 L156.227102,28.373075 C156.470292,27.0760628 156.113614,26.4652511 154.936575,26.4652511 L137.504731,26.4652511 C136.329313,26.4652511 135.602581,27.0760628 135.359391,28.373075 L127.736202,76.8052144 L119.748633,76.8052144 C109.00775,76.8052144 108.160639,75.832131 110.795195,59.2546933 L115.69547,28.373075 C115.93866,27.0760628 115.45228,26.4652511 114.278484,26.4652511 L97.0918558,26.4652511 Z M549.708199,43.7782568 C556.598577,43.7782568 559.030475,46.1689746 557.814526,54.2753012 L537.794331,54.2753012 C539.131875,46.1689746 542.696227,43.7782568 549.708199,43.7782568 Z M27.9505664,54.9640552 L42.6590893,54.9640552 C51.9408332,54.9640552 55.5112647,57.5951256 54.3358473,65.5798572 C52.9983034,73.0782092 48.9463561,75.4673463 39.4214237,75.4673463 L24.7445143,75.4673463 L27.9505664,54.9640552 Z M386.045917,65.6985743 L397.11308,65.6985743 L395.324013,77.011034 C392.243609,77.7406034 386.736982,77.9847255 384.95359,77.9847255 C378.549592,77.9847255 376.846047,76.6877132 377.575617,71.9049806 C378.183591,67.7302224 380.087767,65.6985743 386.045917,65.6985743 Z" id="path30"></path>
        <path d="M489.401588,107.084249 C478.336453,107.084249 474.931796,110.977191 472.864682,124.231034 C470.797569,137.444347 472.986277,141.330317 483.97116,141.330317 C488.591766,141.330317 494.383331,140.924676 495.639812,138.979158 C495.84247,138.735968 495.883002,138.580732 496.004597,138.01337 L498.031178,125.165167 C498.07171,124.719319 497.913637,124.42895 497.469005,124.42895 L493.495283,124.42895 C493.049435,124.42895 492.768146,124.719157 492.727614,125.165167 L490.898827,136.390524 L484.73964,136.390524 C477.849263,136.390524 477.082404,133.634373 478.541543,124.231034 C480.041213,114.827696 481.657209,112.031945 488.547587,112.031945 L497.706925,112.031945 C498.152773,112.031945 498.401637,111.829692 498.482701,111.343232 L498.925711,108.540875 C499.047306,107.973432 498.804117,107.695709 498.2768,107.614646 C496.128623,107.249861 492.15855,107.084249 489.402399,107.084249 L489.401588,107.084249 Z M588.743809,116.409686 C585.582342,116.409686 583.071812,116.609101 579.180776,117.217157 C578.653865,117.29822 578.32799,117.584779 578.246927,118.11169 L573.299231,149.238727 C573.258699,149.765639 573.424879,149.96704 573.869105,149.96704 L577.882548,149.96704 C578.328396,149.96704 578.61009,149.725067 578.650622,149.238727 L579.988166,141.053243 C581.812089,141.296432 583.518876,141.330479 585.545458,141.330479 C593.732848,141.330479 596.124214,138.699409 597.704948,128.688095 C599.24515,119.041567 597.7013,116.45038 588.743809,116.409686 L588.743809,116.409686 Z M513.277557,116.450217 C509.953963,116.450217 505.737458,116.857115 504.886293,122.126227 L501.964773,140.44462 C501.924242,140.890468 502.090421,141.093774 502.535053,141.093774 L506.548496,141.093774 C506.953812,141.093774 507.236317,140.890306 507.276849,140.44462 L509.992063,123.456191 C510.316316,121.510673 511.20477,121.065433 513.839326,121.065433 L517.853173,121.065433 C518.299021,121.105965 518.627733,120.902496 518.668264,120.416319 L519.11168,117.748486 C519.192744,117.262107 518.986032,117.054706 518.581527,116.933111 C517.406109,116.608858 514.412443,116.450217 513.277557,116.450217 L513.277557,116.450217 Z M533.258436,116.490749 C524.42254,116.490749 522.070084,118.964476 520.489351,128.935257 C518.949149,138.865507 520.448819,141.332222 529.28431,141.332222 C538.120205,141.332222 540.473472,138.865507 542.013674,128.935257 C543.594408,118.923944 542.094737,116.450217 533.258436,116.490749 L533.258436,116.490749 Z M566.530448,116.649228 C566.0846,116.649228 565.804121,116.812165 565.723058,117.298382 L562.683185,136.677569 L557.616731,136.677569 C553.482505,136.677569 552.510962,136.347642 553.524252,129.822008 L555.550834,117.337941 C555.591366,116.892093 555.425186,116.688827 554.980554,116.688827 L551.006833,116.688827 C550.560985,116.688827 550.240785,116.851764 550.159722,117.337941 L548.053698,130.835299 C546.594559,140.03598 548.661672,141.332384 556.849062,141.332384 C559.483618,141.332384 563.45126,141.252537 566.815385,140.604071 C567.220702,140.482476 567.462675,140.443161 567.543739,139.875758 L571.11417,117.337941 C571.195234,116.851562 571.029054,116.688827 570.583611,116.688827 L570.583611,116.648296 L566.530448,116.649228 Z M532.530083,121.114071 C537.231752,121.114071 537.675573,122.652976 536.662283,128.935379 C535.648992,135.17725 534.79418,136.717128 530.051979,136.717128 C525.309778,136.717128 524.866767,135.17725 525.880058,128.935379 C526.893349,122.652976 527.828413,121.114071 532.530083,121.114071 Z M583.10748,121.114071 L588.21325,121.114071 C593.117578,121.114071 593.287,122.856607 592.314241,128.89582 C591.30095,135.218755 590.403579,136.677569 585.45872,136.677569 C583.999582,136.677569 582.176874,136.554758 580.677204,136.392632 L583.10748,121.114071 Z" id="path56"></path>
      </g>
    </g>
  </g>
</svg>
