
<svg width="798px" height="273px" viewBox="0 0 798 273" version="1.1" xmlns="http://www.w3.org/2000/svg" xmlns:xlink="http://www.w3.org/1999/xlink">
    <defs>
        <polygon id="path-6l-31--2vm-1" points="0 61.625 797.249 61.625 797.249 271.895 0 271.895"></polygon>
    </defs>
    <g id="Page-1" stroke="none" stroke-width="1" fill="none" fill-rule="evenodd">
        <g id="Group" transform="translate(0.060000, 0.105000)">
            <path d="M282.693,149.688 L277.686,149.688 C261.627,149.688 248.78,139.457 248.78,123.398 C248.78,106.986 261.627,96.748 277.686,96.748 L282.693,96.748 L282.693,61.451 L268.766,61.451 C236.289,61.451 208.451,87.748 208.451,123.398 C208.451,158.689 236.289,184.988 268.766,184.988 L282.693,184.988 L282.693,149.688" id="Fill-1" fill="#15A748"></path>
            <path d="M324.497,184.988 L324.497,137.512 C324.497,130.275 326.003,123.982 333.614,123.982 C340.621,123.982 341.23,130.275 341.23,137.512 L341.23,184.988 L373.555,184.988 L373.555,132.043 C373.555,104.158 359.404,94.631 343.701,94.631 C336.742,94.631 330.029,97.281 324.497,100.984 L324.491,0 L289.518,28.787 L289.635,184.988 L324.497,184.988" id="Fill-2" fill="#15A748"></path>
            <path d="M380.272,184.988 L414.094,184.988 L414.094,151.986 C414.094,132.57 423.467,125.26 438.138,124.756 L438.237,96.467 C427.878,96.602 417.338,102.996 413.514,108.92 L413.156,107.16 L413.156,96.748 L380.272,96.748 L380.272,184.988" id="Fill-3" fill="#15A748"></path>
            <polygon id="Fill-4" fill="#15A748" points="444.977 184.988 478.712 184.988 478.712 96.748 444.977 96.748"></polygon>
            <path d="M550.733,96.748 L513.799,96.748 C499.878,96.748 484.493,105.393 484.493,120.221 C484.493,144.924 517.69,146.273 517.69,155.311 C517.69,158.926 512.547,158.063 506.838,158.063 L485.424,158.063 L485.424,184.988 L522.362,184.988 C542.346,184.988 553.77,175.984 553.77,160.453 C553.77,135.75 518.628,131.049 518.628,124.32 C518.628,121.52 525.622,122.824 530.034,123.08 L550.733,123.08 L550.733,96.748" id="Fill-5" fill="#15A748"></path>
            <path d="M612.856,96.748 L591.446,96.748 L591.446,61.625 L557.899,61.625 L557.899,148.984 C557.899,174.219 571.461,184.988 591.086,184.988 L612.856,184.988 L612.856,155.691 L603.221,155.691 C594.299,155.691 591.446,153.043 591.446,143.16 L591.446,127.104 L612.856,127.104 L612.856,96.748" id="Fill-6" fill="#15A748"></path>
            <path d="M707.833,128.865 C701.762,108.748 685.702,94.631 659.651,94.631 C637.17,94.631 614.51,113.688 614.51,139.633 C614.51,167.158 633.958,187.104 661.438,187.104 C679.813,187.104 696.77,178.279 707.833,166.102 L687.665,145.986 C681.243,152.689 674.819,157.807 664.829,157.807 C653.053,157.807 645.913,148.777 645.913,137.838 C645.913,130.246 652.924,118.844 662.969,119.162 C672.405,119.465 673.323,121.572 674.844,124.586 L653.231,135.217 L663.401,153.043 L707.833,128.865" id="Fill-7" fill="#15A748"></path>
            <path d="M743.678,184.988 L743.678,137.512 C743.678,129.748 749.198,127.104 753.657,127.104 C758.12,127.104 761.34,129.748 761.34,137.512 L761.34,184.988 L795.77,184.988 L795.77,132.043 C795.77,111.57 781.497,97.473 753.657,97.473 C725.823,97.473 711.549,111.57 711.549,132.043 L711.549,184.988 L743.678,184.988" id="Fill-8" fill="#15A748"></path>
            <mask id="mask-6l-31--2vm-2" fill="white">
                <use xlink:href="#path-6l-31--2vm-1"></use>
            </mask>
            <g id="Clip-10"></g>
            <path d="M461.712,61.625 C470.28,61.625 477.227,68.498 477.227,76.973 C477.227,85.455 470.28,92.326 461.712,92.326 C453.136,92.326 446.191,85.455 446.191,76.973 C446.191,68.498 453.136,61.625 461.712,61.625" id="Fill-9" fill="#15A748" mask="url(#mask-6l-31--2vm-2)"></path>
            <polyline id="Fill-11" fill="#0C4631" mask="url(#mask-6l-31--2vm-2)" points="-0.06 271.895 41.521 237.979 797.249 237.979 755.295 271.895 -0.06 271.895"></polyline>
            <polyline id="Fill-13" fill="#0C4631" mask="url(#mask-6l-31--2vm-2)" points="202.633 229.496 244.208 195.584 999.94 195.584 957.989 229.496 202.633 229.496"></polyline>
        </g>
    </g>
</svg>
