<svg id="Vordergrund" xmlns="http://www.w3.org/2000/svg" viewBox="0 0 339.77 153.82"><defs><style>.cls-1,.cls-2{fill:#066a50;}.cls-2{fill-rule:evenodd;}.cls-3{fill:#71a934;}</style></defs><path class="cls-1" d="M48.79,279.69a15.21,15.21,0,0,0-.1-2.16h2.8a16.77,16.77,0,0,1,.1,2h.07a3.35,3.35,0,0,1,3.3-2.17c3.09,0,4.37,3,4.37,6.52,0,4.14-1.62,6.55-4.29,6.55a3.34,3.34,0,0,1-3.21-2h0v7.14h-3Zm5.31,8.47c1.66,0,2.24-1.65,2.24-4.18,0-2.93-.46-4.41-2.2-4.41s-2.36,1.95-2.36,4.33S52.46,288.16,54.1,288.16Z" transform="translate(-48.69 -141.7)"/><path class="cls-1" d="M61.74,271.75h3V290.2h-3Z" transform="translate(-48.69 -141.7)"/><path class="cls-1" d="M68.08,278.27a8.47,8.47,0,0,1,3.93-.94c3.86,0,4.75,1.92,4.75,5.1V288a16.26,16.26,0,0,0,.17,2.24h-2.7a6.6,6.6,0,0,1-.17-1.72h0a4,4,0,0,1-3.47,1.92,3.6,3.6,0,0,1-3.71-3.72c0-3.44,2.75-4.3,6.53-4.3H74v-.47a2.16,2.16,0,0,0-2.32-2.41,5.69,5.69,0,0,0-3.4,1.23ZM74,284H73.7c-2.56,0-4.07.54-4.07,2.39a1.81,1.81,0,0,0,1.9,1.94c1.78,0,2.44-1.35,2.44-3.62Z" transform="translate(-48.69 -141.7)"/><path class="cls-1" d="M79.29,279.62a18.17,18.17,0,0,0-.09-2.09H82c0,.64.09,1.3.09,1.94h0a3.62,3.62,0,0,1,3.3-2.14c2.83,0,3.67,2.14,3.67,4.7v8.17h-3v-7.6c0-2-.48-2.76-1.71-2.76-1.57,0-2.13,1.36-2.13,3v7.38h-3Z" transform="translate(-48.69 -141.7)"/><path class="cls-1" d="M100.68,289.59a9,9,0,0,1-3.71.81c-4,0-5.74-2.93-5.74-6.35,0-3.79,2-6.72,5.11-6.72,2.68,0,5,1.6,5,6.77v.59H94.13c0,2.16.84,3.47,3.15,3.47a4.85,4.85,0,0,0,3.26-1Zm-2.26-6.82c0-2.24-.73-3.37-2.08-3.37-1.56,0-2.21,1.7-2.21,3.37Z" transform="translate(-48.69 -141.7)"/><path class="cls-1" d="M103.39,279.62a17.93,17.93,0,0,0-.1-2.09h2.8c0,.64.09,1.3.09,1.94h0a3.62,3.62,0,0,1,3.3-2.14c2.83,0,3.67,2.14,3.67,4.7v8.17h-3v-7.6c0-2-.48-2.76-1.71-2.76-1.57,0-2.12,1.36-2.12,3v7.38h-3Z" transform="translate(-48.69 -141.7)"/><path class="cls-1" d="M124.73,271.75v7.6h0a3.36,3.36,0,0,1,3.21-2c2.68,0,4.29,2.41,4.29,6.55,0,3.52-1.27,6.52-4.36,6.52a3.33,3.33,0,0,1-3.3-2.17h-.08c0,.86,0,1.6-.09,2h-2.8a16.89,16.89,0,0,0,.1-2.16V271.75Zm2.36,16.41c1.74,0,2.19-1.48,2.19-4.41,0-2.53-.57-4.18-2.24-4.18s-2.31,1.8-2.31,4.26S125.33,288.16,127.09,288.16Z" transform="translate(-48.69 -141.7)"/><path class="cls-1" d="M135,278.27a8.4,8.4,0,0,1,3.93-.94c3.86,0,4.75,1.92,4.75,5.1V288a16.26,16.26,0,0,0,.17,2.24h-2.7a6.2,6.2,0,0,1-.17-1.72h0a4,4,0,0,1-3.47,1.92,3.61,3.61,0,0,1-3.72-3.72c0-3.44,2.75-4.3,6.54-4.3h.6v-.47a2.15,2.15,0,0,0-2.31-2.41,5.66,5.66,0,0,0-3.4,1.23Zm5.88,5.73h-.26c-2.56,0-4.08.54-4.08,2.39a1.82,1.82,0,0,0,1.91,1.94c1.78,0,2.43-1.35,2.43-3.62Z" transform="translate(-48.69 -141.7)"/><path class="cls-1" d="M156,288.11a18.28,18.28,0,0,0,.09,2.09h-2.8c0-.64-.09-1.3-.09-1.94l-.07,0,0,0a3.62,3.62,0,0,1-3.3,2.14c-2.82,0-3.67-2.14-3.67-4.7v-8.17h3v7.6c0,1.95.53,2.76,1.79,2.76,1.59,0,2-1.48,2-3.1v-7.26h3Z" transform="translate(-48.69 -141.7)"/><path class="cls-1" d="M167.6,289.59a9.13,9.13,0,0,1-3.71.81c-4,0-5.74-2.93-5.74-6.35,0-3.79,1.95-6.72,5.11-6.72,2.68,0,5,1.6,5,6.77v.59H161c0,2.16.85,3.47,3.16,3.47a4.89,4.89,0,0,0,3.26-1Zm-2.27-6.82c0-2.24-.72-3.37-2.07-3.37-1.57,0-2.22,1.7-2.22,3.37Z" transform="translate(-48.69 -141.7)"/><path class="cls-1" d="M170.3,279.62a18.17,18.17,0,0,0-.09-2.09H173c0,.64.1,1.3.1,1.94h.05a3.62,3.62,0,0,1,3.3-2.14c2.82,0,3.67,2.14,3.67,4.7v8.17h-3v-7.6c0-2-.49-2.76-1.72-2.76-1.56,0-2.12,1.36-2.12,3v7.38h-3Z" transform="translate(-48.69 -141.7)"/><path class="cls-1" d="M197.72,289.59a9.13,9.13,0,0,1-3.71.81c-4,0-5.74-2.93-5.74-6.35,0-3.79,1.95-6.72,5.11-6.72,2.68,0,5,1.6,5,6.77v.59h-7.19c0,2.16.84,3.47,3.16,3.47a4.84,4.84,0,0,0,3.25-1Zm-2.27-6.82c0-2.24-.72-3.37-2.07-3.37-1.57,0-2.22,1.7-2.22,3.37Z" transform="translate(-48.69 -141.7)"/><path class="cls-1" d="M200.66,272.14h3.09v3h-3.09Zm.05,5.39h3V290.2h-3Z" transform="translate(-48.69 -141.7)"/><path class="cls-1" d="M206.45,279.62a17.93,17.93,0,0,0-.1-2.09h2.8c0,.64.1,1.3.1,1.94h0a3.64,3.64,0,0,1,3.31-2.14c2.82,0,3.66,2.14,3.66,4.7v8.17h-3v-7.6c0-2-.48-2.76-1.71-2.76-1.57,0-2.12,1.36-2.12,3v7.38h-3Z" transform="translate(-48.69 -141.7)"/><path class="cls-1" d="M218.82,279.62a17.93,17.93,0,0,0-.1-2.09h2.7c0,.76.1,1.55.1,2.31h0a3.48,3.48,0,0,1,3.16-2.51,2.61,2.61,0,0,1,.5.08v2.85a3.15,3.15,0,0,0-.84-.12c-1.23,0-2.58.76-2.58,3.12v6.94h-3Z" transform="translate(-48.69 -141.7)"/><path class="cls-1" d="M227.21,272.14h3.09v3h-3.09Zm0,5.39h3V290.2h-3Z" transform="translate(-48.69 -141.7)"/><path class="cls-1" d="M241.44,289.88a8.38,8.38,0,0,1-2.94.52c-4.1,0-5.84-2.93-5.84-6.52s1.83-6.55,6-6.55a8.13,8.13,0,0,1,2.61.52l-.17,2.41a4.73,4.73,0,0,0-2.1-.61c-2.27,0-3.25,1.55-3.25,4.25,0,2.36,1.11,4.18,3.4,4.18a4.74,4.74,0,0,0,2.12-.61Z" transform="translate(-48.69 -141.7)"/><path class="cls-1" d="M243,271.75h3v7.4h.07a3.37,3.37,0,0,1,3.09-1.82c2.82,0,3.66,2.14,3.66,4.7v8.17h-3v-7.6c0-2-.48-2.76-1.71-2.76-1.57,0-2.12,1.36-2.12,3v7.38h-3Z" transform="translate(-48.69 -141.7)"/><path class="cls-1" d="M256.41,274.92l3-.93v3.54h2.49v2.24H259.4v6.57c0,1.35.48,1.74,1.35,1.74a2.28,2.28,0,0,0,1.14-.27V290a4.57,4.57,0,0,1-2,.42c-2.21,0-3.47-1-3.47-3.69v-6.94h-2v-2.24h2Z" transform="translate(-48.69 -141.7)"/><path class="cls-1" d="M272.67,289.59a9.14,9.14,0,0,1-3.72.81c-4,0-5.74-2.93-5.74-6.35,0-3.79,2-6.72,5.11-6.72,2.68,0,5,1.6,5,6.77v.59h-7.18c0,2.16.84,3.47,3.15,3.47a4.85,4.85,0,0,0,3.26-1Zm-2.27-6.82c0-2.24-.73-3.37-2.08-3.37-1.56,0-2.21,1.7-2.21,3.37Z" transform="translate(-48.69 -141.7)"/><path class="cls-1" d="M275.37,279.62a17.93,17.93,0,0,0-.1-2.09h2.8c0,.64.09,1.3.09,1.94h0a3.64,3.64,0,0,1,3.3-2.14c2.83,0,3.67,2.14,3.67,4.7v8.17h-3v-7.6c0-2-.48-2.76-1.71-2.76-1.57,0-2.12,1.36-2.12,3v7.38h-3Z" transform="translate(-48.69 -141.7)"/><path class="cls-2" d="M245.46,230.89h-16.1v14.6c-13,1.37-21.28-3.49-21.28-11.56,0-7.62,6.81-12.22,17.81-12.22a50.7,50.7,0,0,1,18.42,3.81V213.76a73.92,73.92,0,0,0-20.93-3c-21.54,0-36.32,9.59-36.32,23.51,0,9.79,9.06,22.53,34.83,22.53a148.35,148.35,0,0,0,23.57-2.1Z" transform="translate(-48.69 -141.7)"/><polygon class="cls-2" points="204.66 114.42 245.9 114.42 245.9 103.19 225.26 103.19 225.26 69.63 204.66 69.63 204.66 114.42"/><path class="cls-2" d="M299.34,256.12h37.79c11.08,0,18.47-5.45,18.47-12.74,0-5.78-4-9.52-12.93-11.88,6.25-2,9.42-5.13,9.42-9.33,0-5.19-4.84-10.84-19.79-10.84h-33ZM320,249.29V236.75h5.13c6.86,0,10.21,2.3,10.21,6,0,4.4-3.7,6.5-10.73,6.5Zm0-19.37V218.16h4.34c6.86,0,9.5,2.43,9.5,5.85,0,3.22-2.64,5.91-9.5,5.91Z" transform="translate(-48.69 -141.7)"/><path class="cls-3" d="M229.38,195.88V174l70-32.3s57,25.6,89.12,40.26V291.45H298.57V270.84h69.25V195.2l-68.48-30.86S229.35,195.88,229.38,195.88Z" transform="translate(-48.69 -141.7)"/></svg>