<svg xmlns="http://www.w3.org/2000/svg" xml:space="preserve" id="Ebene_1_Kopie" width="260.6" height="64.8" x="0" y="0" style="enable-background:new 0 0 260.6 64.8" version="1.1">
	<style>.st0{fill:#fff}</style>
    <path d="M169.1 59.8c0 1.2-1 2.2-2.2 2.2H162c-1.2 0-2.2-1-2.2-2.2V17.6c0-1.2 1-2.2 2.2-2.2h4.9c1.2 0 2.2 1 2.2 2.2v42.2zM258.9 26.6c0-6.5-5.3-13-13.7-13-3.9 0-6.2 1.2-7 2V3.4c0-1.2-1-2.2-2.2-2.2h-4.8c-1.2 0-2.2 1-2.2 2.2v46.2c0 9.8 9.3 14 15 14 5.3 0 15-4 15-14l-.1-23zm-9.4 22.8c0 3.1-2.5 5.7-5.7 5.7-3.1 0-5.7-2.5-5.7-5.7V27.9c0-3.1 2.5-5.7 5.7-5.7 3.1 0 5.7 2.5 5.7 5.7v21.5zM200.9 15.4c1.4 0 2.5.8 2.9 2.5l5.7 28.7h.2l6-28.7c.4-2.1 1.8-2.4 2.3-2.4h5.2c1.4 0 2.4 1.2 2.2 2.7L217 57c-1.7 6-6.5 5.7-6.6 5.7-1.6 0-5.4-.8-6.5-6.2L199 32.2h-.2l-4.9 24.3c-1.1 5.4-4.8 6.2-6.5 6.2-.1 0-5 .3-6.6-5.7l-8.3-38.9c-.2-1.5.8-2.7 2.2-2.7h5.2c.5 0 1.9.3 2.3 2.4l6 28.7h.2l5.7-28.7c.3-1.7 1.5-2.5 2.9-2.5h3.9v.1zM132.8 61.3h.9V53c1.3-1.4 2.3-2.1 3.6-2.1 1.8 0 2.5 1.1 2.5 3.4v6.9h.9v-7c0-2.8-1-4.2-3.3-4.2-1.5 0-2.6.9-3.8 2V44.8h-.9v16.5h.1zm-6.1.2c1.4 0 2.6-.6 3.5-1.5l-.5-.6c-.7.7-1.8 1.2-2.9 1.2-2.4 0-4-1.9-4-4.9 0-2.9 1.7-4.9 4-4.9 1.1 0 2 .5 2.7 1.1l.5-.6c-.7-.7-1.7-1.4-3.2-1.4-2.6 0-4.9 2.1-4.9 5.7-.1 3.8 2 5.9 4.8 5.9M118 47.7c.5 0 .8-.4.8-.9s-.4-.9-.8-.9c-.5 0-.8.4-.8.9 0 .6.3.9.8.9m-.5 13.6h.9V50.4h-.9v10.9zm-4 .2c.3 0 .5 0 .7-.2l-.2-.7h-.4c-.3 0-.5-.2-.5-.7v-15h-.9v14.9c0 1.2.5 1.7 1.3 1.7m-9.9-.8c-2.3 0-3.6-1.9-3.6-4.9 0-2.7 1.7-4.9 3.9-4.9 1.1 0 2.1.4 3.2 1.4v6.5c-1.2 1.3-2.3 1.9-3.5 1.9m-.1.8c1.5 0 2.7-.8 3.6-1.7h.1l.1 1.4h.8V44.9h-.9v6.5c-1.1-.9-2-1.4-3.3-1.4-2.6 0-4.8 2.2-4.8 5.7-.1 3.8 1.7 5.8 4.4 5.8m-15.6-.2h.9V53c1.3-1.4 2.3-2.1 3.6-2.1 1.8 0 2.5 1.1 2.5 3.4v6.9h.9v-7c0-2.8-1-4.2-3.3-4.2-1.5 0-2.6.9-3.7 2l-.1-1.7h-.8v11zm-8.9.2c1.5 0 2.6-.8 3.7-2.1l.1 1.8h.8V50.4h-.9v8c-1.3 1.6-2.2 2.3-3.6 2.3-1.8 0-2.5-1.1-2.5-3.4v-6.9h-.9v7c0 2.8 1.1 4.1 3.3 4.1m-14-6.4c.2-2.6 1.9-4.2 3.8-4.2 2 0 3.3 1.4 3.3 4.2H65zm4.1 6.4c1.6 0 2.6-.5 3.4-1.1l-.4-.6c-.8.5-1.7.9-2.9.9-2.5 0-4.1-2-4.1-4.8H73v-.8c0-3.2-1.6-5-4.1-5-2.4 0-4.7 2.2-4.7 5.7-.1 3.6 2.1 5.7 4.9 5.7m-11-.2h.9v-7.4c.8-2.1 2-2.8 3-2.8.4 0 .6 0 .9.1l.2-.8c-.3-.2-.7-.2-1.1-.2-1.3 0-2.4 1-3.1 2.3l-.1-2H58l.1 10.8zm-5.8 0h.9v-10h2.5v-.8h-2.5V48c0-1.6.5-2.5 1.7-2.5.4 0 .8.1 1.3.3l.3-.7c-.5-.2-1.1-.4-1.6-.4-1.7 0-2.7 1.1-2.7 3.2v2.5l-1.5.1v.7h1.5l.1 10.1zm-8.7-.6c-1.3 0-2.4-.6-2.4-2.2 0-1.8 1.5-2.8 6.1-3.3V59c-1.4 1.1-2.5 1.7-3.7 1.7m-.2.8c1.4 0 2.8-.8 3.9-1.7l.1 1.4h.8v-7c0-2.3-.9-4.2-3.4-4.2-1.8 0-3.3.8-4 1.4l.4.7c.7-.5 2-1.2 3.5-1.2 2.2 0 2.6 1.8 2.6 3.5-4.9.5-7.1 1.7-7.1 4.1.1 2.1 1.5 3 3.2 3m-20.7-.2h.9V53c1.2-1.4 2.3-2.1 3.3-2.1 1.7 0 2.5 1.1 2.5 3.4v6.9h.9V53c1.2-1.4 2.3-2.1 3.3-2.1 1.7 0 2.5 1.1 2.5 3.4v6.9h.9v-7c0-2.8-1.1-4.2-3.2-4.2-1.2 0-2.4.9-3.7 2.2-.4-1.4-1.2-2.2-3-2.2-1.2 0-2.5.9-3.4 2l-.1-1.7h-.8v11h-.1zM18 47.7c.5 0 .8-.4.8-.9s-.4-.9-.8-.9-.8.4-.8.9c0 .6.3.9.8.9m-.5 13.6h.9V50.4h-.9v10.9zm-4 .2c.3 0 .5 0 .7-.2l-.2-.7h-.4c-.3 0-.5-.2-.5-.7v-15h-.9v14.9c0 1.2.5 1.7 1.3 1.7m-11.7-.2h.9v-3l2.5-2.9 3.6 5.9h1l-4.1-6.6 3.5-4.3H8.1L2.7 57V44.9h-.9v16.4zM138.3 37c2.3 0 3.6-1.4 3.6-3.1 0-2.1-1.9-2.7-3.6-3.3-1.3-.5-2.5-1-2.5-2.2 0-1 .8-2 2.5-2 1.1 0 1.9.4 2.6.9l.5-.6c-.8-.7-1.9-1.1-3.1-1.1-2.3 0-3.5 1.3-3.5 2.9 0 1.9 1.7 2.5 3.4 3.1 1.3.5 2.7 1.1 2.7 2.4 0 1.2-.9 2.2-2.7 2.2-1.6 0-2.6-.5-3.5-1.3l-.5.6c1 1 2.3 1.5 4.1 1.5m-11.5 0c1.5 0 2.6-.8 3.7-2.1l.1 1.8h.8V25.9h-.9v8c-1.3 1.6-2.2 2.3-3.6 2.3-1.8 0-2.5-1.1-2.5-3.4v-6.9h-.9v7c0 2.8 1 4.1 3.3 4.1m-11.7-.8c-1.3 0-2.4-.6-2.4-2.2 0-1.8 1.5-2.8 6.1-3.3v3.8c-1.4 1.1-2.5 1.7-3.7 1.7m-.2.8c1.4 0 2.8-.8 3.9-1.7l.1 1.4h.8v-7c0-2.3-.9-4.2-3.4-4.2-1.8 0-3.3.8-4 1.4l.4.7c.7-.5 2-1.2 3.5-1.2 2.2 0 2.6 1.8 2.6 3.5-4.9.5-7.1 1.7-7.1 4.1.1 2.1 1.5 3 3.2 3m-14-.2h.9v-7.4c.8-2.1 2-2.8 3-2.8.4 0 .6 0 .9.1l.2-.8c-.3-.2-.7-.2-1.1-.2-1.3 0-2.4 1-3.1 2.3l-.1-2h-.8v10.8h.1zM92 37c1.5 0 2.6-.8 3.7-2.1l.1 1.8h.8V25.9h-.9v8c-1.3 1.6-2.2 2.3-3.6 2.3-1.8 0-2.5-1.1-2.5-3.4v-6.9h-.9v7c0 2.8 1.1 4.1 3.3 4.1m-7.2 0c.5 0 1.2-.2 1.8-.5l-.3-.7c-.5.2-1 .3-1.4.3-1.5 0-1.9-1-1.9-2.4v-7.1h3.2v-.8H83v-3.6h-.8l-.1 3.6-1.7.2v.7h1.7v7.1c0 1.9.6 3.2 2.7 3.2m-11.3-.8c-1.3 0-2.4-.6-2.4-2.2 0-1.8 1.5-2.8 6.1-3.3v3.8c-1.3 1.1-2.4 1.7-3.7 1.7m-.1.8c1.4 0 2.8-.8 3.9-1.7l.1 1.4h.8v-7c0-2.3-.9-4.2-3.4-4.2-1.8 0-3.3.8-4 1.4l.4.7c.7-.5 2-1.2 3.5-1.2 2.2 0 2.6 1.8 2.6 3.5-4.9.5-7.1 1.7-7.1 4.1 0 2.1 1.5 3 3.2 3M59 36.8h.9v-8.2c1.3-1.4 2.3-2.1 3.6-2.1 1.8 0 2.5 1.1 2.5 3.4v6.9h.9v-7c0-2.8-1-4.2-3.3-4.2-1.5 0-2.6.9-3.7 2l-.1-1.7H59v10.9zm-16.5 0h.9v-8.2c1.3-1.4 2.3-2.1 3.6-2.1 1.8 0 2.5 1.1 2.5 3.4v6.9h.9v-7c0-2.8-1-4.2-3.3-4.2-1.5 0-2.6.9-3.7 2l-.1-1.7h-.8v10.9zm-8.2-.6c-2.2 0-3.9-2-3.9-4.9s1.7-4.9 3.9-4.9 3.9 2 3.9 4.9c0 3-1.7 4.9-3.9 4.9m0 .8c2.6 0 4.9-2.1 4.9-5.7s-2.3-5.7-4.9-5.7-4.9 2.1-4.9 5.8c0 3.6 2.3 5.6 4.9 5.6m-11.4-.2H24l4-10.9h-1l-2.5 6.9c-.4 1-.7 2.2-1.1 3.1h-.1c-.4-1-.7-2.1-1.1-3.1l-2.5-6.9h-1l4.2 10.9z" class="st0"/>
</svg>