<?xml version="1.0" encoding="utf-8"?>
<!-- Generator: Adobe Illustrator 19.1.0, SVG Export Plug-In . SVG Version: 6.00 Build 0)  -->
<!DOCTYPE svg PUBLIC "-//W3C//DTD SVG 1.1//EN" "http://www.w3.org/Graphics/SVG/1.1/DTD/svg11.dtd">
<svg version="1.1" id="Ebene_1" xmlns="http://www.w3.org/2000/svg" xmlns:xlink="http://www.w3.org/1999/xlink" x="0px" y="0px"
	 width="101px" height="15px" viewBox="-858.5 547.214 101 15" style="enable-background:new -858.5 547.214 101 15;"
	 xml:space="preserve">
<style type="text/css">
	.st0{fill:#4B515D;}
</style>
<g>
	<polygon class="st0" points="-842.805,550.084 -844.733,557.158 -846.752,550.084 -850.01,550.084 -852.054,557.158 
		-853.815,550.084 -858,550.084 -854.454,561.511 -850.39,561.511 -848.442,555.448 -846.443,561.511 -842.379,561.511 
		-838.741,550.084 	"/>
	<path class="st0" d="M-826.64,556.698h-8.158c0.025,1.422,0.857,2.212,2.333,2.212c1.02,0,1.614-0.309,2.066-1.033l3.638,0.121
		c-0.69,2.429-2.781,3.801-5.871,3.801c-3.759,0-6.184-2.333-6.184-5.967c0-3.608,2.521-6.038,6.255-6.038
		c3.638,0,5.921,2.379,5.921,6.109L-826.64,556.698L-826.64,556.698z M-830.755,554.219c-0.142-1.175-0.736-1.706-1.902-1.706
		c-1.162,0-1.831,0.552-2.091,1.706H-830.755z"/>
	<path class="st0" d="M-820.527,550.084h2.4v2.789h-2.425l-0.046,3.897v0.243c0,1.346,0.163,1.66,0.924,1.66
		c0.452,0,0.882-0.146,1.882-0.602v3.057c-1.121,0.456-2.049,0.673-3.115,0.673c-1.76,0-3.044-0.698-3.475-1.923
		c-0.213-0.627-0.259-1.062-0.259-2.383v-0.263l0.046-4.357h-1.76v-2.789h1.857l0.025-2.459h3.968L-820.527,550.084z"/>
	<path class="st0" d="M-812.754,550.084h2.4v2.789h-2.421l-0.05,3.897v0.243c0,1.346,0.167,1.66,0.928,1.66
		c0.452,0,0.878-0.146,1.877-0.602v3.057c-1.116,0.456-2.045,0.673-3.115,0.673c-1.76,0-3.044-0.698-3.47-1.923
		c-0.213-0.627-0.263-1.062-0.263-2.383v-0.263l0.05-4.357h-1.76v-2.789h1.857l0.021-2.459h3.972L-812.754,550.084z"/>
	<path class="st0" d="M-798.513,553.692h-3.709c-0.025-0.82-0.477-1.179-1.497-1.179c-0.811,0-1.309,0.289-1.309,0.769
		c0,0.314,0.213,0.506,0.786,0.673l1.71,0.506c1.522,0.456,2.379,0.82,2.994,1.275c0.74,0.552,1.167,1.493,1.167,2.5
		c0,2.312-1.923,3.562-5.444,3.562c-3.542,0-5.469-1.346-5.469-3.851v-0.289h3.734c0.046,1.062,0.498,1.397,1.806,1.397
		c0.953,0,1.497-0.263,1.497-0.744c0-0.364-0.309-0.602-1.116-0.82c-2.973-0.84-3.755-1.154-4.516-1.756
		c-0.669-0.552-1.049-1.397-1.049-2.333c0-2.262,1.953-3.608,5.256-3.608C-800.177,549.795-798.513,551.07-798.513,553.692z"/>
	<path class="st0" d="M-792.132,550.084h2.4v2.789h-2.425l-0.046,3.897v0.243c0,1.346,0.167,1.66,0.928,1.66
		c0.452,0,0.878-0.146,1.877-0.602v3.057c-1.116,0.456-2.045,0.673-3.115,0.673c-1.76,0-3.044-0.698-3.47-1.923
		c-0.213-0.627-0.263-1.062-0.263-2.383v-0.263l0.05-4.357h-1.76v-2.789h1.852l0.025-2.438h3.972L-792.132,550.084z"/>
	<path class="st0" d="M-776.665,556.698h-8.158c0.025,1.422,0.857,2.212,2.333,2.212c1.02,0,1.614-0.309,2.066-1.033l3.638,0.121
		c-0.69,2.429-2.781,3.801-5.871,3.801c-3.759,0-6.184-2.333-6.184-5.967c0-3.608,2.521-6.038,6.255-6.038
		c3.638,0,5.921,2.379,5.921,6.109L-776.665,556.698L-776.665,556.698z M-780.78,554.219c-0.142-1.175-0.736-1.706-1.902-1.706
		s-1.831,0.552-2.091,1.706H-780.78z"/>
	<rect x="-775.311" y="550.084" class="st0" width="4.043" height="11.427"/>
	<path class="st0" d="M-769.795,550.084h3.926c0.188,0.385,0.234,0.531,0.284,0.962c0.949-0.866,1.877-1.204,3.232-1.204
		c2.141,0,3.78,1.058,4.16,2.718c0.167,0.698,0.192,1.037,0.192,2.551v6.402h-4.043v-5.942c0-2.07-0.309-2.601-1.497-2.601
		c-1.263,0-1.735,0.723-1.735,2.672v5.871h-4.043v-7.267C-769.319,551.551-769.344,551.334-769.795,550.084z"/>
</g>
</svg>
