
<svg width="2855px" height="1662px" viewBox="0 0 2855 1662" version="1.1" xmlns="http://www.w3.org/2000/svg" xmlns:xlink="http://www.w3.org/1999/xlink">
    <g id="Symbols" stroke="none" stroke-width="1" fill="none" fill-rule="evenodd">
        <g id="NewJobChallenge" transform="translate(-183.000000, -133.000000)">
            <path d="M3031.1,1622.72 C3015.43,1721.43 2930.38,1794.13 2830.45,1794.08003 L2254.89,1793.82 L1750.56,1793.58 L1735.42,1793.58 L1627.45,1793.54 L1613.52,1793.54 L1510.48,1793.5 L1492.86,1793.49 L1349.29,1793.43 L1323.98,1793.4 L1206.89,1793.34 L1189.4,1793.34 L1175.05,1793.33 L973.251,1793.23 L938.01,1793.22 L782.121,1793.15 L773.239,1793.15 L748.885,1793.14 L508.509,1793.02 C477.769,1793.01 448.007,1786.27 421.015,1773.88 C380.126,1755.12 345.601,1723.36 323.647,1682.28 C308.079,1653.14 291.294,1619.01 275.022,1580.88 C248.985,1519.83 224.261,1448.5 207.965,1370.82 C194.929,1308.73 187.289,1242.58 188.649,1174.39 C188.877,1162.15 189.413,1149.83 190.261,1137.46 C191.001,1126.73 191.968,1115.96 193.186,1105.15 C197.09,1070.4 203.573,1035.31 213.075,1000.14 C224.608,957.489 240.58,914.703 261.819,872.227 C287.056,821.74 319.755,771.696 361.252,722.88 C383.66,696.509 408.647,670.483 436.403,644.948 C933.831,187.441 1416.35,379.896 1485.29,379.896 C1817.63,379.896 1737.33,170.118 2105.34,138.028 C2883.65,70.148 2767.88,787.108 2767.87,787.144 C2767.87,787.168 2756.37,826.575 2752.83,841.247 C2748.04,860.969 2744.36,879.64 2741.71,897.345 C2741.51,898.694 2741.31,900.043 2741.12,901.392 C2740.38,906.526 2739.73,911.564 2739.2,916.53 C2735.18,951.902 2735.42,983.276 2739.05,1011.5 C2745.82,1064.32 2764.42,1106.08 2789.24,1142.19 C2805.8,1166.3 2825.14,1187.87 2845.58,1208.51 C2851.31,1214.3 2857.13,1220.02 2863.01,1225.7 C2870.6,1233.05 2878.27,1240.33 2885.95,1247.62 C2896.19,1257.35 2906.45,1267.11 2916.51,1277.08 C2918.67,1279.2 2920.82,1281.35 2922.96,1283.51 C2926.64,1287.21 2930.28,1290.95 2933.87,1294.73 C2948.69,1310.24 2962.83,1326.47 2975.63,1344.05 C2978.44,1347.86 2981.15,1351.74 2983.81,1355.68 C2986.93,1360.32 2989.94,1365.06 2992.86,1369.91 C3002.13,1385.31 3010.34,1401.79 3017.12,1419.69 C3037.04,1472.3 3044.67,1537.14 3031.1,1622.72" id="Fill-3" fill="#EBF3FA"></path>
            <path d="M1418.75,1483.9 L561.589,1355.31 L183.649,1174.39 C183.877,1162.15 184.413,1149.83 185.261,1137.46 C186.001,1126.73 186.968,1115.96 188.186,1105.15 C192.09,1070.4 198.573,1035.31 208.075,1000.14 C219.608,957.489 235.58,914.703 256.819,872.227 C256.819,872.227 449.284,792.32 532.507,792.32 C545.011,792.32 555.04,794.122 561.589,798.27 C610.52,829.259 748.146,1014.22 814.669,1014.22 C816.312,1014.22 817.9,1014.1 819.454,1013.87 C857.53,1008.23 889.779,976.236 927.509,976.236 C953.66,976.236 982.441,991.601 1017.63,1041.76 C1080.94,1132.02 1123.53,1179.49 1173.06,1179.49 C1190.77,1179.49 1209.37,1173.42 1230.13,1161.06 C1291.84,1124.32 1330.12,1075.34 1375.94,1075.34 C1388.62,1075.34 1401.87,1079.09 1416.36,1087.89 C1483.22,1128.48 1626.96,1360.08 1626.96,1360.08 L1418.75,1483.9" id="Fill-4" fill="#D6E6FB"></path>
            <g id="triarc-logo-(2)" transform="translate(1794.940000, 184.000000)" fill-rule="nonzero">
                <g id="arc" transform="translate(436.500000, 261.000000) scale(-1, 1) rotate(-180.000000) translate(-436.500000, -261.000000) ">
                    <g id="red" transform="translate(0.000000, 2.025099)" fill="#DC002E">
                        <path d="M125.06642,113.071028 L125.06642,113.549011 C125.06642,289.439621 241.44557,394.666109 436.496267,394.722343 C631.53293,394.666109 747.96822,289.439621 747.96822,113.549011 L747.96822,113.071028 L747.96822,0 L872.972468,0 L872.972468,113.071028 L872.986505,113.071028 C873.814625,227.463538 836.514068,326.005299 765.12718,398.096338 C725.496652,438.13442 676.398868,468.936188 619.391824,489.714378 C564.237527,509.775594 502.68283,519.974901 436.496267,519.974901 C370.344795,519.974901 308.818171,509.775594 253.607728,489.714378 C196.565593,468.936188 147.552026,438.13442 107.914479,398.096338 C36.4925043,326.005299 -0.801037377,227.463538 0.0130482136,113.071028 L0.0130482136,0 L125.06642,0 L125.06642,113.071028 Z" id="path158"></path>
                    </g>
                    <g id="green" transform="translate(158.090927, 1.618112)" fill="#009534">
                        <path d="M556.883671,99.2165589 L556.883671,99.2165589 C556.883671,308.439434 412.881755,362.908376 278.403237,362.908376 C143.903664,362.908376 0,308.453492 0,99.2165589 L0,0 L93.7251126,0 L93.7251126,99.2165589 C93.7251126,197.07649 162.817119,273.385025 278.403237,273.385025 C394.017427,273.385025 463.032235,197.006199 463.032235,99.2165589 L463.032235,0 L556.883671,0 L556.883671,99.2165589 Z" id="path162"></path>
                    </g>
                    <g id="blue" transform="translate(285.069328, 0.000000)" fill="#007BC0">
                        <path d="M151.426938,240.608063 C60.8809701,240.608063 0,179.833967 0,89.4108841 L0,0 L62.5021234,0 L62.5021234,89.4108841 C62.5021234,144.856879 95.7533087,177.957182 151.426938,177.957182 C207.114603,177.957182 240.393861,144.856879 240.393861,89.4108841 L240.393861,0 L302.881948,0 L302.881948,89.4108841 C302.881948,179.833967 241.99396,240.608063 151.426938,240.608063" id="path166"></path>
                    </g>
                </g>
            </g>
            <path d="M2254.93,708.622 C2254.93,708.622 2286.34,650.81 2360.75,650.81 C2364.89,650.81 2369.15,650.988 2373.56,651.365 C2373.56,651.365 2432.67,599.109 2512.38,599.109 C2546.92,599.109 2585.33,608.918 2624.48,637.052 C2624.48,637.052 2693.49291,703.974901 2693.49291,703.974901" id="Fill-11" fill="#F5FAFE"></path>
            <path d="M1885.82,1483.91 C1738.62,1483.91 1717.21,1357.69 1717.21,1357.69 C1717.21,1357.69 1902.55,1090.22 1929.05,1090.22 C1929.28,1090.22 1929.5,1090.24 1929.71,1090.28 C1951.74,1094.68 2008.92,1186.11 2037.32,1186.11 C2039.69,1186.11 2041.86,1185.47 2043.8,1184.09 C2068.87,1166.18 2173.83,802.09 2213.91,798.27 C2214.67,798.197 2215.44,798.161 2216.22,798.161 C2233.51,798.161 2254.12,815.723 2272.81,833.285 C2291.5,850.848 2308.28,868.411 2317.9,868.411 C2319.54,868.411 2320.96,867.905 2322.16,866.807 C2330.84,858.844 2369.96,777.08 2410.31,706.071 C2442.48,649.425 2475.45,599.619 2494.33,599.619 C2494.35,599.619 2494.36,599.619 2494.38,599.619 C2513.33,599.702 2539.16,640.746 2566.4,692.784 C2539.16,640.746 2513.33,599.702 2494.38,599.619 C2494.36,599.619 2494.35,599.619 2494.33,599.619 C2475.45,599.619 2442.48,649.425 2410.31,706.071 L2410.3,706.095 C2410.3,706.095 2470.59,642.916 2478.1,642.916 C2478.59,642.916 2478.86,643.195 2478.86,643.79 C2478.86,652.046 2479.46,676.466 2484.25,676.465 C2485,676.465 2485.85,675.865 2486.82,674.507 C2492.8,666.142 2502.09,648.461 2510.56,648.461 C2512.24,648.461 2513.89,649.161 2515.48,650.773 C2525.03,660.503 2566.4,692.796 2566.4,692.796 C2612.38,780.613 2662.35,899.72 2690.06,906.203 C2692.97,906.883 2695.98,907.194 2699.08,907.194 C2710.58,907.194 2723.35,902.929 2736.71,897.345 C2736.51,898.694 2736.31,900.043 2736.12,901.392 C2735.38,906.526 2734.73,911.564 2734.2,916.53 C2732.21,934.078 2731.26,950.642 2731.26,966.325 C2731.26,982.255 2732.22,997.277 2734.05,1011.5 C2740.82,1064.32 2759.42,1106.08 2784.24,1142.19 C2800.8,1166.3 2820.14,1187.87 2840.58,1208.51 C2800.69,1221.91 2742.48,1241.33 2674.13,1263.75 C2673.98,1244.05 2670.78,1130.22 2616.8,1128.58 C2615.92,1128.55 2615.03,1128.54 2614.14,1128.54 C2591.35,1128.54 2568.05,1137.23 2544.86,1145.91 C2521.67,1154.6 2498.59,1163.29 2476.22,1163.29 C2463.73,1163.29 2451.46,1160.58 2439.53,1153.65 C2434.37,1150.65 2428.33,1149.3 2421.6,1149.3 C2389.32,1149.3 2341.07,1180.43 2297.23,1211.56 C2253.38,1242.69 2213.95,1273.82 2199.32,1273.82 C2198.78,1273.82 2198.27,1273.78 2197.79,1273.69 C2169.14,1268.39 2240.77,1151.86 2236.49,1105.01 C2236.02,1099.86 2233.51,1097.56 2229.38,1097.56 C2195.9,1097.56 2056.55,1249.07 2043.8,1267.78 C2038.16,1276.05 2030.03,1279.54 2021.58,1279.54 C2008.56,1279.54 1994.8,1271.24 1988.29,1259.3 C1987.49,1257.84 1986.39,1257.16 1985.01,1257.16 C1967.84,1257.16 1909.5,1362.78 1909.5,1362.78 L1862.94,1411.5 L1970.38,1424.04 L2196,1413.29 L2505.76,1318.29 C2269.94,1393.6 1998.68,1475.3 1909.51,1482.88 C1901.27,1483.58 1893.38,1483.91 1885.82,1483.91" id="Fill-5" fill="#C0DAFC"></path>
            <path d="M2505.76,1318.29 C2565.31,1299.27 2622.61,1280.66 2674.13,1263.75 C2674.15,1265.62 2674.13,1266.65 2674.13,1266.65 L2505.76,1318.29" id="Fill-6" fill="#C0DAFC"></path>
            <path d="M1970.38,1424.04 L1862.94,1411.5 L1909.5,1362.78 C1909.5,1362.78 1967.84,1257.16 1985.01,1257.16 C1986.39,1257.16 1987.49,1257.84 1988.29,1259.3 C1994.8,1271.24 2008.56,1279.54 2021.58,1279.54 C2030.03,1279.54 2038.16,1276.05 2043.8,1267.78 C2056.55,1249.07 2195.9,1097.56 2229.38,1097.56 C2233.51,1097.56 2236.02,1099.86 2236.49,1105.01 C2240.77,1151.86 2169.14,1268.39 2197.79,1273.69 C2198.27,1273.78 2198.78,1273.82 2199.32,1273.82 C2213.95,1273.82 2253.38,1242.69 2297.23,1211.56 C2341.07,1180.43 2389.32,1149.3 2421.6,1149.3 C2428.33,1149.3 2434.37,1150.65 2439.53,1153.65 C2451.46,1160.58 2463.73,1163.29 2476.22,1163.29 C2498.59,1163.29 2521.67,1154.6 2544.86,1145.91 C2568.05,1137.23 2591.35,1128.54 2614.14,1128.54 C2615.03,1128.54 2615.92,1128.55 2616.8,1128.58 C2670.78,1130.22 2673.98,1244.05 2674.13,1263.75 C2622.61,1280.66 2565.31,1299.27 2505.76,1318.29 L2196,1413.29 L1970.38,1424.04" id="Fill-7" fill="#A6CBFD"></path>
            <path d="M2880.95,1247.62 C2880.95,1247.62 2103.87,1409.56 2022.79,1405.11 C2022.79,1405.11 2080.13,1348.14 2151.76,1345.75 C2223.38,1343.37 2254.42,1275.75 2337.99,1267.78 C2421.56,1259.8 2471.7,1277.71 2506.32,1259.8 C2540.94,1241.89 2580.34,1154.74 2661.52,1157.13 C2731.15,1159.19 2757.74,1157.72 2784.24,1142.19 C2805.44,1173.06 2831.21,1199.78 2858.01,1225.71 C2865.6,1233.05 2873.27,1240.33 2880.95,1247.62" id="Fill-8" fill="#80B4FF"></path>
            <path d="M1329.99,1332.9 L185.273,1137.54 L185.261,1137.46 C186.002,1126.73 186.968,1115.96 188.186,1105.15 C192.09,1070.4 198.572,1035.31 208.075,1000.14 C208.075,1000.14 330.155,975.564 389.249,1000.14 C448.343,1024.73 442.971,1064.12 489.53,1069.49 C536.077,1074.87 578.302,1070.38 613.317,1098.24 C648.343,1126.09 700.872,1145.99 754.188,1142.81 C807.515,1139.62 921.322,1126.89 965.899,1162.71 C1010.46,1198.52 1098.81,1276.51 1175.21,1275.32 C1251.62,1274.13 1293.98,1294.46 1306.53,1312.33 C1318.68,1329.64 1329.35,1332.73 1329.99,1332.9" id="Fill-9" fill="#AFCDFB"></path>
            <path d="M3032.58,1559 C3031.79,1578.9 3029.69,1600.07 3026.1,1622.72 C3010.43,1721.43 2925.39,1794.13 2825.45,1794.08003 L2249.89,1793.82 L1745.56,1793.58 L1730.42,1793.58 L1622.45,1793.54 L1608.52,1793.54 L1505.48,1793.5 L1487.86,1793.49 L1344.29,1793.43 L1318.98,1793.4 L1201.89,1793.34 L1184.4,1793.34 L1170.05,1793.33 L968.251,1793.23 L933.009,1793.22 L768.239,1793.15 L743.885,1793.14 L503.509,1793.02 C472.769,1793.01 443.007,1786.27 416.015,1773.88 C375.126,1755.12 340.601,1723.36 318.647,1682.28 C278.14,1606.46 229.444,1497.01 202.965,1370.83 C197.606,1345.29 193.165,1319.08 189.881,1292.32 C184.473,1248.4 182.217,1203.01 184.187,1156.76 C184.927,1139.67 186.24,1122.45 188.186,1105.15 C300.895,1103.63 598.585,1112.38 952.887,1224.99 C1405.64,1368.9 1823.26,1461.39 2127.71,1386.17 C2380.94,1323.61 2695.44,1246.14 2880.95,1247.62 C2891.19,1257.35 2901.45,1267.11 2911.51,1277.08 C2913.67,1279.2 2915.82,1281.35 2917.96,1283.51 C2921.64,1287.21 2925.28,1290.95 2928.87,1294.73 C2943.69,1310.24 2957.83,1326.47 2970.63,1344.05 C2973.44,1347.86 2976.15,1351.74 2978.81,1355.68 C2981.93,1360.32 2984.94,1365.06 2987.86,1369.91 C2997.13,1385.31 3005.34,1401.79 3012.12,1419.69 C3026.76,1458.38 3034.77,1503.69 3032.58,1559" id="Fill-10" fill="#BFE2A8"></path>
            <path d="M2217.49,721.778 L1517.93,714.622 C1517.93,714.622 1549.34,656.81 1623.75,656.81 C1627.89,656.81 1632.15,656.988 1636.56,657.365 C1636.56,657.365 1695.67,605.109 1775.38,605.109 C1809.92,605.109 1848.33,614.918 1887.48,643.052 C1887.48,643.052 1924.33,636.881 1974.01,636.881 C2020.36,636.881 2077.87,642.25 2127.08,663.013 C2195.04,691.693 2217.49,721.778 2217.49,721.778" id="Fill-11" fill="#F5FAFE"></path>
            <path d="M1663.15,798.271 L1070.59,793.236 C1070.59,793.236 1097.19,752.571 1160.22,752.571 C1163.73,752.571 1167.33,752.696 1171.07,752.961 C1171.07,752.961 1221.14,716.203 1288.66,716.203 C1317.92,716.203 1350.45,723.103 1383.61,742.892 C1383.61,742.892 1414.82,738.552 1456.9,738.552 C1496.16,738.552 1544.88,742.329 1586.56,756.934 C1644.13,777.108 1663.15,798.271 1663.15,798.271" id="Fill-12" fill="#F5FAFE"></path>
            <path d="M1125.07,592.444 L703.014,587.409 C703.014,587.409 721.959,546.744 766.856,546.744 C769.352,546.744 771.922,546.869 774.58,547.134 C774.58,547.134 810.245,510.376 858.334,510.376 C879.176,510.376 902.346,517.276 925.968,537.065 C925.968,537.065 948.197,532.725 978.168,532.725 C1006.13,532.725 1040.83,536.502 1070.52,551.107 C1111.52,571.28 1125.07,592.444 1125.07,592.444" id="Fill-13" fill="#F5FAFE"></path>
            <path d="M1411.06,1383.53 C1411.06,1383.53 966.691,1333.05 786.823,1267.78 C606.954,1202.5 593.879,1221.69 637.425,1256.26 C680.971,1290.84 932.075,1372.55 828.011,1381.84 C723.948,1391.12 536.664,1363.82 466.083,1436.05 C395.503,1508.28 284.623,1573.2 466.083,1587.22 C647.544,1601.23 1177.44,1501.69 1177.44,1501.69 L1411.06,1383.53" id="Fill-14" fill="#DAED8E"></path>
            <path d="M1901.05,1305.17 C1901.05,1305.17 1965.52,1460.36 1972.68,1465.14 C1979.85,1469.91 2006.2,1475.96 2007.99,1483.13 C2009.78,1490.29 2050.96,1585.19 2050.96,1585.19 L1893.39,1615.63 L1768.04,1542.22 L1901.05,1305.17" id="Fill-15" fill="#A36F4B"></path>
            <path d="M2825.45,1794.08 L2350,1793.87 L2249.89,1793.82 L1745.56,1793.58 L1730.42,1793.58 L1622.45,1793.54 L1608.52,1793.54 L1505.48,1793.5 L1487.86,1793.49 L1344.29,1793.43 L1318.98,1793.4 L1201.89,1793.34 L1184.4,1793.34 L1170.05,1793.33 L968.251,1793.23 L933.009,1793.22 L768.239,1793.15 L743.885,1793.14 L503.509,1793.02 C472.769,1793.01 443.007,1786.27 416.015,1773.88 C544.601,1714 936.197,1534.65 1246.84,1424.55 C1624.09,1290.84 1838.98,1219.21 1901.05,1305.17 C1963.13,1391.12 1736.31,1572.58 1860.46,1577.36 C1984.62,1582.13 2283.07,1543.93 2395.29,1565.42 C2507.29,1586.86 2495.62,1629.72 2526.44,1632.26 C2526.55,1632.27 2526.61,1632.27 2526.61,1632.27 C2557.65,1634.66 2796.42,1617.95 2825.07,1660.92 C2853.72,1703.9 2825.45,1794.08 2825.45,1794.08" id="Fill-16" fill="#D8A987"></path>
            <path d="M2410.3,706.095 L2410.31,706.071 C2442.48,649.425 2475.45,599.619 2494.33,599.619 C2494.35,599.619 2494.36,599.619 2494.38,599.619 C2513.33,599.702 2539.16,640.746 2566.4,692.784 L2566.4,692.796 C2566.4,692.796 2525.03,660.503 2515.48,650.773 C2513.89,649.161 2512.24,648.461 2510.56,648.461 C2502.09,648.461 2492.8,666.142 2486.82,674.507 C2485.85,675.865 2485,676.465 2484.25,676.465 C2479.46,676.466 2478.86,652.046 2478.86,643.79 C2478.86,643.195 2478.59,642.916 2478.1,642.916 C2470.59,642.916 2410.3,706.095 2410.3,706.095" id="Fill-17" fill="#EDF5FE"></path>
            <path d="M2152.17,909.454 C2152.17,909.454 2201.1,779.885 2226.57,783.864 C2252.04,787.844 2286.85,846.614 2286.85,846.614 C2286.85,846.614 2251.44,816.296 2244.87,826.444 C2238.31,836.591 2237.11,856.637 2225.77,846.614 C2214.43,836.591 2207.27,835.148 2201.3,846.614 C2195.33,858.08 2152.17,909.454 2152.17,909.454" id="Fill-18" fill="#F8FCFF"></path>
            <path d="M894.664,1651.37 C863.625,1689.58 672.614,1701.51 678.583,1728.97 C683.37,1750.97 771.665,1766.84 777.121,1793.15 L768.239,1793.15 L743.885,1793.14 L503.509,1793.02 C472.769,1793.01 443.007,1786.27 416.015,1773.88 C375.126,1755.12 340.601,1723.36 318.647,1682.28 C303.079,1653.14 286.294,1619.01 270.023,1580.88 C270.023,1580.88 351.477,1498.83 552.038,1530.93 C752.6,1563.03 780.404,1479.79 874.369,1505.73 C968.335,1531.67 992.557,1509.57 1027.18,1530.93 C1061.8,1552.29 895.858,1588.1 877.951,1604.81 C860.044,1621.53 925.704,1613.17 894.664,1651.37" id="Fill-19" fill="#509B67"></path>
            <path d="M374.522,1539.41 C374.522,1539.41 333.54,1441.3 372.298,1419.93 C411.056,1398.57 367.944,1504.17 384.509,1543.35 C392.712,1562.75 374.522,1539.41 374.522,1539.41" id="Fill-20" fill="#509B67"></path>
            <path d="M355.62,1563.48 C355.62,1563.48 305.104,1501.48 328.655,1477.36 C352.207,1453.23 343.376,1539.39 363.692,1564.11 C373.753,1576.35 355.62,1563.48 355.62,1563.48" id="Fill-21" fill="#509B67"></path>
            <path d="M392.818,1557.84 C392.818,1557.84 388.037,1460.46 428.595,1453.8 C469.153,1447.14 398.206,1525.34 400.289,1564.29 C401.32,1583.58 392.818,1557.84 392.818,1557.84" id="Fill-22" fill="#509B67"></path>
            <path d="M534.441,1656.09 C534.441,1656.09 528.859,1597.34 550.194,1592.29 C571.528,1587.23 545.503,1653.47 545.503,1653.47 L534.441,1656.09" id="Fill-23" fill="#82B378"></path>
            <path d="M550.357,1657.57 C550.357,1657.57 573.207,1611.36 593.709,1617.8 C614.211,1624.23 560.987,1660.91 560.987,1660.91 L550.357,1657.57" id="Fill-24" fill="#82B378"></path>
            <path d="M506.275,1659.33 C506.275,1659.33 529.356,1646.6 549.253,1649.78 C569.149,1652.96 572.333,1656.15 581.088,1659.33 C589.842,1662.52 600.587,1668.88 595.812,1671.67 C591.036,1674.45 551.242,1669.28 541.692,1671.67 C532.141,1674.06 482.167,1668.06 506.275,1659.33" id="Fill-25" fill="#82B378"></path>
            <path d="M958.608,1738.97 C958.608,1738.97 985.386,1614.24 1022.69,1643.49 C1060,1672.73 980.464,1701.53 958.608,1738.97" id="Fill-26" fill="#82B378"></path>
            <path d="M947.655,1745.83 C947.655,1745.83 935.414,1655.2 960.174,1650.77 C984.935,1646.34 947.971,1718.4 947.655,1745.83" id="Fill-27" fill="#82B378"></path>
            <path d="M922.422,1738.69 C922.422,1738.69 943.813,1728.31 959.379,1729.27 C974.945,1730.23 1016.84,1735.19 1013.01,1743.47 C1009.17,1751.76 967.252,1744.59 956.633,1745.94 C946.016,1747.29 910.951,1746.52 922.422,1738.69" id="Fill-28" fill="#82B378"></path>
            <path d="M2367.41,1650.67 C2367.41,1650.67 2366.62,1607.69 2386.51,1600.13 C2406.41,1592.57 2369.4,1639.53 2367.41,1650.67" id="Fill-29" fill="#509B67"></path>
            <path d="M2383.39,1644.55 C2383.39,1644.55 2398.58,1590.18 2426.46,1588.16 C2454.34,1586.14 2390.09,1631.28 2383.39,1644.55" id="Fill-30" fill="#509B67"></path>
            <path d="M521.086,1458.61 C529.091,1461.85 557.692,1459.23 558.618,1456.95 C559.544,1454.66 540.838,1432.87 532.833,1429.62 C524.828,1426.38 515.709,1430.24 512.465,1438.24 C509.221,1446.25 513.081,1455.37 521.086,1458.61" id="Fill-31" fill="#509B67"></path>
            <path d="M593.237,1472.26 C588.744,1479.64 586.713,1508.29 588.819,1509.57 C590.924,1510.85 615.454,1495.91 619.949,1488.54 C624.443,1481.16 622.107,1471.54 614.731,1467.04 C607.355,1462.55 597.732,1464.89 593.237,1472.26" id="Fill-32" fill="#509B67"></path>
            <path d="M554.69,1528.33 C562.919,1530.96 591.237,1526.16 591.987,1523.81 C592.736,1521.46 572.426,1501.16 564.198,1498.53 C555.969,1495.91 547.17,1500.45 544.544,1508.68 C541.919,1516.9 546.461,1525.7 554.69,1528.33" id="Fill-33" fill="#509B67"></path>
            <path d="M596.346,1556.06 C596.318,1555.41 593.153,1490.56 557.65,1457.08 L558.405,1456.28 C594.236,1490.07 597.418,1555.35 597.445,1556.01 L596.346,1556.06" id="Fill-34" fill="#509B67"></path>
            <path d="M823.281,1405.25 C815.509,1410.41 784.672,1413.8 783.2,1411.59 C781.727,1409.37 796.823,1382.27 804.595,1377.11 C812.367,1371.95 822.851,1374.06 828.011,1381.84 C833.171,1389.61 831.054,1400.09 823.281,1405.25" id="Fill-35" fill="#509B67"></path>
            <path d="M749.865,1435.27 C756.212,1442.1 764.541,1471.99 762.589,1473.8 C760.638,1475.61 731.454,1465.09 725.107,1458.25 C718.759,1451.42 719.155,1440.73 725.993,1434.38 C732.83,1428.03 743.517,1428.43 749.865,1435.27" id="Fill-36" fill="#509B67"></path>
            <path d="M802.756,1486.29 C794.614,1490.84 763.609,1491.88 762.309,1489.55 C761.009,1487.23 778.124,1461.36 786.266,1456.8 C794.408,1452.25 804.7,1455.16 809.254,1463.3 C813.808,1471.44 810.899,1481.73 802.756,1486.29" id="Fill-37" fill="#509B67"></path>
            <path d="M764.651,1524.62 C764.54,1523.92 753.902,1454.62 784.254,1411.53 L783.283,1410.84 C752.65,1454.33 763.366,1524.11 763.478,1524.81 L764.651,1524.62" id="Fill-38" fill="#509B67"></path>
            <path d="M669.71,1561.61 L667.432,1561.25 C658.46,1445.17 623.015,1361.88 622.518,1360.75 L624.592,1359.85 C625.087,1361 660.792,1444.84 669.71,1561.61" id="Fill-39" fill="#509B67"></path>
            <path d="M598.47,1349.06 C602.841,1354.02 623.309,1361.98 624.723,1360.73 C626.136,1359.49 620.773,1338.19 616.403,1333.24 C612.032,1328.28 604.474,1327.81 599.522,1332.18 C594.57,1336.55 594.099,1344.11 598.47,1349.06" id="Fill-40" fill="#FFFFFF"></path>
            <path d="M629.837,1331.8 C625.89,1337.1 622.305,1358.77 623.816,1359.89 C625.328,1361.02 645.068,1351.39 649.016,1346.09 C652.963,1340.8 651.869,1333.31 646.573,1329.36 C641.277,1325.41 633.784,1326.5 629.837,1331.8" id="Fill-41" fill="#FFFFFF"></path>
            <path d="M653.381,1354.84 C647.009,1353.1 625.529,1357.69 625.034,1359.51 C624.538,1361.33 640.72,1376.18 647.092,1377.92 C653.465,1379.66 660.039,1375.9 661.775,1369.52 C663.512,1363.15 659.754,1356.58 653.381,1354.84" id="Fill-42" fill="#FFFFFF"></path>
            <path d="M638.87,1383.57 C638.234,1376.99 626.329,1358.54 624.452,1358.72 C622.576,1358.9 614.426,1379.29 615.062,1385.87 C615.697,1392.44 621.542,1397.26 628.117,1396.62 C634.691,1395.99 639.505,1390.14 638.87,1383.57" id="Fill-43" fill="#FFFFFF"></path>
            <path d="M606.29,1382.16 C612.138,1379.08 624.735,1361.09 623.859,1359.42 C622.982,1357.75 601.019,1357.91 595.171,1360.98 C589.323,1364.05 587.071,1371.28 590.142,1377.13 C593.212,1382.97 600.441,1385.22 606.29,1382.16" id="Fill-44" fill="#FFFFFF"></path>
            <path d="M619.969,1358.8 C620.312,1356.66 622.331,1355.19 624.479,1355.53 C626.627,1355.88 628.09,1357.89 627.749,1360.04 C627.406,1362.19 625.387,1363.65 623.239,1363.31 C621.091,1362.97 619.627,1360.95 619.969,1358.8" id="Fill-45" fill="#F99746"></path>
            <path d="M669.059,1442.93 C662.56,1450.93 655.545,1484.46 657.827,1486.31 C660.107,1488.17 691.501,1474.46 698.001,1466.47 C704.5,1458.48 703.29,1446.73 695.297,1440.23 C687.305,1433.73 675.558,1434.94 669.059,1442.93" id="Fill-46" fill="#509B67"></path>
            <path d="M878.233,1569.25 L880.511,1568.88 C889.483,1452.81 924.928,1369.51 925.425,1368.38 L923.351,1367.49 C922.856,1368.63 887.152,1452.48 878.233,1569.25" id="Fill-47" fill="#509B67"></path>
            <path d="M949.473,1356.7 C945.102,1361.65 924.634,1369.62 923.22,1368.37 C921.807,1367.12 927.169,1345.82 931.54,1340.87 C935.911,1335.92 943.469,1335.45 948.421,1339.82 C953.373,1344.19 953.844,1351.75 949.473,1356.7" id="Fill-48" fill="#FFFFFF"></path>
            <path d="M918.106,1339.44 C922.053,1344.73 925.638,1366.4 924.127,1367.53 C922.615,1368.65 902.875,1359.03 898.927,1353.73 C894.98,1348.43 896.074,1340.94 901.37,1336.99 C906.666,1333.05 914.159,1334.14 918.106,1339.44" id="Fill-49" fill="#FFFFFF"></path>
            <path d="M894.562,1362.48 C900.934,1360.74 922.414,1365.33 922.909,1367.15 C923.405,1368.96 907.223,1383.82 900.851,1385.55 C894.478,1387.29 887.904,1383.53 886.168,1377.16 C884.431,1370.79 888.189,1364.21 894.562,1362.48" id="Fill-50" fill="#FFFFFF"></path>
            <path d="M909.073,1391.2 C909.709,1384.63 921.614,1366.17 923.491,1366.35 C925.367,1366.53 933.517,1386.93 932.881,1393.5 C932.246,1400.08 926.401,1404.89 919.826,1404.26 C913.252,1403.62 908.438,1397.78 909.073,1391.2" id="Fill-51" fill="#FFFFFF"></path>
            <path d="M941.653,1389.79 C935.805,1386.72 923.208,1368.73 924.084,1367.06 C924.961,1365.39 946.924,1365.54 952.772,1368.61 C958.62,1371.68 960.872,1378.91 957.801,1384.76 C954.731,1390.61 947.502,1392.86 941.653,1389.79" id="Fill-52" fill="#FFFFFF"></path>
            <path d="M927.974,1366.44 C927.631,1364.29 925.613,1362.83 923.464,1363.17 C921.316,1363.51 919.853,1365.53 920.195,1367.68 C920.537,1369.83 922.556,1371.29 924.704,1370.95 C926.852,1370.61 928.316,1368.59 927.974,1366.44" id="Fill-53" fill="#F99746"></path>
            <path d="M878.884,1450.57 C885.383,1458.56 892.398,1492.09 890.117,1493.95 C887.836,1495.8 856.442,1482.1 849.943,1474.11 C843.443,1466.11 844.653,1454.37 852.646,1447.87 C860.638,1441.37 872.385,1442.58 878.884,1450.57" id="Fill-54" fill="#509B67"></path>
            <path d="M2183.31,1533.73 C2193.79,1538.35 2231.83,1536.03 2233.15,1533.04 C2234.47,1530.05 2210.55,1500.39 2200.06,1495.76 C2189.58,1491.14 2177.33,1495.88 2172.71,1506.37 C2168.08,1516.85 2172.83,1529.1 2183.31,1533.73" id="Fill-55" fill="#509B67"></path>
            <path d="M2278.43,1554.75 C2272.17,1564.35 2268.32,1602.26 2271.06,1604.04 C2273.8,1605.83 2306.93,1587.01 2313.19,1577.42 C2319.45,1567.82 2316.74,1554.96 2307.14,1548.71 C2297.54,1542.45 2284.69,1545.15 2278.43,1554.75" id="Fill-56" fill="#509B67"></path>
            <path d="M2225.04,1627.53 C2235.85,1631.35 2273.59,1626.14 2274.68,1623.06 C2275.77,1619.97 2249.66,1592.22 2238.86,1588.41 C2228.05,1584.59 2216.2,1590.26 2212.39,1601.06 C2208.57,1611.87 2214.24,1623.72 2225.04,1627.53" id="Fill-57" fill="#509B67"></path>
            <path d="M2279.15,1665.99 C2279.14,1665.12 2277.58,1579.02 2231.86,1533.18 L2232.89,1532.15 C2279.03,1578.41 2280.6,1665.1 2280.61,1665.97 L2279.15,1665.99" id="Fill-58" fill="#509B67"></path>
            <path d="M2349.65,1668.55 L2347.66,1668.24 C2339.81,1566.65 2308.78,1493.75 2308.35,1492.76 L2310.16,1491.98 C2310.6,1492.98 2341.85,1566.36 2349.65,1668.55" id="Fill-59" fill="#509B67"></path>
            <path d="M2287.3,1482.54 C2291.13,1486.87 2309.04,1493.84 2310.28,1492.75 C2311.52,1491.66 2306.82,1473.02 2303,1468.69 C2299.17,1464.35 2292.56,1463.94 2288.22,1467.77 C2283.89,1471.59 2283.48,1478.21 2287.3,1482.54" id="Fill-60" fill="#FFFFFF"></path>
            <path d="M2314.75,1467.43 C2311.3,1472.07 2308.16,1491.03 2309.49,1492.02 C2310.81,1493 2328.09,1484.58 2331.54,1479.94 C2334.99,1475.31 2334.04,1468.75 2329.4,1465.29 C2324.77,1461.84 2318.21,1462.8 2314.75,1467.43" id="Fill-61" fill="#FFFFFF"></path>
            <path d="M2335.36,1487.59 C2329.78,1486.08 2310.98,1490.09 2310.55,1491.68 C2310.12,1493.27 2324.28,1506.27 2329.86,1507.79 C2335.43,1509.31 2341.19,1506.02 2342.71,1500.45 C2344.23,1494.87 2340.94,1489.12 2335.36,1487.59" id="Fill-62" fill="#FFFFFF"></path>
            <path d="M2322.66,1512.74 C2322.1,1506.98 2311.69,1490.83 2310.04,1490.99 C2308.4,1491.15 2301.27,1509 2301.82,1514.75 C2302.38,1520.5 2307.5,1524.72 2313.25,1524.16 C2319,1523.61 2323.22,1518.49 2322.66,1512.74" id="Fill-63" fill="#FFFFFF"></path>
            <path d="M2294.15,1511.5 C2299.27,1508.81 2310.29,1493.07 2309.52,1491.61 C2308.76,1490.14 2289.53,1490.28 2284.42,1492.97 C2279.3,1495.65 2277.33,1501.98 2280.02,1507.1 C2282.7,1512.22 2289.03,1514.19 2294.15,1511.5" id="Fill-64" fill="#FFFFFF"></path>
            <path d="M2306.12,1491.06 C2306.42,1489.18 2308.19,1487.9 2310.07,1488.2 C2311.95,1488.5 2313.23,1490.27 2312.93,1492.15 C2312.63,1494.03 2310.86,1495.31 2308.98,1495.01 C2307.1,1494.71 2305.82,1492.94 2306.12,1491.06" id="Fill-65" fill="#F99746"></path>
            <path d="M2349.08,1564.69 C2343.39,1571.69 2337.25,1601.03 2339.25,1602.65 C2341.25,1604.28 2368.72,1592.28 2374.41,1585.29 C2380.1,1578.29 2379.04,1568.01 2372.04,1562.33 C2365.05,1556.64 2354.77,1557.7 2349.08,1564.69" id="Fill-66" fill="#509B67"></path>
            <path d="M2825.45,1794.08 L2350,1793.87 C2352.4,1771.21 2395.44,1759.76 2391.45,1737.4 C2386.33,1708.75 2174.52,1698 2259.52,1661.45 C2343.01,1625.55 2520.1,1632.02 2526.44,1632.26 C2526.55,1632.27 2526.61,1632.27 2526.61,1632.27 C2557.65,1634.66 2796.42,1617.95 2825.07,1660.92 C2853.72,1703.9 2825.45,1794.08 2825.45,1794.08" id="Fill-67" fill="#509B67"></path>
            <path d="M1415.93,1533.74 C1415.93,1533.74 1418.85,1579.32 1427.67,1579.95 C1428.85,1580.04 1472.4,1579.94 1472.4,1579.94 L1528,1579.5 C1528,1579.5 1527.61,1566.1 1511.35,1563.3 C1495.09,1560.51 1467.86,1549.15 1457.97,1527.69 C1447.56,1505.11 1415.93,1533.74 1415.93,1533.74" id="Fill-68" fill="#AF5919"></path>
            <path d="M1698.87,1495.11 C1698.87,1495.11 1707.36,1539.98 1716.19,1539.53 C1717.37,1539.47 1760.58,1534.04 1760.58,1534.04 L1815.71,1526.79 C1815.71,1526.79 1813.68,1513.54 1797.2,1512.76 C1780.72,1511.98 1752.31,1504.04 1739.86,1483.95 C1726.77,1462.82 1698.87,1495.11 1698.87,1495.11" id="Fill-69" fill="#AF5919"></path>
            <path d="M1600.28,1043.45 C1600.28,1043.45 1585.94,1136.49 1532.05,1301.7 C1478.16,1466.92 1470.93,1538.43 1470.93,1538.43 L1412.73,1536.92 C1412.73,1536.92 1411.84,1356.49 1436.66,1273.41 C1461.48,1190.34 1441.4,974.1 1441.4,974.1 L1600.28,1043.45" id="Fill-70" fill="#163560"></path>
            <path d="M1616.07,958.999 C1616.07,958.999 1695.3,1119 1715.45,1245.66 C1735.61,1372.32 1751.47,1488.21 1751.47,1488.21 C1751.47,1488.21 1732,1495.37 1695.52,1498.53 C1695.52,1498.53 1633.78,1314.63 1627.23,1268.83 C1620.68,1223.03 1436.69,1039.93 1451.05,994.736 C1465.42,949.543 1616.07,958.999 1616.07,958.999" id="Fill-71" fill="#1C468A"></path>
            <path d="M1501.27,650.356 C1501.27,650.356 1419.45,728.908 1415.53,761.249 C1411.62,793.589 1455.23,844.073 1455.23,844.073 L1501.27,650.356" id="Fill-72" fill="#ED7D2B"></path>
            <path d="M1515.32,651.059 L1546.3,671.28 L1591.01,662.848 C1590.38,659.239 1587.39,644.283 1584.68,630.737 C1584.51,629.938 1584.35,629.139 1584.19,628.357 C1581.87,616.831 1579.86,606.929 1579.86,606.929 L1522.46,581.754 C1522.5,581.997 1523.7,594.55 1523.86,596.381 C1526.85,628.922 1515.32,651.059 1515.32,651.059" id="Fill-73" fill="#FFB27D"></path>
            <path d="M1579.5,640.683 C1578.64,640.319 1525.62,624.798 1519.86,626.711 C1514.11,628.625 1510.73,639.769 1510.73,639.769 L1597.44,659.174 C1597.44,659.174 1590.59,645.32 1579.5,640.683" id="Fill-74" fill="#ED7D2B"></path>
            <path d="M1437.6,996.505 C1446.67,1037.46 1596.15,1041.99 1634.6,1004.72 C1638.97,1000.47 1639.15,980.745 1637.44,954.156 C1634.09,902.208 1623.54,824.077 1623.05,784.148 C1622.81,764.867 1620.11,745.15 1616.55,727.25 C1608.95,689.097 1597.44,659.17 1597.44,659.17 C1597.44,659.17 1524.38,635.726 1510.73,639.771 C1444.96,659.25 1428.53,955.553 1437.6,996.505" id="Fill-75" fill="#F99746"></path>
            <path d="M1637.44,954.156 C1634.09,902.208 1632.28,816.432 1631.79,776.503 C1631.55,757.221 1620.11,745.15 1616.55,727.25 L1572.61,719.595 C1572.61,719.595 1530.05,895.069 1637.44,954.156" id="Fill-76" fill="#ED7D2B"></path>
            <path d="M1558.59,892.701 C1558.59,892.701 1608.35,849.224 1626.96,821.717 L1641.02,831.219 C1641.02,831.219 1601.79,896.879 1564.29,914.189 C1526.79,931.5 1558.59,892.701 1558.59,892.701" id="Fill-77" fill="#163560"></path>
            <path d="M1527,596.949 C1536.2,612.467 1570.41,625.828 1584.68,630.737 C1584.51,629.938 1584.35,629.139 1584.19,628.357 C1581.87,616.831 1579.86,606.929 1579.86,606.929 L1538.05,588.591 C1528.82,588.485 1523.2,590.563 1527,596.949" id="Fill-78" fill="#FCA56B"></path>
            <path d="M1594.05,602.436 C1594.05,602.436 1530.59,633.098 1512.11,593.284 C1493.62,553.471 1472.98,530.615 1512.71,509.354 C1552.45,488.095 1567.43,499.605 1576.84,511.394 C1586.24,523.182 1610.08,593.434 1594.05,602.436" id="Fill-79" fill="#FFB27D"></path>
            <path d="M1573.63,507.771 C1573.63,507.771 1576.59,556.86 1566.26,556.247 C1555.92,555.635 1546.6,555.428 1550.24,569.816 C1553.88,584.205 1570.29,599.005 1539.79,606.184 C1509.29,613.363 1453.04,540.321 1459.28,523.979 C1477.29,476.824 1601.11,449.425 1573.63,507.771" id="Fill-80" fill="#163560"></path>
            <path d="M1471.44,822.103 C1471.44,822.103 1463.85,823.017 1463.16,830.157 C1462.46,837.296 1457.67,924.222 1462.02,926.521 C1466.36,928.821 1484.43,927.891 1485.48,926.521 C1486.53,925.152 1490.44,829.76 1487.81,824.009 C1487.81,824.009 1479,820.593 1471.44,822.103" id="Fill-81" fill="#163560"></path>
            <path d="M1637.87,921.263 C1637.87,921.263 1648.35,929.036 1650.55,937.469 C1654.12,951.129 1651.84,963.906 1638.44,969.041 C1633.5,970.936 1632.82,959.2 1629.16,954.156 C1625.5,949.112 1612.43,946.324 1615.42,938.646 C1618.41,930.968 1624.26,915.961 1624.26,915.961 L1637.87,921.263" id="Fill-82" fill="#FFB27D"></path>
            <path d="M1620.43,925.791 C1620.43,925.791 1612.14,934.902 1611.29,940.768 C1610.43,946.634 1610.09,955.703 1609.9,959.572 C1609.71,963.44 1611.66,966.64 1615.24,960.336 C1618.82,954.032 1621.9,945.652 1624.33,945.663 C1626.77,945.673 1620.43,925.791 1620.43,925.791" id="Fill-83" fill="#FFB27D"></path>
            <path d="M1563.01,648.808 C1563.01,648.808 1615.04,658.007 1655.19,716.897 C1695.34,775.787 1710.21,813.449 1702.88,834.721 C1695.55,855.992 1658.98,921.942 1651.6,930.867 C1645.28,938.505 1626.96,937.96 1614.98,932.798 C1614.98,932.798 1638.2,834.674 1628.86,824.074 C1624.87,819.544 1573.37,776.052 1565.22,797.132 C1551.73,832.012 1563.01,648.808 1563.01,648.808" id="Fill-84" fill="#F99746"></path>
            <path d="M1607.46,668.851 C1607.46,668.851 1598.93,653.786 1578.72,650.778 C1558.52,647.771 1546.3,671.28 1546.3,671.28 L1561.41,677.018 C1561.41,677.018 1571.13,659.174 1579.92,659.174 C1591.01,659.174 1599.98,662.942 1607.46,668.851" id="Fill-85" fill="#163560"></path>
            <path d="M1574.71,741.052 C1574.71,741.052 1553.67,740.77 1526.7,740.14 C1479.28,739.053 1413.54,736.924 1411.85,733.48 C1409.21,728.07 1412.72,667.897 1428.93,663.552 C1430.34,663.171 1432.36,662.856 1434.87,662.618 C1461.05,660.108 1541.07,664.855 1559.54,670.798 C1579.75,677.316 1574.71,741.052 1574.71,741.052" id="Fill-86" fill="#163560"></path>
            <path d="M1526.7,740.14 C1479.28,739.053 1413.54,736.924 1411.85,733.48 C1409.21,728.07 1412.72,667.897 1428.93,663.552 C1430.34,663.171 1432.36,662.856 1434.87,662.618 C1465.84,663.964 1500.17,667.158 1511.46,670.798 C1530.26,676.859 1527.23,732.339 1526.7,740.14" id="Fill-87" fill="#1C468A"></path>
            <path d="M1574.71,741.048 C1574.71,741.048 1412.28,724.907 1384.15,734.296 C1356.02,743.685 1356.02,935.323 1364.81,948.509 C1373.6,961.695 1533.17,973.943 1555.8,966.94 C1578.43,959.937 1574.71,741.048 1574.71,741.048" id="Fill-88" fill="#1C468A"></path>
            <path d="M1526.73,736.823 C1526.73,736.823 1504.49,738.85 1502.45,754.673 C1500.41,770.497 1486.37,963.149 1499.1,968.246 C1511.84,973.342 1564.8,971.281 1567.88,968.246 C1570.95,965.211 1582.42,753.794 1574.71,741.048 C1574.71,741.048 1548.88,733.477 1526.73,736.823" id="Fill-89" fill="#163560"></path>
            <path d="M1426.01,684.31 C1426.01,684.31 1420.83,711.037 1427.51,715.108 C1434.2,719.179 1450.45,720.337 1454.49,715.571 C1458.52,710.804 1457.65,684.853 1457.65,684.853 L1426.01,684.31" id="Fill-90" fill="#163560"></path>
            <path d="M1426.01,684.31 C1426.01,684.31 1428.27,695.119 1440.95,695.337 C1453.62,695.554 1457.65,684.853 1457.65,684.853 C1457.65,684.853 1440.45,677.072 1426.01,684.31" id="Fill-91" fill="#29589B"></path>
            <path d="M1438.66,691.121 C1438.68,689.816 1439.76,688.777 1441.06,688.8 C1442.36,688.822 1443.4,689.897 1443.38,691.202 C1443.36,692.507 1442.28,693.546 1440.98,693.524 C1439.67,693.501 1438.63,692.426 1438.66,691.121" id="Fill-92" fill="#F99746"></path>
            <path d="M1473.85,687.564 C1473.85,687.564 1466.97,713.904 1473.38,718.396 C1479.79,722.887 1495.93,725.082 1500.27,720.584 C1504.6,716.086 1505.39,690.132 1505.39,690.132 L1473.85,687.564" id="Fill-93" fill="#163560"></path>
            <path d="M1473.85,687.564 C1473.85,687.564 1475.42,698.497 1488.05,699.525 C1500.69,700.553 1505.39,690.132 1505.39,690.132 C1505.39,690.132 1488.73,681.266 1473.85,687.564" id="Fill-94" fill="#29589B"></path>
            <path d="M1486.04,695.171 C1486.14,693.871 1487.28,692.902 1488.58,693.008 C1489.88,693.114 1490.85,694.254 1490.75,695.555 C1490.64,696.855 1489.5,697.823 1488.2,697.718 C1486.9,697.612 1485.93,696.472 1486.04,695.171" id="Fill-95" fill="#F99746"></path>
            <path d="M1381.07,756.871 C1381.07,756.871 1374.04,781.704 1378,788.188 C1381.95,794.671 1471.18,799.066 1476.89,793.792 C1482.61,788.518 1483.49,759.948 1483.49,759.948 L1381.07,756.871" id="Fill-96" fill="#163560"></path>
            <path d="M1381.07,756.871 C1381.07,756.871 1393.27,772.255 1424.09,772.694 C1454.92,773.134 1483.49,759.948 1483.49,759.948 C1483.49,759.948 1411.4,747.201 1381.07,756.871" id="Fill-97" fill="#29589B"></path>
            <path d="M1419.31,766.871 C1419.31,765.414 1420.5,764.233 1421.95,764.233 C1423.41,764.233 1424.59,765.414 1424.59,766.871 C1424.59,768.327 1423.41,769.508 1421.95,769.508 C1420.5,769.508 1419.31,768.327 1419.31,766.871" id="Fill-98" fill="#F99746"></path>
            <path d="M1459.06,821.083 C1459.06,821.083 1385.36,817.936 1381.07,821.083 C1376.79,824.23 1375.14,925.763 1378.44,930.708 C1381.73,935.652 1456.24,937.96 1456.24,937.96 L1459.06,821.083" id="Fill-99" fill="#29589B"></path>
            <path d="M3032.58,1559 C2987.42,1556.8 2919.45,1553.31 2860.88,1549.5 C2762.99,1543.13 2805.97,1512.89 2851.33,1469.9 C2896.7,1426.9 2710.46,1450.81 2571.98,1460.4 C2433.5,1469.98 2225.77,1465.14 2299.76,1405.21 C2373.75,1345.27 2911.51,1277.08 2911.51,1277.08 C2913.67,1279.2 2915.82,1281.35 2917.96,1283.51 C2921.64,1287.21 2925.28,1290.95 2928.87,1294.73 C2943.69,1310.24 2957.83,1326.47 2970.63,1344.05 C2973.44,1347.86 2976.15,1351.74 2978.81,1355.68 C2981.93,1360.32 2984.94,1365.06 2987.86,1369.91 C2997.13,1385.31 3005.34,1401.79 3012.12,1419.69 C3026.76,1458.38 3034.77,1503.69 3032.58,1559" id="Fill-100" fill="#DAED8E"></path>
            <path d="M441.145,1231.15 C395.648,1231.15 322.132,1233.54 344.565,1247.86 C366.996,1262.19 386.097,1283.68 309.693,1286.06 C234.16,1288.43 190.86,1292.24 189.881,1292.32 C184.473,1248.4 182.217,1203.01 184.187,1156.76 C184.187,1156.76 254.944,1136.6 297.922,1156.76 C340.899,1176.93 371.772,1160.71 405.198,1182.2 C438.626,1203.69 509.061,1206.08 523.387,1218.02 C537.712,1229.96 486.629,1231.15 441.145,1231.15" id="Fill-101" fill="#82B378"></path>
            <path d="M2198.72,1722.12 L2202.07,1665.18 C2202.07,1665.18 2173.42,1641.34 2169.32,1639.7 C2165.23,1638.06 2103.38,1628.6 2103.38,1628.6 L2106.05,1682.08 L2125.42,1720.94 L2198.72,1722.12" id="Fill-102" fill="#EDC5A2"></path>
            <path d="M2057.85,1720.24 C2057.85,1720.24 2053.85,1678.78 2055.98,1674.25 C2058.11,1669.71 2096.93,1627.29 2103.38,1628.6 C2109.82,1629.91 2145.36,1643.18 2151.59,1648.2 C2157.81,1653.22 2172.27,1692.46 2172.03,1696.54 C2171.79,1700.62 2170.55,1721.66 2170.55,1721.66 L2057.85,1720.24" id="Fill-103" fill="#F9DDBF"></path>
            <path d="M2102.93,1735.45 L2103.37,1711 C2103.44,1707.17 2101.68,1703.54 2098.62,1701.24 C2092.01,1696.26 2080.77,1687.92 2078.64,1687.17 C2076.72,1686.49 2058.1,1684.24 2044.42,1682.65 C2036.88,1681.78 2030.45,1688.06 2031.13,1695.62 L2033.15,1717.75 C2033.3,1719.39 2033.78,1720.98 2034.58,1722.43 L2045.28,1741.87 C2047.43,1745.78 2051.59,1748.17 2056.05,1748.06 L2091.27,1747.19 C2097.67,1747.03 2102.82,1741.85 2102.93,1735.45" id="Fill-104" fill="#EDC5A2"></path>
            <path d="M2009.91,1749.44 C2003.71,1749.62 1998.42,1745.03 1997.69,1738.87 C1996.62,1729.8 1995.45,1718.02 1996.31,1715.98 C1997.74,1712.58 2035.13,1682.21 2039.91,1682.99 C2044.69,1683.76 2061.12,1690.45 2065.85,1693.96 C2070.58,1697.46 2082.39,1725.88 2082.33023,1728.89 L2082.21,1735.99 C2082.09,1742.38 2076.97,1747.55 2070.58,1747.73 L2009.91,1749.44" id="Fill-105" fill="#F9DDBF"></path>
            <path d="M1116.68,1588.21 L1116.31,1567.54 C1116.25,1564.3 1117.74,1561.23 1120.33,1559.28 C1125.92,1555.07 1135.43,1548.02 1137.23,1547.39 C1138.85,1546.81 1154.59,1544.91 1166.16,1543.57 C1172.54,1542.83 1177.98,1548.14 1177.4,1554.53 L1175.7,1573.24 C1175.57,1574.63 1175.16,1575.98 1174.49,1577.21 L1165.44,1593.64 C1163.62,1596.95 1160.1,1598.97 1156.33,1598.88 L1126.55,1598.14 C1121.13,1598.01 1116.78,1593.63 1116.68,1588.21" id="Fill-106" fill="#EDC5A2"></path>
            <path d="M1195.35,1600.05 C1200.59,1600.2 1205.07,1596.32 1205.68,1591.11 C1206.59,1583.43 1207.57,1573.47 1206.85,1571.75 C1205.64,1568.87 1174.02,1543.2 1169.98,1543.85 C1165.94,1544.5 1152.04,1550.16 1148.04,1553.13 C1144.04,1556.09 1134.06,1580.13 1134.09988,1582.67 L1134.21,1588.67 C1134.31,1594.08 1138.64,1598.45 1144.04,1598.6 L1195.35,1600.05" id="Fill-107" fill="#F9DDBF"></path>
            <path d="M1032.14,1603.41 L1031.94,1592.17 C1031.9,1590.41 1032.71,1588.74 1034.12,1587.68 C1037.16,1585.39 1042.33,1581.55 1043.31,1581.21 C1044.19,1580.9 1052.75,1579.86 1059.05,1579.13 C1062.51,1578.73 1065.47,1581.62 1065.16,1585.09 L1064.23,1595.27 C1064.16,1596.02 1063.94,1596.76 1063.57,1597.42 L1058.65,1606.36 C1057.66,1608.16 1055.75,1609.26 1053.7,1609.21 L1037.5,1608.81 C1034.56,1608.74 1032.19,1606.35 1032.14,1603.41" id="Fill-108" fill="#EDC5A2"></path>
            <path d="M1074.92,1609.84 C1077.77,1609.92 1080.2,1607.82 1080.54,1604.98 C1081.03,1600.81 1081.56,1595.39 1081.17,1594.45 C1080.51,1592.89 1063.32,1578.93 1061.12,1579.28 C1058.92,1579.64 1051.37,1582.71 1049.19,1584.33 C1047.02,1585.94 1041.59,1599.01 1041.60994,1600.39 L1041.67,1603.66 C1041.72,1606.6 1044.08,1608.97 1047.02,1609.06 L1074.92,1609.84" id="Fill-109" fill="#F9DDBF"></path>
            <path d="M1871.71,1639.94 L1871.51,1628.71 C1871.47,1626.94 1872.28,1625.27 1873.69,1624.21 C1876.73,1621.92 1881.9,1618.09 1882.88,1617.74 C1883.76,1617.43 1892.32,1616.4 1898.61,1615.67 C1902.08,1615.26 1905.04,1618.15 1904.73,1621.63 L1903.8,1631.8 C1903.73,1632.56 1903.51,1633.29 1903.14,1633.96 L1898.22,1642.9 C1897.23,1644.7 1895.32,1645.8 1893.27,1645.75 L1877.07,1645.35 C1874.13,1645.27 1871.76,1642.89 1871.71,1639.94" id="Fill-110" fill="#EDC5A2"></path>
            <path d="M1914.48,1646.38 C1917.33,1646.46 1919.77,1644.35 1920.1,1641.52 C1920.6,1637.35 1921.13,1631.93 1920.74,1630.99 C1920.08,1629.43 1902.89,1615.47 1900.69,1615.82 C1898.49,1616.17 1890.94,1619.25 1888.76,1620.86 C1886.59,1622.48 1881.16,1635.55 1881.17994,1636.93 L1881.24,1640.19 C1881.29,1643.13 1883.65,1645.51 1886.59,1645.59 L1914.48,1646.38" id="Fill-111" fill="#F9DDBF"></path>
            <path d="M806.271,1758.38 L806.068,1747.15 C806.036,1745.38 806.847,1743.71 808.255,1742.65 C811.294,1740.37 816.462,1736.53 817.444,1736.18 C818.324,1735.87 826.886,1734.84 833.177,1734.11 C836.646,1733.7 839.605,1736.59 839.288,1740.07 L838.363,1750.25 C838.294,1751 838.069,1751.73 837.704,1752.4 L832.784,1761.34 C831.794,1763.14 829.882,1764.24 827.828,1764.19 L811.636,1763.79 C808.69,1763.71 806.324,1761.33 806.271,1758.38" id="Fill-112" fill="#EDC5A2"></path>
            <path d="M849.048,1764.82 C851.898,1764.9 854.334,1762.79 854.668,1759.96 C855.159,1755.79 855.696,1750.37 855.301,1749.43 C854.643,1747.87 837.45,1733.91 835.253,1734.26 C833.055,1734.62 825.499,1737.69 823.324,1739.3 C821.149,1740.92 815.719,1753.99 815.743914,1755.37 L815.803,1758.63 C815.856,1761.57 818.21,1763.95 821.148,1764.04 L849.048,1764.82" id="Fill-113" fill="#F9DDBF"></path>
            <path d="M1065.32,1570.6 L1065.18,1562.77 C1065.16,1561.54 1065.72,1560.38 1066.7,1559.64 C1068.82,1558.04 1072.42,1555.37 1073.1,1555.13 C1073.72,1554.92 1079.68,1554.2 1084.06,1553.69 C1086.48,1553.4 1088.54,1555.42 1088.32,1557.84 L1087.68,1564.93 C1087.63,1565.45 1087.47,1565.96 1087.22,1566.43 L1083.79,1572.65 C1083.1,1573.91 1081.77,1574.67 1080.34,1574.64 L1069.06,1574.36 C1067.01,1574.31 1065.36,1572.65 1065.32,1570.6" id="Fill-114" fill="#EDC5A2"></path>
            <path d="M1095.12,1575.08 C1097.1,1575.13 1098.8,1573.67 1099.03,1571.69 C1099.37,1568.79 1099.75,1565.01 1099.47,1564.36 C1099.02,1563.27 1087.04,1553.55 1085.51,1553.79 C1083.98,1554.04 1078.71,1556.18 1077.2,1557.31 C1075.69,1558.43 1071.9,1567.53 1071.91992,1568.5 L1071.96,1570.77 C1072,1572.82 1073.64,1574.47 1075.68,1574.53 L1095.12,1575.08" id="Fill-115" fill="#F9DDBF"></path>
        </g>
    </g>
</svg>
