<?xml version="1.0" encoding="UTF-8"?>
<svg width="929px" height="619px" viewBox="0 0 929 619" version="1.1" xmlns="http://www.w3.org/2000/svg" xmlns:xlink="http://www.w3.org/1999/xlink">
    <!-- Generator: Sketch 57.1 (83088) - https://sketch.com -->
    <title>Riwax-Logo</title>
    <desc>Created with Sketch.</desc>
    <g id="Riwax-Logo" stroke="none" stroke-width="1" fill="none" fill-rule="evenodd">
        <g transform="translate(125.000000, 218.000000)" fill-rule="nonzero">
            <path d="M37.699793,34.2014388 L74.0434783,34.2014388 C83.2650104,34.2014388 88.1469979,39.0791367 88.1469979,46.3956835 C88.1469979,54.2541966 83.2650104,58.8609113 74.0434783,58.8609113 L37.699793,58.8609113 L37.699793,34.2014388 Z M0,122 L37.699793,122 L37.699793,84.3333333 L72.1449275,84.3333333 C81.6376812,84.3333333 87.6045549,87.5851319 87.6045549,105.199041 C87.6045549,110.347722 87.8757764,117.122302 89.7743271,122 L131,122 C126.118012,116.309353 125.575569,109.263789 123.94824,86.7721823 C122.863354,74.5779376 117.438923,68.8872902 110.387164,66.4484412 L110.387164,66.177458 C120.693582,63.7386091 128.559006,55.3381295 128.559006,40.4340528 C128.559006,21.736211 118.52381,9 90.5879917,9 L0,9 L0,122 Z" id="Shape" fill="#0071BB"></path>
            <polygon id="Path" fill="#0071BB" points="146 9 184 9 184 122 146 122"></polygon>
            <polygon id="Path" fill="#0071BB" points="196 9 232.308383 9 249.920659 85.4172662 250.191617 85.4172662 270.513473 9 302.486527 9 322.808383 85.4172662 323.079341 85.4172662 340.691617 9 377 9 343.13024 122 306.550898 122 287.041916 48.2925659 286.770958 48.2925659 267.261976 122 230.140719 122"></polygon>
            <path d="M455.418868,79.9976019 L423.850943,79.9976019 L439.5,37.4532374 L439.769811,37.4532374 L455.418868,79.9976019 Z M368,122 L408.201887,122 L414.94717,103.573141 L464.05283,103.573141 L470.798113,122 L511,122 L462.703774,9 L416.835849,9 L368,122 Z" id="Shape" fill="#0071BB"></path>
            <polygon id="Path" fill="#0071BB" points="551.890805 63.1966427 508.132184 9 552.701149 9 573.5 39.3501199 594.298851 9 638.867816 9 595.109195 63.1966427 644 122 597.54023 122 573.5 87.8561151 549.45977 122 503 122"></polygon>
            <path d="M652.685185,14.5 C652.685185,7.51851852 657.787037,2.14814815 664.5,2.14814815 C671.212963,2.14814815 676.314815,7.51851852 676.314815,14.5 C676.314815,21.4814815 671.212963,26.8518519 664.5,26.8518519 C657.787037,27.1203704 652.685185,21.75 652.685185,14.5 Z M650,14.5 C650,22.8240741 656.712963,29 664.5,29 C672.287037,29 679,22.8240741 679,14.5 C679,6.44444444 672.555556,0 664.5,0 C656.712963,0.268518519 650,6.44444444 650,14.5 Z M658.861111,23.0925926 L661.546296,23.0925926 L661.546296,15.8425926 L664.231481,15.8425926 L668.796296,23.0925926 L671.481481,23.0925926 L666.648148,15.5740741 C669.064815,15.3055556 671.212963,13.962963 671.212963,11.0092593 C671.212963,7.78703704 669.333333,6.17592593 665.305556,6.17592593 L658.861111,6.17592593 L658.861111,23.0925926 Z M661.546296,8.32407407 L665.037037,8.32407407 C666.916667,8.32407407 668.796296,8.59259259 668.796296,11.0092593 C668.796296,13.6944444 666.648148,13.6944444 664.231481,13.6944444 L661.546296,13.6944444 L661.546296,8.32407407 Z" id="Shape" fill="#0071BB"></path>
            <g id="Group" transform="translate(337.000000, 138.000000)" fill="#000000">
                <path d="M4.95905512,35.5294118 L0.354330709,35.5294118 C0.354330709,34.1764706 0.62519685,32.8235294 0.62519685,31.7411765 L0.62519685,1.43529412 L5.22992126,1.43529412 L5.22992126,14.9647059 L5.22992126,14.9647059 C6.58425197,12.2588235 9.56377953,10.9058824 12.5433071,10.9058824 C19.8566929,10.9058824 23.1070866,17.1294118 23.1070866,23.3529412 C23.1070866,29.5764706 20.3984252,35.8 13.0850394,35.8 C9.56377953,35.8 6.58425197,34.7176471 4.95905512,31.2 L4.95905512,31.2 L4.95905512,31.4705882 L4.95905512,35.5294118 Z M11.7307087,14.4235294 C6.58425197,14.4235294 4.95905512,19.5647059 4.95905512,23.6235294 C4.95905512,27.9529412 6.31338583,32.8235294 11.7307087,32.8235294 C16.8771654,32.8235294 18.5023622,27.9529412 18.5023622,23.6235294 C18.5023622,19.2941176 17.1480315,14.4235294 11.7307087,14.4235294 Z" id="Shape"></path>
                <path d="M33.6708661,24.4352941 C33.4,28.4941176 35.0251969,32.8235294 39.6299213,32.8235294 C43.1511811,32.8235294 44.776378,31.4705882 45.3181102,27.9529412 L49.9228346,27.9529412 C49.1102362,33.3647059 45.0472441,36.0705882 39.3590551,36.0705882 C31.7748031,36.0705882 28.7952756,30.6588235 28.7952756,23.6235294 C28.7952756,16.5882353 32.3165354,10.9058824 39.9007874,10.9058824 C46.9433071,11.1764706 50.4645669,15.5058824 50.4645669,22 L50.4645669,24.1647059 L33.6708661,24.1647059 L33.6708661,24.4352941 Z M45.5889764,21.4588235 C45.5889764,17.4 43.9637795,14.4235294 39.6299213,14.4235294 C35.8377953,14.4235294 33.6708661,17.6705882 33.6708661,21.4588235 L45.5889764,21.4588235 Z" id="Shape"></path>
                <path d="M71.8629921,20.9176471 C71.8629921,16.8588235 71.592126,14.4235294 66.7165354,14.4235294 C64.5496063,14.4235294 62.3826772,15.7764706 62.3826772,18.2117647 L57.7779528,18.2117647 C58.0488189,13.0705882 62.111811,11.1764706 66.7165354,11.1764706 C71.592126,11.1764706 76.4677165,12.5294118 76.4677165,19.2941176 L76.4677165,30.6588235 C76.4677165,31.7411765 76.4677165,33.6352941 76.7385827,35.8 L73.7590551,35.8 C73.2173228,35.8 72.4047244,36.0705882 72.4047244,35.5294118 C72.4047244,34.4470588 72.1338583,33.3647059 72.1338583,32.2823529 L72.1338583,32.2823529 C70.7795276,35.2588235 68.0708661,36.6117647 64.8204724,36.6117647 C60.7574803,36.6117647 56.423622,34.4470588 56.423622,29.8470588 C56.423622,23.0823529 62.3826772,21.1882353 68.0708661,21.1882353 L71.8629921,21.1882353 L71.8629921,20.9176471 Z M67.2582677,24.1647059 C64.5496063,24.4352941 60.7574803,25.2470588 60.7574803,28.7647059 C60.7574803,31.7411765 62.9244094,33.0941176 65.3622047,33.0941176 C70.7795276,33.0941176 71.592126,28.4941176 71.592126,24.1647059 L67.2582677,24.1647059 Z" id="Shape"></path>
                <path d="M101.116535,11.7176471 L105.72126,11.7176471 L105.72126,35.5294118 L101.387402,35.5294118 L101.387402,32.0117647 L101.387402,32.0117647 C99.4913386,34.9882353 96.511811,36.3411765 93.2614173,36.3411765 C88.3858268,36.3411765 85.4062992,32.5529412 85.4062992,27.6823529 L85.4062992,11.7176471 L90.0110236,11.7176471 L90.0110236,25.7882353 C90.0110236,29.8470588 90.823622,32.8235294 95.1574803,32.8235294 C97.0535433,32.8235294 99.4913386,32.0117647 100.574803,29.3058824 C101.387402,27.1411765 101.387402,24.1647059 101.387402,23.6235294 L101.387402,11.7176471 L101.116535,11.7176471 Z" id="Path"></path>
                <path d="M115.201575,11.7176471 L115.201575,6.57647059 L119.806299,5.22352941 L119.806299,11.7176471 L125.223622,11.4470588 L125.223622,14.6941176 L119.806299,14.6941176 L119.806299,30.1176471 C119.806299,31.7411765 121.16063,32.5529412 122.785827,32.5529412 C123.598425,32.5529412 124.411024,32.5529412 125.223622,32.2823529 L125.223622,35.8 C124.140157,35.8 123.056693,36.0705882 122.244094,36.0705882 C121.16063,36.0705882 120.348031,36.0705882 119.264567,35.8 C118.451969,35.5294118 117.368504,35.2588235 116.555906,34.1764706 C115.743307,33.0941176 115.472441,32.8235294 115.472441,29.8470588 L115.472441,14.6941176 L111.409449,14.6941176 L111.409449,11.4470588 L115.201575,11.7176471 Z" id="Path"></path>
                <polygon id="Path" points="139.037795 44.7294118 134.433071 44.7294118 137.954331 35.5294118 127.932283 11.9882353 133.07874 11.9882353 140.392126 30.6588235 147.976378 11.9882353 152.851969 11.9882353"></polygon>
                <path d="M174.250394,35.5294118 L174.250394,14.9647059 L169.645669,14.9647059 L169.645669,11.7176471 L174.250394,11.7176471 L174.250394,7.11764706 C174.52126,1.97647059 178.313386,0.623529412 181.56378,0.623529412 C182.647244,0.623529412 183.730709,0.894117647 184.814173,1.16470588 L184.814173,4.95294118 C184.001575,4.95294118 183.188976,4.68235294 182.647244,4.68235294 C180.209449,4.68235294 178.584252,5.22352941 178.855118,7.92941176 L178.855118,11.7176471 L184.272441,11.7176471 L184.272441,14.9647059 L178.855118,14.9647059 L178.855118,35.5294118 L174.250394,35.5294118 L174.250394,35.5294118 Z" id="Path"></path>
                <path d="M211.900787,23.6235294 C211.900787,30.9294118 207.837795,36.0705882 199.982677,36.0705882 C192.127559,36.0705882 188.064567,30.9294118 188.064567,23.6235294 C188.064567,16.3176471 192.127559,11.1764706 199.982677,11.1764706 C207.837795,11.1764706 211.900787,16.3176471 211.900787,23.6235294 Z M199.982677,33.0941176 C205.4,33.0941176 207.025197,28.7647059 207.025197,23.8941176 C207.025197,18.7529412 205.4,14.6941176 199.982677,14.6941176 C194.565354,14.6941176 192.940157,19.0235294 192.940157,23.8941176 C192.940157,28.7647059 194.83622,33.0941176 199.982677,33.0941176 Z" id="Shape"></path>
                <path d="M224.36063,35.5294118 L219.755906,35.5294118 L219.755906,11.7176471 L224.36063,11.7176471 L224.36063,16.3176471 L224.36063,16.3176471 C224.902362,13.0705882 228.152756,11.4470588 231.40315,11.4470588 C231.944882,11.4470588 232.486614,11.4470588 233.028346,11.4470588 L233.028346,15.7764706 C232.486614,15.5058824 231.674016,15.5058824 231.132283,15.5058824 C225.444094,15.7764706 224.36063,18.7529412 224.36063,23.6235294 L224.36063,35.5294118 L224.36063,35.5294118 Z" id="Path"></path>
                <path d="M266.344882,19.5647059 C266.074016,16.5882353 264.719685,14.4235294 261.469291,14.4235294 C257.135433,14.4235294 255.510236,18.2117647 255.510236,23.6235294 C255.510236,29.0352941 257.135433,32.8235294 261.469291,32.8235294 C264.448819,32.8235294 266.344882,30.9294118 266.615748,27.4117647 L271.220472,27.4117647 C270.949606,32.8235294 266.886614,36.0705882 261.740157,36.0705882 C254.155906,36.0705882 251.176378,30.6588235 251.176378,23.6235294 C251.176378,16.5882353 254.697638,10.9058824 262.28189,10.9058824 C267.428346,10.9058824 271.220472,14.1529412 271.220472,19.2941176 L266.344882,19.2941176 L266.344882,19.5647059 Z" id="Path"></path>
                <path d="M291.806299,20.9176471 C291.806299,16.8588235 291.535433,14.4235294 286.659843,14.4235294 C284.492913,14.4235294 282.325984,15.7764706 282.325984,18.2117647 L277.72126,18.2117647 C277.992126,13.0705882 282.055118,11.1764706 286.659843,11.1764706 C291.535433,11.1764706 296.411024,12.5294118 296.411024,19.2941176 L296.411024,30.6588235 C296.411024,31.7411765 296.411024,33.6352941 296.68189,35.8 L293.702362,35.8 C293.16063,35.8 292.348031,36.0705882 292.348031,35.5294118 C292.348031,34.4470588 292.077165,33.3647059 292.077165,32.2823529 L292.077165,32.2823529 C290.722835,35.2588235 288.014173,36.6117647 284.76378,36.6117647 C280.700787,36.6117647 276.366929,34.4470588 276.366929,29.8470588 C276.366929,23.0823529 282.325984,21.1882353 288.014173,21.1882353 L291.806299,21.1882353 L291.806299,20.9176471 Z M287.201575,24.1647059 C284.492913,24.4352941 280.700787,25.2470588 280.700787,28.7647059 C280.700787,31.7411765 282.867717,33.0941176 285.305512,33.0941176 C290.722835,33.0941176 291.535433,28.4941176 291.535433,24.1647059 L287.201575,24.1647059 Z" id="Shape"></path>
                <path d="M309.683465,35.5294118 L305.07874,35.5294118 L305.07874,11.7176471 L309.683465,11.7176471 L309.683465,16.3176471 L309.683465,16.3176471 C310.225197,13.0705882 313.475591,11.4470588 316.725984,11.4470588 C317.267717,11.4470588 317.809449,11.4470588 318.351181,11.4470588 L318.351181,15.7764706 C317.809449,15.5058824 316.99685,15.5058824 316.455118,15.5058824 C310.766929,15.7764706 309.683465,18.7529412 309.683465,23.6235294 L309.683465,35.5294118 L309.683465,35.5294118 Z" id="Path"></path>
                <path d="M331.894488,11.1764706 C336.499213,11.1764706 341.374803,13.0705882 341.103937,18.4823529 L336.499213,18.4823529 C336.770079,15.5058824 334.332283,14.4235294 331.894488,14.4235294 C329.456693,14.4235294 327.56063,15.5058824 327.56063,18.2117647 C327.56063,20.9176471 331.623622,20.9176471 333.248819,21.4588235 C337.311811,22.8117647 341.916535,23.3529412 341.916535,28.4941176 C341.916535,34.1764706 336.228346,36.0705882 331.352756,36.0705882 C326.477165,36.0705882 322.143307,33.9058824 322.143307,28.2235294 L326.748031,28.2235294 C326.748031,31.2 328.914961,32.8235294 331.623622,32.8235294 C334.332283,32.8235294 337.040945,31.7411765 337.040945,28.7647059 C337.040945,23.3529412 322.685039,27.4117647 322.685039,18.2117647 C322.685039,13.3411765 327.831496,11.1764706 331.894488,11.1764706 Z" id="Path"></path>
            </g>
        </g>
    </g>
</svg>