<svg id="Ebene_1" data-name="Ebene 1" xmlns="http://www.w3.org/2000/svg" viewBox="0 0 1238.59 313.31"><defs><style>.cls-2{fill:#ff6300}</style></defs><path d="M367.51 366.34l-40-.09a24.57 24.57 0 016.49-13.81c3.13-3.62 8.5-5.08 14.13-5.05a18.1 18.1 0 0113.13 5.15 19.16 19.16 0 016.3 13.8M392.43 384a130.69 130.69 0 00-.74-18.86 48.2 48.2 0 00-7.07-19.66 37.36 37.36 0 00-15.44-14.11 48.33 48.33 0 00-21-4.51q-19.65-.06-32 13.13c-11.64 12.38-12.86 28.15-12.86 30.25 0 1.34-1.25 8.13-1.2 9.39-.87-1.27-.15-.41-1.29-1.54-4.87-4.74-12.14-8.28-21.88-10.65-14.61-3.28-23.17-4.22-25.57-5.54s-4.75-4.49-4.75-7.34a11.18 11.18 0 014-7.58c2.3-1.67 5.9-2.7 11.22-2.69 6.47 0 13.12 2.47 15.82 5.85a18.88 18.88 0 013.7 8.42h20.42c-1.06-11.66-6.18-19.51-13.53-24.28s-14.2-7.5-25.9-7.52c-12.3 0-21.86 3.14-28.67 9.43s-10.21 13.84-10.22 22.64a20.72 20.72 0 007.22 16.38c4.33 4 11.15 7.27 21.73 9.94 14.71 3.6 23 5.94 25.31 7.39s3.55 4.7 3.54 7.47-1.42 5.08-4.27 6.54-6.22 3.59-11.05 3.58c-8.16 0-14.22-3.1-17.25-6.42-1.7-1.87-2.81-5-3.33-9.45l-19.63-.05c0 9.77-.63 16.83 6.37 23.16s16.78 10.52 31.49 10.55c14.45.05 25.1-2.93 32-8.88a28.63 28.63 0 009.9-17.49 35.09 35.09 0 009.81 14.4c9.11 7.81 19.52 10.46 31.43 10.48 14.44 0 25.72-3.27 33.76-12.5 5.21-5.83 8-12.12 8.69-17.77l-22.38-.05c-1.32 2.8-4.15 5.48-5.89 7.05-3.13 2.88-8.83 3.75-13.87 3.75-4.75 0-8.48-.58-11.87-3-5.55-3.86-9.61-10.55-9.91-20.13zm180.67 3.63c.51 7.38-2.71 14.25-7.13 17.39s-10.36 3.9-15.61 3.9c-3.32 0-7.66-.44-10-2.34s-4-5.14-3.73-9.77 3.67-8.28 7.49-10.56c2.21-1.33 6.59-2 11.73-2.95l4.8-.8a32.57 32.57 0 006.52-2.33 25.5 25.5 0 004.7-2.41s.72 2.48 1.23 9.86zm24.9 29.93c-.81-1.15-1.28-3.36-1.47-6.64-.1-4.32-.15-8-.14-11l.1-43.71c0-11.46-4-19.26-11.88-23.43a58.34 58.34 0 00-27.29-6.26q-23.62-.07-33.37 12.5c-4.06 5.35-6.41 12.2-6.93 20.53l21.41-.11c.58-3.66-.24-4.95 3.46-8.7 2.65-2.69 8.71-4.23 14.51-4.23 5.14 0 9.07.78 11.71 2.27s4 4.19 4 8.08c0 3.2-1.79 5.58-5.28 7.07a36.67 36.67 0 01-9.71 2.15l-8.33 1.05c-9.44 1.18-16.62 3.22-21.47 6.05a25.52 25.52 0 00-10.8 11.92 24 24 0 00-4.79-6.71q-7.31-7.09-21.88-10.63c-14.61-3.28-23.14-4.21-25.56-5.54s-4.75-4.48-4.75-7.36a11.22 11.22 0 014-7.57c2.26-1.67 5.86-2.7 11.2-2.7a19.24 19.24 0 0114.55 6.66 15.13 15.13 0 012.66 7.61l22.75.06c-1.08-11.64-6.19-19.51-13.54-24.26s-14.2-7.5-25.89-7.52-20.83 2.81-27.54 8.46v-8l-2.1-.14c-.31 0-.69 0-1.15-.05-7.33 0-15 1-19.53 4.92-2.82 2.32-4.44 7.56-7.24 11.35l.31-13.8-24.63-.31-.22 95.23h24.64l.1-45.51c0-7.63.95-13.28 2.88-16.93 3.11-6 8.93-12.72 17.48-13.77a30.12 30.12 0 00-1.91 10.57c0 7.45 2.14 13.18 6.48 17.15s11.89 6.5 22.47 9.2c14.7 3.61 23 5.91 25.31 7.38s3.53 4.66 3.53 7.47a6.9 6.9 0 01-4.27 6.52c-2.83 1.46-6.21 3.59-11 3.59-8.19 0-14.22-3.1-17.23-6.43-1.73-1.87-2.83-5-3.36-9.44l-23.34-.06c0 9.79 3.07 16.84 10.09 23.17s16.76 10.51 31.48 10.55c14.44 0 25.09-2.9 32-8.87a29.51 29.51 0 006.95-8.61 20.07 20.07 0 005.77 9.55c5.5 4.92 13.47 6.59 22 6.61 6.64 0 17.89-1.42 23.07-4.61 4.63-2.84 6.29-6.07 6.5-9.46a30.59 30.59 0 00.69 5.76 22.18 22.18 0 002.4 6.76l20.55.27 4.24-.23c1.09-1.26-1.83-6.7-2.61-7.88" transform="translate(-33.87 -264.29)"/><path d="M287 264.29c-33.59 10.48-69 27.79-100.9 58.52-60.5 58.19-80.61 135.46-44.92 172.62s113.73 20.1 174.24-38.07c.77-.73 1.48-1.46 2.19-2.17-53.15 41.16-114.61 50.61-144.43 19.55-33.44-34.79-14.6-107.12 42-161.56C238 291.3 263.67 274.29 287 264.29z" transform="translate(-33.87 -264.29)" fill="#9d9d9c"/><path class="cls-2" d="M299.2 496c-59.82 56-154.3 64.43-196.66 20.36S73.1 389.92 132.77 333.81c30.93-29.08 72.54-53.2 91-61.63H33.87V577.6h304.55V453.43c-4.33 5.13-21.05 25.61-39.22 42.6" transform="translate(-33.87 -264.29)"/><path d="M787.16 445.29h9.12a49.42 49.42 0 017.63.44 10.36 10.36 0 016.87 4.12 11.73 11.73 0 012.14 7.09q0 7.49-6.47 10.57l8.42 15.74h-8.18l-7.47-14.49h-5v14.49h-7zm7 17.24h2.55a18.64 18.64 0 005.94-.64 4.56 4.56 0 002.32-2 5.61 5.61 0 00.78-3 4.76 4.76 0 00-2.33-4.45 8.71 8.71 0 00-3.61-.92c-.62 0-1.84-.05-3.64-.05h-2zM827.71 445.29h7.14l12.42 38H840l-2.25-7.89h-12.9l-2.28 7.89h-7.19zm8.29 23.84l-4.71-15.5-4.63 15.5zM859 483.25h-7v-38h7zM867.45 445.29h7.2V477h15.83v6.23h-23zM923.51 463.67h13.11v15.77a22.55 22.55 0 01-13.4 4.54 15.58 15.58 0 01-12-4.9q-4.9-5.25-4.9-14.77 0-9.71 5.08-15.07a14.84 14.84 0 0111.24-4.67 14.6 14.6 0 017.44 1.89 11.28 11.28 0 015.24 6.56 17.39 17.39 0 01.72 4.48h-6q-.91-6.64-7.23-6.65a7.54 7.54 0 00-6.42 3.06q-2.73 3.73-2.72 10.43 0 6.24 2.46 9.85a8 8 0 007 3.47 13.77 13.77 0 005.57-1.28 11.45 11.45 0 002.08-1.19v-6.09h-7.3zM943.65 445.29h9.12a49.42 49.42 0 017.63.44 10.36 10.36 0 016.87 4.12 11.73 11.73 0 012.14 7.09q0 7.49-6.47 10.57l8.42 15.74h-8.18l-7.47-14.49h-5v14.49h-7zm7 17.24h2.55a18.52 18.52 0 005.93-.64 4.55 4.55 0 002.33-2 5.61 5.61 0 00.78-3 4.76 4.76 0 00-2.33-4.45 8.71 8.71 0 00-3.61-.92c-.63 0-1.84-.05-3.64-.05h-2zM989.79 444.57a15.1 15.1 0 0111.21 4.53q5.29 5.31 5.3 15.16t-5.3 15.18a16.07 16.07 0 01-22.39 0q-5.3-5.34-5.3-15.46a26.8 26.8 0 011.5-8.85 15.23 15.23 0 016.88-8.39 15.61 15.61 0 018.1-2.17zm0 6.23a7.38 7.38 0 00-6.44 3.17q-2.73 3.84-2.73 10.12 0 6.62 2.73 10.49a8.17 8.17 0 0012.92 0q2.73-3.87 2.73-10.32T996.24 454a7.44 7.44 0 00-6.48-3.2zM1011.93 445.29h7v21.81a22.65 22.65 0 00.59 6.28 5.64 5.64 0 002.59 3.28 8.34 8.34 0 004.23 1q5.83 0 7.06-5a28 28 0 00.38-5.59v-21.78h7v21.92a40.35 40.35 0 01-.34 6.25 11.57 11.57 0 01-4.26 7.49 17.54 17.54 0 01-19.71 0 11.53 11.53 0 01-4.26-7.49 40.05 40.05 0 01-.35-6.25zM1049 445.29h8.56q7.11 0 10.4 1.14a9.26 9.26 0 015.25 4.53 13.5 13.5 0 011.52 6.4 11.39 11.39 0 01-3.4 8.73c-1.83 1.73-4.51 2.68-8 2.87-1.45.07-3.14.11-5.08.11H1056v14.18h-7zm7 17.55h2.22a21.28 21.28 0 006.4-.61A4.13 4.13 0 001067 460a6.22 6.22 0 00.56-2.67q0-3.58-2.46-4.86-1.78-.92-6.53-.92H1056z" transform="translate(-33.87 -264.29)"/><path class="cls-2" d="M671.46 125.25l-44.32 120.42h21.19l44.32-120.42h-21.19z"/><path fill="#dc002e" d="M722.93 67.64l-41.89 113.35h21.19l41.9-113.35h-21.2z"/><path d="M798.22 389.57c7.23 0 10.63.62 13.37 2.5a11.15 11.15 0 014.93 9.74c0 5-2.19 8.32-6.79 10.31l9 15.44h-11.19l-7.35-13.79h-3.34v13.79h-9.7v-38zm1.21 16.63c5.31 0 7.23-1.25 7.23-4.67a3.88 3.88 0 00-2.3-3.87c-.88-.4-1.92-.52-4.55-.52h-3v9.06zM845.23 404v-14.43h9.7v38h-9.7v-15.96H832.3v15.95h-9.7v-38h9.7V404zM891.58 393.21c3.89 3.48 6 8.83 6 15.32s-2.08 11.85-6 15.38a19.51 19.51 0 01-24.93 0c-4-3.64-6-8.77-6-15.66 0-6.21 2.24-11.68 6-15a18.71 18.71 0 0112.49-4.5 18.45 18.45 0 0112.44 4.46zm-20.93 15.21c0 7.69 3.12 12.19 8.49 12.19s8.44-4.5 8.44-12-3.18-12.07-8.49-12.07-8.44 4.46-8.44 11.88zM916.51 389.57l7.56 26.43 7.45-26.43h13v38h-8.77v-25.24l-7.51 25.23h-8.71l-7.39-25.23v25.23h-8.77v-38zM964.07 389.57c5.36 0 8.27.4 10.51 1.36a8.84 8.84 0 015.54 8.49c0 3.93-1.76 6.44-5.43 7.69 5 1.25 7.56 4.33 7.56 9.23a10.38 10.38 0 01-7.56 10.19c-2.35.74-5.2 1-11.12 1h-10.9v-38zm.82 14.81c4.22 0 5.75-1 5.75-3.76a3.27 3.27 0 00-2-3.31 13.11 13.11 0 00-3.84-.34h-2.68v7.41zm.6 15.77c2.85 0 3.78-.11 4.71-.51a3.93 3.93 0 002.19-3.87 3.8 3.8 0 00-2.68-4 14.56 14.56 0 00-4.6-.4h-3v8.77zM1012.94 404v7.81h-15.23v7.92h17.42v7.8H988v-38h26.46v7.8h-16.75V404zM1031.18 389.57c7.23 0 10.63.62 13.37 2.5a11.15 11.15 0 014.93 9.74c0 5-2.19 8.32-6.79 10.31l9 15.44h-11.18l-7.34-13.79h-3.34v13.79h-9.7v-38zm1.21 16.63c5.31 0 7.23-1.25 7.23-4.67a3.88 3.88 0 00-2.3-3.87c-.88-.4-1.92-.52-4.55-.52h-3v9.06zM1087 407.05v15.44c-5.37 4.21-9.92 5.92-15.67 5.92-11.28 0-18.46-7.69-18.46-19.76s7.23-19.94 18.41-19.94c5.2 0 9.86 1.88 12.43 5.13 1.87 2.33 2.63 4.73 2.8 8.88h-8.6c-.55-4.21-2.63-6.2-6.47-6.2-5.37 0-8.55 4.61-8.55 12.24a15.51 15.51 0 002.25 8.77 7.36 7.36 0 006.52 3.08 11.94 11.94 0 006.74-2.11v-4.44h-6.4v-7zM1125 401.3c0-3.53-1.53-5-5-5-2.85 0-4.43 1.09-4.43 3a2.3 2.3 0 001.15 2.05c.87.51.87.51 5.8 2.67s6.41 3 8.28 4.56a10.15 10.15 0 013.61 8c0 7.24-5.75 11.79-15 11.79-7.13 0-12-2.45-14.14-7.17-.93-2.05-1.15-3.19-1.15-6.72h8.93c.38 4.44 2.3 6.26 6.52 6.26 3.07 0 4.93-1.14 4.93-3.13a2.91 2.91 0 00-1.81-2.68c-.93-.57-.93-.57-6.13-2.9-7.89-3.54-10.74-6.61-10.74-11.74 0-7.12 5.53-11.62 14.24-11.62 6.58 0 11.07 2.22 12.82 6.21.82 1.82 1 3.19 1 6.38zM1164.75 404v7.81h-15.23v7.92H1167v7.8h-27.12v-38h26.46v7.8h-16.77V404zM1183 389.57c7.23 0 10.63.62 13.37 2.5a11.15 11.15 0 014.93 9.74c0 5-2.19 8.32-6.8 10.31l9 15.44h-11.18l-7.32-13.79h-3.34v13.79h-9.7v-38zm1.2 16.63c5.32 0 7.24-1.25 7.24-4.67a3.89 3.89 0 00-2.3-3.87c-.88-.4-1.92-.52-4.55-.52h-3v9.06zM1225.68 401.3c-.06-3.53-1.54-5-5-5-2.85 0-4.44 1.09-4.44 3a2.3 2.3 0 001.15 2.05 52.43 52.43 0 005.81 2.67c5 2.23 6.41 3 8.27 4.56a10.13 10.13 0 013.62 8c0 7.24-5.76 11.79-15 11.79-7.12 0-11.94-2.45-14.13-7.17-.94-2.05-1.15-3.19-1.15-6.72h8.93c.38 4.44 2.3 6.26 6.51 6.26 3.07 0 4.93-1.14 4.93-3.13a2.9 2.9 0 00-1.8-2.68c-.93-.57-.93-.57-6.14-2.9-7.89-3.54-10.74-6.61-10.74-11.74 0-7.12 5.54-11.62 14.25-11.62 6.57 0 11.06 2.22 12.82 6.21.82 1.82 1 3.19 1 6.38zM1258.77 389.57l13.7 38h-10.08L1260 420h-11.72l-2.41 7.52h-10l13.64-38zm-4.6 10l-3.51 12.87h7z" transform="translate(-33.87 -264.29)"/></svg>