<svg xmlns="http://www.w3.org/2000/svg" viewBox="0 0 458.079 458.079"><path fill="#ffdf00" d="M0 0h458.079v458.079H0z"/><path d="M80.372 128.931H59.12L26.662 26.884h21.252l32.458 102.047zM145.767 128.931h-21.252L92.058 26.884h21.252l32.457 102.047zM89.101 32.948L71.907 87.005l10.592 33.301 17.194-54.057-10.592-33.301zM157.726 26.884l-19.769 62.154 10.607 33.349 30.377-95.503h-21.215zM170.563 128.931h21.252l32.457-102.047H203.02l-32.457 102.047zM228.374 29.407l-11.126 34.98 9.801 30.813h-19.602l-5.409 17.008h30.42l5.32 16.723h22.252l-31.656-99.524zM271.535 128.931h21.252V26.884h-21.252zM297.542 111.846h35.12v17.008h-35.12zM356.778 77.908c.104-16.586 6.374-31.565 23.7-32.892v-19.52c-28.75 1.25-45.64 23.7-45.804 52.412.164 28.711 17.055 51.16 45.803 52.412V110.8c-17.325-1.327-23.595-16.306-23.699-32.892zM385.233 25.495v19.52c17.37 1.325 24.069 16.305 24.18 32.893-.111 16.588-6.81 31.568-24.18 32.892v19.52c28.75-1.251 45.64-23.701 45.803-52.412-.164-28.711-17.053-51.161-45.803-52.413z"/></svg>