<svg width="195" height="20" viewBox="0 0 195 20" fill="none" xmlns="http://www.w3.org/2000/svg">
<path opacity="0.4" d="M2.90771 4.49175L74.0918 5.03218C92.9156 5.1757 111.739 5.31922 130.563 5.46049C127.433 5.69371 124.306 5.92693 121.176 6.1579C99.7634 7.75005 78.3509 9.34445 56.9407 10.9366C44.9199 11.8313 32.8991 12.7261 20.8783 13.6186C19.594 13.715 17.8473 14.464 17.4836 15.8297C17.1468 17.0922 18.2312 18.0475 19.4773 18.1035C42.0101 19.1171 64.5609 19.7181 87.1162 19.9222C109.4 20.1262 131.688 19.9289 153.967 19.3324C166.482 18.9983 178.994 18.5341 191.5 17.9488C192.852 17.886 194.809 16.9599 194.987 15.4462C195.175 13.854 193.289 13.4011 192.093 13.4571C169.832 14.4999 147.553 15.1479 125.269 15.3946C104.081 15.6278 83.1445 15.4978 62.0553 15.0067C69.5453 14.4483 77.0353 13.8922 84.5252 13.3338C105.938 11.7416 127.35 10.1472 148.76 8.5551C160.781 7.66035 172.802 6.76561 184.823 5.87311C186.177 5.7722 188.128 4.90885 188.31 3.37052C188.503 1.72903 186.606 1.39042 185.416 1.38145C161.688 1.20205 137.959 1.02041 114.232 0.841014C90.63 0.661616 67.0262 0.482219 43.4246 0.302822C30.1173 0.201911 16.81 0.101 3.50044 8.88011e-05C2.15557 -0.0111235 0.186547 1.04059 0.0136666 2.50268C-0.179421 4.14417 1.71775 4.48278 2.90771 4.49175Z" fill="url(#paint0_linear_74_382)"/>
<defs>
<linearGradient id="paint0_linear_74_382" x1="0.0666497" y1="9.99999" x2="195.067" y2="9.99998" gradientUnits="userSpaceOnUse">
<stop stop-color="#C8102E"/>
<stop offset="0.5" stop-color="#00964B"/>
<stop offset="1" stop-color="#0077C8"/>
</linearGradient>
</defs>
</svg>
