<?xml version="1.0" encoding="UTF-8"?>
<svg width="242px" height="41px" viewBox="0 0 242 41" version="1.1" xmlns="http://www.w3.org/2000/svg" xmlns:xlink="http://www.w3.org/1999/xlink">
    <title>Group 2</title>
    <g id="Page-1" stroke="none" stroke-width="1" fill="none" fill-rule="evenodd">
        <g id="Group-2" transform="translate(0.498762, 0.070162)" fill-rule="nonzero">
            <path d="M9.7112379,31.5098382 L9.7112379,31.5098382 C9.7112379,17.8798382 18.7112379,9.71983825 33.8912379,9.70983825 C49.0712379,9.69983825 58.0812379,17.8798382 58.0812379,31.5098382 L58.0812379,40.3198382 L67.7912379,40.3198382 L67.7912379,31.5498382 L67.7912379,31.5498382 C67.8512379,22.6798382 64.9612379,15.0398382 59.4112379,9.44983825 C56.2105497,6.27370132 52.344007,3.84857299 48.0912379,2.34983825 C38.8838078,-0.783279415 28.898668,-0.783279415 19.6912379,2.34983825 C15.4402869,3.84626015 11.5765244,6.27178743 8.3812379,9.44983825 C2.8312379,15.0398382 -0.0687621021,22.6798382 0.00123789794,31.5498382 L0.00123789794,31.5498382 L0.00123789794,40.3198382 L9.7112379,40.3198382 L9.7112379,31.5098382 Z" id="Path" fill="#DC002E"></path>
            <path d="M55.4912379,32.5898382 L55.4912379,32.5898382 C55.4912379,16.3598382 44.3112379,12.1398382 33.8612379,12.1398382 C23.4112379,12.1398382 12.2412379,16.3598382 12.2412379,32.5898382 L12.2412379,32.5898382 L12.2412379,40.2798382 L19.5212379,40.2798382 L19.5212379,32.5898382 L19.5212379,32.5898382 C19.5212379,24.9998382 24.8912379,19.0798382 33.8612379,19.0798382 C42.8312379,19.0798382 48.2012379,24.9998382 48.2012379,32.5898382 L48.2012379,32.5898382 L48.2012379,40.2798382 L55.4912379,40.2798382 L55.4912379,32.5898382 Z" id="Path" fill="#009534"></path>
            <path d="M33.8912379,21.6198382 C26.8912379,21.6198382 22.1312379,26.3298382 22.1312379,33.3398382 L22.1312379,40.2798382 L26.9912379,40.2798382 L26.9912379,33.3398382 C26.9912379,29.0498382 29.5712379,26.4798382 33.8912379,26.4798382 C38.2112379,26.4798382 40.8012379,29.0498382 40.8012379,33.3398382 L40.8012379,40.2798382 L45.6612379,40.2798382 L45.6612379,33.3398382 C45.6612379,26.3298382 40.9312379,21.6198382 33.8912379,21.6198382 Z" id="Path" fill="#007BC0"></path>
            <rect id="Rectangle" fill="#1A161A" x="135.561238" y="6.73983825" width="5.26" height="24.09"></rect>
            <path d="M161.061238,6.73983825 C155.861238,6.73983825 152.911238,7.10983825 150.251238,8.66983825 C147.381238,10.3698382 145.921238,13.9098382 145.901238,18.4098382 L145.901238,19.1198382 C145.901238,23.6398382 147.371238,27.1798382 150.251238,28.8698382 C152.901238,30.4398382 155.851238,30.8098382 161.011238,30.8698382 L165.491238,30.8698382 L165.491238,26.1598382 L159.951238,26.1598382 C154.051238,26.1598382 151.161238,25.4698382 151.161238,18.8998382 L151.161238,18.7498382 C151.161238,12.1798382 154.051238,11.4898382 159.951238,11.4898382 L169.401238,11.4898382 L169.401238,30.8198382 L174.661238,30.8198382 L174.661238,6.73983825 L161.061238,6.73983825 Z" id="Path" fill="#1A161A"></path>
            <path d="M234.171238,26.1198382 L221.571238,26.1198382 C215.661238,26.1198382 212.781238,25.4298382 212.781238,18.8598382 L212.781238,18.7098382 C212.781238,12.1298382 215.661238,11.4398382 221.571238,11.4398382 L234.171238,11.4398382 L234.171238,6.72983825 L222.671238,6.72983825 C217.481238,6.72983825 214.531238,7.10983825 211.871238,8.66983825 C209.001238,10.3698382 207.531238,13.8998382 207.521238,18.4198382 L207.521238,19.1298382 C207.521238,23.6398382 209.001238,27.1898382 211.871238,28.8798382 C214.521238,30.4498382 217.461238,30.8198382 222.621238,30.8198382 L234.171238,30.8198382 L234.171238,26.1198382 Z" id="Path" fill="#1A161A"></path>
            <path d="M131.041238,7.26983825 C111.101238,4.26983825 106.581238,12.9598382 106.581238,20.1798382 L106.581238,30.8198382 L111.841238,30.8198382 L111.841238,20.9698382 C111.841238,14.2898382 116.281238,9.78983825 131.041238,11.9698382 L131.041238,7.26983825 Z" id="Path" fill="#1A161A"></path>
            <path d="M204.861238,7.26983825 C184.911238,4.26983825 180.391238,12.9598382 180.391238,20.1798382 L180.391238,30.8198382 L185.651238,30.8198382 L185.651238,20.9698382 C185.651238,14.2898382 190.091238,9.78983825 204.861238,11.9698382 L204.861238,7.26983825 Z" id="Path" fill="#1A161A"></path>
            <polygon id="Path" fill="#1A171B" points="236.941238 7.04983825 236.141238 7.04983825 236.141238 6.72983825 238.141238 6.72983825 238.141238 7.04983825 237.351238 7.04983825 237.351238 9.28983825 236.981238 9.28983825"></polygon>
            <polygon id="Path" fill="#1A171B" points="238.491238 6.72983825 239.101238 6.72983825 239.901238 8.85983825 240.691238 6.72983825 241.301238 6.72983825 241.301238 9.28983825 240.931238 9.28983825 240.931238 7.06983825 240.931238 7.06983825 240.081238 9.28983825 239.721238 9.28983825 238.881238 7.06983825 238.881238 7.06983825 238.881238 9.28983825 238.491238 9.28983825"></polygon>
            <polygon id="Path" fill="#1A161A" points="73.5112379 6.73983825 73.5112379 11.4398382 85.7112379 11.4398382 85.7112379 30.8198382 90.9812379 30.8198382 90.9812379 11.4398382 103.171238 11.4398382 103.171238 6.73983825"></polygon>
            <polygon id="Path" fill="#1A171B" points="98.3512379 35.4198382 99.3512379 35.4198382 99.3512379 39.5098382 101.231238 39.5098382 101.231238 40.2798382 98.3712379 40.2798382"></polygon>
            <path d="M106.961238,35.4198382 L108.061238,35.4198382 L109.971238,40.2798382 L108.891238,40.2798382 L108.491238,39.2198382 L106.491238,39.2198382 L106.071238,40.3298382 L105.071238,40.3298382 L106.961238,35.4198382 Z M107.501238,36.4198382 L107.501238,36.4198382 L106.791238,38.4198382 L108.211238,38.4198382 L107.501238,36.4198382 Z" id="Shape" fill="#1A171B"></path>
            <path d="M114.091238,35.4198382 L115.791238,35.4198382 C116.421238,35.4198382 117.351238,35.5998382 117.351238,36.6698382 C117.357767,37.2383393 116.918561,37.7126816 116.351238,37.7498382 L116.351238,37.7498382 C116.958175,37.7551612 117.450423,38.2429739 117.461238,38.8498382 C117.461238,40.0798382 116.361238,40.2598382 115.751238,40.2598382 L114.051238,40.2598382 L114.091238,35.4198382 Z M115.091238,37.4198382 L115.491238,37.4198382 C115.901238,37.4198382 116.411238,37.3198382 116.411238,36.8198382 C116.411238,36.3198382 115.921238,36.2198382 115.471238,36.2198382 L115.091238,36.2198382 L115.091238,37.4198382 Z M115.091238,39.5398382 L115.551238,39.5398382 C116.011238,39.5398382 116.551238,39.4298382 116.551238,38.8698382 C116.551238,38.3098382 116.031238,38.1398382 115.551238,38.1398382 L115.091238,38.1398382 L115.091238,39.5398382 Z" id="Shape" fill="#1A171B"></path>
            <path d="M123.951238,35.3398382 C124.97751,35.2866169 125.932556,35.8643611 126.361793,36.7980759 C126.791029,37.7317908 126.607738,38.8328383 125.899161,39.5771412 C125.190585,40.3214441 124.099877,40.5586313 123.146193,40.1758063 C122.19251,39.7929813 121.568523,38.867486 121.571238,37.8398382 C121.495828,37.1778033 121.71773,36.5163941 122.177162,36.0337977 C122.636593,35.5512012 123.286297,35.297059 123.951238,35.3398382 Z M123.951238,39.5998382 C124.951238,39.5998382 125.311238,38.7098382 125.311238,37.8398382 C125.311238,36.9698382 124.921238,36.0998382 123.951238,36.0998382 C122.981238,36.0998382 122.581238,36.9798382 122.581238,37.8398382 C122.581238,38.6998382 122.951238,39.5998382 123.951238,39.5998382 Z" id="Shape" fill="#1A171B"></path>
            <path d="M130.651238,35.4198382 L131.701238,35.4198382 C132.701238,35.4198382 133.991238,35.4198382 133.991238,36.7398382 C133.999726,37.3182247 133.566364,37.8079239 132.991238,37.8698382 L132.991238,37.8698382 C133.251238,37.8698382 133.411238,38.1498382 133.501238,38.3698382 L134.281238,40.2698382 L133.201238,40.2698382 L132.611238,38.7498382 C132.471238,38.3898382 132.351238,38.2498382 131.941238,38.2498382 L131.621238,38.2498382 L131.621238,40.2498382 L130.621238,40.2498382 L130.651238,35.4198382 Z M131.651238,37.4998382 L131.971238,37.4998382 C132.451238,37.4998382 132.971238,37.4298382 132.971238,36.8198382 C132.971238,36.2098382 132.431238,36.1898382 131.971238,36.1898382 L131.651238,36.1898382 L131.651238,37.4998382 Z" id="Shape" fill="#1A171B"></path>
            <path d="M140.081238,35.4198382 L141.181238,35.4198382 L143.081238,40.2798382 L142.001238,40.2798382 L141.591238,39.1698382 L139.591238,39.1698382 L139.161238,40.2798382 L138.161238,40.2798382 L140.081238,35.4198382 Z M140.611238,36.4198382 L140.611238,36.4198382 L139.911238,38.4198382 L141.331238,38.4198382 L140.611238,36.4198382 Z" id="Shape" fill="#1A171B"></path>
            <polygon id="Path" fill="#1A171B" points="147.641238 36.2198382 146.251238 36.2198382 146.251238 35.4498382 150.011238 35.4498382 150.011238 36.2198382 148.611238 36.2198382 148.611238 40.3098382 147.611238 40.3098382"></polygon>
            <path d="M156.161238,35.3398382 C157.18751,35.2866169 158.142556,35.8643611 158.571793,36.7980759 C159.001029,37.7317908 158.817738,38.8328383 158.109161,39.5771412 C157.400585,40.3214441 156.309877,40.5586313 155.356193,40.1758063 C154.40251,39.7929813 153.778523,38.867486 153.781238,37.8398382 C153.716501,37.1802265 153.941993,36.5250917 154.398987,36.0450556 C154.855982,35.5650194 155.499242,35.3075997 156.161238,35.3398382 Z M156.161238,39.5998382 C157.161238,39.5998382 157.531238,38.7098382 157.531238,37.8398382 C157.531238,36.9698382 157.131238,36.0998382 156.161238,36.0998382 C155.191238,36.0998382 154.801238,36.9798382 154.801238,37.8398382 C154.801238,38.6998382 155.171238,39.5998382 156.161238,39.5998382 Z" id="Shape" fill="#1A171B"></path>
            <path d="M162.871238,35.4198382 L163.871238,35.4198382 C164.871238,35.4198382 166.161238,35.4198382 166.161238,36.7398382 C166.165065,37.316487 165.734072,37.8035094 165.161238,37.8698382 L165.161238,37.8698382 C165.431238,37.8698382 165.581238,38.1498382 165.681238,38.3698382 L166.461238,40.2698382 L165.371238,40.2698382 L164.791238,38.7498382 C164.651238,38.3898382 164.521238,38.2498382 164.111238,38.2498382 L163.801238,38.2498382 L163.801238,40.2498382 L162.801238,40.2498382 L162.871238,35.4198382 Z M163.871238,37.4998382 L164.191238,37.4998382 C164.671238,37.4998382 165.191238,37.4298382 165.191238,36.8198382 C165.191238,36.2098382 164.651238,36.1898382 164.191238,36.1898382 L163.871238,36.1898382 L163.871238,37.4998382 Z" id="Shape" fill="#1A171B"></path>
            <polygon id="Path" fill="#1A171B" points="170.641238 35.4198382 171.641238 35.4198382 171.641238 40.2798382 170.641238 40.2798382"></polygon>
            <polygon id="Path" fill="#1A171B" points="176.161238 35.4198382 179.031238 35.4198382 179.031238 36.2198382 177.141238 36.2198382 177.141238 37.4198382 178.871238 37.4198382 178.871238 38.1798382 177.141238 38.1798382 177.141238 39.5398382 179.041238 39.5398382 179.041238 40.3098382 176.161238 40.3098382"></polygon>
            <path d="M186.031238,36.3098382 C185.715239,36.1738696 185.375238,36.1024695 185.031238,36.0998382 C184.835884,36.0737453 184.638819,36.1336942 184.49109,36.264156 C184.343361,36.3946178 184.259503,36.5827569 184.261238,36.7798382 C184.261238,37.6198382 186.391238,37.2698382 186.391238,38.8898382 C186.391238,39.9598382 185.551238,40.3598382 184.571238,40.3598382 C184.148334,40.3568376 183.727806,40.2962817 183.321238,40.1798382 L183.411238,39.2998382 C183.751311,39.4886777 184.132338,39.5916577 184.521238,39.5998382 C184.881238,39.5998382 185.381238,39.4098382 185.381238,38.9698382 C185.381238,38.0498382 183.251238,38.4298382 183.251238,36.8198382 C183.251238,35.7298382 184.091238,35.3398382 184.951238,35.3398382 C185.344527,35.3338049 185.736218,35.3912078 186.111238,35.5098382 L186.031238,36.3098382 Z" id="Path" fill="#1A171B"></path>
            <polygon id="Path" fill="#1A171B" points="196.181238 35.4198382 197.181238 35.4198382 197.181238 39.5098382 199.071238 39.5098382 199.071238 40.2798382 196.201238 40.2798382"></polygon>
            <polygon id="Path" fill="#1A171B" points="203.591238 36.2198382 202.201238 36.2198382 202.201238 35.4498382 205.961238 35.4498382 205.961238 36.2198382 204.571238 36.2198382 204.571238 40.3098382 203.571238 40.3098382"></polygon>
            <path d="M210.071238,35.4198382 L211.391238,35.4198382 C212.881238,35.4198382 214.201238,35.9198382 214.201238,37.8498382 C214.201238,39.7798382 212.881238,40.2798382 211.391238,40.2798382 L210.071238,40.2798382 L210.071238,35.4198382 Z M211.071238,39.5098382 L211.611238,39.5098382 C212.528031,39.5098382 213.271238,38.7666309 213.271238,37.8498382 C213.271238,36.9330456 212.528031,36.1898382 211.611238,36.1898382 L211.071238,36.1898382 L211.071238,39.5098382 Z" id="Shape" fill="#1A171B"></path>
            <polygon id="Path" fill="#1A171B" points="217.141238 39.2998382 218.141238 39.2998382 218.141238 40.2998382 217.141238 40.2998382"></polygon>
        </g>
    </g>
</svg>