<svg id="Layer_1" data-name="Layer 1" xmlns="http://www.w3.org/2000/svg" viewBox="0 0 600 120.55">
    <defs>
        <style>.cls-1{fill:#fff;}</style>
    </defs>
    <rect class="cls-1" x="221.93" y="0.27" width="18.8" height="86.14"/>
    <path class="cls-1"
          d="M977,440.66c-18.59,0-29.14,1.32-38.67,6.91-10.26,6.06-15.49,18.72-15.54,34.83v2.54c.05,16.17,5.26,28.83,15.54,34.89,9.48,5.59,20,6.93,38.48,6.95h16V509.93H973.06c-21.12,0-31.45-2.45-31.45-26v-.53c0-23.51,10.33-26,31.45-26h33.79v69.3h18.8V440.66Z"
          transform="translate(-663.91 -440.37)"/>
    <path class="cls-1"
          d="M1238.5,510h-45.08c-21.11,0-31.44-2.47-31.44-26v-.55c0-23.5,10.33-26,31.44-26h45.08V440.64h-41.12c-18.57,0-29.13,1.35-38.65,6.93-10.26,6.07-15.49,18.71-15.54,34.86V485c0,16.15,5.28,28.83,15.54,34.89,9.48,5.6,20,6.93,38.46,6.93h41.31Z"
          transform="translate(-663.91 -440.37)"/>
    <path class="cls-1"
          d="M869.67,442.58c-71.35-10.84-87.48,20.34-87.48,46.14v38.06H801V491.55c0-23.9,15.91-40,68.7-32.09Z"
          transform="translate(-663.91 -440.37)"/>
    <path class="cls-1"
          d="M1133.67,442.58c-71.37-10.84-87.53,20.34-87.53,46.14v38.06H1065V491.55c0-23.9,15.9-40,68.72-32.09Z"
          transform="translate(-663.91 -440.37)"/>
    <path class="cls-1" d="M1248.41,441.78h-2.85v-1.16h7v1.16h-2.84v8h-1.31Z" transform="translate(-663.91 -440.37)"/>
    <path class="cls-1"
          d="M1253.88,440.62h2.17l2.88,7.61,2.82-7.61h2.16v9.16h-1.31v-7.92h0l-3,7.92h-1.29l-3-7.92h0v7.92h-1.32Z"
          transform="translate(-663.91 -440.37)"/>
    <polygon class="cls-1"
             points="0 0.27 0 17.09 43.65 17.09 43.63 86.42 62.48 86.42 62.48 17.09 106.09 17.09 106.09 0.27 0 0.27"/>
    <path class="cls-1" d="M752.74,543.24h3.49v14.64H763v2.74H752.74Z" transform="translate(-663.91 -440.37)"/>
    <path class="cls-1"
          d="M783.55,543.24h3.93l6.82,17.38h-3.86l-1.49-4H781.9l-1.52,4h-3.61Zm1.91,3.49h0l-2.53,7.17H788Z"
          transform="translate(-663.91 -440.37)"/>
    <path class="cls-1"
          d="M809,543.24h6.08c2.24,0,5.6.65,5.6,4.46a3.88,3.88,0,0,1-3.47,3.88v.06a4,4,0,0,1,4,4c0,4.39-3.93,5-6.12,5H809Zm3.49,7h1.41c1.47,0,3.29-.32,3.29-2.11,0-2-1.77-2.17-3.36-2.17h-1.34Zm0,7.62h1.64c1.62,0,3.58-.4,3.58-2.41,0-2.27-1.84-2.62-3.58-2.62h-1.64Z"
          transform="translate(-663.91 -440.37)"/>
    <path class="cls-1"
          d="M844.29,543c5.45,0,8.51,3.68,8.51,8.93s-3,9-8.51,9-8.51-3.71-8.51-9S838.76,543,844.29,543Zm0,15.23c3.56,0,4.88-3.16,4.88-6.3s-1.42-6.2-4.88-6.2-4.88,3.14-4.88,6.2S840.73,558.18,844.29,558.18Z"
          transform="translate(-663.91 -440.37)"/>
    <path class="cls-1"
          d="M868.25,543.24H872c3.72,0,8.18-.12,8.18,4.71a4,4,0,0,1-3.59,4v0c1,.08,1.5,1,1.84,1.79l2.79,6.8h-3.88l-2.09-5.43c-.5-1.29-.94-1.8-2.41-1.8h-1.13v7.23h-3.48Zm3.48,7.42h1.15c1.72,0,3.69-.24,3.69-2.41s-2-2.27-3.69-2.27h-1.15Z"
          transform="translate(-663.91 -440.37)"/>
    <path class="cls-1" d="M902,543.24h3.94l6.82,17.38h-3.86l-1.49-4h-7l-1.52,4H895.2Zm1.92,3.49h0l-2.53,7.17h5.09Z"
          transform="translate(-663.91 -440.37)"/>
    <path class="cls-1" d="M929,546h-5v-2.74h13.44V546h-5v14.64H929Z" transform="translate(-663.91 -440.37)"/>
    <path class="cls-1"
          d="M959.51,543c5.46,0,8.52,3.68,8.52,8.93s-3,9-8.52,9-8.51-3.71-8.51-9S954,543,959.51,543Zm0,15.23c3.56,0,4.88-3.16,4.88-6.3s-1.42-6.2-4.88-6.2-4.88,3.14-4.88,6.2S956,558.18,959.51,558.18Z"
          transform="translate(-663.91 -440.37)"/>
    <path class="cls-1"
          d="M983.47,543.24h3.76c3.74,0,8.19-.12,8.19,4.71a4,4,0,0,1-3.58,4v0c.95.08,1.49,1,1.84,1.79l2.79,6.8h-3.89l-2.08-5.43c-.5-1.29-1-1.8-2.42-1.8H987v7.23h-3.49Zm3.49,7.42h1.14c1.72,0,3.69-.24,3.69-2.41S989.85,546,988.1,546H987Z"
          transform="translate(-663.91 -440.37)"/>
    <path class="cls-1" d="M1011.28,543.24h3.49v17.38h-3.49Z" transform="translate(-663.91 -440.37)"/>
    <path class="cls-1" d="M1031,543.24h10.25V546h-6.77v4.28h6.2V553h-6.2v4.88h6.82v2.74H1031Z"
          transform="translate(-663.91 -440.37)"/>
    <path class="cls-1"
          d="M1066.32,546.43a9.06,9.06,0,0,0-3.54-.75c-1.2,0-2.74.52-2.74,2.41,0,3,7.62,1.75,7.62,7.57,0,3.81-3,5.26-6.53,5.26a15.4,15.4,0,0,1-4.45-.67l.33-3.14a8.33,8.33,0,0,0,3.93,1.07c1.32,0,3.08-.67,3.08-2.24,0-3.31-7.61-1.94-7.61-7.69,0-3.89,3-5.3,6.08-5.3a12.94,12.94,0,0,1,4.15.62Z"
          transform="translate(-663.91 -440.37)"/>
    <path class="cls-1" d="M1102.64,543.24h3.48v14.64h6.76v2.74h-10.24Z" transform="translate(-663.91 -440.37)"/>
    <path class="cls-1" d="M1129.13,546h-5v-2.74h13.45V546h-5v14.64h-3.49Z" transform="translate(-663.91 -440.37)"/>
    <path class="cls-1"
          d="M1152.29,543.24H1157c5.33,0,10,1.8,10,8.69s-4.71,8.69-10,8.69h-4.75Zm3.49,14.64h1.93a6,6,0,0,0,0-11.9h-1.93Z"
          transform="translate(-663.91 -440.37)"/>
    <path class="cls-1" d="M1177.6,557.13h3.49v3.49h-3.49Z" transform="translate(-663.91 -440.37)"/>
</svg>
