<?xml version="1.0" encoding="UTF-8"?>
<svg width="242px" height="42px" viewBox="0 0 242 42" version="1.1" xmlns="http://www.w3.org/2000/svg" xmlns:xlink="http://www.w3.org/1999/xlink">
    <title>Group</title>
    <g id="Page-1" stroke="none" stroke-width="1" fill="none" fill-rule="evenodd">
        <g id="Group" transform="translate(0.409084, 0.980233)" fill-rule="nonzero">
            <path d="M9.71091556,31.5397667 L9.71091556,31.5397667 C9.71091556,17.8997667 18.7109156,9.74976669 33.9009156,9.73976669 C49.0909156,9.72976669 58.0809156,17.8997667 58.0809156,31.5397667 L58.0809156,40.3097667 L67.7909156,40.3097667 L67.7909156,31.5497667 L67.7909156,31.5497667 C67.8609156,22.6797667 64.9609156,15.0397667 59.4209156,9.44976669 C56.2183108,6.27368313 52.3525657,3.84564007 48.1009156,2.33976669 C38.8878443,-0.779922229 28.9039869,-0.779922229 19.6909156,2.33976669 C15.4422585,3.84575958 11.5798005,6.27388308 8.38091556,9.44976669 C2.83091556,15.0397667 -0.0590844405,22.6797667 0.000915559463,31.5497667 L0.000915559463,31.5497667 L0.000915559463,40.3097667 L9.71091556,40.3097667 L9.71091556,31.5397667 Z" id="Path" fill="#DC002E"></path>
            <path d="M55.5209156,32.6097667 L55.5209156,32.6097667 C55.5209156,16.3897667 44.3409156,12.1697667 33.9009156,12.1697667 C23.4609156,12.1697667 12.2809156,16.3897667 12.2809156,32.6097667 L12.2809156,32.6097667 L12.2809156,40.3097667 L19.5809156,40.3097667 L19.5809156,32.6097667 L19.5809156,32.6097667 C19.5809156,25.0197667 24.9409156,19.1097667 33.9209156,19.1097667 C42.9009156,19.1097667 48.2509156,25.0297667 48.2509156,32.6097667 L48.2509156,32.6097667 L48.2509156,40.3097667 L55.5409156,40.3097667 L55.5409156,32.6097667 L55.5209156,32.6097667 Z" id="Path" fill="#009534"></path>
            <path d="M33.9009156,21.6497667 C26.9009156,21.6497667 22.1409156,26.3597667 22.1409156,33.3697667 L22.1409156,40.3097667 L26.9909156,40.3097667 L26.9909156,33.3797667 C26.9909156,29.0797667 29.5709156,26.5197667 33.9009156,26.5197667 C38.2309156,26.5197667 40.8009156,29.0797667 40.8009156,33.3797667 L40.8009156,40.3097667 L45.6609156,40.3097667 L45.6609156,33.3797667 C45.6609156,26.3597667 40.9309156,21.6497667 33.9009156,21.6497667 Z" id="Path" fill="#007BC0"></path>
            <rect id="Rectangle" fill="#FFFFFF" x="135.570916" y="6.75976669" width="5.26" height="24.09"></rect>
            <path d="M161.070916,6.76976669 C155.870916,6.76976669 152.920916,7.13976669 150.250916,8.69976669 C147.380916,10.3897667 145.920916,13.9297667 145.910916,18.4397667 L145.910916,19.1497667 C145.910916,23.6697667 147.380916,27.2097667 150.250916,28.8997667 C152.900916,30.4697667 155.850916,30.8397667 161.010916,30.8497667 L165.490916,30.8497667 L165.490916,26.1297667 L159.960916,26.1297667 C154.050916,26.1297667 151.160916,25.4497667 151.160916,18.8797667 L151.160916,18.7297667 C151.160916,12.1497667 154.050916,11.4697667 159.960916,11.4697667 L169.410916,11.4697667 L169.410916,30.8497667 L174.660916,30.8497667 L174.660916,6.76976669 L161.070916,6.76976669 Z" id="Path" fill="#FFFFFF"></path>
            <path d="M234.170916,26.1397667 L221.580916,26.1397667 C215.680916,26.1397667 212.790916,25.4497667 212.790916,18.8897667 L212.790916,18.7297667 C212.790916,12.1597667 215.680916,11.4697667 221.580916,11.4697667 L234.180916,11.4697667 L234.180916,6.75976669 L222.680916,6.75976669 C217.480916,6.75976669 214.530916,7.13976669 211.870916,8.69976669 C209.000916,10.3997667 207.540916,13.9297667 207.530916,18.4497667 L207.530916,19.1497667 C207.530916,23.6697667 209.000916,27.2097667 211.870916,28.9097667 C214.520916,30.4697667 217.470916,30.8497667 222.630916,30.8497667 L234.170916,30.8497667 L234.170916,26.1397667 Z" id="Path" fill="#FFFFFF"></path>
            <path d="M131.050916,7.30976669 C111.050916,4.30976669 106.590916,12.9997667 106.590916,20.2097667 L106.590916,30.8597667 L111.840916,30.8597667 L111.840916,20.9997667 C111.840916,14.3197667 116.290916,9.82976669 131.050916,11.9997667 L131.050916,7.30976669 Z" id="Path" fill="#FFFFFF"></path>
            <path d="M204.860916,7.30976669 C184.860916,4.30976669 180.390916,12.9997667 180.390916,20.2097667 L180.390916,30.8597667 L185.650916,30.8597667 L185.650916,20.9997667 C185.650916,14.3197667 190.100916,9.82976669 204.860916,11.9997667 L204.860916,7.30976669 Z" id="Path" fill="#FFFFFF"></path>
            <polygon id="Path" fill="#FFFFFF" points="236.950916 7.07976669 236.150916 7.07976669 236.150916 6.75976669 238.150916 6.75976669 238.150916 7.07976669 237.350916 7.07976669 237.350916 9.30976669 236.990916 9.30976669"></polygon>
            <polygon id="Path" fill="#FFFFFF" points="238.480916 6.75976669 239.080916 6.75976669 239.890916 8.87976669 240.670916 6.75976669 241.280916 6.75976669 241.280916 9.30976669 240.910916 9.30976669 240.910916 7.08976669 240.910916 7.08976669 240.060916 9.30976669 239.700916 9.30976669 238.850916 7.08976669 238.850916 7.08976669 238.850916 9.30976669 238.490916 9.30976669"></polygon>
            <polygon id="Path" fill="#FFFFFF" points="73.5109156 6.75976669 73.5109156 11.4597667 85.7209156 11.4597667 85.7109156 30.8497667 90.9809156 30.8497667 90.9809156 11.4597667 103.180916 11.4597667 103.180916 6.75976669"></polygon>
            <polygon id="Path" fill="#FFFFFF" points="98.3609156 35.4497667 99.3609156 35.4497667 99.3609156 39.5397667 101.250916 39.5397667 101.250916 40.3097667 98.3909156 40.3097667"></polygon>
            <path d="M106.970916,35.4497667 L108.070916,35.4497667 L109.980916,40.3097667 L108.900916,40.3097667 L108.480916,39.1897667 L106.480916,39.1897667 L106.050916,40.3097667 L105.050916,40.3097667 L106.970916,35.4497667 Z M107.500916,36.4497667 L107.500916,36.4497667 L106.800916,38.4497667 L108.220916,38.4497667 L107.500916,36.4497667 Z" id="Shape" fill="#FFFFFF"></path>
            <path d="M114.090916,35.4497667 L115.790916,35.4497667 C116.420916,35.4497667 117.360916,35.6297667 117.360916,36.6897667 C117.367762,37.2601799 116.929806,37.7375519 116.360916,37.7797667 L116.360916,37.7797667 C116.967853,37.7850896 117.4601,38.2729023 117.470916,38.8797667 C117.470916,40.1097667 116.380916,40.2897667 115.760916,40.2897667 L114.060916,40.2897667 L114.090916,35.4497667 Z M115.090916,37.4497667 L115.480916,37.4497667 C115.900916,37.4497667 116.400916,37.3597667 116.400916,36.8597667 C116.400916,36.3597667 115.910916,36.2497667 115.470916,36.2497667 L115.090916,36.2497667 L115.090916,37.4497667 Z M115.090916,39.5797667 L115.550916,39.5797667 C116.000916,39.5797667 116.550916,39.4697667 116.550916,38.9097667 C116.550916,38.3497667 116.030916,38.1797667 115.550916,38.1797667 L115.090916,38.1797667 L115.090916,39.5797667 Z" id="Shape" fill="#FFFFFF"></path>
            <path d="M123.950916,35.3697667 C124.612935,35.3309948 125.258577,35.5849434 125.716789,36.0643336 C126.175001,36.5437237 126.399539,37.2001727 126.330916,37.8597667 C126.330916,39.1742044 125.265353,40.2397667 123.950916,40.2397667 C122.636478,40.2397667 121.570916,39.1742044 121.570916,37.8597667 C121.498703,37.1993563 121.722036,36.5407914 122.181072,36.0605391 C122.640109,35.5802868 123.287918,35.3274458 123.950916,35.3697667 L123.950916,35.3697667 Z M123.950916,39.6197667 C124.950916,39.6197667 125.320916,38.7397667 125.320916,37.8597667 C125.320916,36.9797667 124.920916,36.1297667 123.950916,36.1297667 C122.980916,36.1297667 122.590916,37.0097667 122.590916,37.8597667 C122.590916,38.7097667 122.960916,39.6197667 123.950916,39.6197667 Z" id="Shape" fill="#FFFFFF"></path>
            <path d="M130.650916,35.4497667 L131.650916,35.4497667 C132.700916,35.4497667 133.940916,35.4497667 133.940916,36.7597667 C133.95918,37.3417297 133.52078,37.8371214 132.940916,37.8897667 L132.940916,37.8897667 C133.210916,37.8897667 133.360916,38.1797667 133.450916,38.3997667 L134.230916,40.2997667 L133.150916,40.2997667 L132.560916,38.7797667 C132.430916,38.4197667 132.300916,38.2797667 131.890916,38.2797667 L131.580916,38.2797667 L131.580916,40.2797667 L130.580916,40.2797667 L130.650916,35.4497667 Z M131.650916,37.5197667 L131.970916,37.5197667 C132.450916,37.5197667 132.970916,37.4497667 132.970916,36.8497667 C132.970916,36.2497667 132.420916,36.2097667 131.970916,36.2097667 L131.650916,36.2097667 L131.650916,37.5197667 Z" id="Shape" fill="#FFFFFF"></path>
            <path d="M140.080916,35.4497667 L141.180916,35.4497667 L143.090916,40.3097667 L142.010916,40.3097667 L141.590916,39.1897667 L139.590916,39.1897667 L139.170916,40.3097667 L138.170916,40.3097667 L140.080916,35.4497667 Z M140.620916,36.4497667 L140.620916,36.4497667 L139.920916,38.4497667 L141.340916,38.4497667 L140.620916,36.4497667 Z" id="Shape" fill="#FFFFFF"></path>
            <polygon id="Path" fill="#FFFFFF" points="147.650916 36.2097667 146.250916 36.2097667 146.250916 35.4497667 150.010916 35.4497667 150.010916 36.2097667 148.580916 36.2097667 148.580916 40.3097667 147.580916 40.3097667"></polygon>
            <path d="M156.170916,35.3697667 C157.198096,35.3165173 158.15381,35.8953377 158.582482,36.830311 C159.011153,37.7652843 158.826017,38.8671683 158.115324,39.6107077 C157.404632,40.354247 156.312231,40.5889466 155.358856,40.2029278 C154.405481,39.816909 153.784099,38.8883034 153.790916,37.8597667 C153.715046,37.1985371 153.937152,36.5378123 154.397032,36.0566772 C154.856912,35.575542 155.506935,35.3238303 156.170916,35.3697667 L156.170916,35.3697667 Z M156.170916,39.6197667 C157.170916,39.6197667 157.530916,38.7397667 157.530916,37.8597667 C157.530916,36.9797667 157.140916,36.1297667 156.170916,36.1297667 C155.200916,36.1297667 154.800916,37.0097667 154.800916,37.8597667 C154.800916,38.7097667 155.170916,39.6197667 156.170916,39.6197667 Z" id="Shape" fill="#FFFFFF"></path>
            <path d="M162.870916,35.4497667 L163.870916,35.4497667 C164.870916,35.4497667 166.160916,35.4497667 166.160916,36.7597667 C166.17918,37.3417297 165.74078,37.8371214 165.160916,37.8897667 L165.160916,37.8897667 C165.420916,37.8897667 165.580916,38.1797667 165.670916,38.3997667 L166.450916,40.2997667 L165.360916,40.2997667 L164.780916,38.7797667 C164.640916,38.4197667 164.520916,38.2797667 164.110916,38.2797667 L163.790916,38.2797667 L163.790916,40.2797667 L162.790916,40.2797667 L162.870916,35.4497667 Z M163.870916,37.5197667 L164.190916,37.5197667 C164.670916,37.5197667 165.190916,37.4497667 165.190916,36.8497667 C165.190916,36.2497667 164.650916,36.2097667 164.190916,36.2097667 L163.870916,36.2097667 L163.870916,37.5197667 Z" id="Shape" fill="#FFFFFF"></path>
            <polygon id="Path" fill="#FFFFFF" points="170.640916 35.4497667 171.640916 35.4497667 171.640916 40.3097667 170.640916 40.3097667"></polygon>
            <polygon id="Path" fill="#FFFFFF" points="176.170916 35.4497667 179.040916 35.4497667 179.040916 36.2097667 177.140916 36.2097667 177.140916 37.4097667 178.870916 37.4097667 178.870916 38.1797667 177.140916 38.1797667 177.140916 39.5397667 179.050916 39.5397667 179.050916 40.3097667 176.170916 40.3097667"></polygon>
            <path d="M186.030916,36.3097667 C185.715507,36.17194 185.375122,36.1004591 185.030916,36.0997667 C184.838224,36.0736379 184.643686,36.1325141 184.49782,36.2611064 C184.351954,36.3896986 184.269152,36.5753195 184.270916,36.7697667 C184.270916,37.6197667 186.400916,37.2597667 186.400916,38.8897667 C186.400916,39.9597667 185.560916,40.3597667 184.570916,40.3597667 C184.150378,40.3591704 183.732338,40.2951159 183.330916,40.1697667 L183.420916,39.2897667 C183.755031,39.4842582 184.134321,39.5877008 184.520916,39.5897667 C184.890916,39.5897667 185.380916,39.4097667 185.380916,38.9697667 C185.380916,38.0397667 183.250916,38.4297667 183.250916,36.8197667 C183.250916,35.7297667 184.090916,35.3397667 184.950916,35.3397667 C185.344297,35.3323047 185.736218,35.3897414 186.110916,35.5097667 L186.030916,36.3097667 Z" id="Path" fill="#FFFFFF"></path>
            <polygon id="Path" fill="#FFFFFF" points="196.190916 35.4497667 197.190916 35.4497667 197.190916 39.5397667 199.080916 39.5397667 199.080916 40.3097667 196.220916 40.3097667"></polygon>
            <polygon id="Path" fill="#FFFFFF" points="203.580916 36.2097667 202.180916 36.2097667 202.180916 35.4497667 205.940916 35.4497667 205.940916 36.2097667 204.580916 36.2097667 204.580916 40.3097667 203.580916 40.3097667"></polygon>
            <path d="M210.070916,35.4497667 L211.400916,35.4497667 C212.890916,35.4497667 214.200916,35.9497667 214.200916,37.8797667 C214.200916,39.8097667 212.890916,40.3097667 211.400916,40.3097667 L210.070916,40.3097667 L210.070916,35.4497667 Z M211.070916,39.5397667 L211.620916,39.5397667 C212.490535,39.4723219 213.161784,38.7469979 213.161784,37.8747667 C213.161784,37.0025354 212.490535,36.2772114 211.620916,36.2097667 L211.070916,36.2097667 L211.070916,39.5397667 Z" id="Shape" fill="#FFFFFF"></path>
            <polygon id="Path" fill="#FFFFFF" points="217.150916 39.3097667 218.150916 39.3097667 218.150916 40.3097667 217.150916 40.3097667"></polygon>
        </g>
    </g>
</svg>