<?xml version="1.0" encoding="UTF-8"?>
<svg id="Logos" xmlns="http://www.w3.org/2000/svg" version="1.1" viewBox="0 0 300.22 40.31">
  <!-- Generator: Adobe Illustrator 30.0.0, SVG Export Plug-In . SVG Version: 2.1.1 Build 123)  -->
  <defs>
    <style>
      .st0 {
        fill: #fff;
      }
    </style>
  </defs>
  <g>
    <path class="st0" d="M9.71,31.55v-.04c0-13.64,9.04-21.79,24.18-21.8,15.14,0,24.19,8.16,24.19,21.8v8.8h9.71v-8.77h0c.06-8.87-2.83-16.51-8.38-22.1-3.08-3.1-6.89-5.49-11.32-7.1-4.28-1.56-9.06-2.35-14.2-2.35s-9.92.79-14.2,2.35c-4.43,1.61-8.24,4-11.31,7.1C2.83,15.04-.06,22.68,0,31.55H0v8.77h9.71v-8.77Z"/>
    <path class="st0" d="M55.52,32.62h0c0-16.22-11.18-20.44-21.62-20.44s-21.62,4.22-21.62,20.44h0v7.69h7.28v-7.69h0c0-7.59,5.36-13.5,14.34-13.5s14.34,5.92,14.34,13.5h0v7.69h7.29v-7.69h0Z"/>
    <path class="st0" d="M33.9,21.66c-7.03,0-11.76,4.71-11.76,11.72v6.93h4.85v-6.93c0-4.3,2.58-6.86,6.91-6.86s6.91,2.57,6.91,6.86v6.93h4.85v-6.93c0-7.01-4.73-11.72-11.76-11.72Z"/>
  </g>
  <g>
    <rect class="st0" x="163.64" y="6.96" width="7.28" height="33.36"/>
    <path class="st0" d="M198.95,6.96c-7.2,0-11.29.51-14.98,2.68-3.97,2.35-6,7.25-6.02,13.5v.98c.02,6.26,2.04,11.17,6.02,13.51,3.67,2.17,7.76,2.68,14.9,2.69h6.2v-6.52h-7.67c-8.18,0-12.18-.95-12.18-10.05v-.2c0-9.1,4-10.05,12.18-10.05h13.09v26.84h7.28V6.96h-18.83Z"/>
    <path class="st0" d="M300.22,33.8h-17.46c-8.17,0-12.17-.95-12.17-10.06v-.21c0-9.1,4-10.06,12.17-10.06h17.46v-6.52h-15.92c-7.19,0-11.28.53-14.97,2.69-3.97,2.35-6,7.24-6.01,13.5v.98c.01,6.25,2.05,11.17,6.01,13.51,3.67,2.17,7.75,2.68,14.9,2.68h15.99v-6.51Z"/>
    <path class="st0" d="M157.37,7.71c-27.63-4.19-33.88,7.88-33.88,17.87v14.74h7.28v-13.64c0-9.25,6.16-15.48,26.6-12.43v-6.54Z"/>
    <path class="st0" d="M259.62,7.71c-27.64-4.19-33.9,7.88-33.9,17.87v14.74h7.29v-13.64c0-9.25,6.16-15.48,26.62-12.43v-6.54Z"/>
    <polygon class="st0" points="77.69 6.96 77.69 13.47 94.59 13.47 94.59 40.31 101.88 40.31 101.88 13.47 118.77 13.47 118.77 6.96 77.69 6.96"/>
  </g>
</svg>