<svg id="Ebene_1" data-name="Ebene 1" xmlns="http://www.w3.org/2000/svg" viewBox="0 0 288.21 259.08">
    <defs>
        <style>
            .cls-1{fill:#00973a;}.cls-2{fill:#0a7bc0;}.cls-3{fill:#dd0b2f;}
            .cls-4{fill:#009739;}.cls-5{fill:#077bc0;}.cls-6{fill:#fff;}
        </style>
    </defs>
    <path class="cls-1" d="M135.6,149.18a28.49,28.49,0,1,1-28.48-28.49,28.48,28.48,0,0,1,28.48,28.49"/>
    <path class="cls-1" d="M91.59,96.51A24.19,24.19,0,1,1,67.4,72.32,24.19,24.19,0,0,1,91.59,96.51"/>
    <path class="cls-2" d="M187.2,62.36a27.54,27.54,0,1,1-27.54-27.53A27.54,27.54,0,0,1,187.2,62.36"/>
    <path class="cls-3" d="M70.76,145.62a20.49,20.49,0,1,1-20.48-20.49,20.48,20.48,0,0,1,20.48,20.49"/>
    <path class="cls-1" d="M125.17,35.31A31.72,31.72,0,1,1,93.45,3.59a31.72,31.72,0,0,1,31.72,31.72"/>
    <path class="cls-1" d="M195.75,128.64a27.93,27.93,0,1,1-27.92-27.93,27.92,27.92,0,0,1,27.92,27.93"/>
    <path class="cls-4" d="M135.17,94.76a18.54,18.54,0,1,1-18.54-18.54,18.54,18.54,0,0,1,18.54,18.54"/>
    <path class="cls-1" d="M213.64,90.59a13.41,13.41,0,1,1-13.41-13.41,13.42,13.42,0,0,1,13.41,13.41"/>
    <path class="cls-1" d="M155.77,14.75A13.41,13.41,0,1,1,142.36,1.33a13.41,13.41,0,0,1,13.41,13.42"/>
    <path class="cls-1" d="M56.42,57.16A15.2,15.2,0,1,1,41.22,42a15.2,15.2,0,0,1,15.2,15.21"/>
    <path class="cls-1" d="M37,110a17.3,17.3,0,1,1-17.29-17.3A17.29,17.29,0,0,1,37,110"/>
    <path class="cls-1"
          d="M107.9,257.74a2.89,2.89,0,0,1-2.89-2.89V234.71l.1-10.23V197.6a2.9,2.9,0,0,1,5.79,0v26.91l-.11,10.23v20.11a2.89,2.89,0,0,1-2.89,2.89"/>
    <path class="cls-3"
          d="M78.11,248.74a2.9,2.9,0,0,1,0-5.79c1.44,0,14.16-.5,14.16-14.16l.11-25.35a14.18,14.18,0,0,0-2.59-8.81,2.89,2.89,0,1,1,4.61-3.5,19.89,19.89,0,0,1,3.76,12.32l-.11,25.35c0,19.71-19.74,19.94-19.94,19.94"/>
    <path class="cls-5"
          d="M137.7,249.72c-.2,0-19.95-.23-19.95-19.95l.1-31.49c0-10.16,5.4-15.07,9.92-17.4a2.89,2.89,0,1,1,2.65,5.14c-4.5,2.32-6.79,6.44-6.79,12.27l-.1,31.49c0,13.66,12.73,14.15,14.18,14.16a2.89,2.89,0,0,1,0,5.78"/>
    <path class="cls-6"
          d="M147.4,196.63a2.48,2.48,0,0,1,.68-1.88,3.78,3.78,0,0,1,4.3,0,2.46,2.46,0,0,1,.71,1.88v15.91c0,3.11.62,5.38,1.88,6.8a6.58,6.58,0,0,0,5.21,2.13,8,8,0,0,0,1.89-.22,8.31,8.31,0,0,0,3-1.45,12.87,12.87,0,0,0,1.17-1,11.3,11.3,0,0,0,2-2.67V196.63a2.45,2.45,0,0,1,.7-1.88,3.77,3.77,0,0,1,4.29,0,2.49,2.49,0,0,1,.7,1.88v26.86a2.41,2.41,0,0,1-.62,1.77,2.44,2.44,0,0,1-1.78.62,2.78,2.78,0,0,1-1-.17,1.86,1.86,0,0,1-.73-.48,2.75,2.75,0,0,1-.5-.78,4,4,0,0,1-.29-1.09l-.31-2.14h-.1a10.24,10.24,0,0,1-2.27,2.48,12.24,12.24,0,0,1-2.94,1.7,10.62,10.62,0,0,1-4.21.76,11.47,11.47,0,0,1-3-.34,10,10,0,0,1-2.07-.78,5.83,5.83,0,0,1-1.58-1.12l-.06.06.46,8.34c0,.23,0,.45,0,.67s0,.43,0,.64v1.15a2.43,2.43,0,0,1-.76,2,3.15,3.15,0,0,1-2,.61,3,3,0,0,1-2.14-.67,2.5,2.5,0,0,1-.69-1.88Z"/>
    <path class="cls-6"
          d="M205.21,220.72a2.12,2.12,0,0,1,1.61.62,2.55,2.55,0,0,1,.59,1.83,2.52,2.52,0,0,1-.59,1.83,2.15,2.15,0,0,1-1.61.6h-19a2.8,2.8,0,0,1-2.07-.73,2.83,2.83,0,0,1-.72-2.07V185.16a2.5,2.5,0,0,1,.71-1.92,4,4,0,0,1,4.4,0,2.51,2.51,0,0,1,.73,1.92v35.56Z"/>
    <path class="cls-6"
          d="M211.75,196.63a2.49,2.49,0,0,1,.7-1.88,3.74,3.74,0,0,1,4.27,0,2.43,2.43,0,0,1,.72,1.88v26.61a2.44,2.44,0,0,1-.72,1.88,3.74,3.74,0,0,1-4.27,0,2.5,2.5,0,0,1-.7-1.88Zm-1-12a3.84,3.84,0,0,1,.29-1.54,3.78,3.78,0,0,1,.81-1.21,3.61,3.61,0,0,1,1.23-.81,4,4,0,0,1,1.58-.3,3.88,3.88,0,0,1,2.71,1.09,3.88,3.88,0,0,1,.79,1.18,3.63,3.63,0,0,1,.3,1.46,3.94,3.94,0,0,1-.3,1.53,3.53,3.53,0,0,1-.81,1.21,3.88,3.88,0,0,1-1.23.79,4,4,0,0,1-1.58.3A3.8,3.8,0,0,1,213,188a4,4,0,0,1-1.2-.77,3.83,3.83,0,0,1-.79-1.17,3.63,3.63,0,0,1-.29-1.46"/>
    <path class="cls-6"
          d="M226.32,196.38a2.15,2.15,0,0,1,2.36-2.36,3,3,0,0,1,1,.15,2,2,0,0,1,.75.47,2.3,2.3,0,0,1,.51.78,3.94,3.94,0,0,1,.3,1.08l.28,2.15h.09a10.55,10.55,0,0,1,2.33-2.49,10.84,10.84,0,0,1,1.37-.9,12.26,12.26,0,0,1,1.71-.78,13.7,13.7,0,0,1,2-.56,12.67,12.67,0,0,1,2.38-.22,13.69,13.69,0,0,1,4.88.83A9.54,9.54,0,0,1,250,197a11,11,0,0,1,2.32,4,17.28,17.28,0,0,1,.8,5.53v16.73a2.48,2.48,0,0,1-.69,1.88,3,3,0,0,1-2.13.67,3,3,0,0,1-2.15-.67,2.42,2.42,0,0,1-.71-1.88V207.32a14.32,14.32,0,0,0-.49-4,7.23,7.23,0,0,0-1.42-2.78,5.59,5.59,0,0,0-2.31-1.62,8.7,8.7,0,0,0-3.09-.51,7.75,7.75,0,0,0-1.91.23,9.22,9.22,0,0,0-1.65.61,8.84,8.84,0,0,0-1.4.85,12.64,12.64,0,0,0-1.13,1,11,11,0,0,0-2,2.68v19.49a2.43,2.43,0,0,1-.72,1.88,3,3,0,0,1-2.14.67,3,3,0,0,1-2.13-.67,2.45,2.45,0,0,1-.7-1.88Z"/>
    <path class="cls-6"
          d="M279.62,195.82l.68-.66.53-.46a3.55,3.55,0,0,1,.79-.51,2.21,2.21,0,0,1,1-.21,2.42,2.42,0,0,1,1.06.24,3.59,3.59,0,0,1,.9.59,2.44,2.44,0,0,1,.62.82,2.22,2.22,0,0,1,.22,1,2.07,2.07,0,0,1-.28,1.05,4.14,4.14,0,0,1-.87,1l-10.54,9.53,11.19,12.73a3.91,3.91,0,0,1,.73,1,2.3,2.3,0,0,1,.21,1,2.56,2.56,0,0,1-.27,1.18,3,3,0,0,1-.71.92,3.34,3.34,0,0,1-1,.6,3,3,0,0,1-1.12.22,2.37,2.37,0,0,1-.93-.18,2.49,2.49,0,0,1-.81-.57q-.25-.24-.45-.45a4,4,0,0,1-.49-.6l-12.65-15v14.19a2.49,2.49,0,0,1-.71,1.88,3.09,3.09,0,0,1-2.15.67,3,3,0,0,1-2.13-.67,2.49,2.49,0,0,1-.7-1.88V182.05a2.49,2.49,0,0,1,.7-1.88,3,3,0,0,1,2.13-.67,3,3,0,0,1,2.15.67,2.45,2.45,0,0,1,.71,1.87v25.49Z"/>
</svg>
